<?xml version="1.0" encoding="UTF-8" standalone="no"?>
<svg
   xmlns:dc="http://purl.org/dc/elements/1.1/"
   xmlns:cc="http://creativecommons.org/ns#"
   xmlns:rdf="http://www.w3.org/1999/02/22-rdf-syntax-ns#"
   xmlns:svg="http://www.w3.org/2000/svg"
   xmlns="http://www.w3.org/2000/svg"
   xmlns:sodipodi="http://sodipodi.sourceforge.net/DTD/sodipodi-0.dtd"
   xmlns:inkscape="http://www.inkscape.org/namespaces/inkscape"
   viewBox="0 0 32 32"
   id="svg2"
   version="1.1"
   inkscape:version="0.91 r13725"
   sodipodi:docname="preferences-plugin-script.svg"
   width="32"
   height="32">
  <metadata
     id="metadata19">
    <rdf:RDF>
      <cc:Work
         rdf:about="">
        <dc:format>image/svg+xml</dc:format>
        <dc:type
           rdf:resource="http://purl.org/dc/dcmitype/StillImage" />
        <dc:title></dc:title>
      </cc:Work>
    </rdf:RDF>
  </metadata>
  <sodipodi:namedview
     pagecolor="#ffffff"
     bordercolor="#666666"
     borderopacity="1"
     objecttolerance="10"
     gridtolerance="10"
     guidetolerance="10"
     inkscape:pageopacity="0"
     inkscape:pageshadow="2"
     inkscape:window-width="1920"
     inkscape:window-height="1134"
     id="namedview17"
     showgrid="false"
     inkscape:zoom="4.9166667"
     inkscape:cx="-32.338983"
     inkscape:cy="24"
     inkscape:window-x="1920"
     inkscape:window-y="0"
     inkscape:window-maximized="1"
     inkscape:current-layer="svg2" />
  <defs
     id="defs4">
    <linearGradient
       y2="-32.875"
       x2="0"
       y1="27.120001"
       gradientUnits="userSpaceOnUse"
       id="0">
      <stop
         stop-color="#116ef4"
         id="stop7" />
      <stop
         offset="1"
         stop-color="#02bffd"
         id="stop9" />
    </linearGradient>
  </defs>
  <g
     id="g3347"
     transform="matrix(0.58333918,0,0,0.58333918,2.0006908,1.9957654)">
    <g
       id="g11"
       transform="matrix(0.99999,0,0,0.99999,-18.371,25.882)"
       style="enable-background:new">
      <circle
         id="circle13"
         cx="42.369999"
         cy="-1.875"
         r="22.934999"
         style="fill:url(#0);stroke:url(#0);stroke-width:2.13000011" />
      <path
         id="path15"
         d="m 55.55,-1.947 -4.04,-4.04 c -0.385,-0.384 -0.265,-0.795 0.265,-0.914 0,0 0.438,-0.099 0.977,-0.638 1.158,-1.157 1.157,-3.036 0,-4.192 -1.158,-1.158 -3.035,-1.158 -4.193,0 -0.54,0.539 -0.638,0.977 -0.638,0.977 -0.119,0.531 -0.531,0.65 -0.915,0.265 l -4.04,-4.04 c -0.384,-0.385 -1.014,-0.385 -1.398,0 l -4.04,4.04 c -0.384,0.385 -0.265,0.797 0.265,0.916 0,0 0.438,0.099 0.977,0.637 1.156,1.157 1.158,3.035 0,4.194 -1.157,1.157 -3.036,1.156 -4.193,0 -0.539,-0.54 -0.638,-0.978 -0.638,-0.978 -0.119,-0.531 -0.531,-0.649 -0.915,-0.265 l -4.04,4.04 c -0.384,0.384 -0.384,1.012 0,1.397 l 4.04,4.04 c 0.384,0.384 0.265,0.796 -0.265,0.915 0,0 -0.438,0.099 -0.977,0.638 -1.158,1.158 -1.158,3.035 0,4.192 1.157,1.157 3.035,1.158 4.193,0 0.54,-0.539 0.638,-0.977 0.638,-0.977 0.119,-0.531 0.531,-0.65 0.915,-0.265 l 4.04,4.04 c 0.384,0.385 1.014,0.385 1.398,0 l 4.04,-4.04 C 47.39,7.611 47.271,7.198 46.741,7.08 c 0,0 -0.439,-0.099 -0.978,-0.637 -1.158,-1.158 -1.158,-3.035 0,-4.194 1.157,-1.157 3.035,-1.158 4.193,0 0.539,0.539 0.637,0.978 0.637,0.978 0.119,0.531 0.531,0.651 0.915,0.266 l 4.04,-4.04 c 0.384,-0.384 0.384,-1.012 0,-1.397"
         inkscape:connector-curvature="0"
         style="fill:#ffffff;fill-opacity:0.85100002" />
    </g>
  </g>
</svg>
