<?xml version="1.0" encoding="UTF-8" standalone="no"?>
<svg
   xmlns:dc="http://purl.org/dc/elements/1.1/"
   xmlns:cc="http://creativecommons.org/ns#"
   xmlns:rdf="http://www.w3.org/1999/02/22-rdf-syntax-ns#"
   xmlns:svg="http://www.w3.org/2000/svg"
   xmlns="http://www.w3.org/2000/svg"
   xmlns:sodipodi="http://sodipodi.sourceforge.net/DTD/sodipodi-0.dtd"
   xmlns:inkscape="http://www.inkscape.org/namespaces/inkscape"
   viewBox="0 0 32 32"
   id="svg2"
   version="1.1"
   inkscape:version="0.91 r13725"
   sodipodi:docname="preferences-system.svg"
   width="32"
   height="32">
  <metadata
     id="metadata19">
    <rdf:RDF>
      <cc:Work
         rdf:about="">
        <dc:format>image/svg+xml</dc:format>
        <dc:type
           rdf:resource="http://purl.org/dc/dcmitype/StillImage" />
        <dc:title></dc:title>
      </cc:Work>
    </rdf:RDF>
  </metadata>
  <sodipodi:namedview
     pagecolor="#ffffff"
     bordercolor="#666666"
     borderopacity="1"
     objecttolerance="10"
     gridtolerance="10"
     guidetolerance="10"
     inkscape:pageopacity="0"
     inkscape:pageshadow="2"
     inkscape:window-width="1920"
     inkscape:window-height="1134"
     id="namedview17"
     showgrid="false"
     inkscape:zoom="13.906433"
     inkscape:cx="23.604087"
     inkscape:cy="6.9322769"
     inkscape:window-x="1920"
     inkscape:window-y="0"
     inkscape:window-maximized="1"
     inkscape:current-layer="svg2" />
  <defs
     id="defs4">
    <linearGradient
       y2="-7.875"
       x2="0"
       y1="20.129999"
       gradientUnits="userSpaceOnUse"
       id="0">
      <stop
         stop-color="#139702"
         id="stop7" />
      <stop
         offset="1"
         stop-color="#80e950"
         id="stop9" />
    </linearGradient>
  </defs>
  <g
     id="g4138"
     transform="matrix(0.58333334,0,0,0.58333334,1.9999998,1.9999999)">
    <g
       style="enable-background:new"
       id="g11"
       transform="matrix(1.7142857,0,0,1.7142857,-49.213714,13.5)">
      <rect
         style="fill:url(#0)"
         id="rect13"
         rx="14"
         width="28"
         height="28"
         x="28.708"
         y="-7.875" />
      <path
         style="fill:#ffffff;fill-opacity:0.847;fill-rule:evenodd;stroke-width:1.31700003"
         inkscape:connector-curvature="0"
         id="path15"
         d="M 52.39,5.04 C 52.359,4.766 52.04,4.56 51.764,4.56 c -0.893,0 -1.684,-0.524 -2.02,-1.335 -0.339,-0.83 -0.121,-1.798 0.545,-2.408 0.209,-0.191 0.235,-0.512 0.059,-0.734 -0.457,-0.58 -0.976,-1.104 -1.543,-1.558 -0.222,-0.178 -0.548,-0.153 -0.74,0.06 -0.581,0.643 -1.623,0.882 -2.429,0.546 -0.839,-0.353 -1.367,-1.202 -1.316,-2.114 0.017,-0.286 -0.192,-0.536 -0.478,-0.569 -0.727,-0.084 -1.461,-0.087 -2.191,-0.006 -0.282,0.031 -0.492,0.274 -0.482,0.557 0.032,0.903 -0.503,1.738 -1.334,2.078 -0.796,0.325 -1.832,0.088 -2.411,-0.549 -0.191,-0.21 -0.512,-0.236 -0.735,-0.062 -0.584,0.458 -1.115,0.982 -1.576,1.558 -0.18,0.224 -0.153,0.548 0.058,0.74 0.678,0.614 0.897,1.59 0.545,2.43 C 35.38,3.995 34.549,4.51 33.597,4.51 33.288,4.509 33.068,4.707 33.034,4.988 32.948,5.72 32.947,6.465 33.03,7.203 c 0.031,0.275 0.36,0.479 0.639,0.479 0.848,-0.022 1.662,0.503 2,1.335 0.34,0.83 0.122,1.798 -0.545,2.408 -0.208,0.191 -0.235,0.511 -0.059,0.734 0.453,0.576 0.972,1.101 1.541,1.559 0.223,0.18 0.548,0.154 0.741,-0.059 0.583,-0.645 1.625,-0.883 2.428,-0.546 0.841,0.352 1.369,1.201 1.318,2.114 -0.017,0.287 0.194,0.536 0.478,0.569 0.372,0.043 0.747,0.065 1.122,0.065 0.356,0 0.713,-0.02 1.069,-0.059 0.282,-0.031 0.492,-0.274 0.482,-0.558 -0.033,-0.903 0.503,-1.737 1.332,-2.077 0.801,-0.327 1.833,-0.088 2.412,0.549 0.193,0.209 0.511,0.235 0.735,0.061 0.583,-0.457 1.112,-0.981 1.576,-1.558 0.18,-0.223 0.154,-0.548 -0.058,-0.74 -0.678,-0.614 -0.898,-1.59 -0.546,-2.43 0.331,-0.79 1.131,-1.32 1.992,-1.32 l 0.12,0.003 c 0.279,0.023 0.536,-0.192 0.57,-0.477 0.086,-0.732 0.087,-1.477 0.004,-2.215 m -9.663,4.351 c -1.791,0 -3.249,-1.457 -3.249,-3.249 0,-1.791 1.457,-3.249 3.249,-3.249 1.791,0 3.248,1.457 3.248,3.249 0,1.791 -1.457,3.249 -3.248,3.249" />
    </g>
  </g>
</svg>
