<?xml version="1.0" encoding="UTF-8" standalone="no"?>
<!-- Created with Inkscape (http://www.inkscape.org/) -->

<svg
   xmlns:dc="http://purl.org/dc/elements/1.1/"
   xmlns:cc="http://creativecommons.org/ns#"
   xmlns:rdf="http://www.w3.org/1999/02/22-rdf-syntax-ns#"
   xmlns:svg="http://www.w3.org/2000/svg"
   xmlns="http://www.w3.org/2000/svg"
   xmlns:xlink="http://www.w3.org/1999/xlink"
   xmlns:sodipodi="http://sodipodi.sourceforge.net/DTD/sodipodi-0.dtd"
   xmlns:inkscape="http://www.inkscape.org/namespaces/inkscape"
   width="32"
   version="1.1"
   height="32"
   id="svg2"
   inkscape:version="0.91 r13725"
   sodipodi:docname="drive-removable-media.svg">
  <sodipodi:namedview
     pagecolor="#ffffff"
     bordercolor="#666666"
     borderopacity="1"
     objecttolerance="10"
     gridtolerance="10"
     guidetolerance="10"
     inkscape:pageopacity="0"
     inkscape:pageshadow="2"
     inkscape:window-width="1366"
     inkscape:window-height="700"
     id="namedview37"
     showgrid="false"
     inkscape:zoom="7.375"
     inkscape:cx="16"
     inkscape:cy="9.6420542"
     inkscape:window-x="0"
     inkscape:window-y="0"
     inkscape:window-maximized="1"
     inkscape:current-layer="layer1" />
  <defs
     id="defs5455">
    <linearGradient
       inkscape:collect="always"
       id="linearGradient4303">
      <stop
         style="stop-color:#c6cdd1"
         id="stop4305" />
      <stop
         offset="1"
         style="stop-color:#e0e5e7"
         id="stop4307" />
    </linearGradient>
    <linearGradient
       inkscape:collect="always"
       id="linearGradient4143-8">
      <stop
         style="stop-color:#faae2a"
         id="stop4145-7" />
      <stop
         offset="1"
         style="stop-color:#ffc35a"
         id="stop4147-4" />
    </linearGradient>
    <linearGradient
       gradientTransform="matrix(1.1369245,0,0,0.97685682,-50.280789,11.363991)"
       y2="521.79797"
       x2="400.57144"
       y1="521.79797"
       x1="398.57144"
       gradientUnits="userSpaceOnUse"
       id="linearGradient4375-3"
       xlink:href="#linearGradient4143-8"
       inkscape:collect="always" />
    <linearGradient
       gradientTransform="matrix(1.1369245,0,0,0.97685682,-57.102349,11.363991)"
       gradientUnits="userSpaceOnUse"
       y2="521.79797"
       x2="400.57144"
       y1="521.79797"
       x1="398.57144"
       id="linearGradient4371-5"
       xlink:href="#linearGradient4143-8"
       inkscape:collect="always" />
    <linearGradient
       inkscape:collect="always"
       xlink:href="#linearGradient5240"
       id="linearGradient5246"
       x1="422.57144"
       y1="520.79797"
       x2="422.57144"
       y2="575.79797"
       gradientUnits="userSpaceOnUse"
       gradientTransform="matrix(0.56846225,0,0,0.33342733,168.33354,354.76408)" />
    <linearGradient
       inkscape:collect="always"
       id="linearGradient5240">
      <stop
         style="stop-color:#52c6f9;stop-opacity:1"
         offset="0"
         id="stop5242" />
      <stop
         style="stop-color:#3c99f3;stop-opacity:1"
         offset="1"
         id="stop5244" />
    </linearGradient>
    <linearGradient
       y2="528.79791"
       x2="416.96021"
       y1="551.79791"
       x1="416.96021"
       gradientTransform="matrix(0.36146844,0,0,0.48842842,250.33488,258.89858)"
       gradientUnits="userSpaceOnUse"
       id="linearGradient4319"
       xlink:href="#linearGradient4303"
       inkscape:collect="always" />
  </defs>
  <metadata
     id="metadata5458">
    <rdf:RDF>
      <cc:Work
         rdf:about="">
        <dc:format>image/svg+xml</dc:format>
        <dc:type
           rdf:resource="http://purl.org/dc/dcmitype/StillImage" />
        <dc:title></dc:title>
      </cc:Work>
    </rdf:RDF>
  </metadata>
  <g
     inkscape:label="Capa 1"
     inkscape:groupmode="layer"
     id="layer1"
     transform="matrix(1 0 0 1 -384.57143 -515.798)">
    <g
       id="g4238">
      <rect
         style="opacity:1;fill:url(#linearGradient4319);fill-opacity:1;stroke:none"
         id="rect4317"
         width="14.780019"
         height="11.722217"
         x="393.20099"
         y="517.17853"
         ry="0" />
      <rect
         ry="0"
         y="528.41235"
         x="391.49561"
         height="18.005085"
         width="18.19079"
         id="rect4139"
         style="opacity:1;fill:url(#linearGradient5246);fill-opacity:1;stroke:none" />
      <rect
         y="545.9093"
         x="391.45648"
         height="0.48843953"
         width="18.190792"
         id="rect4492"
         style="opacity:0.2;fill:#000000;fill-opacity:1;stroke:none;stroke-width:2.79999995;stroke-miterlimit:4;stroke-dasharray:none;stroke-opacity:0.55026455" />
      <rect
         y="519.1322"
         x="394.90637"
         height="3.9074528"
         width="4.5477276"
         id="rect4359-6"
         style="opacity:1;fill:#23262c;fill-opacity:1;stroke:none" />
      <rect
         style="opacity:1;fill:#23262c;fill-opacity:1;stroke:none"
         id="rect4361-2"
         width="4.5477276"
         height="3.9074528"
         x="401.72797"
         y="519.1322" />
      <rect
         y="519.1322"
         x="396.0433"
         height="3.9074273"
         width="2.2738626"
         id="rect4363-9"
         style="opacity:1;fill:url(#linearGradient4371-5);fill-opacity:1;stroke:none" />
      <rect
         style="opacity:1;fill:url(#linearGradient4375-3);fill-opacity:1;stroke:none"
         id="rect4373-1"
         width="2.2738626"
         height="3.9074273"
         x="402.8649"
         y="519.1322" />
      <g
         style="fill:#ffffff"
         transform="matrix(0,-0.16244479,0.15260436,0,336.1138,518.94771)"
         id="XMLID_2_">
        <path
           style="fill:#ffffff"
           inkscape:connector-curvature="0"
           id="XMLID_4_"
           class="st0"
           d="m -97.029578,447.97561 c 0.3,0.1 0.4,0.3 0.4,0.6 0,0.3 -0.1,0.5 -0.4,0.6 l -7.600002,4.6 c -0.1,0.1 -0.3,0.1 -0.4,0.1 -0.1,0 -0.3,0 -0.4,-0.1 -0.3,-0.2 -0.4,-0.4 -0.4,-0.7 l 0,-3.1 -20.4,0 c 0.6,0.9 1.2,2.2 2,3.9 0.3,0.6 0.4,1 0.6,1.3 0.2,0.3 0.3,0.7 0.6,1.2 0.3,0.5 0.5,0.9 0.6,1.1 0.2,0.3 0.4,0.5 0.6,0.8 0.2,0.3 0.5,0.5 0.8,0.6 0.3,0.1 0.5,0.2 0.8,0.2 l 2.3,0 0,-2.3 c 0,-0.2 0.1,-0.4 0.2,-0.5 0.1,-0.1 0.3,-0.2 0.5,-0.2 l 7.6,0 c 0.2,0 0.4,0.1 0.5,0.2 0.1,0.1 0.2,0.3 0.2,0.5 l 0,7.8 c 0,0.2 -0.1,0.4 -0.2,0.5 -0.1,0.1 -0.3,0.2 -0.5,0.2 l -7.6,0 c -0.2,0 -0.4,-0.1 -0.5,-0.2 -0.1,-0.1 -0.2,-0.3 -0.2,-0.5 l 0,-2.3 -2.3,0 c -0.5,0 -1,-0.1 -1.5,-0.2 -0.5,-0.1 -0.9,-0.3 -1.2,-0.6 -0.4,-0.2 -0.7,-0.5 -1.1,-1 -0.4,-0.5 -0.7,-0.8 -0.9,-1.1 -0.2,-0.3 -0.5,-0.8 -0.8,-1.4 -0.3,-0.6 -0.5,-1.1 -0.7,-1.4 -0.1,-0.3 -0.4,-0.8 -0.7,-1.4 -0.4,-0.8 -0.7,-1.5 -0.9,-1.9 -0.2,-0.5 -0.5,-1 -0.9,-1.6 -0.4,-0.6 -0.7,-1 -1.1,-1.3 -0.4,-0.3 -0.7,-0.4 -1.1,-0.4 l -8.6,0 c -0.4,1.3 -1.1,2.4 -2.2,3.3 -1.1,0.9 -2.3,1.3 -3.7,1.3 -1.7,0 -3.1,-0.6 -4.3,-1.8 -1.2,-1.2 -1.8,-2.6 -1.8,-4.3 0,-1.7 0.6,-3.1 1.8,-4.3 1.2,-1.2 2.6,-1.8 4.3,-1.8 1.4,0 2.6,0.4 3.7,1.3 1.1,0.9 1.8,2 2.2,3.3 l 2.6,0 c 0.4,0 0.8,-0.1 1.1,-0.4 0.4,-0.3 0.7,-0.7 1.1,-1.3 0.4,-0.6 0.6,-1.1 0.9,-1.6 0.2,-0.5 0.5,-1.1 0.9,-1.9 0.3,-0.7 0.5,-1.1 0.7,-1.4 0.1,-0.3 0.4,-0.8 0.7,-1.4 0.3,-0.6 0.6,-1.1 0.8,-1.4 0.2,-0.3 0.5,-0.7 0.9,-1.1 0.4,-0.4 0.7,-0.8 1.1,-1 0.4,-0.2 0.8,-0.4 1.2,-0.6 0.5,-0.2 0.9,-0.2 1.5,-0.2 l 2.6,0 c 0.3,-0.9 0.9,-1.6 1.7,-2.2 0.8,-0.6 1.7,-0.8 2.6,-0.8 1.3,0 2.4,0.4 3.2,1.3 0.9,0.9 1.3,2 1.3,3.2 0,1.2 -0.4,2.4 -1.3,3.2 -0.9,0.8 -2,1.3 -3.2,1.3 -1,0 -1.9,-0.3 -2.6,-0.8 -0.7,-0.5 -1.3,-1.3 -1.7,-2.2 l -2.6,0 c -0.3,0 -0.5,0.1 -0.8,0.2 -0.3,0.1 -0.5,0.3 -0.8,0.6 -0.2,0.3 -0.5,0.6 -0.6,0.8 -0.2,0.3 -0.4,0.6 -0.6,1.1 -0.2,0.5 -0.4,0.9 -0.6,1.2 -0.2,0.3 -0.3,0.7 -0.6,1.3 -0.7,1.7 -1.4,3 -2,3.9 l 26.6,0 0,-3.1 c 0,-0.3 0.1,-0.5 0.4,-0.7 0.3,-0.2 0.5,-0.2 0.8,0 z" />
      </g>
    </g>
  </g>
</svg>
