<?xml version="1.0" encoding="UTF-8" standalone="no"?>
<svg
   xmlns:dc="http://purl.org/dc/elements/1.1/"
   xmlns:cc="http://creativecommons.org/ns#"
   xmlns:rdf="http://www.w3.org/1999/02/22-rdf-syntax-ns#"
   xmlns:svg="http://www.w3.org/2000/svg"
   xmlns="http://www.w3.org/2000/svg"
   xmlns:xlink="http://www.w3.org/1999/xlink"
   xmlns:sodipodi="http://sodipodi.sourceforge.net/DTD/sodipodi-0.dtd"
   xmlns:inkscape="http://www.inkscape.org/namespaces/inkscape"
   viewBox="0 0 32 32"
   id="svg2"
   version="1.1"
   inkscape:version="0.91 r13725"
   sodipodi:docname="preferences-plugin.svg"
   width="32"
   height="32">
  <metadata
     id="metadata42">
    <rdf:RDF>
      <cc:Work
         rdf:about="">
        <dc:format>image/svg+xml</dc:format>
        <dc:type
           rdf:resource="http://purl.org/dc/dcmitype/StillImage" />
        <dc:title></dc:title>
      </cc:Work>
    </rdf:RDF>
  </metadata>
  <sodipodi:namedview
     pagecolor="#ffffff"
     bordercolor="#666666"
     borderopacity="1"
     objecttolerance="10"
     gridtolerance="10"
     guidetolerance="10"
     inkscape:pageopacity="0"
     inkscape:pageshadow="2"
     inkscape:window-width="1920"
     inkscape:window-height="1134"
     id="namedview40"
     showgrid="false"
     inkscape:zoom="4.9166667"
     inkscape:cx="-32.338983"
     inkscape:cy="24"
     inkscape:window-x="1920"
     inkscape:window-y="0"
     inkscape:window-maximized="1"
     inkscape:current-layer="svg2" />
  <defs
     id="defs4">
    <linearGradient
       gradientUnits="userSpaceOnUse"
       y1="545.62"
       x2="0"
       y2="517.62"
       id="linearGradient6">
      <stop
         stop-color="#e3e3e3"
         id="stop8" />
      <stop
         offset="1"
         stop-color="#fcf9f9"
         id="stop10" />
    </linearGradient>
    <linearGradient
       gradientUnits="userSpaceOnUse"
       y2="517.29999"
       x2="0"
       y1="546.29999"
       id="linearGradient12">
      <stop
         stop-color="#00cafe"
         id="stop14" />
      <stop
         offset="1"
         stop-color="#1460f3"
         id="stop16" />
    </linearGradient>
    <linearGradient
       y2="515.23999"
       x2="0"
       y1="550.27002"
       gradientUnits="userSpaceOnUse"
       id="3"
       gradientTransform="matrix(0.9132313,0,0,0.9132313,-595.96844,-794.03583)">
      <stop
         stop-color="#116ef4"
         id="stop19" />
      <stop
         offset="1"
         stop-color="#02bffd"
         id="stop21" />
    </linearGradient>
    <linearGradient
       gradientUnits="userSpaceOnUse"
       y2="517.62"
       x2="0"
       y1="545.62"
       id="2">
      <stop
         stop-color="#d3d3d3"
         id="stop24" />
      <stop
         offset="1"
         stop-color="#fcf9f9"
         id="stop26" />
    </linearGradient>
    <linearGradient
       gradientUnits="userSpaceOnUse"
       y2="517.21997"
       x2="0"
       y1="545.21997"
       id="1"
       xlink:href="#0" />
    <linearGradient
       id="0">
      <stop
         stop-color="#333538"
         id="stop30" />
      <stop
         offset="1"
         stop-color="#566069"
         id="stop32" />
    </linearGradient>
    <linearGradient
       gradientUnits="userSpaceOnUse"
       x2="11.758"
       x1="2.819"
       xlink:href="#0"
       id="linearGradient34" />
  </defs>
  <circle
     cx="16"
     cy="16"
     r="13.378839"
     id="circle36"
     style="fill:url(#3);stroke:url(#3);stroke-width:1.24232078" />
  <path
     d="m 23.745581,15.592645 -2.35567,-2.355651 c -0.22443,-0.224043 -0.154468,-0.463613 0.154792,-0.533216 0,0 0.255446,-0.05759 0.570089,-0.372194 0.675503,-0.674973 0.674903,-1.77087 0,-2.4448984 -0.675819,-0.6753499 -1.770379,-0.6753499 -2.445949,0 -0.31493,0.3145844 -0.371932,0.5695764 -0.371932,0.5695764 -0.06964,0.309806 -0.30989,0.379088 -0.53369,0.15443 L 16.407552,8.2566464 c -0.224115,-0.2243647 -0.591304,-0.2243647 -0.81538,0 L 13.236788,10.61107 c -0.22379,0.224686 -0.154468,0.464841 0.154793,0.534161 0,0 0.25577,0.0576 0.570088,0.371532 0.674521,0.674972 0.675504,1.770209 0,2.445843 -0.675189,0.674972 -1.771333,0.674406 -2.445949,0 -0.314328,-0.314867 -0.371941,-0.570237 -0.371941,-0.570237 -0.06932,-0.309494 -0.30989,-0.378804 -0.534005,-0.154752 l -2.3553828,2.355085 c -0.2241153,0.224043 -0.2241153,0.590542 0,0.814557 l 2.3553828,2.355085 c 0.224115,0.224053 0.154468,0.464274 -0.154792,0.533877 0,0 -0.255446,0.05759 -0.570089,0.372193 -0.675503,0.675351 -0.675503,1.769927 0,2.4449 0.675189,0.674689 1.770379,0.67535 2.445949,0 0.31493,-0.314585 0.371941,-0.569576 0.371941,-0.569576 0.06964,-0.309806 0.3099,-0.379088 0.533691,-0.154431 l 2.355669,2.354046 c 0.224115,0.224365 0.591303,0.224365 0.81538,0 l 2.356051,-2.354707 c 0.224115,-0.224052 0.154468,-0.46484 -0.154792,-0.533877 0,0 -0.256085,-0.05759 -0.570413,-0.371532 -0.675819,-0.675351 -0.675504,-1.77021 0,-2.445843 0.675188,-0.674973 1.770378,-0.675634 2.445949,0 0.314643,0.314584 0.371616,0.570237 0.371616,0.570237 0.06964,0.309493 0.309575,0.379465 0.534005,0.155375 l 2.35567,-2.355652 c 0.224115,-0.224043 0.224115,-0.590542 0,-0.814557"
     id="path38"
     inkscape:connector-curvature="0"
     style="fill:#ffffff;fill-opacity:0.85100002;stroke:none;stroke-width:1634.15002441;stroke-opacity:0.8" />
</svg>
