<?xml version="1.0" encoding="UTF-8" standalone="no"?>
<svg
   xmlns:dc="http://purl.org/dc/elements/1.1/"
   xmlns:cc="http://creativecommons.org/ns#"
   xmlns:rdf="http://www.w3.org/1999/02/22-rdf-syntax-ns#"
   xmlns:svg="http://www.w3.org/2000/svg"
   xmlns="http://www.w3.org/2000/svg"
   xmlns:sodipodi="http://sodipodi.sourceforge.net/DTD/sodipodi-0.dtd"
   xmlns:inkscape="http://www.inkscape.org/namespaces/inkscape"
   height="32"
   width="32"
   id="svg2"
   version="1.1"
   inkscape:version="0.91 r13725"
   sodipodi:docname="preferences-system-privacy.svg">
  <metadata
     id="metadata27">
    <rdf:RDF>
      <cc:Work
         rdf:about="">
        <dc:format>image/svg+xml</dc:format>
        <dc:type
           rdf:resource="http://purl.org/dc/dcmitype/StillImage" />
        <dc:title></dc:title>
      </cc:Work>
    </rdf:RDF>
  </metadata>
  <defs
     id="defs25" />
  <sodipodi:namedview
     pagecolor="#ffffff"
     bordercolor="#666666"
     borderopacity="1"
     objecttolerance="10"
     gridtolerance="10"
     guidetolerance="10"
     inkscape:pageopacity="0"
     inkscape:pageshadow="2"
     inkscape:window-width="1920"
     inkscape:window-height="1134"
     id="namedview23"
     showgrid="false"
     inkscape:zoom="4.9166667"
     inkscape:cx="24"
     inkscape:cy="24"
     inkscape:window-x="1920"
     inkscape:window-y="0"
     inkscape:window-maximized="1"
     inkscape:current-layer="svg2" />
  <linearGradient
     gradientUnits="userSpaceOnUse"
     x1="0"
     x2="47"
     y1="23.5"
     y2="23.5"
     id="linearGradient4">
    <stop
       offset="0"
       stop-color="#a9a3d4"
       id="stop6" />
    <stop
       offset=".47001833"
       stop-color="#87baff"
       id="stop8" />
    <stop
       offset="1"
       stop-color="#89ec85"
       id="stop10" />
  </linearGradient>
  <linearGradient
     id="a"
     gradientUnits="userSpaceOnUse"
     x1="400.57144"
     x2="400.57144"
     y1="545.79797"
     y2="517.79797">
    <stop
       offset="0"
       stop-color="#ff9300"
       id="stop13" />
    <stop
       offset="1"
       stop-color="#ffd702"
       id="stop15" />
  </linearGradient>
  <g
     transform="matrix(0.61171925,0,0,0.61171925,-296.44194,-306.20834)"
     id="g17"
     style="stroke-width:1.31742203">
    <rect
       height="28.000027"
       ry="14.000006"
       transform="matrix(1.6347353,0,0,1.6347353,-144.06794,-342.6231)"
       width="28.000011"
       x="386.57144"
       y="517.79797"
       id="rect19"
       style="fill:url(#a)" />
    <path
       d="m -1.7259783,1033.5359 -6.4149539,0 0,-1.9801 c 0,-1.7686 1.4388492,-3.2074 3.2074779,-3.2074 1.768626,0 3.207476,1.4389 3.207476,3.2074 z m 1.71113302,0.018 0,-1.9983 c 0,-2.7121 -2.20646302,-4.9187 -4.91860902,-4.9187 -2.7121476,0 -4.9186118,2.2066 -4.9186118,4.9187 l 0,1.9983 c -0.3876139,0.081 -0.6796619,0.4259 -0.6796619,0.8373 l 0,7.4883 c 0,0.4717 0.383807,0.8555 0.8555664,0.8555 l 9.48536932,0 c 0.471759,0 0.855566,-0.3838 0.855566,-0.8555 l 0,-7.4883 c 0,-0.4114 -0.292003,-0.7559 -0.679619,-0.8373 z"
       transform="matrix(1.4908591,0,0,1.4908591,518.11546,-1015.8452)"
       id="path21"
       inkscape:connector-curvature="0"
       style="fill-opacity:0.796296" />
  </g>
</svg>
