<?xml version="1.0" encoding="UTF-8" standalone="no"?>
<svg
   xmlns:dc="http://purl.org/dc/elements/1.1/"
   xmlns:cc="http://creativecommons.org/ns#"
   xmlns:rdf="http://www.w3.org/1999/02/22-rdf-syntax-ns#"
   xmlns:svg="http://www.w3.org/2000/svg"
   xmlns="http://www.w3.org/2000/svg"
   xmlns:xlink="http://www.w3.org/1999/xlink"
   xmlns:sodipodi="http://sodipodi.sourceforge.net/DTD/sodipodi-0.dtd"
   xmlns:inkscape="http://www.inkscape.org/namespaces/inkscape"
   height="32"
   width="32"
   id="svg2"
   version="1.1"
   inkscape:version="0.91 r13725"
   sodipodi:docname="preferences-system-time.svg">
  <metadata
     id="metadata32">
    <rdf:RDF>
      <cc:Work
         rdf:about="">
        <dc:format>image/svg+xml</dc:format>
        <dc:type
           rdf:resource="http://purl.org/dc/dcmitype/StillImage" />
        <dc:title></dc:title>
      </cc:Work>
    </rdf:RDF>
  </metadata>
  <defs
     id="defs30" />
  <sodipodi:namedview
     pagecolor="#ffffff"
     bordercolor="#666666"
     borderopacity="1"
     objecttolerance="10"
     gridtolerance="10"
     guidetolerance="10"
     inkscape:pageopacity="0"
     inkscape:pageshadow="2"
     inkscape:window-width="1920"
     inkscape:window-height="1134"
     id="namedview28"
     showgrid="false"
     inkscape:zoom="4.9166667"
     inkscape:cx="24"
     inkscape:cy="24"
     inkscape:window-x="1920"
     inkscape:window-y="0"
     inkscape:window-maximized="1"
     inkscape:current-layer="svg2" />
  <linearGradient
     id="a">
    <stop
       offset="0"
       stop-color="#b3b3b3"
       id="stop5" />
    <stop
       offset="1"
       stop-color="#fff"
       id="stop7" />
  </linearGradient>
  <linearGradient
     id="b"
     gradientUnits="userSpaceOnUse"
     x1="408.57135"
     x2="408.57135"
     y1="546.7981"
     y2="500.79807">
    <stop
       offset="0"
       stop-color="#2a2c2f"
       id="stop10" />
    <stop
       offset="1"
       stop-color="#424649"
       id="stop12" />
  </linearGradient>
  <linearGradient
     id="c"
     gradientUnits="userSpaceOnUse"
     x1="412.17783"
     x2="411.36191"
     xlink:href="#a"
     y1="529.71393"
     y2="508.09421" />
  <linearGradient
     id="d"
     gradientUnits="userSpaceOnUse"
     x1="408.57135"
     x2="408.57135"
     xlink:href="#a"
     y1="546.7981"
     y2="500.79807" />
  <g
     transform="matrix(0.58333333,0,0,0.58333333,-222.33334,-289.54883)"
     id="g16">
    <rect
       height="46"
       ry="23"
       width="46"
       x="385.57144"
       y="500.798"
       id="rect18"
       style="fill:url(#b)" />
    <rect
       height="46"
       ry="23"
       width="46"
       x="385.57144"
       y="500.798"
       id="rect20"
       style="fill:none;stroke:url(#d);stroke-width:2" />
    <path
       d="m 27.705078,8.5175781 c 0.20654,0.20651 0.311419,0.50443 0.261719,0.8125 L 25.855469,22.439453 c 0.30767,0.40112 0.506812,0.881483 0.570312,1.408203 l 15.085938,15.085938 c 2.699858,-3.166182 4.556913,-7.075316 5.21875,-11.390625 z M 21.513672,26.242188 37.740234,42.46875 c 1.380242,-1.026644 2.635911,-2.208207 3.751954,-3.513672 l -8.00586,-8.005859 c -0.205084,0.31589 -0.611272,0.424923 -0.949219,0.265625 l -0.08594,-0.08594 -8.039063,-4.177734 c -0.27055,0.08371 -0.551759,0.140625 -0.849609,0.140625 -0.79898,0 -1.524108,-0.324889 -2.048828,-0.849609 z"
       transform="translate(384.57143,499.798)"
       id="path22"
       inkscape:connector-curvature="0"
       style="fill-opacity:0.07843101" />
    <path
       d="m 411.04034,523.82005 c -0.0635,-0.52672 -0.26365,-1.00708 -0.57132,-1.4082 l 2.11232,-13.10924 c 0.0787,-0.48776 -0.23428,-0.9528 -0.71558,-1.06398 l -0.0237,-0.005 c -0.48129,-0.11132 -0.96632,0.16974 -1.10954,0.64255 l -3.84809,12.70827 c -0.94832,0.47684 -1.60662,1.44885 -1.60662,2.58091 0,1.59844 1.29982,2.89904 2.89818,2.89904 0.29785,0 0.57951,-0.0582 0.85006,-0.14191 l 8.03911,4.17771 c 0.4423,0.22977 0.98673,0.0863 1.25815,-0.33178 l 0.0115,-0.0184 c 0.2715,-0.41791 0.18124,-0.97374 -0.20884,-1.28424 z m -4.29579,0.34496 c 0,-0.78925 0.64239,-1.43162 1.43161,-1.43162 0.78994,0 1.43231,0.64237 1.43231,1.43162 0,0.78982 -0.64237,1.4323 -1.43231,1.4323 -0.78922,0 -1.43161,-0.64239 -1.43161,-1.4323 z"
       id="path24"
       style="fill:url(#c)"
       inkscape:connector-curvature="0" />
    <path
       d="m 27.705078,8.5175781 c 0.20654,0.20651 0.311419,0.50443 0.261719,0.8125 L 25.855469,22.439453 c 0.30767,0.40112 0.506812,0.881483 0.570312,1.408203 l 15.085938,15.085938 c 2.699858,-3.166182 4.556913,-7.075316 5.21875,-11.390625 z M 21.513672,26.242188 37.740234,42.46875 c 1.380242,-1.026644 2.635911,-2.208207 3.751954,-3.513672 l -8.00586,-8.005859 c -0.205084,0.31589 -0.611272,0.424923 -0.949219,0.265625 l -0.08594,-0.08594 -8.039063,-4.177734 c -0.27055,0.08371 -0.551759,0.140625 -0.849609,0.140625 -0.79898,0 -1.524108,-0.324889 -2.048828,-0.849609 z"
       transform="translate(384.57143,499.798)"
       id="path26"
       inkscape:connector-curvature="0"
       style="fill-opacity:0.07843101" />
  </g>
</svg>
