<?xml version="1.0" encoding="UTF-8" standalone="no"?>
<!-- Created with Inkscape (http://www.inkscape.org/) -->

<svg
   xmlns:dc="http://purl.org/dc/elements/1.1/"
   xmlns:cc="http://creativecommons.org/ns#"
   xmlns:rdf="http://www.w3.org/1999/02/22-rdf-syntax-ns#"
   xmlns:svg="http://www.w3.org/2000/svg"
   xmlns="http://www.w3.org/2000/svg"
   xmlns:xlink="http://www.w3.org/1999/xlink"
   xmlns:sodipodi="http://sodipodi.sourceforge.net/DTD/sodipodi-0.dtd"
   xmlns:inkscape="http://www.inkscape.org/namespaces/inkscape"
   width="32"
   version="1.1"
   height="32"
   id="svg2"
   inkscape:version="0.91 r13725"
   sodipodi:docname="preferences-desktop-peripherals.svg">
  <sodipodi:namedview
     pagecolor="#ffffff"
     bordercolor="#666666"
     borderopacity="1"
     objecttolerance="10"
     gridtolerance="10"
     guidetolerance="10"
     inkscape:pageopacity="0"
     inkscape:pageshadow="2"
     inkscape:window-width="1366"
     inkscape:window-height="700"
     id="namedview47"
     showgrid="false"
     showguides="true"
     inkscape:guide-bbox="true"
     inkscape:zoom="14.75"
     inkscape:cx="4.223525"
     inkscape:cy="15.006231"
     inkscape:window-x="0"
     inkscape:window-y="0"
     inkscape:window-maximized="1"
     inkscape:current-layer="layer1" />
  <defs
     id="defs5455">
    <filter
       inkscape:collect="always"
       style="color-interpolation-filters:sRGB"
       id="filter4202"
       x="-0.084207863"
       width="1.1684157"
       y="-0.045643296"
       height="1.0912867">
      <feGaussianBlur
         inkscape:collect="always"
         stdDeviation="1.1557291"
         id="feGaussianBlur4204" />
    </filter>
    <linearGradient
       gradientTransform="translate(-2.7297668e-5,4.6176758e-5)"
       inkscape:collect="always"
       xlink:href="#linearGradient4143"
       id="linearGradient4149"
       y1="545.79797"
       y2="517.79797"
       x2="0"
       gradientUnits="userSpaceOnUse" />
    <linearGradient
       inkscape:collect="always"
       id="linearGradient4143">
      <stop
         style="stop-color:#700000;stop-opacity:1"
         id="stop4145" />
      <stop
         offset="1"
         style="stop-color:#de220c;stop-opacity:1"
         id="stop4147" />
    </linearGradient>
  </defs>
  <metadata
     id="metadata5458">
    <rdf:RDF>
      <cc:Work
         rdf:about="">
        <dc:format>image/svg+xml</dc:format>
        <dc:type
           rdf:resource="http://purl.org/dc/dcmitype/StillImage" />
        <dc:title />
      </cc:Work>
    </rdf:RDF>
  </metadata>
  <g
     inkscape:label="Capa 1"
     inkscape:groupmode="layer"
     id="layer1"
     transform="matrix(1 0 0 1 -384.57143 -515.798)">
    <rect
       width="28.00001"
       x="386.57141"
       y="517.79797"
       rx="14.00001"
       height="28.000031"
       style="fill:url(#linearGradient4149)"
       id="rect4130" />
    <g
       id="XMLID_2_"
       transform="matrix(0,-0.3043787,0.25441979,0,286.81751,494.00038)"
       style="fill:#ffffff">
      <path
         style="opacity:0.2;fill:#000000;fill-opacity:1;filter:url(#filter4202)"
         inkscape:connector-curvature="0"
         id="path4184"
         class="st0"
         d="m -97.029578,446.5705 c 0.3,0.10813 0.4,0.32437 0.4,0.64874 0,0.32436 -0.1,0.54061 -0.4,0.64873 l -7.600002,4.97361 c -0.1,0.10812 -0.3,0.10812 -0.4,0.10812 -0.1,0 -0.3,0 -0.4,-0.10812 -0.3,-0.21624 -0.4,-0.43249 -0.4,-0.75685 l 0,-3.35179 -20.4,0 c 0.6,0.9731 1.2,2.37869 2,4.21676 0.3,0.64873 0.4,1.08122 0.6,1.40559 0.2,0.32436 0.3,0.75685 0.6,1.29746 0.3,0.54061 0.5,0.9731 0.6,1.18934 0.2,0.32437 0.4,0.54061 0.6,0.86498 0.2,0.32437 0.5,0.54061 0.8,0.64873 0.3,0.10812 0.5,0.21625 0.8,0.21625 l 2.3,0 0,-2.48681 c 0,-0.21624 0.1,-0.43249 0.2,-0.54061 0.1,-0.10812 0.3,-0.21624 0.5,-0.21624 l 7.6,0 c 0.2,0 0.4,0.10812 0.5,0.21624 0.1,0.10812 0.2,0.32437 0.2,0.54061 l 0,8.43352 c 0,0.21624 -0.1,0.43248 -0.2,0.54061 -0.1,0.10812 -0.3,0.21624 -0.5,0.21624 l -7.6,0 c -0.2,0 -0.4,-0.10812 -0.5,-0.21624 -0.1,-0.10813 -0.2,-0.32437 -0.2,-0.54061 l 0,-2.48681 -2.3,0 c -0.5,0 -1,-0.10812 -1.5,-0.21624 -0.5,-0.10813 -0.9,-0.32437 -1.2,-0.64874 -0.4,-0.21624 -0.7,-0.54061 -1.1,-1.08122 -0.4,-0.54061 -0.7,-0.86497 -0.9,-1.18934 -0.2,-0.32436 -0.5,-0.86497 -0.8,-1.51371 -0.3,-0.64873 -0.5,-1.18934 -0.7,-1.5137 -0.1,-0.32437 -0.4,-0.86498 -0.7,-1.51371 -0.4,-0.86498 -0.7,-1.62183 -0.9,-2.05432 -0.2,-0.54061 -0.5,-1.08122 -0.9,-1.72995 -0.4,-0.64873 -0.7,-1.08122 -1.1,-1.40559 -0.4,-0.32436 -0.7,-0.43249 -1.1,-0.43249 l -8.6,0 c -0.4,1.40559 -1.1,2.59493 -2.2,3.56803 -1.1,0.9731 -2.3,1.40559 -3.7,1.40559 -1.7,0 -3.1,-0.64874 -4.3,-1.9462 -1.2,-1.29746 -1.8,-2.81117 -1.8,-4.64925 0,-1.83807 0.6,-3.35178 1.8,-4.64924 1.2,-1.29747 2.6,-1.9462 4.3,-1.9462 1.4,0 2.6,0.43249 3.7,1.40559 1.1,0.9731 1.8,2.16244 2.2,3.56802 l 2.6,0 c 0.4,0 0.8,-0.10812 1.1,-0.43248 0.4,-0.32437 0.7,-0.75686 1.1,-1.40559 0.4,-0.64873 0.6,-1.18934 0.9,-1.72995 0.2,-0.54061 0.5,-1.18934 0.9,-2.05432 0.3,-0.75685 0.5,-1.18934 0.7,-1.51371 0.1,-0.32436 0.4,-0.86497 0.7,-1.51371 0.3,-0.64873 0.6,-1.18934 0.8,-1.5137 0.2,-0.32437 0.5,-0.75686 0.9,-1.18935 0.4,-0.43249 0.7,-0.86497 1.1,-1.08122 0.4,-0.21624 0.8,-0.43249 1.2,-0.64873 0.5,-0.21624 0.9,-0.21624 1.5,-0.21624 l 2.6,0 c 0.3,-0.9731 0.9,-1.72996 1.7,-2.37869 0.8,-0.64873 1.7,-0.86497 2.6,-0.86497 1.3,0 2.4,0.43248 3.2,1.40558 0.9,0.9731 1.3,2.16244 1.3,3.45991 0,1.29746 -0.4,2.59493 -1.3,3.4599 -0.9,0.86498 -2,1.40559 -3.2,1.40559 -1,0 -1.9,-0.32437 -2.6,-0.86498 -0.7,-0.54061 -1.3,-1.40558 -1.7,-2.37868 l -2.6,0 c -0.3,0 -0.5,0.10812 -0.8,0.21624 -0.3,0.10812 -0.5,0.32437 -0.8,0.64873 -0.2,0.32437 -0.5,0.64874 -0.6,0.86498 -0.2,0.32437 -0.4,0.64873 -0.6,1.18934 -0.2,0.54061 -0.4,0.9731 -0.6,1.29747 -0.2,0.32436 -0.3,0.75685 -0.6,1.40558 -0.7,1.83808 -1.4,3.24366 -2,4.21676 l 26.6,0 0,-3.35178 c 0,-0.32437 0.1,-0.54061 0.4,-0.75686 0.3,-0.21624 0.5,-0.21624 0.8,0 z" />
    </g>
    <g
       id="XMLID_2_-3"
       transform="matrix(0,-0.28788821,0.26102684,0,283.50726,496.04816)"
       style="fill:#ffffff">
      <path
         d="m -97.029578,447.97561 c 0.3,0.1 0.4,0.3 0.4,0.6 0,0.3 -0.1,0.5 -0.4,0.6 l -7.600002,4.6 c -0.1,0.1 -0.3,0.1 -0.4,0.1 -0.1,0 -0.3,0 -0.4,-0.1 -0.3,-0.2 -0.4,-0.4 -0.4,-0.7 l 0,-3.1 -20.4,0 c 0.6,0.9 1.2,2.2 2,3.9 0.3,0.6 0.4,1 0.6,1.3 0.2,0.3 0.3,0.7 0.6,1.2 0.3,0.5 0.5,0.9 0.6,1.1 0.2,0.3 0.4,0.5 0.6,0.8 0.2,0.3 0.5,0.5 0.8,0.6 0.3,0.1 0.5,0.2 0.8,0.2 l 2.3,0 0,-2.3 c 0,-0.2 0.1,-0.4 0.2,-0.5 0.1,-0.1 0.3,-0.2 0.5,-0.2 l 7.6,0 c 0.2,0 0.4,0.1 0.5,0.2 0.1,0.1 0.2,0.3 0.2,0.5 l 0,7.8 c 0,0.2 -0.1,0.4 -0.2,0.5 -0.1,0.1 -0.3,0.2 -0.5,0.2 l -7.6,0 c -0.2,0 -0.4,-0.1 -0.5,-0.2 -0.1,-0.1 -0.2,-0.3 -0.2,-0.5 l 0,-2.3 -2.3,0 c -0.5,0 -1,-0.1 -1.5,-0.2 -0.5,-0.1 -0.9,-0.3 -1.2,-0.6 -0.4,-0.2 -0.7,-0.5 -1.1,-1 -0.4,-0.5 -0.7,-0.8 -0.9,-1.1 -0.2,-0.3 -0.5,-0.8 -0.8,-1.4 -0.3,-0.6 -0.5,-1.1 -0.7,-1.4 -0.1,-0.3 -0.4,-0.8 -0.7,-1.4 -0.4,-0.8 -0.7,-1.5 -0.9,-1.9 -0.2,-0.5 -0.5,-1 -0.9,-1.6 -0.4,-0.6 -0.7,-1 -1.1,-1.3 -0.4,-0.3 -0.7,-0.4 -1.1,-0.4 l -8.6,0 c -0.4,1.3 -1.1,2.4 -2.2,3.3 -1.1,0.9 -2.3,1.3 -3.7,1.3 -1.7,0 -3.1,-0.6 -4.3,-1.8 -1.2,-1.2 -1.8,-2.6 -1.8,-4.3 0,-1.7 0.6,-3.1 1.8,-4.3 1.2,-1.2 2.6,-1.8 4.3,-1.8 1.4,0 2.6,0.4 3.7,1.3 1.1,0.9 1.8,2 2.2,3.3 l 2.6,0 c 0.4,0 0.8,-0.1 1.1,-0.4 0.4,-0.3 0.7,-0.7 1.1,-1.3 0.4,-0.6 0.6,-1.1 0.9,-1.6 0.2,-0.5 0.5,-1.1 0.9,-1.9 0.3,-0.7 0.5,-1.1 0.7,-1.4 0.1,-0.3 0.4,-0.8 0.7,-1.4 0.3,-0.6 0.6,-1.1 0.8,-1.4 0.2,-0.3 0.5,-0.7 0.9,-1.1 0.4,-0.4 0.7,-0.8 1.1,-1 0.4,-0.2 0.8,-0.4 1.2,-0.6 0.5,-0.2 0.9,-0.2 1.5,-0.2 l 2.6,0 c 0.3,-0.9 0.9,-1.6 1.7,-2.2 0.8,-0.6 1.7,-0.8 2.6,-0.8 1.3,0 2.4,0.4 3.2,1.3 0.9,0.9 1.3,2 1.3,3.2 0,1.2 -0.4,2.4 -1.3,3.2 -0.9,0.8 -2,1.3 -3.2,1.3 -1,0 -1.9,-0.3 -2.6,-0.8 -0.7,-0.5 -1.3,-1.3 -1.7,-2.2 l -2.6,0 c -0.3,0 -0.5,0.1 -0.8,0.2 -0.3,0.1 -0.5,0.3 -0.8,0.6 -0.2,0.3 -0.5,0.6 -0.6,0.8 -0.2,0.3 -0.4,0.6 -0.6,1.1 -0.2,0.5 -0.4,0.9 -0.6,1.2 -0.2,0.3 -0.3,0.7 -0.6,1.3 -0.7,1.7 -1.4,3 -2,3.9 l 26.6,0 0,-3.1 c 0,-0.3 0.1,-0.5 0.4,-0.7 0.3,-0.2 0.5,-0.2 0.8,0 z"
         class="st0"
         id="XMLID_4_"
         inkscape:connector-curvature="0"
         style="fill:#ffffff" />
    </g>
  </g>
</svg>
