<?xml version="1.0" encoding="UTF-8" standalone="no"?>
<svg
   xmlns:dc="http://purl.org/dc/elements/1.1/"
   xmlns:cc="http://creativecommons.org/ns#"
   xmlns:rdf="http://www.w3.org/1999/02/22-rdf-syntax-ns#"
   xmlns:svg="http://www.w3.org/2000/svg"
   xmlns="http://www.w3.org/2000/svg"
   xmlns:sodipodi="http://sodipodi.sourceforge.net/DTD/sodipodi-0.dtd"
   xmlns:inkscape="http://www.inkscape.org/namespaces/inkscape"
   height="48"
   width="48"
   version="1"
   id="svg2"
   inkscape:version="0.91 r13725"
   sodipodi:docname="kvantum.svg">
  <metadata
     id="metadata18">
    <rdf:RDF>
      <cc:Work
         rdf:about="">
        <dc:format>image/svg+xml</dc:format>
        <dc:type
           rdf:resource="http://purl.org/dc/dcmitype/StillImage" />
        <dc:title></dc:title>
      </cc:Work>
    </rdf:RDF>
  </metadata>
  <defs
     id="defs16" />
  <sodipodi:namedview
     pagecolor="#ffffff"
     bordercolor="#666666"
     borderopacity="1"
     objecttolerance="10"
     gridtolerance="10"
     guidetolerance="10"
     inkscape:pageopacity="0"
     inkscape:pageshadow="2"
     inkscape:window-width="1920"
     inkscape:window-height="1134"
     id="namedview14"
     showgrid="false"
     inkscape:zoom="4.9166667"
     inkscape:cx="24"
     inkscape:cy="24"
     inkscape:window-x="1920"
     inkscape:window-y="0"
     inkscape:window-maximized="1"
     inkscape:current-layer="svg2" />
  <g
     id="g4146"
     transform="translate(-2,1.35)">
    <path
       style="fill:#cccccc"
       inkscape:connector-curvature="0"
       id="path4"
       d="m 4,7.8 0,31.9 c 0,1.21968 0.980375,2.2 2.2,2.2 l 39.6011,0 C 47.0199,41.9 48,40.9199 48,39.7 L 48,7.8 Z" />
    <path
       style="fill:#5a6367"
       inkscape:connector-curvature="0"
       id="path6"
       d="M 6.2,2.3 C 4.98032,2.3 4,3.28065 4,4.49945 L 4,7.8 48,7.8 48,4.49945 C 48,3.28065 47.0199,2.3 45.8,2.3 l -39.6,0 z" />
    <path
       style="opacity:0.1;fill:#ffffff"
       inkscape:connector-curvature="0"
       id="path8"
       d="M 6.2,2.3 C 4.98032,2.3 4,3.2812 4,4.5 L 4,5.6 C 4,4.3812 4.98032,3.4 6.2,3.4 l 39.6,0 c 1.21968,0 2.2,0.9812 2.2,2.2 L 48,4.5 C 48,3.2812 47.0199,2.3 45.8,2.3 l -39.6,0 z" />
    <path
       style="opacity:0.2"
       inkscape:connector-curvature="0"
       id="path10"
       d="m 4,39.7 0,1.1 C 4,42.01968 4.980375,43 6.2,43 l 39.6022,0 C 47.0199,43 48,42.0199 48,40.8 l 0,-1.1 c 0,1.21968 -0.979605,2.2 -2.1978,2.2 L 6.2,41.9 C 4.98032,41.9 4,40.9199 4,39.7 Z" />
    <path
       style="fill:#5a6367"
       inkscape:connector-curvature="0"
       id="path12"
       d="m 14.8229,14.4132 1.94e-4,1.37082 1.82182,0.138831 0.294987,0.416438 -2.9326,15.6167 -0.451165,0.433906 -1.8557,0.1397 0,1.42274 8.12086,1.24e-4 2.5e-4,-1.42263 -1.80488,-0.121737 -0.312345,-0.451198 1.19735,-6.54181 1.83931,0 2.63758,5.5528 c 1.078011,2.2143 1.83425,3.1636 4.1646,3.19297 0.670054,0.0087 0.939609,0.05782 2.74725,0 6.23469,-5.20531 9.4171,-9.17301 9.91991,-10.96689 0.304524,-1.086492 -0.178959,-1.75285 -1.21495,-1.75285 -0.505362,0 -1.083929,0.212828 -1.73492,0.642378 l -0.468512,3.73065 c -1.276,1.6676 -2.97704,3.48414 -5.04955,5.37922 l 1.37082,-7.16661 c 0.284471,-1.46564 0.378257,-2.24763 -0.572737,-2.5509 l -4.25117,0.937211 -0.225302,0.798072 1.96053,0.312543 c 0.13629,0.505285 -0.0147,1.6038 -0.312345,3.29692 l -0.954382,5.25767 c -0.01501,0.05409 -0.02449,0.11341 -0.03472,0.173525 -0.618838,-0.332508 -1.008942,-0.924594 -1.45761,-1.82193 l -3.73076,-7.46163 6.81945,-6.90624 2.32518,-0.225566 -2.82e-4,-1.42296 -7.28772,6.1e-5 3.03e-4,1.42307 1.80433,0.138644 0.173525,0.468545 -7.30532,7.53093 -0.867625,0 1.44023,-7.63499 0.381755,-0.416438 1.9261,-0.138776 -1.78e-4,-1.37104 z" />
  </g>
</svg>
