<?xml version="1.0" encoding="UTF-8" standalone="no"?>
<svg
   xmlns:dc="http://purl.org/dc/elements/1.1/"
   xmlns:cc="http://creativecommons.org/ns#"
   xmlns:rdf="http://www.w3.org/1999/02/22-rdf-syntax-ns#"
   xmlns:svg="http://www.w3.org/2000/svg"
   xmlns="http://www.w3.org/2000/svg"
   xmlns:sodipodi="http://sodipodi.sourceforge.net/DTD/sodipodi-0.dtd"
   xmlns:inkscape="http://www.inkscape.org/namespaces/inkscape"
   viewBox="0 0 48 48"
   id="svg2"
   version="1.1"
   inkscape:version="0.91 r13725"
   sodipodi:docname="plasmadiscover.svg">
  <metadata
     id="metadata19">
    <rdf:RDF>
      <cc:Work
         rdf:about="">
        <dc:format>image/svg+xml</dc:format>
        <dc:type
           rdf:resource="http://purl.org/dc/dcmitype/StillImage" />
      </cc:Work>
    </rdf:RDF>
  </metadata>
  <sodipodi:namedview
     pagecolor="#ffffff"
     bordercolor="#666666"
     borderopacity="1"
     objecttolerance="10"
     gridtolerance="10"
     guidetolerance="10"
     inkscape:pageopacity="0"
     inkscape:pageshadow="2"
     inkscape:window-width="732"
     inkscape:window-height="480"
     id="namedview17"
     showgrid="false"
     inkscape:zoom="4.9166667"
     inkscape:cx="24"
     inkscape:cy="24"
     inkscape:window-x="2444"
     inkscape:window-y="219"
     inkscape:window-maximized="0"
     inkscape:current-layer="svg2" />
  <defs
     id="defs4">
    <linearGradient
       id="0"
       gradientUnits="userSpaceOnUse"
       y1="12.529"
       x2="0"
       y2="-36.27">
      <stop
         stop-color="#0a80fd"
         id="stop7" />
      <stop
         offset="1"
         stop-color="#56c5fa"
         id="stop9" />
    </linearGradient>
  </defs>
  <g
     transform="matrix(0.91666667,0,0,0.91666667,12.658083,34.73875)"
     id="g11"
     style="enable-background:new">
    <circle
       r="24"
       cy="-11.715"
       cx="12.373"
       id="circle13"
       style="fill:url(#0)" />
    <path
       d="m -0.105,-0.843 c 0.944,-0.852 1.929,-1.737 2.189,-1.966 0.26,-0.229 0.474,-0.44 0.476,-0.469 0.003,-0.052 -2.763,-1.914 -2.888,-1.943 -0.037,-0.008 -0.091,0.061 -0.122,0.156 -0.068,0.213 -0.929,3.435 -1.409,5.271 -0.102,0.392 -0.104,0.501 -0.007,0.501 0.024,0 0.816,-0.697 1.76,-1.55 m 26.13,1.378 c 0.503,-0.659 0.784,-2.085 0.664,-3.363 -0.136,-1.454 -0.532,-2.461 -1.291,-3.283 -0.563,-0.61 -1.039,-0.743 -1.584,-0.442 -0.85,0.469 -1.655,0.967 -1.775,1.096 -0.357,0.385 -0.333,1.012 0.071,1.814 0.408,0.81 0.852,1.273 1.84,1.918 1.019,0.665 1.433,1.174 1.656,2.036 0.072,0.277 0.145,0.392 0.252,0.395 0.02,10e-5 0.095,-0.076 0.167,-0.171 M 3.954,-5.444 c 1.928,-3.437 4.387,-7.701 5.915,-10.255 0.333,-0.557 0.606,-1.029 0.606,-1.049 0,-0.064 -2.868,-1.827 -2.944,-1.81 -0.077,0.017 -2.641,4.333 -4.461,7.51 -0.577,1.01 -1.435,2.44 -1.906,3.185 -0.471,0.745 -0.928,1.467 -1.015,1.605 -0.091,0.145 -0.139,0.269 -0.112,0.295 0.129,0.124 3.02,1.976 3.066,1.963 0.028,-0.008 0.411,-0.658 0.852,-1.444 m 18.736,-1.221 c 0.745,-0.424 1.399,-0.812 1.454,-0.863 0.097,-0.091 0.094,-0.103 -0.181,-0.578 -0.154,-0.267 -0.53,-0.919 -0.834,-1.449 -0.304,-0.53 -0.588,-0.971 -0.631,-0.979 -0.114,-0.022 -2.929,1.62 -2.949,1.72 -0.016,0.083 1.463,2.69 1.627,2.868 0.047,0.051 0.103,0.084 0.123,0.072 0.02,-0.011 0.647,-0.367 1.392,-0.791 m 5.61,-2.755 c 0.021,-0.038 0.033,-0.839 0.027,-1.782 l -0.011,-1.714 -3.168,-0.013 c -2.765,-0.012 -3.166,-0.004 -3.152,0.063 0.009,0.042 0.45,0.85 0.98,1.795 l 0.963,1.719 0.209,0.015 c 0.115,0.008 1.087,0.008 2.161,0 1.544,-0.012 1.961,-0.03 1.991,-0.084 m -10.02,-0.073 c 0.008,-0.026 -0.393,-0.783 -0.893,-1.683 l -0.909,-1.635 -3.863,0 -3.863,0 -0.912,1.652 c -0.502,0.908 -0.901,1.67 -0.887,1.693 0.036,0.059 11.308,0.032 11.327,-0.027 M 1.687,-9.777 c 0.103,-0.179 0.53,-0.917 0.948,-1.64 0.418,-0.723 0.761,-1.339 0.761,-1.368 0,-0.036 -1.067,-0.049 -3.243,-0.04 l -3.243,0.013 -0.017,0.365 c -0.009,0.201 -10e-5,0.957 0.019,1.68 l 0.036,1.315 2.275,0 2.275,0 z m 19.11,-0.664 c 1.323,-0.728 1.302,-0.715 1.302,-0.808 0,-0.091 -0.697,-1.323 -3.063,-5.417 -2.601,-4.499 -3.747,-6.483 -4.508,-7.805 -0.75,-1.303 -0.928,-1.546 -1.25,-1.711 -0.254,-0.129 -0.659,-0.149 -0.921,-0.046 -0.25,0.099 -1.129,0.611 -1.362,0.793 -0.373,0.292 -0.515,0.869 -0.324,1.324 0.103,0.245 0.033,0.123 2.493,4.371 3.874,6.688 5.865,10.06 5.988,10.143 0.03,0.02 0.173,-0.029 0.316,-0.11 0.143,-0.081 0.741,-0.411 1.329,-0.734 m -9.568,-7.697 c 0.617,-1.029 0.707,-1.209 0.745,-1.485 0.079,-0.573 -0.223,-0.956 -1.175,-1.496 -0.54,-0.306 -0.627,-0.339 -0.944,-0.357 -0.432,-0.024 -0.646,0.066 -0.944,0.402 -0.223,0.251 -1.086,1.787 -1.084,1.93 10e-5,0.051 0.537,0.411 1.419,0.952 0.78,0.478 1.435,0.871 1.455,0.873 0.02,10e-5 0.257,-0.367 0.528,-0.818"
       id="path15"
       inkscape:connector-curvature="0"
       style="fill:#ffffff;fill-opacity:0.85199998" />
  </g>
</svg>
