<?xml version="1.0" encoding="UTF-8" standalone="no"?>
<svg
   xmlns:dc="http://purl.org/dc/elements/1.1/"
   xmlns:cc="http://creativecommons.org/ns#"
   xmlns:rdf="http://www.w3.org/1999/02/22-rdf-syntax-ns#"
   xmlns:svg="http://www.w3.org/2000/svg"
   xmlns="http://www.w3.org/2000/svg"
   xmlns:xlink="http://www.w3.org/1999/xlink"
   xmlns:sodipodi="http://sodipodi.sourceforge.net/DTD/sodipodi-0.dtd"
   xmlns:inkscape="http://www.inkscape.org/namespaces/inkscape"
   height="48"
   width="48"
   id="svg2"
   version="1.1"
   inkscape:version="0.91 r13725"
   sodipodi:docname="sublime.svg">
  <metadata
     id="metadata138">
    <rdf:RDF>
      <cc:Work
         rdf:about="">
        <dc:format>image/svg+xml</dc:format>
        <dc:type
           rdf:resource="http://purl.org/dc/dcmitype/StillImage" />
        <dc:title></dc:title>
      </cc:Work>
    </rdf:RDF>
  </metadata>
  <defs
     id="defs136" />
  <sodipodi:namedview
     pagecolor="#ffffff"
     bordercolor="#666666"
     borderopacity="1"
     objecttolerance="10"
     gridtolerance="10"
     guidetolerance="10"
     inkscape:pageopacity="0"
     inkscape:pageshadow="2"
     inkscape:window-width="1920"
     inkscape:window-height="1134"
     id="namedview134"
     showgrid="false"
     inkscape:zoom="4.9166667"
     inkscape:cx="24"
     inkscape:cy="24"
     inkscape:window-x="1920"
     inkscape:window-y="0"
     inkscape:window-maximized="1"
     inkscape:current-layer="svg2" />
  <linearGradient
     id="a">
    <stop
       offset="0"
       stop-color="#fc7816"
       id="stop5" />
    <stop
       offset="1"
       stop-color="#ffac01"
       id="stop7" />
  </linearGradient>
  <linearGradient
     id="b"
     gradientTransform="matrix(0.35600995,0,0,0.3512235,240.525,893.33752)"
     gradientUnits="userSpaceOnUse"
     x1="-989.66583"
     x2="-1003.6364"
     y1="433.28394"
     y2="317.35452">
    <stop
       offset="0"
       stop-color="#292926"
       id="stop10" />
    <stop
       offset="1"
       stop-color="#484b4d"
       id="stop12" />
  </linearGradient>
  <linearGradient
     id="c"
     gradientTransform="matrix(0.35549809,0,0,0.35079564,81.583509,925.45618)"
     gradientUnits="userSpaceOnUse"
     x1="-1092.9117"
     x2="-1060.2551"
     xlink:href="#a"
     y1="203.09911"
     y2="104.85291" />
  <linearGradient
     id="d"
     gradientUnits="userSpaceOnUse"
     x1="37.736294218274"
     x2="37.589489895448"
     xlink:href="#a"
     y1="1056.54039989872"
     y2="1039.02475237528" />
  <g
     transform="matrix(0.9999949,0,0,0.9999949,-1.7815476,-1006.0006)"
     id="g16">
    <rect
       height="40.214249"
       ry="0.981484"
       transform="matrix(0.94911544,-0.31492838,0.30720731,0.95164262,0,0)"
       width="31.911476"
       x="-309.6644"
       y="964.93665"
       id="rect18"
       style="fill:url(#c)" />
    <rect
       height="43.171936"
       ry="1.053671"
       transform="matrix(0.99210439,-0.12541482,0.1378126,0.99045832,0,0)"
       width="35.538715"
       x="-131.75444"
       y="1004.4296"
       id="rect20"
       style="fill:url(#b)" />
    <g
       transform="matrix(0.67731436,-0.09548014,0.10589125,0.75116838,-70.494092,256.47316)"
       id="g22"
       style="fill-rule:evenodd">
      <g
         id="g24"
         style="fill:#ffffff">
        <path
           d="m -34.260591,1005.7813 2,0 0,0.9999 -2,0 z"
           id="path26"
           inkscape:connector-curvature="0"
           style="opacity:0.8" />
        <path
           d="m -34.260591,1009.7812 2,0 0,0.9999 -2,0 z"
           id="path28"
           inkscape:connector-curvature="0"
           style="opacity:0.8" />
        <path
           d="m -34.260591,1007.7813 2,0 0,0.9999 -2,0 z"
           id="path30"
           inkscape:connector-curvature="0"
           style="opacity:0.8" />
        <path
           d="m -34.260591,1011.7812 2,0 0,0.9999 -2,0 z"
           id="path32"
           inkscape:connector-curvature="0"
           style="opacity:0.8" />
        <path
           d="m -34.260591,1015.7812 2,0 0,0.9999 -2,0 z"
           id="path34"
           inkscape:connector-curvature="0"
           style="opacity:0.8" />
        <path
           d="m -34.260591,1013.7812 2,0 0,0.9999 -2,0 z"
           id="path36"
           inkscape:connector-curvature="0"
           style="opacity:0.8" />
        <path
           d="m -34.260591,1017.7812 2,0 0,0.9999 -2,0 z"
           id="path38"
           inkscape:connector-curvature="0"
           style="opacity:0.8" />
        <path
           d="m -34.260591,1021.7812 2,0 0,0.9999 -2,0 z"
           id="path40"
           inkscape:connector-curvature="0"
           style="opacity:0.8" />
        <path
           d="m -34.260591,1019.7812 2,0 0,0.9999 -2,0 z"
           id="path42"
           inkscape:connector-curvature="0"
           style="opacity:0.8" />
      </g>
      <path
         d="m -31.260591,1005.7811 9,0 0,0.9999 -9,0 z"
         id="path44"
         inkscape:connector-curvature="0"
         style="opacity:0.8;fill:#f92672" />
      <path
         d="m -21.260591,1005.7813 6,0 0,0.9999 -6,0 z"
         id="path46"
         inkscape:connector-curvature="0"
         style="opacity:0.8;fill:#ffffff" />
      <path
         d="m -14.260591,1005.7813 4,0 0,0.9999 -4,0 z"
         id="path48"
         inkscape:connector-curvature="0"
         style="opacity:0.8;fill:#ffffff" />
      <path
         d="m -31.260591,1007.7811 5,0 0,1 -5,0 z"
         id="path50"
         inkscape:connector-curvature="0"
         style="opacity:0.8;fill:#fd971f" />
      <path
         d="m -25.260591,1007.7811 2,0 0,1.0001 -2,0 z"
         id="path52"
         inkscape:connector-curvature="0"
         style="opacity:0.8;fill:#ffffff" />
      <path
         d="m -22.260591,1007.7813 9,0 0,0.9999 -9,0 z"
         id="path54"
         inkscape:connector-curvature="0"
         style="opacity:0.8;fill:#a6e22e" />
      <path
         d="m -31.260591,1009.7811 7,0 0,0.9999 -7,0 z"
         id="path56"
         inkscape:connector-curvature="0"
         style="opacity:0.8;fill:#f92672" />
      <path
         d="m -23.260591,1009.7813 5,0 0,0.9999 -5,0 z"
         id="path58"
         inkscape:connector-curvature="0"
         style="opacity:0.8;fill:#fd971f" />
      <path
         d="m -17.260591,1009.7812 2,0 0,0.9999 -2,0 z"
         id="path60"
         inkscape:connector-curvature="0"
         style="opacity:0.8;fill:#ffffff" />
      <path
         d="m -29.260591,1011.7811 4,0 0,0.9999 -4,0 z"
         id="path62"
         inkscape:connector-curvature="0"
         style="opacity:0.8;fill:#f92672" />
      <path
         d="m -24.260591,1011.7813 10,0 0,0.9999 -10,0 z"
         id="path64"
         inkscape:connector-curvature="0"
         style="opacity:0.8;fill:#a6e22e" />
      <path
         d="m -13.260591,1011.7813 4,0 0,0.9999 -4,0 z"
         id="path66"
         inkscape:connector-curvature="0"
         style="opacity:0.8;fill:#ffffff" />
      <path
         d="m -29.260591,1013.7811 6,0 0,0.9999 -6,0 z"
         id="path68"
         inkscape:connector-curvature="0"
         style="opacity:0.8;fill:#f92672" />
      <path
         d="m -22.260591,1013.7813 6,0 0,0.9999 -6,0 z"
         id="path70"
         inkscape:connector-curvature="0"
         style="opacity:0.8;fill:#66d9ef" />
      <path
         d="m -15.260591,1013.7813 4,0 0,0.9999 -4,0 z"
         id="path72"
         inkscape:connector-curvature="0"
         style="opacity:0.8;fill:#a6e22e" />
      <path
         d="m -29.260591,1015.7811 2,0 0,0.9999 -2,0 z"
         id="path74"
         inkscape:connector-curvature="0"
         style="opacity:0.8;fill:#f92672" />
      <path
         d="m -26.260591,1015.7813 13,0 0,0.9999 -13,0 z"
         id="path76"
         inkscape:connector-curvature="0"
         style="opacity:0.8;fill:#66d9ef" />
      <path
         d="m -12.260591,1015.7813 5.5,0 0,0.9999 -5.5,0 z"
         id="path78"
         inkscape:connector-curvature="0"
         style="opacity:0.8;fill:#ffffff" />
      <path
         d="m -29.260591,1017.7811 3,0 0,0.9999 -3,0 z"
         id="path80"
         inkscape:connector-curvature="0"
         style="opacity:0.8;fill:#f92672" />
      <path
         d="m -25.260591,1017.7813 11,0 0,0.9999 -11,0 z"
         id="path82"
         inkscape:connector-curvature="0"
         style="opacity:0.8;fill:#66d9ef" />
      <path
         d="m -13.260591,1017.7813 4,0 0,0.9999 -4,0 z"
         id="path84"
         inkscape:connector-curvature="0"
         style="opacity:0.8;fill:#ffffff" />
      <rect
         height="1.000017"
         ry="1.7e-05"
         width="2"
         x="-31.260592"
         y="1019.7811"
         id="rect86"
         style="opacity:0.8;fill:#ffffff" />
      <path
         d="m -28.260591,1019.7813 8,0 0,0.9999 -8,0 z"
         id="path88"
         inkscape:connector-curvature="0"
         style="opacity:0.8;fill:#66d9ef" />
      <path
         d="m -19.260591,1019.7813 3,0 0,0.9999 -3,0 z"
         id="path90"
         inkscape:connector-curvature="0"
         style="opacity:0.8;fill:#fd971f" />
      <path
         d="m -31.260591,1021.7811 4,0 0,0.9999 -4,0 z"
         id="path92"
         inkscape:connector-curvature="0"
         style="opacity:0.8;fill:#f92672" />
      <path
         d="m -26.260591,1021.7813 11,0 0,0.9999 -11,0 z"
         id="path94"
         inkscape:connector-curvature="0"
         style="opacity:0.8;fill:#a6e22e" />
      <path
         d="m -14.260591,1021.7813 2.5,0 0,0.9999 -2.5,0 z"
         id="path96"
         inkscape:connector-curvature="0"
         style="opacity:0.8;fill:#ffffff" />
      <path
         d="m -31.260591,1011.7811 1,0 0,7 -1,0 z"
         id="path98"
         inkscape:connector-curvature="0"
         style="opacity:0.67889901;fill:#faffeb" />
      <path
         d="m -34.28725,1023.798 2,0 0,0.9999 -2,0 z"
         id="path100"
         inkscape:connector-curvature="0"
         style="opacity:0.8;fill:#ffffff" />
      <path
         d="m -34.28725,1025.798 2,0 0,0.9999 -2,0 z"
         id="path102"
         inkscape:connector-curvature="0"
         style="opacity:0.8;fill:#ffffff" />
      <path
         d="m -34.28725,1029.798 2,0 0,0.9999 -2,0 z"
         id="path104"
         inkscape:connector-curvature="0"
         style="opacity:0.8;fill:#ffffff" />
      <path
         d="m -34.28725,1027.798 2,0 0,0.9999 -2,0 z"
         id="path106"
         inkscape:connector-curvature="0"
         style="opacity:0.8;fill:#ffffff" />
      <path
         d="m -29.28725,1023.7978 2,0 0,0.9999 -2,0 z"
         id="path108"
         inkscape:connector-curvature="0"
         style="opacity:0.8;fill:#f92672" />
      <path
         d="m -26.28725,1023.7981 13,0 0,0.9999 -13,0 z"
         id="path110"
         inkscape:connector-curvature="0"
         style="opacity:0.8;fill:#66d9ef" />
      <path
         d="m -12.28725,1023.7981 5.5,0 0,0.9999 -5.5,0 z"
         id="path112"
         inkscape:connector-curvature="0"
         style="opacity:0.8;fill:#ffffff" />
      <path
         d="m -29.28725,1025.7978 3,0 0,0.9999 -3,0 z"
         id="path114"
         inkscape:connector-curvature="0"
         style="opacity:0.8;fill:#f92672" />
      <path
         d="m -25.28725,1025.7981 11,0 0,0.9999 -11,0 z"
         id="path116"
         inkscape:connector-curvature="0"
         style="opacity:0.8;fill:#66d9ef" />
      <path
         d="m -13.28725,1025.7981 4,0 0,0.9999 -4,0 z"
         id="path118"
         inkscape:connector-curvature="0"
         style="opacity:0.8;fill:#ffffff" />
      <rect
         height="1.000017"
         ry="1.7e-05"
         width="2"
         x="-31.287251"
         y="1027.7979"
         id="rect120"
         style="opacity:0.8;fill:#ffffff" />
      <path
         d="m -28.28725,1027.7981 8,0 0,0.9999 -8,0 z"
         id="path122"
         inkscape:connector-curvature="0"
         style="opacity:0.8;fill:#66d9ef" />
      <path
         d="m -19.28725,1027.7981 3,0 0,0.9999 -3,0 z"
         id="path124"
         inkscape:connector-curvature="0"
         style="opacity:0.8;fill:#fd971f" />
      <path
         d="m -31.28725,1029.7978 4,0 0,0.9999 -4,0 z"
         id="path126"
         inkscape:connector-curvature="0"
         style="opacity:0.8;fill:#f92672" />
      <path
         d="m -26.28725,1029.7981 11,0 0,0.9999 -11,0 z"
         id="path128"
         inkscape:connector-curvature="0"
         style="opacity:0.8;fill:#a6e22e" />
      <path
         d="m -14.28725,1029.7981 2.5,0 0,0.9999 -2.5,0 z"
         id="path130"
         inkscape:connector-curvature="0"
         style="opacity:0.8;fill:#ffffff" />
    </g>
    <path
       d="m 37.677038,1030.8302 c -0.522328,0 -1.04421,0.065 -1.547046,0.1726 -2.011346,0.4255 -3.780602,1.7051 -4.035605,3.856 -0.167861,1.5377 0.287003,2.6441 1.066525,3.4027 0.77952,0.7585 1.846875,1.1826 2.914386,1.5158 1.06751,0.3331 2.144034,0.5757 2.937828,0.9082 0.396895,0.1672 0.719127,0.3548 0.937603,0.5685 0.209383,0.2048 0.3198,0.4309 0.353554,0.7227 -0.07638,0.6347 -0.334605,1.0323 -0.736409,1.295 -0.410299,0.2684 -0.981325,0.3962 -1.613461,0.3986 -1.264271,0 -2.754521,-0.4967 -3.531642,-1.0274 -0.389649,-0.3137 -0.802823,-0.4493 -1.191539,-0.3966 -0.395874,0.052 -0.733469,0.2806 -1.029412,0.5762 l -0.02147,0.02 -0.01762,0.025 c -0.45231,0.6785 -0.458201,1.7627 0.347695,2.424 l 0.002,0 c 1.529533,1.2623 4.197229,1.8137 6.557369,1.4065 1.18054,-0.2037 2.288635,-0.655 3.121443,-1.4182 0.832805,-0.7632 1.376054,-1.8458 1.414218,-3.2308 0.03832,-1.4558 -0.554396,-2.4826 -1.42594,-3.1721 -0.871543,-0.6897 -2.000071,-1.0715 -3.090187,-1.3869 -1.090116,-0.3157 -2.149455,-0.5665 -2.857739,-0.9201 -0.354142,-0.1762 -0.613283,-0.3769 -0.763757,-0.5978 -0.149374,-0.2192 -0.209778,-0.4625 -0.152359,-0.8204 0.09359,-0.4553 0.326044,-0.746 0.673903,-0.9531 0.349481,-0.2083 0.822591,-0.3183 1.3439,-0.3342 1.042615,-0.032 2.263592,0.32 2.959313,0.7618 0.738952,0.5275 1.625357,0.2667 2.056869,-0.3203 0.434988,-0.5916 0.418495,-1.5419 -0.384808,-2.1917 l -0.002,0 -0.004,0 c -0.760133,-0.5837 -1.713213,-0.9677 -2.728819,-1.1524 -0.507802,-0.092 -1.030579,-0.1366 -1.552907,-0.1294 z"
       id="path132"
       style="fill:url(#d)"
       inkscape:connector-curvature="0" />
  </g>
</svg>
