<?xml version="1.0" encoding="UTF-8" standalone="no"?>
<svg
   xmlns:dc="http://purl.org/dc/elements/1.1/"
   xmlns:cc="http://creativecommons.org/ns#"
   xmlns:rdf="http://www.w3.org/1999/02/22-rdf-syntax-ns#"
   xmlns:svg="http://www.w3.org/2000/svg"
   xmlns="http://www.w3.org/2000/svg"
   xmlns:sodipodi="http://sodipodi.sourceforge.net/DTD/sodipodi-0.dtd"
   xmlns:inkscape="http://www.inkscape.org/namespaces/inkscape"
   width="48"
   height="48"
   version="1"
   id="svg34"
   sodipodi:docname="sun.svg"
   inkscape:version="0.92.2 (unknown)">
  <metadata
     id="metadata40">
    <rdf:RDF>
      <cc:Work
         rdf:about="">
        <dc:format>image/svg+xml</dc:format>
        <dc:type
           rdf:resource="http://purl.org/dc/dcmitype/StillImage" />
        <dc:title></dc:title>
      </cc:Work>
    </rdf:RDF>
  </metadata>
  <defs
     id="defs38" />
  <sodipodi:namedview
     pagecolor="#ffffff"
     bordercolor="#666666"
     borderopacity="1"
     objecttolerance="10"
     gridtolerance="10"
     guidetolerance="10"
     inkscape:pageopacity="0"
     inkscape:pageshadow="2"
     inkscape:window-width="1920"
     inkscape:window-height="1027"
     id="namedview36"
     showgrid="true"
     showguides="true"
     inkscape:zoom="16"
     inkscape:cx="37.390694"
     inkscape:cy="26.45641"
     inkscape:window-x="0"
     inkscape:window-y="25"
     inkscape:window-maximized="1"
     inkscape:current-layer="svg34"
     inkscape:guide-bbox="true"
     inkscape:snap-global="true"
     inkscape:snap-nodes="true"
     inkscape:snap-object-midpoints="false"
     inkscape:snap-midpoints="true"
     inkscape:snap-smooth-nodes="true"
     inkscape:snap-intersection-paths="true"
     inkscape:object-paths="true"
     inkscape:object-nodes="true">
    <inkscape:grid
       type="xygrid"
       id="grid106" />
  </sodipodi:namedview>
  <circle
     r="20"
     cy="24"
     cx="23.999992"
     id="circle829"
     style="fill:#0091cf;fill-opacity:1;stroke-width:0.57553953" />
  <path
     style="opacity:1;fill:#ff8a47;fill-opacity:1;stroke:none;stroke-width:2.37269735;stroke-miterlimit:4;stroke-dasharray:none"
     d="M 24 9 L 20 13 L 13 13 L 13 20 L 9 24 L 13 28 L 13 35 L 20 35 L 24 39 L 28 35 L 35 35 L 35 28 L 39 24 L 35 20 L 35 13 L 28 13 L 24 9 z "
     id="rect902" />
  <circle
     style="opacity:1;fill:#ffcc42;fill-opacity:1;stroke:none;stroke-width:0.37842104;stroke-miterlimit:4;stroke-dasharray:none"
     id="path1292-3"
     cx="23.999992"
     cy="24"
     r="10" />
  <path
     style="fill:#000000;fill-opacity:1;stroke-width:0.57553953;opacity:0.2"
     d="M 43.978516 24.417969 A 20 20 0 0 1 24 44 A 20 20 0 0 1 4.0214844 24.582031 A 20 20 0 0 0 4 25 A 20 20 0 0 0 24 45 A 20 20 0 0 0 44 25 A 20 20 0 0 0 43.978516 24.417969 z "
     id="circle935" />
  <path
     style="fill:#ffffff;fill-opacity:1;stroke-width:0.57553953;opacity:0.1"
     d="M 24 4 A 20 20 0 0 0 4 24 A 20 20 0 0 0 4.0214844 24.582031 A 20 20 0 0 1 24 5 A 20 20 0 0 1 43.978516 24.417969 A 20 20 0 0 0 44 24 A 20 20 0 0 0 24 4 z "
     id="circle945" />
  <path
     style="opacity:0.2;fill:#000000;fill-opacity:1;stroke:none;stroke-width:2.37269735;stroke-miterlimit:4;stroke-dasharray:none"
     d="M 9.5 24.5 L 9 25 L 13 29 L 13 28 L 9.5 24.5 z M 38.5 24.5 L 35 28 L 35 29 L 39 25 L 38.5 24.5 z M 13 35 L 13 36 L 20 36 L 24 40 L 28 36 L 35 36 L 35 35 L 28 35 L 24 39 L 20 35 L 13 35 z "
     id="path951" />
  <path
     style="opacity:0.2;fill:#ffffff;fill-opacity:1;stroke:none;stroke-width:2.37269735;stroke-miterlimit:4;stroke-dasharray:none"
     d="M 24 9 L 20 13 L 13 13 L 13 14 L 20 14 L 24 10 L 28 14 L 35 14 L 35 13 L 28 13 L 24 9 z M 13 20 L 9 24 L 9.5 24.5 L 13 21 L 13 20 z M 35 20 L 35 21 L 38.5 24.5 L 39 24 L 35 20 z "
     id="path956" />
  <path
     style="opacity:0.2;fill:#000000;fill-opacity:1;stroke:none;stroke-width:0.37842104;stroke-miterlimit:4;stroke-dasharray:none"
     d="M 33.978516 24.414062 A 10 10 0 0 1 24 34 A 10 10 0 0 1 14.021484 24.585938 A 10 10 0 0 0 14 25 A 10 10 0 0 0 24 35 A 10 10 0 0 0 34 25 A 10 10 0 0 0 33.978516 24.414062 z "
     id="circle962" />
  <path
     style="opacity:0.2;fill:#ffffff;fill-opacity:1;stroke:none;stroke-width:0.37842104;stroke-miterlimit:4;stroke-dasharray:none"
     d="M 24 14 A 10 10 0 0 0 14 24 A 10 10 0 0 0 14.021484 24.585938 A 10 10 0 0 1 24 15 A 10 10 0 0 1 33.978516 24.414062 A 10 10 0 0 0 34 24 A 10 10 0 0 0 24 14 z "
     id="circle964" />
</svg>
