<?xml version="1.0" encoding="UTF-8" standalone="no"?>
<svg
   xmlns:dc="http://purl.org/dc/elements/1.1/"
   xmlns:cc="http://creativecommons.org/ns#"
   xmlns:rdf="http://www.w3.org/1999/02/22-rdf-syntax-ns#"
   xmlns:svg="http://www.w3.org/2000/svg"
   xmlns="http://www.w3.org/2000/svg"
   xmlns:sodipodi="http://sodipodi.sourceforge.net/DTD/sodipodi-0.dtd"
   xmlns:inkscape="http://www.inkscape.org/namespaces/inkscape"
   width="48"
   height="48"
   version="1"
   id="svg34"
   sodipodi:docname="sun-night.svg"
   inkscape:version="0.92.2 (unknown)">
  <metadata
     id="metadata40">
    <rdf:RDF>
      <cc:Work
         rdf:about="">
        <dc:format>image/svg+xml</dc:format>
        <dc:type
           rdf:resource="http://purl.org/dc/dcmitype/StillImage" />
        <dc:title></dc:title>
      </cc:Work>
    </rdf:RDF>
  </metadata>
  <defs
     id="defs38" />
  <sodipodi:namedview
     pagecolor="#ffffff"
     bordercolor="#666666"
     borderopacity="1"
     objecttolerance="10"
     gridtolerance="10"
     guidetolerance="10"
     inkscape:pageopacity="0"
     inkscape:pageshadow="2"
     inkscape:window-width="1920"
     inkscape:window-height="1027"
     id="namedview36"
     showgrid="false"
     showguides="false"
     inkscape:zoom="11.313708"
     inkscape:cx="22.93688"
     inkscape:cy="25.091723"
     inkscape:window-x="0"
     inkscape:window-y="25"
     inkscape:window-maximized="1"
     inkscape:current-layer="svg34"
     inkscape:guide-bbox="true"
     inkscape:snap-global="true"
     inkscape:snap-nodes="true"
     inkscape:snap-object-midpoints="false"
     inkscape:snap-midpoints="true"
     inkscape:snap-smooth-nodes="true"
     inkscape:snap-intersection-paths="true"
     inkscape:object-paths="true"
     inkscape:object-nodes="true">
    <inkscape:grid
       type="xygrid"
       id="grid106" />
  </sodipodi:namedview>
  <circle
     r="20"
     cy="24"
     cx="23.999992"
     id="circle829"
     style="fill:#0068b8;fill-opacity:1;stroke-width:0.57553953" />
  <path
     style="fill:#000000;fill-opacity:1;stroke-width:0.57553953;opacity:0.2"
     d="M 43.978516 24.417969 A 20 20 0 0 1 24 44 A 20 20 0 0 1 4.0214844 24.582031 A 20 20 0 0 0 4 25 A 20 20 0 0 0 24 45 A 20 20 0 0 0 44 25 A 20 20 0 0 0 43.978516 24.417969 z "
     id="circle935" />
  <path
     style="fill:#ffffff;fill-opacity:1;stroke-width:0.57553953;opacity:0.1"
     d="M 24 4 A 20 20 0 0 0 4 24 A 20 20 0 0 0 4.0214844 24.582031 A 20 20 0 0 1 24 5 A 20 20 0 0 1 43.978516 24.417969 A 20 20 0 0 0 44 24 A 20 20 0 0 0 24 4 z "
     id="circle945" />
  <path
     style="opacity:0.2;fill:#000000;fill-opacity:1;stroke:none;stroke-width:0.21303703;stroke-miterlimit:4;stroke-dasharray:none"
     d="M 21.392578 11.677734 A 13.333333 13.333333 0 0 0 21.076172 11.765625 A 12.5 12.5 0 0 0 20.666016 14.833984 A 12.5 12.5 0 0 0 20.6875 15.441406 A 12.5 12.5 0 0 1 21.392578 11.677734 z M 11.017578 24.017578 A 13.333333 13.333333 0 0 0 11 24.666016 A 13.333333 13.333333 0 0 0 24.333984 38 A 13.333333 13.333333 0 0 0 37.326172 27.605469 A 12.5 12.5 0 0 1 37.013672 27.699219 A 13.333333 13.333333 0 0 1 24.333984 37 A 13.333333 13.333333 0 0 1 11.017578 24.017578 z "
     id="path1574" />
  <path
     transform="scale(1,-1)"
     sodipodi:type="star"
     style="color:#000000;display:inline;overflow:visible;visibility:visible;opacity:1;fill:#ffffff;fill-opacity:1;fill-rule:nonzero;stroke:none;stroke-width:0.0342262;stroke-linecap:round;stroke-linejoin:bevel;stroke-miterlimit:4;stroke-dasharray:none;stroke-dashoffset:0;stroke-opacity:1;marker:none;enable-background:accumulate"
     id="path13883-9-05-6-51-4"
     sodipodi:sides="5"
     sodipodi:cx="28"
     sodipodi:cy="-16.002897"
     sodipodi:r1="4.0028968"
     sodipodi:r2="2.6969917"
     sodipodi:arg1="1.5707963"
     sodipodi:arg2="2.1991149"
     inkscape:flatsided="false"
     inkscape:rounded="0.296964"
     inkscape:randomized="0"
     d="m 28,-12 c -0.71697,-10e-7 -1.005211,-1.399561 -1.585252,-1.820985 -0.580041,-0.421425 -2.000173,-0.26307 -2.221729,-0.944949 -0.221556,-0.681879 1.020434,-1.3885 1.24199,-2.07038 0.221555,-0.681879 -0.367894,-1.98357 0.212147,-2.404995 0.580041,-0.421424 1.635874,0.54142 2.352844,0.54142 0.71697,0 1.772803,-0.962844 2.352844,-0.54142 0.580041,0.421425 -0.0094,1.723116 0.212148,2.404996 0.221556,0.681879 1.463545,1.3885 1.241989,2.070379 -0.221556,0.681879 -1.641688,0.523524 -2.221729,0.944949 C 29.005211,-13.399561 28.71697,-12 28,-12 Z"
     inkscape:transform-center-y="-1.2333345"
     inkscape:transform-center-x="-1.3867456e-06" />
  <path
     transform="scale(1,-1)"
     sodipodi:type="star"
     style="color:#000000;display:inline;overflow:visible;visibility:visible;opacity:1;fill:#ffffff;fill-opacity:1;fill-rule:nonzero;stroke:none;stroke-width:0.01785715;stroke-linecap:round;stroke-linejoin:bevel;stroke-miterlimit:4;stroke-dasharray:none;stroke-dashoffset:0;stroke-opacity:1;marker:none;enable-background:accumulate"
     id="path13883-9-05-6-51-4-6"
     sodipodi:sides="5"
     sodipodi:cx="34"
     sodipodi:cy="-21.088468"
     sodipodi:r1="2.0884683"
     sodipodi:r2="1.4071264"
     sodipodi:arg1="1.5707963"
     sodipodi:arg2="2.1991149"
     inkscape:flatsided="false"
     inkscape:rounded="0.296964"
     inkscape:randomized="0"
     d="m 34,-19 c -0.374072,0 -0.524458,-0.730206 -0.827088,-0.950079 -0.30263,-0.219874 -1.043569,-0.137254 -1.159163,-0.493017 -0.115595,-0.355763 0.5324,-0.724435 0.647994,-1.080199 0.115595,-0.355763 -0.191944,-1.034906 0.110686,-1.25478 0.30263,-0.219874 0.853499,0.28248 1.227571,0.28248 0.374072,0 0.924941,-0.502354 1.227571,-0.28248 0.30263,0.219874 -0.0049,0.899017 0.110686,1.254781 0.115594,0.355763 0.763589,0.724434 0.647994,1.080198 -0.115594,0.355763 -0.856533,0.273143 -1.159163,0.493017 C 34.524458,-19.730206 34.374072,-19 34,-19 Z"
     inkscape:transform-center-y="-0.64347715"
     inkscape:transform-center-x="1.7505621e-06" />
  <path
     inkscape:connector-curvature="0"
     id="path1582"
     d="M 21.393229,10.678388 A 13.333333,13.333333 0 0 0 11,23.666668 13.333333,13.333333 0 0 0 24.333333,37 13.333333,13.333333 0 0 0 37.326819,26.606121 a 12.5,12.5 0 0 1 -4.160154,0.727214 12.5,12.5 0 0 1 -12.499999,-12.5 12.5,12.5 0 0 1 0.726563,-4.154947 z"
     style="opacity:1;fill:#fecd38;fill-opacity:1;stroke:none;stroke-width:0.21303703;stroke-miterlimit:4;stroke-dasharray:none" />
  <path
     style="opacity:0.2;fill:#ffffff;fill-opacity:1;stroke:none;stroke-width:0.21303703;stroke-miterlimit:4;stroke-dasharray:none"
     d="M 21.392578 10.677734 A 13.333333 13.333333 0 0 0 11 23.666016 A 13.333333 13.333333 0 0 0 11.017578 24.017578 A 13.333333 13.333333 0 0 1 21.076172 11.765625 A 12.5 12.5 0 0 1 21.392578 10.677734 z M 20.6875 15.441406 A 12.5 12.5 0 0 0 20.666016 15.833984 A 12.5 12.5 0 0 0 33.166016 28.333984 A 12.5 12.5 0 0 0 37.013672 27.699219 A 13.333333 13.333333 0 0 0 37.326172 26.605469 A 12.5 12.5 0 0 1 33.166016 27.333984 A 12.5 12.5 0 0 1 20.6875 15.441406 z "
     id="path1586" />
  <path
     style="color:#000000;display:inline;overflow:visible;visibility:visible;opacity:0.2;fill:#000000;fill-opacity:1;fill-rule:nonzero;stroke:none;stroke-width:0.0342262;stroke-linecap:round;stroke-linejoin:bevel;stroke-miterlimit:4;stroke-dasharray:none;stroke-dashoffset:0;stroke-opacity:1;marker:none;enable-background:accumulate"
     d="M 24.414062 15.486328 C 24.314522 15.561357 24.231694 15.647643 24.193359 15.765625 C 23.971803 16.447504 25.213991 17.154058 25.435547 17.835938 C 25.436506 17.83889 25.436571 17.842727 25.4375 17.845703 C 25.481049 17.475055 25.523141 17.105524 25.435547 16.835938 C 25.291228 16.39177 24.737792 15.937815 24.414062 15.486328 z M 31.585938 15.486328 C 31.262208 15.937815 30.708772 16.39177 30.564453 16.835938 C 30.476859 17.105524 30.518951 17.475055 30.5625 17.845703 C 30.563429 17.842727 30.563494 17.83889 30.564453 17.835938 C 30.786009 17.154058 32.028197 16.447504 31.806641 15.765625 C 31.768306 15.647643 31.685478 15.561357 31.585938 15.486328 z M 28 18.699219 C 27.28303 18.699219 26.226526 19.663612 25.646484 19.242188 C 25.530765 19.158112 25.471945 19.030907 25.433594 18.888672 C 25.368459 19.44134 25.304714 19.993876 25.646484 20.242188 C 26.226526 20.663612 27.28303 19.699219 28 19.699219 C 28.71697 19.699219 29.773475 20.663612 30.353516 20.242188 C 30.695286 19.993876 30.631541 19.44134 30.566406 18.888672 C 30.528055 19.030907 30.469235 19.158112 30.353516 19.242188 C 29.773475 19.663612 28.71697 18.699219 28 18.699219 z "
     id="path1592" />
  <path
     style="color:#000000;display:inline;overflow:visible;visibility:visible;opacity:0.2;fill:#000000;fill-opacity:1;fill-rule:nonzero;stroke:none;stroke-width:0.01785715;stroke-linecap:round;stroke-linejoin:bevel;stroke-miterlimit:4;stroke-dasharray:none;stroke-dashoffset:0;stroke-opacity:1;marker:none;enable-background:accumulate"
     d="M 32.427734 21.177734 C 32.234043 21.227448 32.062859 21.291977 32.013672 21.443359 C 31.901044 21.789991 32.506107 22.148833 32.644531 22.496094 C 32.615228 22.196915 32.74513 21.77895 32.662109 21.523438 C 32.62511 21.409565 32.531325 21.293405 32.427734 21.177734 z M 35.572266 21.177734 C 35.468675 21.293405 35.37489 21.409565 35.337891 21.523438 C 35.25487 21.77895 35.384772 22.196915 35.355469 22.496094 C 35.493893 22.148833 36.098956 21.789991 35.986328 21.443359 C 35.937141 21.291977 35.765957 21.227448 35.572266 21.177734 z M 34 22.496094 C 33.625928 22.496094 33.074115 22.997217 32.771484 22.777344 C 32.719079 22.739269 32.691099 22.684601 32.669922 22.623047 C 32.720603 22.993281 32.492827 23.576841 32.771484 23.779297 C 33.074115 23.999171 33.625928 23.496094 34 23.496094 C 34.374072 23.496094 34.925885 23.999171 35.228516 23.779297 C 35.507173 23.576841 35.279397 22.993281 35.330078 22.623047 C 35.308901 22.684601 35.280921 22.739269 35.228516 22.777344 C 34.925885 22.997217 34.374072 22.496094 34 22.496094 z "
     id="path1594" />
</svg>
