<?xml version="1.0" encoding="UTF-8" standalone="no"?>
<svg
   xmlns:dc="http://purl.org/dc/elements/1.1/"
   xmlns:cc="http://creativecommons.org/ns#"
   xmlns:rdf="http://www.w3.org/1999/02/22-rdf-syntax-ns#"
   xmlns:svg="http://www.w3.org/2000/svg"
   xmlns="http://www.w3.org/2000/svg"
   xmlns:sodipodi="http://sodipodi.sourceforge.net/DTD/sodipodi-0.dtd"
   xmlns:inkscape="http://www.inkscape.org/namespaces/inkscape"
   width="48"
   height="48"
   version="1"
   id="svg34"
   sodipodi:docname="fog.svg"
   inkscape:version="0.92.2 (unknown)">
  <metadata
     id="metadata40">
    <rdf:RDF>
      <cc:Work
         rdf:about="">
        <dc:format>image/svg+xml</dc:format>
        <dc:type
           rdf:resource="http://purl.org/dc/dcmitype/StillImage" />
        <dc:title></dc:title>
      </cc:Work>
    </rdf:RDF>
  </metadata>
  <defs
     id="defs38">
    <clipPath
       id="clipPath-363610498">
      <g
         id="g12"
         transform="translate(0,-1004.3622)">
        <path
           id="path14"
           style="fill:#1890d0"
           transform="matrix(15.333333,0,0,11.5,414.99999,878.8622)"
           d="m -24,13 c 0,1.105 -0.672,2 -1.5,2 -0.828,0 -1.5,-0.895 -1.5,-2 0,-1.105 0.672,-2 1.5,-2 0.828,0 1.5,0.895 1.5,2 z"
           inkscape:connector-curvature="0" />
      </g>
    </clipPath>
    <clipPath
       id="clipPath-375834240">
      <g
         id="g17"
         transform="translate(0,-1004.3622)">
        <path
           id="path19"
           style="fill:#1890d0"
           transform="matrix(15.333333,0,0,11.5,414.99999,878.8622)"
           d="m -24,13 c 0,1.105 -0.672,2 -1.5,2 -0.828,0 -1.5,-0.895 -1.5,-2 0,-1.105 0.672,-2 1.5,-2 0.828,0 1.5,0.895 1.5,2 z"
           inkscape:connector-curvature="0" />
      </g>
    </clipPath>
  </defs>
  <sodipodi:namedview
     pagecolor="#ffffff"
     bordercolor="#666666"
     borderopacity="1"
     objecttolerance="10"
     gridtolerance="10"
     guidetolerance="10"
     inkscape:pageopacity="0"
     inkscape:pageshadow="2"
     inkscape:window-width="1920"
     inkscape:window-height="1027"
     id="namedview36"
     showgrid="false"
     showguides="false"
     inkscape:zoom="16"
     inkscape:cx="24.946303"
     inkscape:cy="26.010864"
     inkscape:window-x="0"
     inkscape:window-y="25"
     inkscape:window-maximized="1"
     inkscape:current-layer="svg34"
     inkscape:guide-bbox="true"
     inkscape:snap-global="true"
     inkscape:snap-nodes="true"
     inkscape:snap-object-midpoints="false"
     inkscape:snap-midpoints="true"
     inkscape:snap-smooth-nodes="true"
     inkscape:snap-intersection-paths="true"
     inkscape:object-paths="true"
     inkscape:object-nodes="true">
    <inkscape:grid
       type="xygrid"
       id="grid106" />
  </sodipodi:namedview>
  <g
     id="g879"
     transform="matrix(0.33333333,0,0,0.33333333,2.6666667,29.666667)">
    <circle
       r="60"
       cy="-17"
       cx="64"
       id="path4665"
       style="fill:#0091cf;fill-opacity:1;stroke-width:1.72661865" />
    <g
       transform="translate(-108.57573,-85.919998)"
       id="g893" />
    <g
       style="opacity:0.2"
       transform="translate(-39.99218,-148)"
       id="g1050" />
    <path
       style="fill:#000000;fill-opacity:1;stroke-width:0.57553953;opacity:0.2"
       d="M 43.978516 24.417969 A 20 20 0 0 1 24 44 A 20 20 0 0 1 4.0214844 24.582031 A 20 20 0 0 0 4 25 A 20 20 0 0 0 24 45 A 20 20 0 0 0 44 25 A 20 20 0 0 0 43.978516 24.417969 z "
       transform="matrix(3,0,0,3,-8.0000002,-89.000002)"
       id="circle1127" />
    <path
       style="fill:#ffffff;fill-opacity:1;stroke-width:0.57553953;opacity:0.2"
       d="M 24 4 A 20 20 0 0 0 4 24 A 20 20 0 0 0 4.0214844 24.582031 A 20 20 0 0 1 24 5 A 20 20 0 0 1 43.978516 24.417969 A 20 20 0 0 0 44 24 A 20 20 0 0 0 24 4 z "
       transform="matrix(3,0,0,3,-8.0000002,-89.000002)"
       id="circle1131" />
  </g>
  <g
     id="layer1-86"
     inkscape:label="Capa"
     style="display:inline;opacity:0.12949638"
     transform="translate(1692.4507,819.46141)" />
  <g
     id="g33"
     transform="translate(1692.4507,819.46141)">
    <g
       clip-path="url(#clipPath-363610498)"
       id="g35">
      <g
         id="g37"
         transform="translate(1,1)">
        <g
           id="g39"
           style="opacity:0.1">
          <!-- color: #a8cd01 -->
        </g>
      </g>
    </g>
  </g>
  <g
     id="g41"
     transform="translate(1692.4507,819.46141)">
    <g
       clip-path="url(#clipPath-375834240)"
       id="g43">
      <!-- color: #a8cd01 -->
    </g>
  </g>
  <g
     id="g974"
     transform="matrix(1.25,0,0,-1.25,82.923848,160.38029)"
     style="fill:#ffffff;fill-opacity:1" />
  <path
     style="opacity:1;fill:#ffffff;fill-opacity:1;stroke:none;stroke-width:0.71899998;stroke-miterlimit:4;stroke-dasharray:none"
     d="m 13,34 c -1.656854,0 -3,1.343146 -3,3 h 3 11 c 1.656854,0 3,-1.343146 3,-3 h -3 z"
     id="path987"
     inkscape:connector-curvature="0"
     sodipodi:nodetypes="ccccccc" />
  <path
     style="opacity:0.2;fill:#000000;fill-opacity:1;stroke:none;stroke-width:0.71899998;stroke-miterlimit:4;stroke-dasharray:none"
     d="M 26.816406 35 C 26.403282 36.162805 25.30451 37 24 37 L 13 37 L 10.183594 37 C 10.07201 37.314069 10 37.647656 10 38 L 13 38 L 24 38 C 25.656854 38 27 36.656854 27 35 L 26.816406 35 z "
     id="path1003" />
  <path
     style="opacity:0.2;fill:#000000;fill-opacity:1;stroke:none;stroke-width:0.71899998;stroke-miterlimit:4;stroke-dasharray:none"
     d="M 26.816406 30 C 26.403282 31.162805 25.30451 32 24 32 L 13 32 L 10.183594 32 C 10.07201 32.314069 10 32.647656 10 33 L 13 33 L 24 33 C 25.656854 33 27 31.656854 27 30 L 26.816406 30 z "
     id="path1005" />
  <path
     style="opacity:1;fill:#ff8a47;fill-opacity:1;stroke:none;stroke-width:0.75684208;stroke-miterlimit:4;stroke-dasharray:none"
     d="M 30 4 L 26 8 L 20 8 L 20 14 L 16 18 L 20 22 L 20 28 L 26 28 L 30 32 L 34 28 L 40 28 L 40 22 L 44 18 L 40 14 L 40 8 L 34 8 L 30 4 z "
     id="rect1012" />
  <path
     inkscape:connector-curvature="0"
     id="path4645-3"
     d="m 39.000001,17.999999 a 8.9999991,8.9999991 0 0 1 -9,8.999999 8.9999991,8.9999991 0 0 1 -9,-8.999999 8.9999991,8.9999991 0 0 1 9,-8.999999 8.9999991,8.9999991 0 0 1 9,8.999999 z"
     style="opacity:1;fill:#ffcc42;fill-opacity:1;stroke:none;stroke-width:0.20451672;stroke-linecap:square;stroke-linejoin:miter;stroke-miterlimit:4;stroke-dasharray:none;stroke-dashoffset:0;stroke-opacity:1" />
  <path
     style="opacity:0.2;fill:#000000;fill-opacity:1;stroke:none;stroke-width:0.75684208;stroke-miterlimit:4;stroke-dasharray:none"
     d="M 16.5 18.5 L 16 19 L 20 23 L 20 22 L 16.5 18.5 z M 43.5 18.5 L 40 22 L 40 23 L 44 19 L 43.5 18.5 z M 20 28 L 20 29 L 26 29 L 30 33 L 34 29 L 40 29 L 40 28 L 34 28 L 30 32 L 26 28 L 20 28 z "
     id="path1107" />
  <path
     style="opacity:0.2;fill:#000000;fill-opacity:1;stroke:none;stroke-width:0.20451672;stroke-linecap:square;stroke-linejoin:miter;stroke-miterlimit:4;stroke-dasharray:none;stroke-dashoffset:0;stroke-opacity:1"
     d="M 38.978516 18.423828 A 8.9999991 8.9999991 0 0 1 30 27 A 8.9999991 8.9999991 0 0 1 21.021484 18.576172 A 8.9999991 8.9999991 0 0 0 21 19 A 8.9999991 8.9999991 0 0 0 30 28 A 8.9999991 8.9999991 0 0 0 39 19 A 8.9999991 8.9999991 0 0 0 38.978516 18.423828 z "
     id="path1112" />
  <path
     style="opacity:0.2;fill:#ffffff;fill-opacity:1;stroke:none;stroke-width:0.20451672;stroke-linecap:square;stroke-linejoin:miter;stroke-miterlimit:4;stroke-dasharray:none;stroke-dashoffset:0;stroke-opacity:1"
     d="M 30 9 A 8.9999991 8.9999991 0 0 0 21 18 A 8.9999991 8.9999991 0 0 0 21.021484 18.576172 A 8.9999991 8.9999991 0 0 1 30 10 A 8.9999991 8.9999991 0 0 1 38.978516 18.423828 A 8.9999991 8.9999991 0 0 0 39 18 A 8.9999991 8.9999991 0 0 0 30 9 z "
     id="path1117" />
  <path
     style="opacity:0.2;fill:#ffffff;fill-opacity:1;stroke:none;stroke-width:0.75684208;stroke-miterlimit:4;stroke-dasharray:none"
     d="M 30 4 L 26 8 L 20 8 L 20 9 L 26 9 L 30 5 L 34 9 L 40 9 L 40 8 L 34 8 L 30 4 z M 20 14 L 16 18 L 16.5 18.5 L 20 15 L 20 14 z M 40 14 L 40 15 L 43.5 18.5 L 44 18 L 40 14 z "
     id="path1122" />
  <path
     style="opacity:1;fill:#ffffff;fill-opacity:1;stroke:none;stroke-width:0.71899998;stroke-miterlimit:4;stroke-dasharray:none"
     d="m 13,24 c -1.656854,0 -3,1.343146 -3,3 h 3 11 c 1.656854,0 3,-1.343146 3,-3 h -3 z"
     id="path995"
     inkscape:connector-curvature="0"
     sodipodi:nodetypes="ccccccc" />
  <path
     style="opacity:0.2;fill:#000000;fill-opacity:1;stroke:none;stroke-width:0.71899998;stroke-miterlimit:4;stroke-dasharray:none"
     d="M 26.816406 25 C 26.403282 26.162805 25.30451 27 24 27 L 13 27 L 10.183594 27 C 10.07201 27.314069 10 27.647656 10 28 L 13 28 L 24 28 C 25.656854 28 27 26.656854 27 25 L 26.816406 25 z "
     id="path1007" />
  <path
     sodipodi:nodetypes="ccccccc"
     inkscape:connector-curvature="0"
     id="path993"
     d="m 13,29 c -1.656854,0 -3,1.343146 -3,3 h 3 11 c 1.656854,0 3,-1.343146 3,-3 h -3 z"
     style="opacity:1;fill:#ffffff;fill-opacity:1;stroke:none;stroke-width:0.71899998;stroke-miterlimit:4;stroke-dasharray:none" />
</svg>
