<?xml version="1.0" encoding="UTF-8" standalone="no"?>
<!-- Created with Inkscape (http://www.inkscape.org/) -->

<svg
   xmlns:dc="http://purl.org/dc/elements/1.1/"
   xmlns:cc="http://creativecommons.org/ns#"
   xmlns:rdf="http://www.w3.org/1999/02/22-rdf-syntax-ns#"
   xmlns:svg="http://www.w3.org/2000/svg"
   xmlns="http://www.w3.org/2000/svg"
   xmlns:sodipodi="http://sodipodi.sourceforge.net/DTD/sodipodi-0.dtd"
   xmlns:inkscape="http://www.inkscape.org/namespaces/inkscape"
   id="svg7759"
   version="1.1"
   inkscape:version="0.92.2 (unknown)"
   xml:space="preserve"
   width="22"
   height="22"
   viewBox="0 0 22 22"
   sodipodi:docname="fog-night.svg"
   inkscape:export-filename="/home/at2/Imágenes/Iconos de Clima/Tema/sun3.png"
   inkscape:export-xdpi="90"
   inkscape:export-ydpi="90"><metadata
     id="metadata7765"><rdf:RDF><cc:Work
         rdf:about=""><dc:format>image/svg+xml</dc:format><dc:type
           rdf:resource="http://purl.org/dc/dcmitype/StillImage" /><dc:title /></cc:Work></rdf:RDF></metadata><defs
     id="defs7763"><clipPath
       id="clipPath-363610498"><g
         transform="translate(0,-1004.3622)"
         id="g12"><path
           inkscape:connector-curvature="0"
           d="m -24,13 c 0,1.105 -0.672,2 -1.5,2 -0.828,0 -1.5,-0.895 -1.5,-2 0,-1.105 0.672,-2 1.5,-2 0.828,0 1.5,0.895 1.5,2 z"
           transform="matrix(15.333333,0,0,11.5,414.99999,878.8622)"
           style="fill:#1890d0"
           id="path14" /></g></clipPath><clipPath
       id="clipPath-375834240"><g
         transform="translate(0,-1004.3622)"
         id="g17"><path
           inkscape:connector-curvature="0"
           d="m -24,13 c 0,1.105 -0.672,2 -1.5,2 -0.828,0 -1.5,-0.895 -1.5,-2 0,-1.105 0.672,-2 1.5,-2 0.828,0 1.5,0.895 1.5,2 z"
           transform="matrix(15.333333,0,0,11.5,414.99999,878.8622)"
           style="fill:#1890d0"
           id="path19" /></g></clipPath><clipPath
       id="clipPath-363610498-0-11"><g
         id="g12-70-2"
         transform="translate(0,-1004.3622)"><path
           id="path14-19-1"
           style="fill:#1890d0"
           transform="matrix(15.333333,0,0,11.5,414.99999,878.8622)"
           d="m -24,13 c 0,1.105 -0.672,2 -1.5,2 -0.828,0 -1.5,-0.895 -1.5,-2 0,-1.105 0.672,-2 1.5,-2 0.828,0 1.5,0.895 1.5,2 z"
           inkscape:connector-curvature="0" /></g></clipPath><clipPath
       id="clipPath-375834240-3-3"><g
         id="g17-15-5"
         transform="translate(0,-1004.3622)"><path
           id="path19-36-7"
           style="fill:#1890d0"
           transform="matrix(15.333333,0,0,11.5,414.99999,878.8622)"
           d="m -24,13 c 0,1.105 -0.672,2 -1.5,2 -0.828,0 -1.5,-0.895 -1.5,-2 0,-1.105 0.672,-2 1.5,-2 0.828,0 1.5,0.895 1.5,2 z"
           inkscape:connector-curvature="0" /></g></clipPath></defs><sodipodi:namedview
     pagecolor="#ffffff"
     bordercolor="#666666"
     borderopacity="1"
     objecttolerance="10"
     gridtolerance="10"
     guidetolerance="10"
     inkscape:pageopacity="0"
     inkscape:pageshadow="2"
     inkscape:window-width="1920"
     inkscape:window-height="1027"
     id="namedview7761"
     showgrid="false"
     fit-margin-top="0"
     fit-margin-left="0"
     fit-margin-right="0"
     fit-margin-bottom="0"
     inkscape:zoom="27.073258"
     inkscape:cx="6.2729675"
     inkscape:cy="9.1419873"
     inkscape:current-layer="g7767"
     inkscape:snap-bbox="false"
     inkscape:object-paths="true"
     inkscape:snap-smooth-nodes="true"
     inkscape:snap-midpoints="true"
     inkscape:object-nodes="true"
     inkscape:snap-intersection-paths="true"
     inkscape:snap-nodes="true"
     inkscape:snap-text-baseline="true"
     showguides="false"
     inkscape:guide-bbox="true"
     inkscape:bbox-paths="true"
     inkscape:bbox-nodes="true"
     inkscape:snap-bbox-edge-midpoints="true"
     inkscape:snap-bbox-midpoints="true"
     inkscape:snap-global="false"
     inkscape:window-x="0"
     inkscape:window-y="25"
     inkscape:window-maximized="1" /><g
     id="g7767"
     inkscape:groupmode="layer"
     inkscape:label="ink_ext_XXXXXX"
     transform="matrix(1.25,0,0,-1.25,-162.07615,21.88029)"><g
       id="layer1-86"
       inkscape:label="Capa"
       style="display:inline;opacity:0.12949638"
       transform="matrix(0.8,0,0,-0.8,1371.6215,-520.4649)" /><g
       id="g33"
       transform="matrix(0.8,0,0,-0.8,1371.6215,-520.4649)"><g
         clip-path="url(#clipPath-363610498)"
         id="g35"><g
           id="g37"
           transform="translate(1,1)"><g
             id="g39"
             style="opacity:0.1"><!-- color: #a8cd01 --></g></g></g></g><g
       id="g41"
       transform="matrix(0.8,0,0,-0.8,1371.6215,-520.4649)"><g
         clip-path="url(#clipPath-375834240)"
         id="g43"><!-- color: #a8cd01 --></g></g><g
       id="layer1-86-73-7"
       inkscape:label="Capa"
       style="display:inline;opacity:0.12949638"
       transform="matrix(0.8,0,0,-0.8,1371.6216,-520.46492)" /><g
       id="g33-9-8"
       transform="matrix(0.8,0,0,-0.8,1371.6216,-520.46492)"><g
         clip-path="url(#clipPath-363610498-0-11)"
         id="g35-41-4"><g
           id="g37-69-1"
           transform="translate(1,1)"><g
             id="g39-68-4"
             style="opacity:0.1"><!-- color: #a8cd01 --></g></g></g></g><g
       id="g41-5-4"
       transform="matrix(0.8,0,0,-0.8,1371.6216,-520.46492)"><g
         clip-path="url(#clipPath-375834240-3-3)"
         id="g43-78-6"><!-- color: #a8cd01 --></g></g><g
       id="g15170-5-6"
       transform="translate(7.0000001e-5,-1.7e-5)" /><g
       transform="matrix(0.8,0,0,-0.8,1371.6216,-520.46492)"
       style="display:inline;opacity:0.12949638;fill:#d3dae3"
       inkscape:label="Capa"
       id="g4959" /><g
       style="fill:#d3dae3"
       transform="matrix(0.8,0,0,-0.8,1371.6216,-520.46492)"
       id="g4961"><g
         style="fill:#d3dae3"
         id="g4963"
         clip-path="url(#clipPath-363610498-0-11)"><g
           style="fill:#d3dae3"
           transform="translate(1,1)"
           id="g4965"><g
             style="opacity:0.1;fill:#d3dae3"
             id="g4967"><!-- color: #a8cd01 --></g></g></g></g><g
       style="fill:#d3dae3"
       transform="matrix(0.8,0,0,-0.8,1371.6216,-520.46492)"
       id="g4969"><g
         style="fill:#d3dae3"
         id="g4971"
         clip-path="url(#clipPath-375834240-3-3)"><!-- color: #a8cd01 --></g></g><g
       style="fill:#d3dae3"
       id="g4975"
       transform="translate(7.0000001e-5,-1.7e-5)" /><g
       id="g5009"
       inkscape:label="Capa"
       style="display:inline;opacity:0.12949638;fill:#babdb6"
       transform="matrix(0.8,0,0,-0.8,1371.6216,-519.66492)" /><g
       id="g5011"
       transform="matrix(0.8,0,0,-0.8,1371.6216,-519.66492)"
       style="fill:#babdb6"><g
         clip-path="url(#clipPath-363610498-0-11)"
         id="g5013"
         style="fill:#babdb6"><g
           id="g5015"
           transform="translate(1,1)"
           style="fill:#babdb6"><g
             id="g5017"
             style="opacity:0.1;fill:#babdb6"><!-- color: #a8cd01 --></g></g></g></g><g
       id="g5019"
       transform="matrix(0.8,0,0,-0.8,1371.6216,-519.66492)"
       style="fill:#babdb6"><g
         clip-path="url(#clipPath-375834240-3-3)"
         id="g5021"
         style="fill:#babdb6"><!-- color: #a8cd01 --></g></g><g
       id="g5025"
       style="fill:#babdb6"
       transform="translate(7.0000001e-5,0.799983)" /><g
       transform="matrix(0.37499999,0,0,0.37499999,72.293386,-0.12591699)"
       id="g11107" /><g
       id="g11116"
       transform="matrix(0.37499999,0,0,0.37499999,72.293386,0.67412077)"
       style="fill:#2e3436" /><g
       transform="translate(-0.36542023,8.94076)"
       id="g4513"
       style="stroke:#ffffff;stroke-width:1.6;stroke-miterlimit:4;stroke-dasharray:none" /><path
       style="color:#000000;display:inline;overflow:visible;visibility:visible;opacity:1;fill:#d3dae3;fill-opacity:1;fill-rule:nonzero;stroke:none;stroke-width:4;stroke-linecap:round;stroke-linejoin:round;stroke-miterlimit:10;stroke-dasharray:none;stroke-dashoffset:0;stroke-opacity:1;marker:none;enable-background:accumulate"
       d="M 9.0449219,3 C 5.4813131,3.9499091 3.0013592,7.175051 3,10.861328 c 0.00341,0.424079 0.039983,0.847242 0.109375,1.265625 l 1.6113281,0 2,0 6.0800779,0 C 12.631174,12.031374 12.465052,11.929747 12.302734,11.822266 12.079178,11.66906 11.863415,11.504792 11.65625,11.330078 11.448553,11.155225 11.249737,10.970098 11.060547,10.775391 10.871426,10.580691 10.692166,10.37666 10.523438,10.164062 10.354332,9.9520487 10.195931,9.731722 10.048828,9.5039062 9.9023432,9.2751195 9.7674087,9.0391471 9.6445312,8.796875 9.5215533,8.5551619 9.4107381,8.3074571 9.3125,8.0546875 9.2137521,7.8019813 9.1277071,7.5444984 9.0546875,7.2832031 8.9822061,7.02136 8.9228871,6.7560539 8.8769531,6.4882812 8.8309851,6.2211937 8.7983925,5.9519781 8.7792969,5.6816406 8.7653295,5.4898972 8.7581635,5.2977194 8.7578125,5.1054688 8.7579252,4.8341214 8.7716142,4.5629495 8.7988281,4.2929688 8.8257437,4.0228894 8.8661588,3.7543246 8.9199219,3.4882812 8.9565354,3.3242701 8.9982221,3.1614316 9.0449219,3 Z"
       transform="matrix(0.8,0,0,-0.8,129.66092,17.504232)"
       id="path11286"
       inkscape:connector-curvature="0"
       sodipodi:nodetypes="cccccccccccccccccccc" /><path
       style="opacity:1;fill:#d3dae3;fill-opacity:1;stroke:none;stroke-width:1.15039992;stroke-miterlimit:4;stroke-dasharray:none"
       d="m 132.86092,6.304232 c 0,-0.883656 0.71634,-1.6 1.6,-1.6 h 6.4 1.6 1.6 c 0,0.883656 -0.71634,1.6 -1.6,1.6 h -8 v 0 z"
       id="path870"
       inkscape:connector-curvature="0"
       sodipodi:nodetypes="cscccsccc" /><path
       style="opacity:1;fill:#d3dae3;fill-opacity:1;stroke:none;stroke-width:1.15039992;stroke-miterlimit:4;stroke-dasharray:none"
       d="m 132.86092,3.904232 c 0,-0.883656 0.71634,-1.6 1.6,-1.6 h 6.4 1.6 1.6 c 0,0.883656 -0.71634,1.6 -1.6,1.6 h -8 v 0 z"
       id="path870-7"
       inkscape:connector-curvature="0"
       sodipodi:nodetypes="cscccsccc" /></g></svg>