<?xml version="1.0" encoding="UTF-8" standalone="no"?>
<!-- Created with Inkscape (http://www.inkscape.org/) -->

<svg
   xmlns:dc="http://purl.org/dc/elements/1.1/"
   xmlns:cc="http://creativecommons.org/ns#"
   xmlns:rdf="http://www.w3.org/1999/02/22-rdf-syntax-ns#"
   xmlns:svg="http://www.w3.org/2000/svg"
   xmlns="http://www.w3.org/2000/svg"
   xmlns:sodipodi="http://sodipodi.sourceforge.net/DTD/sodipodi-0.dtd"
   xmlns:inkscape="http://www.inkscape.org/namespaces/inkscape"
   id="svg7759"
   version="1.1"
   inkscape:version="0.92.2 (unknown)"
   xml:space="preserve"
   width="22"
   height="22"
   viewBox="0 0 22 22"
   sodipodi:docname="fog.svg"
   inkscape:export-filename="/home/art2/sung.png"
   inkscape:export-xdpi="90"
   inkscape:export-ydpi="90"><metadata
     id="metadata7765"><rdf:RDF><cc:Work
         rdf:about=""><dc:format>image/svg+xml</dc:format><dc:type
           rdf:resource="http://purl.org/dc/dcmitype/StillImage" /><dc:title></dc:title></cc:Work></rdf:RDF></metadata><defs
     id="defs7763"><clipPath
       id="clipPath-363610498"><g
         transform="translate(0,-1004.3622)"
         id="g12"><path
           inkscape:connector-curvature="0"
           d="m -24,13 c 0,1.105 -0.672,2 -1.5,2 -0.828,0 -1.5,-0.895 -1.5,-2 0,-1.105 0.672,-2 1.5,-2 0.828,0 1.5,0.895 1.5,2 z"
           transform="matrix(15.333333,0,0,11.5,414.99999,878.8622)"
           style="fill:#1890d0"
           id="path14" /></g></clipPath><clipPath
       id="clipPath-375834240"><g
         transform="translate(0,-1004.3622)"
         id="g17"><path
           inkscape:connector-curvature="0"
           d="m -24,13 c 0,1.105 -0.672,2 -1.5,2 -0.828,0 -1.5,-0.895 -1.5,-2 0,-1.105 0.672,-2 1.5,-2 0.828,0 1.5,0.895 1.5,2 z"
           transform="matrix(15.333333,0,0,11.5,414.99999,878.8622)"
           style="fill:#1890d0"
           id="path19" /></g></clipPath></defs><sodipodi:namedview
     pagecolor="#ffffff"
     bordercolor="#666666"
     borderopacity="1"
     objecttolerance="10"
     gridtolerance="10"
     guidetolerance="10"
     inkscape:pageopacity="0"
     inkscape:pageshadow="2"
     inkscape:window-width="1920"
     inkscape:window-height="1027"
     id="namedview7761"
     showgrid="true"
     fit-margin-top="0"
     fit-margin-left="0"
     fit-margin-right="0"
     fit-margin-bottom="0"
     inkscape:zoom="23.906249"
     inkscape:cx="8.0532059"
     inkscape:cy="11.578084"
     inkscape:current-layer="g7767"
     inkscape:snap-bbox="false"
     inkscape:object-paths="true"
     inkscape:snap-smooth-nodes="true"
     inkscape:snap-midpoints="true"
     inkscape:object-nodes="true"
     inkscape:snap-intersection-paths="true"
     inkscape:snap-nodes="true"
     inkscape:snap-text-baseline="true"
     showguides="false"
     inkscape:guide-bbox="true"
     inkscape:snap-global="true"
     inkscape:window-x="0"
     inkscape:window-y="25"
     inkscape:window-maximized="1"><inkscape:grid
       type="xygrid"
       id="grid12918" /></sodipodi:namedview><g
     id="g7767"
     inkscape:groupmode="layer"
     inkscape:label="ink_ext_XXXXXX"
     transform="matrix(1.25,0,0,-1.25,-162.07615,21.88029)"><path
       style="opacity:1;fill:#d3dae3;fill-opacity:1;stroke:none;stroke-width:2;stroke-linecap:square;stroke-linejoin:miter;stroke-miterlimit:4;stroke-dasharray:none;stroke-dashoffset:0;stroke-opacity:1"
       d="M 11.001953 3 L 9.671875 4.6445312 A 6.4999997 6.4999997 0 0 1 11 4.5 A 6.4999997 6.4999997 0 0 1 12.324219 4.6367188 L 11.001953 3 z M 6.2988281 4.5273438 L 6.1894531 6.640625 A 6.4999997 6.4999997 0 0 1 8.3417969 5.0761719 L 6.2988281 4.5273438 z M 15.703125 4.5292969 L 13.664062 5.078125 A 6.4999997 6.4999997 0 0 1 15.8125 6.640625 L 15.703125 4.5292969 z M 16.632812 7.7714844 A 6.4999997 6.4999997 0 0 1 17.455078 10.302734 L 18.609375 8.5292969 L 16.632812 7.7714844 z M 5.3632812 7.7734375 L 3.3925781 8.5273438 L 4.5410156 10.292969 A 6.4999997 6.4999997 0 0 1 5.3632812 7.7734375 z M 4.5449219 11.697266 L 3.6972656 13 L 4.8261719 13 A 6.4999997 6.4999997 0 0 1 4.5449219 11.697266 z M 17.458984 11.707031 A 6.4999997 6.4999997 0 0 1 17.177734 13 L 18.300781 13 L 17.458984 11.707031 z "
       transform="matrix(0.8,0,0,-0.8,129.66092,17.504232)"
       id="path12840" /><g
       id="layer1-86"
       inkscape:label="Capa"
       style="display:inline;opacity:0.12949638"
       transform="matrix(0.8,0,0,-0.8,1371.6215,-520.4649)" /><g
       id="g33"
       transform="matrix(0.8,0,0,-0.8,1371.6215,-520.4649)"><g
         clip-path="url(#clipPath-363610498)"
         id="g35"><g
           id="g37"
           transform="translate(1,1)"><g
             id="g39"
             style="opacity:0.1"><!-- color: #a8cd01 --></g></g></g></g><g
       id="g41"
       transform="matrix(0.8,0,0,-0.8,1371.6215,-520.4649)"><g
         clip-path="url(#clipPath-375834240)"
         id="g43"><!-- color: #a8cd01 --></g></g><g
       style="fill:#5c3566"
       id="g4983"
       transform="translate(-1.1908763e-4,-0.8)" /><g
       transform="matrix(0.37499999,0,0,0.37499999,81.038075,-0.05985737)"
       id="g5188"
       style="fill:#ef2929" /><g
       style="fill:#a40000"
       id="g5260"
       transform="matrix(0.37499999,0,0,0.37499999,81.038075,-0.85985498)" /><g
       transform="matrix(0.16935499,0,0,0.16935499,107.83125,0.04947654)"
       id="g5566"
       style="fill:#3465a4" /><g
       style="fill:#ef2929"
       id="g5635"
       transform="matrix(0.16935499,0,0,0.16935499,107.83125,-0.3505172)" /><path
       style="opacity:1;fill:#d3dae3;fill-opacity:1;stroke:none;stroke-width:1.38888884;stroke-linecap:square;stroke-linejoin:miter;stroke-miterlimit:4;stroke-dasharray:none;stroke-dashoffset:0;stroke-opacity:1"
       d="M 11 6 A 5 5 0 0 0 6 11 A 5 5 0 0 0 6.4238281 13 L 15.580078 13 A 5 5 0 0 0 16 11 A 5 5 0 0 0 11 6 z "
       transform="matrix(0.8,0,0,-0.8,129.66092,17.504232)"
       id="path4645" /><path
       style="opacity:1;fill:#d3dae3;fill-opacity:1;stroke:none;stroke-width:1.15039992;stroke-miterlimit:4;stroke-dasharray:none"
       d="m 132.86092,6.304232 c 0,-0.8836556 0.71634,-1.6 1.6,-1.6 h 6.4 1.6 1.6 c 0,0.8836556 -0.71634,1.6 -1.6,1.6 h -8 v 0 z"
       id="path870"
       inkscape:connector-curvature="0"
       sodipodi:nodetypes="cscccsccc" /><path
       style="opacity:1;fill:#d3dae3;fill-opacity:1;stroke:none;stroke-width:1.15039992;stroke-miterlimit:4;stroke-dasharray:none"
       d="m 132.86092,3.904232 c 0,-0.883656 0.71634,-1.6 1.6,-1.6 h 6.4 1.6 1.6 c 0,0.883656 -0.71634,1.6 -1.6,1.6 h -8 v 0 z"
       id="path870-7"
       inkscape:connector-curvature="0"
       sodipodi:nodetypes="cscccsccc" /></g></svg>