<?xml version="1.0" encoding="UTF-8" standalone="no"?>
<!-- Created with Inkscape (http://www.inkscape.org/) -->

<svg
   xmlns:dc="http://purl.org/dc/elements/1.1/"
   xmlns:cc="http://creativecommons.org/ns#"
   xmlns:rdf="http://www.w3.org/1999/02/22-rdf-syntax-ns#"
   xmlns:svg="http://www.w3.org/2000/svg"
   xmlns="http://www.w3.org/2000/svg"
   xmlns:sodipodi="http://sodipodi.sourceforge.net/DTD/sodipodi-0.dtd"
   xmlns:inkscape="http://www.inkscape.org/namespaces/inkscape"
   id="svg7759"
   version="1.1"
   inkscape:version="0.91 r13725"
   xml:space="preserve"
   width="22"
   height="22"
   viewBox="0 0 22 22"
   sodipodi:docname="sun-night.svg"
   inkscape:export-filename="/home/at2/Imágenes/Iconos de Clima/Tema/sun3.png"
   inkscape:export-xdpi="90"
   inkscape:export-ydpi="90"><metadata
     id="metadata7765"><rdf:RDF><cc:Work
         rdf:about=""><dc:format>image/svg+xml</dc:format><dc:type
           rdf:resource="http://purl.org/dc/dcmitype/StillImage" /><dc:title /></cc:Work></rdf:RDF></metadata><defs
     id="defs7763"><clipPath
       id="clipPath-363610498"><g
         transform="translate(0,-1004.3622)"
         id="g12"><path
           inkscape:connector-curvature="0"
           d="m -24,13 c 0,1.105 -0.672,2 -1.5,2 -0.828,0 -1.5,-0.895 -1.5,-2 0,-1.105 0.672,-2 1.5,-2 0.828,0 1.5,0.895 1.5,2 z"
           transform="matrix(15.333333,0,0,11.5,414.99999,878.8622)"
           style="fill:#1890d0"
           id="path14" /></g></clipPath><clipPath
       id="clipPath-375834240"><g
         transform="translate(0,-1004.3622)"
         id="g17"><path
           inkscape:connector-curvature="0"
           d="m -24,13 c 0,1.105 -0.672,2 -1.5,2 -0.828,0 -1.5,-0.895 -1.5,-2 0,-1.105 0.672,-2 1.5,-2 0.828,0 1.5,0.895 1.5,2 z"
           transform="matrix(15.333333,0,0,11.5,414.99999,878.8622)"
           style="fill:#1890d0"
           id="path19" /></g></clipPath><clipPath
       id="clipPath-363610498-0-11"><g
         id="g12-70-2"
         transform="translate(0,-1004.3622)"><path
           id="path14-19-1"
           style="fill:#1890d0"
           transform="matrix(15.333333,0,0,11.5,414.99999,878.8622)"
           d="m -24,13 c 0,1.105 -0.672,2 -1.5,2 -0.828,0 -1.5,-0.895 -1.5,-2 0,-1.105 0.672,-2 1.5,-2 0.828,0 1.5,0.895 1.5,2 z"
           inkscape:connector-curvature="0" /></g></clipPath><clipPath
       id="clipPath-375834240-3-3"><g
         id="g17-15-5"
         transform="translate(0,-1004.3622)"><path
           id="path19-36-7"
           style="fill:#1890d0"
           transform="matrix(15.333333,0,0,11.5,414.99999,878.8622)"
           d="m -24,13 c 0,1.105 -0.672,2 -1.5,2 -0.828,0 -1.5,-0.895 -1.5,-2 0,-1.105 0.672,-2 1.5,-2 0.828,0 1.5,0.895 1.5,2 z"
           inkscape:connector-curvature="0" /></g></clipPath></defs><sodipodi:namedview
     pagecolor="#ffffff"
     bordercolor="#666666"
     borderopacity="1"
     objecttolerance="10"
     gridtolerance="10"
     guidetolerance="10"
     inkscape:pageopacity="0"
     inkscape:pageshadow="2"
     inkscape:window-width="1440"
     inkscape:window-height="876"
     id="namedview7761"
     showgrid="false"
     fit-margin-top="0"
     fit-margin-left="0"
     fit-margin-right="0"
     fit-margin-bottom="0"
     inkscape:zoom="25.625009"
     inkscape:cx="1.1630477"
     inkscape:cy="3.0450744"
     inkscape:current-layer="g7767"
     inkscape:snap-bbox="false"
     inkscape:object-paths="true"
     inkscape:snap-smooth-nodes="true"
     inkscape:snap-midpoints="true"
     inkscape:object-nodes="true"
     inkscape:snap-intersection-paths="true"
     inkscape:snap-nodes="true"
     inkscape:snap-text-baseline="true"
     showguides="false"
     inkscape:guide-bbox="true"
     inkscape:bbox-paths="true"
     inkscape:bbox-nodes="true"
     inkscape:snap-bbox-edge-midpoints="true"
     inkscape:snap-bbox-midpoints="true"
     inkscape:snap-global="false"
     inkscape:window-x="0"
     inkscape:window-y="24"
     inkscape:window-maximized="1" /><g
     id="g7767"
     inkscape:groupmode="layer"
     inkscape:label="ink_ext_XXXXXX"
     transform="matrix(1.25,0,0,-1.25,-162.07615,21.88029)"><g
       id="layer1-86"
       inkscape:label="Capa"
       style="display:inline;opacity:0.12949638"
       transform="matrix(0.8,0,0,-0.8,1371.6215,-520.4649)" /><g
       id="g33"
       transform="matrix(0.8,0,0,-0.8,1371.6215,-520.4649)"><g
         clip-path="url(#clipPath-363610498)"
         id="g35"><g
           id="g37"
           transform="translate(1,1)"><g
             id="g39"
             style="opacity:0.1"><!-- color: #a8cd01 --></g></g></g></g><g
       id="g41"
       transform="matrix(0.8,0,0,-0.8,1371.6215,-520.4649)"><g
         clip-path="url(#clipPath-375834240)"
         id="g43"><!-- color: #a8cd01 --></g></g><g
       id="layer1-86-73-7"
       inkscape:label="Capa"
       style="display:inline;opacity:0.12949638"
       transform="matrix(0.8,0,0,-0.8,1371.6216,-520.46492)" /><g
       id="g33-9-8"
       transform="matrix(0.8,0,0,-0.8,1371.6216,-520.46492)"><g
         clip-path="url(#clipPath-363610498-0-11)"
         id="g35-41-4"><g
           id="g37-69-1"
           transform="translate(1,1)"><g
             id="g39-68-4"
             style="opacity:0.1"><!-- color: #a8cd01 --></g></g></g></g><g
       id="g41-5-4"
       transform="matrix(0.8,0,0,-0.8,1371.6216,-520.46492)"><g
         clip-path="url(#clipPath-375834240-3-3)"
         id="g43-78-6"><!-- color: #a8cd01 --></g></g><g
       id="g15170-5-6"
       transform="translate(7.0000001e-5,-1.7e-5)" /><g
       transform="matrix(0.8,0,0,-0.8,1371.6216,-520.46492)"
       style="display:inline;opacity:0.12949638;fill:#d3dae3"
       inkscape:label="Capa"
       id="g4959" /><g
       style="fill:#d3dae3"
       transform="matrix(0.8,0,0,-0.8,1371.6216,-520.46492)"
       id="g4961"><g
         style="fill:#d3dae3"
         id="g4963"
         clip-path="url(#clipPath-363610498-0-11)"><g
           style="fill:#d3dae3"
           transform="translate(1,1)"
           id="g4965"><g
             style="opacity:0.1;fill:#d3dae3"
             id="g4967"><!-- color: #a8cd01 --></g></g></g></g><g
       style="fill:#d3dae3"
       transform="matrix(0.8,0,0,-0.8,1371.6216,-520.46492)"
       id="g4969"><g
         style="fill:#d3dae3"
         id="g4971"
         clip-path="url(#clipPath-375834240-3-3)"><!-- color: #a8cd01 --></g></g><g
       style="fill:#d3dae3"
       id="g4975"
       transform="translate(7.0000001e-5,-1.7e-5)" /><g
       id="g5009"
       inkscape:label="Capa"
       style="display:inline;opacity:0.12949638;fill:#babdb6"
       transform="matrix(0.8,0,0,-0.8,1371.6216,-519.66492)" /><g
       id="g5011"
       transform="matrix(0.8,0,0,-0.8,1371.6216,-519.66492)"
       style="fill:#babdb6"><g
         clip-path="url(#clipPath-363610498-0-11)"
         id="g5013"
         style="fill:#babdb6"><g
           id="g5015"
           transform="translate(1,1)"
           style="fill:#babdb6"><g
             id="g5017"
             style="opacity:0.1;fill:#babdb6"><!-- color: #a8cd01 --></g></g></g></g><g
       id="g5019"
       transform="matrix(0.8,0,0,-0.8,1371.6216,-519.66492)"
       style="fill:#babdb6"><g
         clip-path="url(#clipPath-375834240-3-3)"
         id="g5021"
         style="fill:#babdb6"><!-- color: #a8cd01 --></g></g><g
       id="g5025"
       style="fill:#babdb6"
       transform="translate(7.0000001e-5,0.799983)" /><g
       transform="matrix(0.37499999,0,0,0.37499999,72.293386,-0.12591699)"
       id="g11107" /><g
       id="g11116"
       transform="matrix(0.37499999,0,0,0.37499999,72.293386,0.67412077)"
       style="fill:#2e3436" /><path
       id="path11286"
       d="m 136.89713,15.104217 a 6.5146964,6.5113624 0 0 1 -4.83621,-6.2886216 6.5146964,6.5113624 0 0 1 6.5147,-6.5113639 6.5146964,6.5113624 0 0 1 6.28529,4.8268395 6.5146964,6.5113624 0 0 0 -0.57149,-0.1279015 6.5146964,6.5113624 0 0 0 -0.64637,-0.078485 6.5146964,6.5113624 0 0 0 -0.46098,-0.016341 6.5146964,6.5113624 0 0 0 -0.65038,0.032704 6.5146964,6.5113624 0 0 0 -0.64383,0.097381 6.5146964,6.5113624 0 0 0 -0.63075,0.1609663 6.5146964,6.5113624 0 0 0 -0.61184,0.223104 6.5146964,6.5113624 0 0 0 -0.5864,0.2830536 6.5146964,6.5113624 0 0 0 -0.55513,0.3401028 6.5146964,6.5113624 0 0 0 -0.51841,0.3938781 6.5146964,6.5113624 0 0 0 -0.47661,0.4436615 6.5146964,6.5113624 0 0 0 -0.42971,0.4890763 6.5146964,6.5113624 0 0 0 -0.37881,0.5294122 6.5146964,6.5113624 0 0 0 -0.32391,0.5646587 6.5146964,6.5113624 0 0 0 -0.26612,0.59409 6.5146964,6.5113624 0 0 0 -0.20541,0.617708 6.5146964,6.5113624 0 0 0 -0.1425,0.635147 6.5146964,6.5113624 0 0 0 -0.0786,0.64605 6.5146964,6.5113624 0 0 0 -0.0164,0.460374 6.5146964,6.5113624 0 0 0 0.0328,0.650046 6.5146964,6.5113624 0 0 0 0.0974,0.643871 6.5146964,6.5113624 0 0 0 0.0996,0.390605 z"
       style="color:#000000;display:inline;overflow:visible;visibility:visible;opacity:1;fill:#d3dae3;fill-opacity:1;fill-rule:nonzero;stroke:none;stroke-width:4;stroke-linecap:round;stroke-linejoin:round;stroke-miterlimit:10;stroke-dasharray:none;stroke-dashoffset:0;stroke-opacity:1;marker:none;enable-background:accumulate"
       inkscape:connector-curvature="0" /></g></svg>