<?xml version="1.0" encoding="UTF-8" standalone="no"?>
<!-- Created with Inkscape (http://www.inkscape.org/) -->

<svg
   xmlns:dc="http://purl.org/dc/elements/1.1/"
   xmlns:cc="http://creativecommons.org/ns#"
   xmlns:rdf="http://www.w3.org/1999/02/22-rdf-syntax-ns#"
   xmlns:svg="http://www.w3.org/2000/svg"
   xmlns="http://www.w3.org/2000/svg"
   xmlns:sodipodi="http://sodipodi.sourceforge.net/DTD/sodipodi-0.dtd"
   xmlns:inkscape="http://www.inkscape.org/namespaces/inkscape"
   id="svg7759"
   version="1.1"
   inkscape:version="0.92.2 (unknown)"
   xml:space="preserve"
   width="22"
   height="22"
   viewBox="0 0 22 22"
   sodipodi:docname="sun.svg"
   inkscape:export-filename="/home/art2/sung.png"
   inkscape:export-xdpi="90"
   inkscape:export-ydpi="90"><metadata
     id="metadata7765"><rdf:RDF><cc:Work
         rdf:about=""><dc:format>image/svg+xml</dc:format><dc:type
           rdf:resource="http://purl.org/dc/dcmitype/StillImage" /><dc:title></dc:title></cc:Work></rdf:RDF></metadata><defs
     id="defs7763"><clipPath
       id="clipPath-363610498"><g
         transform="translate(0,-1004.3622)"
         id="g12"><path
           inkscape:connector-curvature="0"
           d="m -24,13 c 0,1.105 -0.672,2 -1.5,2 -0.828,0 -1.5,-0.895 -1.5,-2 0,-1.105 0.672,-2 1.5,-2 0.828,0 1.5,0.895 1.5,2 z"
           transform="matrix(15.333333,0,0,11.5,414.99999,878.8622)"
           style="fill:#1890d0"
           id="path14" /></g></clipPath><clipPath
       id="clipPath-375834240"><g
         transform="translate(0,-1004.3622)"
         id="g17"><path
           inkscape:connector-curvature="0"
           d="m -24,13 c 0,1.105 -0.672,2 -1.5,2 -0.828,0 -1.5,-0.895 -1.5,-2 0,-1.105 0.672,-2 1.5,-2 0.828,0 1.5,0.895 1.5,2 z"
           transform="matrix(15.333333,0,0,11.5,414.99999,878.8622)"
           style="fill:#1890d0"
           id="path19" /></g></clipPath></defs><sodipodi:namedview
     pagecolor="#ffffff"
     bordercolor="#666666"
     borderopacity="1"
     objecttolerance="10"
     gridtolerance="10"
     guidetolerance="10"
     inkscape:pageopacity="0"
     inkscape:pageshadow="2"
     inkscape:window-width="1920"
     inkscape:window-height="1027"
     id="namedview7761"
     showgrid="true"
     fit-margin-top="0"
     fit-margin-left="0"
     fit-margin-right="0"
     fit-margin-bottom="0"
     inkscape:zoom="23.906249"
     inkscape:cx="8.0532059"
     inkscape:cy="11.578084"
     inkscape:current-layer="g7767"
     inkscape:snap-bbox="false"
     inkscape:object-paths="true"
     inkscape:snap-smooth-nodes="true"
     inkscape:snap-midpoints="true"
     inkscape:object-nodes="true"
     inkscape:snap-intersection-paths="true"
     inkscape:snap-nodes="true"
     inkscape:snap-text-baseline="true"
     showguides="false"
     inkscape:guide-bbox="true"
     inkscape:snap-global="true"
     inkscape:window-x="0"
     inkscape:window-y="25"
     inkscape:window-maximized="1"><inkscape:grid
       type="xygrid"
       id="grid12918" /></sodipodi:namedview><g
     id="g7767"
     inkscape:groupmode="layer"
     inkscape:label="ink_ext_XXXXXX"
     transform="matrix(1.25,0,0,-1.25,-162.07615,21.88029)"><path
       style="opacity:1;fill:#d3dae3;fill-opacity:1;stroke:none;stroke-width:1.60000002;stroke-linecap:square;stroke-linejoin:miter;stroke-miterlimit:4;stroke-dasharray:none;stroke-dashoffset:0;stroke-opacity:1"
       d="m 138.46248,15.104232 -1.06406,-1.315625 a 5.1999998,5.1999998 0 0 0 1.0625,0.115625 5.1999998,5.1999998 0 0 0 1.05938,-0.109375 z m -3.7625,-1.221875 -0.0875,-1.690625 a 5.1999998,5.1999998 0 0 0 1.72188,1.251563 z m 7.52344,-0.0016 -1.63125,-0.439063 a 5.1999998,5.1999998 0 0 0 1.71875,-1.25 z m 0.74375,-2.59375 a 5.1999998,5.1999998 0 0 0 0.65781,-2.025 l 0.92344,1.41875 z m -9.01563,-0.0016 -1.57656,-0.603125 0.91875,-1.4125 a 5.1999998,5.1999998 0 0 0 0.65781,2.015625 z m -0.65468,-3.1390626 -0.92344,-1.4187496 1.58125,-0.6062504 a 5.1999998,5.1999998 0 0 0 -0.65781,2.025 z m 10.33125,-0.00781 A 5.1999998,5.1999998 0 0 0 142.9703,6.1229826 l 1.57656,0.6031248 z m -9.01719,-2.9218752 0.0875,-1.6890624 1.63125,0.4390624 a 5.1999998,5.1999998 0 0 0 -1.71875,1.25 z m 7.69844,0 a 5.1999998,5.1999998 0 0 0 -1.72188,-1.2515624 l 1.63438,-0.4390624 z M 139.52342,3.619857 a 5.1999998,5.1999998 0 0 0 -1.0625,-0.1156248 5.1999998,5.1999998 0 0 0 -1.05938,0.1093752 l 1.05782,-1.3093752 z"
       id="path12840"
       inkscape:connector-curvature="0" /><g
       id="layer1-86"
       inkscape:label="Capa"
       style="display:inline;opacity:0.12949638"
       transform="matrix(0.8,0,0,-0.8,1371.6215,-520.4649)" /><g
       id="g33"
       transform="matrix(0.8,0,0,-0.8,1371.6215,-520.4649)"><g
         clip-path="url(#clipPath-363610498)"
         id="g35"><g
           id="g37"
           transform="translate(1,1)"><g
             id="g39"
             style="opacity:0.1"><!-- color: #a8cd01 --></g></g></g></g><g
       id="g41"
       transform="matrix(0.8,0,0,-0.8,1371.6215,-520.4649)"><g
         clip-path="url(#clipPath-375834240)"
         id="g43"><!-- color: #a8cd01 --></g></g><g
       style="fill:#5c3566"
       id="g4983"
       transform="translate(-1.1908763e-4,-0.8)" /><g
       transform="matrix(0.37499999,0,0,0.37499999,81.038075,-0.05985737)"
       id="g5188"
       style="fill:#ef2929" /><g
       style="fill:#a40000"
       id="g5260"
       transform="matrix(0.37499999,0,0,0.37499999,81.038075,-0.85985498)" /><g
       transform="matrix(0.16935499,0,0,0.16935499,107.83125,0.04947654)"
       id="g5566"
       style="fill:#3465a4" /><g
       style="fill:#ef2929"
       id="g5635"
       transform="matrix(0.16935499,0,0,0.16935499,107.83125,-0.3505172)" /><circle
       r="4"
       style="opacity:1;fill:#d3dae3;fill-opacity:1;stroke:none;stroke-width:1.11111104;stroke-linecap:square;stroke-linejoin:miter;stroke-miterlimit:4;stroke-dasharray:none;stroke-dashoffset:0;stroke-opacity:1"
       id="path4645"
       cx="138.46092"
       cy="-8.7042322"
       transform="scale(1,-1)" /></g></svg>