<?xml version="1.0" encoding="UTF-8" standalone="no"?>
<!-- Created with Inkscape (http://www.inkscape.org/) -->

<svg
   xmlns:dc="http://purl.org/dc/elements/1.1/"
   xmlns:cc="http://creativecommons.org/ns#"
   xmlns:rdf="http://www.w3.org/1999/02/22-rdf-syntax-ns#"
   xmlns:svg="http://www.w3.org/2000/svg"
   xmlns="http://www.w3.org/2000/svg"
   xmlns:sodipodi="http://sodipodi.sourceforge.net/DTD/sodipodi-0.dtd"
   xmlns:inkscape="http://www.inkscape.org/namespaces/inkscape"
   id="svg7759"
   version="1.1"
   inkscape:version="0.92.2 (unknown)"
   xml:space="preserve"
   width="22"
   height="22"
   viewBox="0 0 22 22"
   sodipodi:docname="partlycloud-night.svg"
   inkscape:export-filename="/home/at2/Imágenes/Iconos de Clima/Tema/22/sun-night.png"
   inkscape:export-xdpi="15.46875"
   inkscape:export-ydpi="15.46875"><metadata
     id="metadata7765"><rdf:RDF><cc:Work
         rdf:about=""><dc:format>image/svg+xml</dc:format><dc:type
           rdf:resource="http://purl.org/dc/dcmitype/StillImage" /><dc:title></dc:title></cc:Work></rdf:RDF></metadata><defs
     id="defs7763"><clipPath
       id="clipPath-363610498"><g
         transform="translate(0,-1004.3622)"
         id="g12"><path
           inkscape:connector-curvature="0"
           d="m -24,13 c 0,1.105 -0.672,2 -1.5,2 -0.828,0 -1.5,-0.895 -1.5,-2 0,-1.105 0.672,-2 1.5,-2 0.828,0 1.5,0.895 1.5,2 z"
           transform="matrix(15.333333,0,0,11.5,414.99999,878.8622)"
           style="fill:#1890d0"
           id="path14" /></g></clipPath><clipPath
       id="clipPath-375834240"><g
         transform="translate(0,-1004.3622)"
         id="g17"><path
           inkscape:connector-curvature="0"
           d="m -24,13 c 0,1.105 -0.672,2 -1.5,2 -0.828,0 -1.5,-0.895 -1.5,-2 0,-1.105 0.672,-2 1.5,-2 0.828,0 1.5,0.895 1.5,2 z"
           transform="matrix(15.333333,0,0,11.5,414.99999,878.8622)"
           style="fill:#1890d0"
           id="path19" /></g></clipPath></defs><sodipodi:namedview
     pagecolor="#ffffff"
     bordercolor="#666666"
     borderopacity="1"
     objecttolerance="10"
     gridtolerance="10"
     guidetolerance="10"
     inkscape:pageopacity="0"
     inkscape:pageshadow="2"
     inkscape:window-width="1920"
     inkscape:window-height="1027"
     id="namedview7761"
     showgrid="false"
     fit-margin-top="0"
     fit-margin-left="0"
     fit-margin-right="0"
     fit-margin-bottom="0"
     inkscape:zoom="8"
     inkscape:cx="42.901194"
     inkscape:cy="-3.6497534"
     inkscape:current-layer="g7767"
     inkscape:snap-bbox="false"
     inkscape:object-paths="true"
     inkscape:snap-smooth-nodes="true"
     inkscape:snap-midpoints="true"
     inkscape:object-nodes="true"
     inkscape:snap-intersection-paths="true"
     inkscape:snap-nodes="true"
     inkscape:snap-text-baseline="true"
     showguides="false"
     inkscape:guide-bbox="true"
     inkscape:bbox-paths="true"
     inkscape:bbox-nodes="true"
     inkscape:snap-bbox-edge-midpoints="true"
     inkscape:snap-bbox-midpoints="true"
     inkscape:window-x="0"
     inkscape:window-y="25"
     inkscape:window-maximized="1"
     inkscape:snap-global="true"><inkscape:grid
       type="xygrid"
       id="grid834" /><sodipodi:guide
       position="20,15"
       orientation="0,1"
       id="guide847"
       inkscape:locked="false" /><sodipodi:guide
       position="15,15"
       orientation="1,0"
       id="guide849"
       inkscape:locked="false" /><sodipodi:guide
       position="15,19.000011"
       orientation="0,1"
       id="guide860"
       inkscape:locked="false" /><sodipodi:guide
       position="19.000009,15"
       orientation="1,0"
       id="guide862"
       inkscape:locked="false" /><sodipodi:guide
       position="13.53125,3"
       orientation="0,1"
       id="guide865"
       inkscape:locked="false"
       inkscape:label=""
       inkscape:color="rgb(0,0,255)" /><sodipodi:guide
       position="3,3"
       orientation="1,0"
       id="guide867"
       inkscape:locked="false"
       inkscape:label=""
       inkscape:color="rgb(0,0,255)" /></sodipodi:namedview><g
     id="g7767"
     inkscape:groupmode="layer"
     inkscape:label="ink_ext_XXXXXX"
     transform="matrix(1.25,0,0,-1.25,-162.07615,21.88029)"><path
       style="opacity:1;fill:#31363b;fill-opacity:1;stroke:none;stroke-width:2.47971702;stroke-miterlimit:4;stroke-dasharray:none;stroke-opacity:1"
       d="m 14,5 c -1.442212,0.00133 -2.772039,0.7789302 -3.480469,2.0351562 1.325461,0.1616597 2.477783,0.9219706 3.308594,1.9785157 C 13.886,9.0111719 13.942037,9.0000375 14,9 c 1.473549,8e-7 2.755562,0.8203596 3.449219,2.017578 C 17.808491,10.405798 17.998582,9.7094705 18,9 18,6.790861 16.209139,5.0000001 14,5 Z"
       transform="matrix(0.8,0,0,-0.8,129.66092,17.504232)"
       id="path1826"
       inkscape:connector-curvature="0"
       sodipodi:nodetypes="ccccccc" /><g
       id="layer1-86"
       inkscape:label="Capa"
       style="display:inline;opacity:0.12949638"
       transform="matrix(0.8,0,0,-0.8,1371.6215,-520.4649)" /><g
       id="g33"
       transform="matrix(0.8,0,0,-0.8,1371.6215,-520.4649)"><g
         clip-path="url(#clipPath-363610498)"
         id="g35"><g
           id="g37"
           transform="translate(1,1)"><g
             id="g39"
             style="opacity:0.1"><!-- color: #a8cd01 --></g></g></g></g><g
       id="g41"
       transform="matrix(0.8,0,0,-0.8,1371.6215,-520.4649)"><g
         clip-path="url(#clipPath-375834240)"
         id="g43"><!-- color: #a8cd01 --></g></g><path
       style="opacity:1;fill:#31363b;fill-opacity:1;stroke:none;stroke-width:0.41317183;stroke-miterlimit:4;stroke-dasharray:none"
       d="m 137.66092,11.104232 a 3.2000001,3.2000001 0 0 1 -3.2,-3.2 2.4000001,2.4000001 0 0 1 -2.4,-2.4 2.4000001,2.4000001 0 0 1 2.4,-2.4 h 8.8 a 1.6,1.6 0 0 1 1.6,1.6 1.6,1.6 0 0 1 -1.6,1.6 v 0.8 a 2.4000001,2.4000001 0 0 1 -2.4,2.4 2.4000001,2.4000001 0 0 1 -0.4125,-0.03594 3.2000001,3.2000001 0 0 1 -2.7875,1.635938 z"
       id="path836"
       inkscape:connector-curvature="0" /></g></svg>