<?xml version="1.0" encoding="UTF-8" standalone="no"?>
<svg
   xmlns:dc="http://purl.org/dc/elements/1.1/"
   xmlns:cc="http://creativecommons.org/ns#"
   xmlns:rdf="http://www.w3.org/1999/02/22-rdf-syntax-ns#"
   xmlns:svg="http://www.w3.org/2000/svg"
   xmlns="http://www.w3.org/2000/svg"
   xmlns:sodipodi="http://sodipodi.sourceforge.net/DTD/sodipodi-0.dtd"
   xmlns:inkscape="http://www.inkscape.org/namespaces/inkscape"
   height="32"
   width="32"
   id="svg2"
   version="1.1"
   inkscape:version="0.91 r13725"
   sodipodi:docname="input-keyboard.svg">
  <metadata
     id="metadata36">
    <rdf:RDF>
      <cc:Work
         rdf:about="">
        <dc:format>image/svg+xml</dc:format>
        <dc:type
           rdf:resource="http://purl.org/dc/dcmitype/StillImage" />
        <dc:title></dc:title>
      </cc:Work>
    </rdf:RDF>
  </metadata>
  <defs
     id="defs34" />
  <sodipodi:namedview
     pagecolor="#ffffff"
     bordercolor="#666666"
     borderopacity="1"
     objecttolerance="10"
     gridtolerance="10"
     guidetolerance="10"
     inkscape:pageopacity="0"
     inkscape:pageshadow="2"
     inkscape:window-width="1920"
     inkscape:window-height="1134"
     id="namedview32"
     showgrid="false"
     inkscape:zoom="3.6875"
     inkscape:cx="32"
     inkscape:cy="32"
     inkscape:window-x="1920"
     inkscape:window-y="0"
     inkscape:window-maximized="1"
     inkscape:current-layer="svg2" />
  <linearGradient
     gradientUnits="userSpaceOnUse"
     x1="0"
     x2="47"
     y1="23.5"
     y2="23.5"
     id="linearGradient4">
    <stop
       offset="0"
       stop-color="#a9a3d4"
       id="stop6" />
    <stop
       offset=".47001833"
       stop-color="#87baff"
       id="stop8" />
    <stop
       offset="1"
       stop-color="#89ec85"
       id="stop10" />
  </linearGradient>
  <linearGradient
     id="a"
     gradientUnits="userSpaceOnUse"
     x1="359.88745"
     x2="1410.3213"
     y1="663.33795"
     y2="658.78589">
    <stop
       offset="0"
       stop-color="#4e4e4f"
       id="stop13" />
    <stop
       offset=".49668527"
       stop-color="#3f3f40"
       id="stop15" />
    <stop
       offset="1"
       stop-color="#5a5a5c"
       id="stop17" />
  </linearGradient>
  <linearGradient
     id="b"
     gradientUnits="userSpaceOnUse"
     x1="366.95877"
     x2="363.04605"
     y1="907.84692"
     y2="278.17999">
    <stop
       offset="0"
       stop-color="#363636"
       id="stop20" />
    <stop
       offset="1"
       stop-color="#656567"
       id="stop22" />
  </linearGradient>
  <g
     transform="matrix(0.03802897,0,0,0.03802897,-15.871727,0.81166914)"
     id="g24">
    <path
       d="m 471.41309,628.76803 733.45131,3.41252 c 0.822,36.55995 6.6204,94.54093 -43.7882,93.01 l -651.37457,0 c -41.61051,0.37255 -36.21824,-41.01776 -38.28854,-96.42252 z"
       id="path26"
       inkscape:connector-curvature="0"
       style="fill:url(#a);fill-rule:evenodd" />
    <path
       d="m 53.254934,905.86066 642.657186,0 c 0,0 47.69318,1.9433 45.53266,-44.606 L 739.879,830.03704 714.62636,326.53053 c 0,0 -3.45098,-40.70705 -45.03232,-40.55073 l -591.402216,2.29098 c -44.03423,-2.70255 -47.63443,40.00832 -47.63443,40.00832 L 6.698,835.33014 5.4783141,861.25466 c -4.21478,55.6147 47.7766199,44.606 47.7766199,44.606 z"
       transform="translate(464.71509,-212.42274)"
       id="path28"
       inkscape:connector-curvature="0"
       style="fill:url(#b);fill-rule:evenodd" />
  </g>
  <path
     d="m 19.922477,17.158504 -1.304333,0.0085 -0.01882,-2.368246 1.304333,-0.0085 c 1.440635,-0.0094 2.600241,-1.077463 2.589851,-2.385327 -0.01039,-1.307863 -1.186844,-2.360598 -2.627479,-2.351166 -1.440799,0.0094 -2.600242,1.077463 -2.589851,2.385326 l 0.0094,1.184124 -2.608665,0.01708 -0.0094,-1.184124 c -0.01039,-1.307863 -1.186844,-2.360598 -2.627479,-2.351166 -1.440635,0.0094 -2.600241,1.077463 -2.589851,2.385326 0.01039,1.307864 1.186844,2.360599 2.627479,2.351167 l 1.304333,-0.0085 0.01882,2.368246 -1.304332,0.0085 c -1.440635,0.0094 -2.600241,1.077462 -2.589851,2.385326 0.01039,1.307864 1.186843,2.360598 2.627479,2.351166 1.440798,-0.0094 2.600241,-1.077462 2.589851,-2.385326 l -0.0094,-1.184123 2.608665,-0.01708 0.0094,1.181162 c 10e-6,0.0012 -1.47e-4,0.0021 -1.39e-4,0.003 0.01039,1.307864 1.186843,2.360599 2.627479,2.351166 1.440635,-0.0094 2.60024,-1.077462 2.58985,-2.385326 -0.01039,-1.307864 -1.186678,-2.360303 -2.627316,-2.351167 z m -0.04703,-5.920616 c 0.720317,-0.0047 1.308544,0.521651 1.313739,1.175583 0.0052,0.653932 -0.574608,1.187947 -1.294925,1.192664 l -1.304333,0.0085 -0.0094,-1.184124 c -0.0052,-0.653932 0.574608,-1.187947 1.294926,-1.192663 z m -9.120922,1.243903 c -0.0052,-0.653932 0.574608,-1.187946 1.294925,-1.192663 0.720318,-0.0047 1.308545,0.521651 1.31374,1.175583 l 0.0094,1.184124 -1.304332,0.0085 c -0.720318,0.0047 -1.308546,-0.5218 -1.31374,-1.175584 z m 1.370181,8.280322 c -0.720317,0.0047 -1.308544,-0.521651 -1.313739,-1.175583 -0.0052,-0.653932 0.574608,-1.187947 1.294925,-1.192663 l 1.304333,-0.0085 0.0094,1.184123 c 0.0052,0.653932 -0.574608,1.187947 -1.294926,1.192663 z m 2.580444,-3.569449 -0.01882,-2.368246 2.608665,-0.01708 0.01882,2.368246 z m 5.245551,3.518209 c -0.720318,0.0047 -1.308544,-0.521651 -1.313739,-1.175583 l -0.0094,-1.184123 1.30417,-0.0085 c 0.720317,-0.0047 1.308544,0.52165 1.313739,1.175582 0.0052,0.653932 -0.574445,1.187946 -1.294762,1.192662 z"
     id="path30"
     inkscape:connector-curvature="0"
     style="opacity:0.85100002;fill:#fbfbff" />
</svg>
