<?xml version="1.0" encoding="UTF-8" standalone="no"?>
<svg
   xmlns:dc="http://purl.org/dc/elements/1.1/"
   xmlns:cc="http://creativecommons.org/ns#"
   xmlns:rdf="http://www.w3.org/1999/02/22-rdf-syntax-ns#"
   xmlns:svg="http://www.w3.org/2000/svg"
   xmlns="http://www.w3.org/2000/svg"
   xmlns:sodipodi="http://sodipodi.sourceforge.net/DTD/sodipodi-0.dtd"
   xmlns:inkscape="http://www.inkscape.org/namespaces/inkscape"
   height="48"
   width="48"
   id="svg2"
   version="1.1"
   inkscape:version="0.91 r13725"
   sodipodi:docname="google-chrome.svg">
  <metadata
     id="metadata62">
    <rdf:RDF>
      <cc:Work
         rdf:about="">
        <dc:format>image/svg+xml</dc:format>
        <dc:type
           rdf:resource="http://purl.org/dc/dcmitype/StillImage" />
      </cc:Work>
    </rdf:RDF>
  </metadata>
  <defs
     id="defs60" />
  <sodipodi:namedview
     pagecolor="#ffffff"
     bordercolor="#666666"
     borderopacity="1"
     objecttolerance="10"
     gridtolerance="10"
     guidetolerance="10"
     inkscape:pageopacity="0"
     inkscape:pageshadow="2"
     inkscape:window-width="1920"
     inkscape:window-height="1134"
     id="namedview58"
     showgrid="false"
     inkscape:zoom="4.9166667"
     inkscape:cx="23.79661"
     inkscape:cy="24"
     inkscape:window-x="1920"
     inkscape:window-y="0"
     inkscape:window-maximized="1"
     inkscape:current-layer="svg2" />
  <linearGradient
     id="a"
     gradientUnits="userSpaceOnUse"
     x1="422.7755504"
     x2="422.7755504"
     y1="547.3031516"
     y2="512.8619135">
    <stop
       offset="0"
       stop-color="#ffcd40"
       id="stop5" />
    <stop
       offset="1"
       stop-color="#fee145"
       id="stop7" />
  </linearGradient>
  <linearGradient
     id="b"
     gradientUnits="userSpaceOnUse"
     x1="394.371433792526"
     x2="394.2724568"
     y1="543.737065058607"
     y2="511.67428779375">
    <stop
       offset="0"
       stop-color="#0f9d58"
       id="stop10" />
    <stop
       offset="1"
       stop-color="#00d455"
       id="stop12" />
  </linearGradient>
  <linearGradient
     id="c"
     gradientUnits="userSpaceOnUse"
     x1="407.336378328999"
     x2="407.336378328999"
     y1="518.800058"
     y2="499.798000350516">
    <stop
       offset="0"
       stop-color="#db4437"
       id="stop15" />
    <stop
       offset="1"
       stop-color="#fd5757"
       id="stop17" />
  </linearGradient>
  <linearGradient
     id="d"
     gradientUnits="userSpaceOnUse"
     x1="408.571473448984"
     x2="408.571473448984"
     y1="532.298066879217"
     y2="515.298061479217">
    <stop
       offset="0"
       stop-color="#2566d3"
       id="stop20" />
    <stop
       offset="1"
       stop-color="#429aff"
       id="stop22" />
  </linearGradient>
  <linearGradient
     id="e"
     gradientUnits="userSpaceOnUse"
     x1="409.652260294256"
     x2="409.652260294256"
     y1="546.115480777778"
     y2="499.8573712252">
    <stop
       offset="0"
       stop-color="#79a8ca"
       id="stop25" />
    <stop
       offset="1"
       stop-color="#9ecbda"
       id="stop27" />
  </linearGradient>
  <linearGradient
     id="f"
     gradientUnits="userSpaceOnUse"
     x1="408.571429253968"
     x2="408.571429253968"
     y1="533.575774848934"
     y2="512.797997448934">
    <stop
       offset="0"
       stop-color="#f2f6f7"
       id="stop30" />
    <stop
       offset="1"
       stop-color="#ecf0f1"
       id="stop32" />
  </linearGradient>
  <g
     transform="matrix(0.95833333,0,0,0.95833333,-367.5018,-477.97308)"
     id="g34">
    <rect
       height="45.129883"
       ry="22.564941"
       width="45.12989"
       x="385.95911"
       y="500.98563"
       id="rect36"
       style="fill:url(#e)" />
    <path
       d="m 409.08535,512.5047 c -0.3107,0 -0.56134,0.25064 -0.56134,0.56134 0,0.3107 0.25064,0.56134 0.56134,0.56134 l 20.25463,0 c 0.0409,0 0.0776,-0.0149 0.11599,-0.0231 l 0.27553,-0.74227 -1.0178,-0.35722 z"
       id="path38"
       inkscape:connector-curvature="0"
       style="opacity:0.8;fill:#649cc1" />
    <g
       id="g40"
       style="fill-rule:evenodd">
      <path
         d="M 4.9550781,9.9960938 C 1.9807081,13.962884 0.19921875,18.960656 0.19921875,24.322266 0.19921875,37.481196 10.794205,48 23.953125,48 c 13.15892,0 23.751953,-10.593033 23.751953,-23.751953 0,-3.85418 -0.929042,-7.477133 -2.544922,-10.689453 l -20.019531,0 7.125,17.339844 -0.0332,0.06836 -15.40625,-3.15625 z"
         transform="translate(384.57143,499.798)"
         id="path42"
         inkscape:connector-curvature="0"
         style="fill-opacity:0.352941" />
      <path
         d="m 389.52659,509.29903 c -2.97437,3.96679 -4.75516,8.96416 -4.75516,14.32577 0,13.15893 10.59366,23.67835 23.75258,23.67835 l 8.3134,-17.02762 -15.43918,-3.16207 z"
         id="path44"
         style="fill:url(#b)"
         inkscape:connector-curvature="0" />
      <path
         d="m 409.71164,512.86192 7.12577,17.33938 -8.3134,17.10185 c 13.15892,0 23.75257,-10.59365 23.75257,-23.75257 0,-3.85418 -0.9287,-7.47634 -2.54458,-10.68866 z"
         id="path46"
         style="fill:url(#a)"
         inkscape:connector-curvature="0" />
      <path
         d="m 408.50355,499.81054 c -7.94719,0 -14.95389,3.92882 -19.36262,9.99406 l 12.09986,18.72482 c 10.42064,-0.007 12.79619,-9.04933 8.47322,-14.98376 l 20.40523,0 c -3.97602,-8.15361 -12.13208,-13.73512 -21.61569,-13.73512 z"
         id="path48"
         inkscape:connector-curvature="0"
         style="fill:#1a1a1a;fill-opacity:0.352941" />
      <path
         d="m 408.51937,499.798 c -7.79731,0 -14.67185,3.73682 -18.99742,9.50567 l 11.87164,17.80979 15.43918,3.08784 -7.12578,-17.33938 20.02037,0 C 425.82632,505.10676 417.8241,499.798 408.51937,499.798 Z"
         id="path50"
         style="fill:url(#c)"
         inkscape:connector-curvature="0" />
    </g>
    <path
       d="m 408.57143,512.798 c -6.094,0 -11,4.906 -11,11 0,3.04699 1.22659,5.79691 3.21484,7.78516 l 15.06641,15.0664 c 7.39204,-2.38045 13.17804,-8.2686 15.41602,-15.72461 l -14.91211,-14.91211 c -1.98825,-1.98825 -4.73816,-3.21484 -7.78516,-3.21484 z"
       id="path52"
       inkscape:connector-curvature="0"
       style="fill-opacity:0.07843101" />
    <path
       d="m 408.57143,512.79801 c 6.09399,0 11,4.906 11,11 0,6.09399 -4.90601,10.99999 -11,10.99999 -6.094,0 -11,-4.906 -11,-10.99999 0,-6.094 4.906,-11 11,-11 z"
       id="path54"
       style="fill:url(#f)"
       inkscape:connector-curvature="0" />
    <path
       d="m 408.57143,515.298 10e-6,0 c 4.70899,0 8.49999,3.79099 8.49999,8.5 0,4.709 -3.791,8.5 -8.49999,8.5 l -10e-6,0 c -4.70901,0 -8.5,-3.791 -8.5,-8.5 0,-4.70901 3.79099,-8.5 8.5,-8.5 z"
       id="path56"
       style="fill:url(#d)"
       inkscape:connector-curvature="0" />
  </g>
</svg>
