<?xml version="1.0" encoding="UTF-8" standalone="no"?>
<!-- Created with Inkscape (http://www.inkscape.org/) -->

<svg
   xmlns:dc="http://purl.org/dc/elements/1.1/"
   xmlns:cc="http://creativecommons.org/ns#"
   xmlns:rdf="http://www.w3.org/1999/02/22-rdf-syntax-ns#"
   xmlns:svg="http://www.w3.org/2000/svg"
   xmlns="http://www.w3.org/2000/svg"
   xmlns:xlink="http://www.w3.org/1999/xlink"
   xmlns:sodipodi="http://sodipodi.sourceforge.net/DTD/sodipodi-0.dtd"
   xmlns:inkscape="http://www.inkscape.org/namespaces/inkscape"
   width="64px"
   height="64px"
   id="svg3347"
   sodipodi:version="0.32"
   inkscape:version="0.91 r13725"
   sodipodi:docname="CPU.svg"
   inkscape:output_extension="org.inkscape.output.svg.inkscape"
   version="1.1">
  <defs
     id="defs3349">
    <linearGradient
       inkscape:collect="always"
       xlink:href="#linearGradient3935"
       id="linearGradient3961"
       x1="-8.9269485"
       y1="-26.204216"
       x2="55.073051"
       y2="-26.204216"
       gradientUnits="userSpaceOnUse" />
    <linearGradient
       id="linearGradient3935">
      <stop
         id="stop3937"
         offset="0"
         style="stop-color:#47ad5d;stop-opacity:1" />
      <stop
         id="stop3939"
         offset="1"
         style="stop-color:#39b54a;stop-opacity:1" />
    </linearGradient>
    <linearGradient
       id="linearGradient4569">
      <stop
         id="stop4571"
         offset="0"
         style="stop-color:#ffffff;stop-opacity:1;" />
      <stop
         id="stop4573"
         offset="1"
         style="stop-color:#ffffff;stop-opacity:0.75539571;" />
    </linearGradient>
    <linearGradient
       id="linearGradient3816">
      <stop
         id="stop3818"
         offset="0"
         style="stop-color:#e5f5d9;stop-opacity:1;" />
      <stop
         id="stop3820"
         offset="1"
         style="stop-color:#ffffff;stop-opacity:1;" />
    </linearGradient>
    <linearGradient
       id="linearGradient3816-3">
      <stop
         style="stop-color:#e5f5d9;stop-opacity:1;"
         offset="0"
         id="stop3818-8" />
      <stop
         style="stop-color:#ffffff;stop-opacity:1;"
         offset="1"
         id="stop3820-2" />
    </linearGradient>
    <linearGradient
       id="linearGradient4508">
      <stop
         style="stop-color:#e5f5d9;stop-opacity:1;"
         offset="0"
         id="stop4510" />
      <stop
         style="stop-color:#ffffff;stop-opacity:1;"
         offset="1"
         id="stop4512" />
    </linearGradient>
    <linearGradient
       id="linearGradient6691">
      <stop
         id="stop6693"
         offset="0"
         style="stop-color:#68a0ed;stop-opacity:1;" />
      <stop
         id="stop6695"
         offset="1"
         style="stop-color:#2572cd;stop-opacity:0;" />
    </linearGradient>
    <linearGradient
       id="linearGradient6679">
      <stop
         id="stop6681"
         offset="0"
         style="stop-color:#000000;stop-opacity:1;" />
      <stop
         style="stop-color:#002251;stop-opacity:1;"
         offset="0.5"
         id="stop6703" />
      <stop
         id="stop6683"
         offset="1"
         style="stop-color:#0060e7;stop-opacity:1;" />
    </linearGradient>
    <linearGradient
       id="linearGradient6560">
      <stop
         style="stop-color:#171818;stop-opacity:1;"
         offset="0"
         id="stop6562" />
      <stop
         id="stop6566"
         offset="0.5"
         style="stop-color:#1d1d1d;stop-opacity:1;" />
      <stop
         style="stop-color:#181818;stop-opacity:1;"
         offset="1"
         id="stop6568" />
    </linearGradient>
    <linearGradient
       id="linearGradient4007-5">
      <stop
         style="stop-color:#313232;stop-opacity:1;"
         offset="0"
         id="stop4009-2" />
      <stop
         style="stop-color:#29292b;stop-opacity:1;"
         offset="1"
         id="stop4011-7" />
    </linearGradient>
    <linearGradient
       id="linearGradient5260">
      <stop
         style="stop-color:#313232;stop-opacity:1;"
         offset="0"
         id="stop5262" />
      <stop
         style="stop-color:#29292b;stop-opacity:1;"
         offset="1"
         id="stop5264" />
    </linearGradient>
    <linearGradient
       id="linearGradient5269">
      <stop
         style="stop-color:#313232;stop-opacity:1;"
         offset="0"
         id="stop5271" />
      <stop
         style="stop-color:#29292b;stop-opacity:1;"
         offset="1"
         id="stop5273" />
    </linearGradient>
    <linearGradient
       id="linearGradient4601">
      <stop
         id="stop4603"
         offset="0"
         style="stop-color:#171818;stop-opacity:1;" />
      <stop
         style="stop-color:#232424;stop-opacity:1;"
         offset="0.25"
         id="stop6558" />
      <stop
         style="stop-color:#303030;stop-opacity:1;"
         offset="0.5"
         id="stop4607" />
      <stop
         id="stop4605"
         offset="1"
         style="stop-color:#181818;stop-opacity:1;" />
    </linearGradient>
    <linearGradient
       id="linearGradient6228">
      <stop
         id="stop6230"
         offset="0"
         style="stop-color:#8a8a8a;stop-opacity:1;" />
      <stop
         style="stop-color:#e5e5e5;stop-opacity:1;"
         offset="0.5"
         id="stop6236" />
      <stop
         id="stop6232"
         offset="1"
         style="stop-color:#696969;stop-opacity:1;" />
    </linearGradient>
    <linearGradient
       id="linearGradient4015">
      <stop
         id="stop4017"
         offset="0"
         style="stop-color:#2e2e2e;stop-opacity:1;" />
      <stop
         id="stop4019"
         offset="1"
         style="stop-color:#111111;stop-opacity:1;" />
    </linearGradient>
    <linearGradient
       id="linearGradient5291">
      <stop
         id="stop5293"
         offset="0"
         style="stop-color:#8a8a8a;stop-opacity:1;" />
      <stop
         style="stop-color:#e5e5e5;stop-opacity:1;"
         offset="0.5"
         id="stop5295" />
      <stop
         id="stop5297"
         offset="1"
         style="stop-color:#696969;stop-opacity:1;" />
    </linearGradient>
    <linearGradient
       id="linearGradient5300">
      <stop
         id="stop5302"
         offset="0"
         style="stop-color:#8a8a8a;stop-opacity:1;" />
      <stop
         style="stop-color:#e5e5e5;stop-opacity:1;"
         offset="0.5"
         id="stop5304" />
      <stop
         id="stop5306"
         offset="1"
         style="stop-color:#696969;stop-opacity:1;" />
    </linearGradient>
    <linearGradient
       id="linearGradient5309">
      <stop
         id="stop5311"
         offset="0"
         style="stop-color:#8a8a8a;stop-opacity:1;" />
      <stop
         style="stop-color:#e5e5e5;stop-opacity:1;"
         offset="0.5"
         id="stop5313" />
      <stop
         id="stop5315"
         offset="1"
         style="stop-color:#696969;stop-opacity:1;" />
    </linearGradient>
    <linearGradient
       id="linearGradient5318">
      <stop
         id="stop5320"
         offset="0"
         style="stop-color:#8a8a8a;stop-opacity:1;" />
      <stop
         style="stop-color:#e5e5e5;stop-opacity:1;"
         offset="0.5"
         id="stop5322" />
      <stop
         id="stop5324"
         offset="1"
         style="stop-color:#696969;stop-opacity:1;" />
    </linearGradient>
    <linearGradient
       gradientTransform="translate(-41.650041,-970.72853)"
       xlink:href="#linearGradient4198"
       id="linearGradient4204"
       x1="24"
       y1="1032.3621"
       x2="24"
       y2="1018.362"
       gradientUnits="userSpaceOnUse" />
    <linearGradient
       id="linearGradient4198">
      <stop
         style="stop-color:#272b2d;stop-opacity:1;"
         offset="0"
         id="stop12" />
      <stop
         style="stop-color:#3e4447;stop-opacity:1"
         offset="1"
         id="stop14" />
    </linearGradient>
    <radialGradient
       xlink:href="#linearGradient4185"
       id="radialGradient4191"
       cx="24"
       cy="1025.3621"
       fx="24"
       fy="1025.3621"
       r="2"
       gradientTransform="matrix(1,0,0,0.9998745,-41.650041,-970.59983)"
       gradientUnits="userSpaceOnUse" />
    <linearGradient
       id="linearGradient4185">
      <stop
         style="stop-color:#acacac;stop-opacity:1"
         offset="0"
         id="stop17" />
      <stop
         style="stop-color:#cbcbcb;stop-opacity:1"
         offset="1"
         id="stop19" />
    </linearGradient>
    <filter
       inkscape:collect="always"
       style="color-interpolation-filters:sRGB"
       id="filter1745"
       x="-0.048"
       width="1.096"
       y="-0.048"
       height="1.096">
      <feGaussianBlur
         inkscape:collect="always"
         stdDeviation="10.24"
         id="feGaussianBlur1747" />
    </filter>
  </defs>
  <sodipodi:namedview
     id="base"
     pagecolor="#ffffff"
     bordercolor="#666666"
     borderopacity="1.0"
     inkscape:pageopacity="0.0"
     inkscape:pageshadow="2"
     inkscape:zoom="2.61875"
     inkscape:cx="-42.37997"
     inkscape:cy="-9.5014584"
     inkscape:current-layer="g3443"
     showgrid="true"
     inkscape:document-units="px"
     inkscape:grid-bbox="true"
     inkscape:window-width="1366"
     inkscape:window-height="703"
     inkscape:window-x="0"
     inkscape:window-y="0"
     inkscape:window-maximized="1"
     showguides="true"
     inkscape:guide-bbox="true"
     inkscape:showpageshadow="false">
    <inkscape:grid
       type="xygrid"
       id="grid3778"
       empspacing="5"
       visible="true"
       enabled="false"
       snapvisiblegridlinesonly="true" />
  </sodipodi:namedview>
  <metadata
     id="metadata3352">
    <rdf:RDF>
      <cc:Work
         rdf:about="">
        <dc:format>image/svg+xml</dc:format>
        <dc:type
           rdf:resource="http://purl.org/dc/dcmitype/StillImage" />
        <dc:title></dc:title>
      </cc:Work>
    </rdf:RDF>
  </metadata>
  <g
     id="layer1"
     inkscape:label="Layer 1"
     inkscape:groupmode="layer">
    <g
       id="g3443"
       inkscape:label="Layer 1"
       transform="translate(5.7957838,8.9269487)">
      <rect
         ry="15"
         y="-58.204216"
         x="-8.9269485"
         height="64"
         width="64"
         id="rect2383"
         style="fill:url(#linearGradient3961);fill-opacity:1;stroke:none"
         transform="matrix(0,1,-1,0,0,0)" />
      <g
         id="g5541"
         transform="matrix(2.9464106,0,0,2.9464106,-23.963863,-75.735585)" />
      <g
         id="g961"
         transform="matrix(1.1262466,0,0,1.1262466,-9.7982941,-265.41328)">
        <g
           style="opacity:1"
           id="g1062"
           transform="matrix(0.08784994,0,0,0.08784994,9.4772257,233.65888)">
          <path
             class="st0"
             d="m 269.183,243.32 c 0,-2.781 -0.839,-4.984 -2.57,-6.714 -1.73,-1.68 -4.09,-2.516 -7.133,-2.516 l -12.325,0 0,18.406 12.325,0 c 3.042,0 5.402,-0.84 7.133,-2.519 1.731,-1.626 2.57,-3.879 2.57,-6.657 z"
             id="path1026"
             inkscape:connector-curvature="0"
             style="fill:#374149" />
          <path
             class="st0"
             d="m 371.344,89.156 -230.684,0 c -28.961,0 -52.442,23.481 -52.442,52.438 l 0,228.809 c 0,28.965 23.481,52.438 52.442,52.438 l 230.684,0 c 28.961,0 52.438,-23.473 52.438,-52.438 l 0,-228.809 c 0,-28.957 -23.477,-52.438 -52.438,-52.438 z m -152.894,155.426 -18.466,0 -0.414,-1.676 c -0.633,-2.512 -1.746,-4.598 -3.309,-6.199 -1.445,-1.461 -3.535,-2.172 -6.386,-2.172 -1.602,0 -3.027,0.27 -4.226,0.801 -1.192,0.531 -2.192,1.254 -2.973,2.137 -0.535,0.582 -0.95,1.214 -1.301,1.961 -0.344,0.73 -0.633,1.762 -0.871,3.043 -0.254,1.382 -0.438,3.129 -0.558,5.246 -0.137,2.192 -0.195,4.95 -0.195,8.274 0,3.328 0.058,6.09 0.195,8.274 0.121,2.121 0.305,3.875 0.558,5.258 0.238,1.278 0.527,2.305 0.879,3.047 0.343,0.734 0.758,1.367 1.269,1.93 0.813,0.922 1.786,1.613 3,2.156 1.196,0.531 2.622,0.805 4.223,0.805 2.863,0 4.969,-0.718 6.449,-2.191 1.59,-1.598 2.715,-3.672 3.34,-6.18 l 0.414,-1.676 15.843,0 2.539,0.028 -0.457,2.57 c -1.41,7.922 -4.711,14.011 -9.793,18.09 -5.055,4.05 -11.223,6.102 -18.336,6.102 -4.394,0 -8.293,-0.707 -11.602,-2.118 -3.282,-1.386 -6.293,-3.39 -8.934,-5.961 -1.992,-1.992 -3.52,-4.062 -4.566,-6.176 -1.047,-2.078 -1.817,-4.402 -2.286,-6.886 -0.445,-2.367 -0.722,-4.93 -0.828,-7.832 -0.098,-2.746 -0.152,-5.824 -0.152,-9.238 0,-3.406 0.054,-6.484 0.152,-9.226 0.106,-2.867 0.387,-5.508 0.836,-7.844 0.461,-2.473 1.23,-4.797 2.282,-6.89 1.042,-2.102 2.57,-4.168 4.535,-6.141 2.679,-2.598 5.687,-4.606 8.961,-5.992 3.301,-1.402 7.207,-2.114 11.602,-2.114 7.113,0 13.281,2.055 18.336,6.102 5.082,4.082 8.382,10.172 9.793,18.094 l 0.418,2.34 z m -96.344,-41.738 c -0.031,0.007 -0.066,0.011 -0.098,0.019 -4.118,0.902 -8.691,-2.043 -8.691,-6.977 l 0,-48.956 c 0,-16.586 13.566,-30.152 30.152,-30.152 l 39.211,0 c 6.105,0 9.386,7.175 5.394,11.793 l -62.234,71.984 c -1.066,1.234 -2.375,1.968 -3.734,2.289 z m 127.308,63.55 0,0 -0.157,0 0,25.375 -17.307,0 0,-71.527 28.16,0 c 3.726,0 7.133,0.629 10.175,1.785 3.039,1.207 5.61,2.938 7.707,5.035 2.047,2.094 3.672,4.614 4.774,7.39 1.102,2.832 1.68,5.77 1.68,8.867 0,3.094 -0.578,6.078 -1.68,8.86 -1.102,2.832 -2.726,5.297 -4.774,7.394 -2.098,2.148 -4.668,3.828 -7.707,5.031 -3.042,1.211 -6.449,1.789 -10.175,1.789 l -10.629,0 -0.067,0 z m 65.824,7.426 c 1.691,1.762 3.98,2.618 6.996,2.618 3.031,0 5.336,-0.859 7.054,-2.629 1.734,-1.782 2.574,-4.29 2.574,-7.664 l 0,-45.871 17.246,0 0,46.347 c 0,3.875 -0.715,7.442 -2.126,10.594 -1.398,3.136 -3.343,5.867 -5.785,8.109 -2.434,2.226 -5.301,3.969 -8.527,5.192 -3.215,1.218 -6.722,1.835 -10.438,1.835 -3.703,0 -7.211,-0.617 -10.426,-1.835 -3.242,-1.227 -6.11,-2.973 -8.527,-5.192 -2.446,-2.242 -4.398,-4.969 -5.79,-8.113 -1.41,-3.157 -2.121,-6.723 -2.121,-10.59 l 0,-46.347 17.34,0 0,45.871 c 0.003,3.378 0.827,5.89 2.53,7.675 z"
             id="path1028"
             inkscape:connector-curvature="0"
             style="fill:#374149" />
          <path
             class="st0"
             d="m 120.66,67.988 0,0.161 2.914,0 46.859,0 2.91,0 0,-2.914 0,-19.165 0,-2.914 -2.91,0 -9.031,0 c -2.23,0 -4.039,-1.808 -4.039,-4.039 l 0,-36.207 0,-2.91 -2.914,0 -14.914,0 -2.914,0 0,2.91 0,36.206 c 0,2.231 -1.808,4.039 -4.035,4.039 l -9.011,0 -2.914,0 0,2.914 0,19.164 0,2.746 0,0.009 z"
             id="path1030"
             inkscape:connector-curvature="0"
             style="fill:#374149" />
          <path
             class="st0"
             d="m 243.098,68.149 2.914,0 0,-2.914 0,-19.165 0,-2.914 -2.914,0 -9,0 c -2.23,0 -4.035,-1.808 -4.035,-4.039 l 0,-36.207 0,-2.91 -2.914,0 -14.919,0 -2.914,0 0,2.91 0,36.206 c 0,2.231 -1.805,4.039 -4.035,4.039 l -9.043,0 -2.914,0 0,2.914 0,19.164 0,2.914 2.914,0 46.86,0 z"
             id="path1032"
             inkscape:connector-curvature="0"
             style="fill:#374149" />
          <path
             class="st0"
             d="m 265.992,67.988 0,0.161 2.91,0 46.859,0 2.914,0 0,-2.914 0,-19.165 0,-2.914 -2.914,0 -9.027,0 c -2.226,0 -4.035,-1.808 -4.035,-4.039 l 0,-36.207 0,-2.91 -2.914,0 -14.914,0 -2.914,0 0,2.91 0,36.206 c 0,2.231 -1.808,4.039 -4.039,4.039 l -9.015,0 -2.91,0 0,2.914 0,19.164 0,2.746 0,0.009 z"
             id="path1034"
             inkscape:connector-curvature="0"
             style="fill:#374149" />
          <path
             class="st0"
             d="m 388.426,68.149 2.914,0 0,-2.914 0,-19.165 0,-2.914 -2.914,0 -9.05,0 c -2.23,0 -4.039,-1.808 -4.039,-4.039 l 0,-36.207 0,-2.91 -2.91,0 -14.859,0 -2.914,0 0,2.91 0,36.206 c 0,2.231 -1.808,4.039 -4.035,4.039 l -9.046,0 -2.914,0 0,2.914 0,19.164 0,2.914 2.914,0 46.853,0 z"
             id="path1036"
             inkscape:connector-curvature="0"
             style="fill:#374149" />
          <path
             class="st0"
             d="m 341.57,443.848 -2.914,0 0,2.914 0,19.168 0,2.914 2.914,0 9.031,0 c 2.226,0 4.035,1.805 4.035,4.035 l 0,36.206 0,2.915 2.914,0 14.918,0 2.91,0 0,-2.914 0,-36.206 c 0,-2.23 1.808,-4.035 4.038,-4.035 l 9.008,0 2.738,0 0.016,0 0,0 0.16,0 0,-2.914 0,-19.168 0,-2.914 -2.914,0 -46.854,0 z"
             id="path1038"
             inkscape:connector-curvature="0"
             style="fill:#374149" />
          <path
             class="st0"
             d="m 268.902,443.848 -2.91,0 0,2.914 0,19.168 0,2.746 0,0.007 0,0 0,0.161 2.91,0 9,0 c 2.23,0 4.039,1.805 4.039,4.035 l 0,36.206 0,2.915 2.91,0 14.918,0 2.914,0 0,-2.914 0,-36.206 c 0,-2.23 1.809,-4.035 4.035,-4.035 l 9.043,0 2.738,0 0.016,0 0,0 0.16,0 0,-2.914 0,-19.168 0,-2.914 -2.914,0 -46.859,0 z"
             id="path1040"
             inkscape:connector-curvature="0"
             style="fill:#374149" />
          <path
             class="st0"
             d="m 196.238,443.848 -2.914,0 0,2.914 0,19.168 0,2.914 2.914,0 9.027,0 c 2.23,0 4.035,1.805 4.035,4.035 l 0,36.206 0,2.915 2.914,0 14.918,0 2.914,0 0,-2.914 0,-36.206 c 0,-2.23 1.804,-4.035 4.035,-4.035 l 9.015,0 2.738,0 0.015,0 0,0 0.161,0 0,-2.914 0,-19.168 0,-2.914 -2.914,0 -46.858,0 z"
             id="path1042"
             inkscape:connector-curvature="0"
             style="fill:#374149" />
          <path
             class="st0"
             d="m 123.574,443.848 -2.914,0 0,2.914 0,19.168 0,2.746 0,0.007 0,0 0,0.161 2.914,0 9.05,0 c 2.23,0 4.039,1.805 4.039,4.035 l 0,36.206 0,2.746 0,0.008 0,0 0,0.161 2.914,0 14.855,0 2.914,0 0,-2.914 0,-36.206 c 0,-2.23 1.808,-4.035 4.035,-4.035 l 9.05,0 2.734,0 0.019,0 0,0 0.157,0 0,-2.914 0,-19.168 0,-2.914 -2.91,0 -46.857,0 z"
             id="path1044"
             inkscape:connector-curvature="0"
             style="fill:#374149" />
          <path
             class="st0"
             d="m 509.086,136.617 -36.202,0 c -2.231,0 -4.039,-1.804 -4.039,-4.034 l 0,-9.008 0,-2.914 -2.91,0 -19.172,0 -2.91,0 0,2.914 0,46.859 0,2.914 2.91,0 19.172,0 2.91,0 0,-2.914 0,-9.035 c 0,-2.23 1.808,-4.035 4.039,-4.035 l 36.202,0 2.746,0 0.008,0 0,0 0.16,0 0,-2.914 0,-14.918 0,-2.914 -2.914,0 z"
             id="path1046"
             inkscape:connector-curvature="0"
             style="fill:#374149" />
          <path
             class="st0"
             d="m 472.883,209.317 c -2.231,0 -4.039,-1.809 -4.039,-4.039 l 0,-9.039 0,-2.914 -2.91,0 -19.172,0 -2.742,0 -0.011,0 0,0 -0.157,0 0,2.914 0,46.855 0,2.914 2.91,0 19.172,0 2.91,0 0,-2.914 0,-8.996 c 0,-2.23 1.808,-4.039 4.039,-4.039 l 36.202,0 2.915,0 0,-2.914 0,-14.915 0,-2.914 -2.914,0 -36.203,0 z"
             id="path1048"
             inkscape:connector-curvature="0"
             style="fill:#374149" />
          <path
             class="st0"
             d="m 472.883,281.957 c -2.231,0 -4.039,-1.808 -4.039,-4.039 l 0,-9.015 0,-2.914 -2.91,0 -19.172,0 -2.91,0 0,2.914 0,46.859 0,2.914 2.91,0 19.172,0 2.91,0 0,-2.914 0,-9.027 c 0,-2.23 1.808,-4.039 4.039,-4.039 l 36.202,0 2.746,0 0.008,0.004 0,-0.004 0.161,0 0,-2.91 0,-14.914 0,-2.914 -2.914,0 -36.203,0 z"
             id="path1050"
             inkscape:connector-curvature="0"
             style="fill:#374149" />
          <path
             class="st0"
             d="m 472.883,354.652 c -2.231,0 -4.039,-1.804 -4.039,-4.035 l 0,-9.046 0,-2.914 -2.91,0 -19.172,0 -2.91,0 0,2.914 0,46.855 0,2.91 2.91,0 19.172,0 2.91,0 0,-2.91 0,-9.05 c 0,-2.23 1.808,-4.039 4.039,-4.039 l 36.202,0 2.915,0 0,-2.914 0,-14.855 0,-2.914 -2.914,0 -36.203,0 z"
             id="path1052"
             inkscape:connector-curvature="0"
             style="fill:#374149" />
          <path
             class="st0"
             d="m 46.07,338.656 -2.914,0 0,2.914 0,9.027 c 0,2.23 -1.808,4.039 -4.039,4.039 l -36.203,0 -2.914,0 0,2.914 0,14.914 0,2.914 2.914,0 36.202,0 c 2.231,0 4.039,1.808 4.039,4.038 l 0,9.008 0,2.91 2.914,0 19.168,0 2.914,0 0,-2.91 0,-46.854 0,-2.914 -2.914,0 z"
             id="path1054"
             inkscape:connector-curvature="0"
             style="fill:#374149" />
          <path
             class="st0"
             d="m 46.07,265.988 -2.914,0 0,2.914 0,9 c 0,2.23 -1.808,4.035 -4.039,4.035 l -36.203,0 -2.914,0 0,2.914 0,14.918 0,2.914 2.914,0 36.202,0 c 2.231,0 4.039,1.805 4.039,4.035 l 0,9.043 0,2.914 2.914,0 19.168,0 2.914,0 0,-2.914 0,-46.859 0,-2.914 -2.914,0 z"
             id="path1056"
             inkscape:connector-curvature="0"
             style="fill:#374149" />
          <path
             class="st0"
             d="m 46.07,193.324 -2.746,0 -0.007,0 0,0 -0.161,0 0,2.914 0,9.027 c 0,2.23 -1.808,4.035 -4.039,4.035 l -36.203,0 -2.914,0 0,2.914 0,14.914 0,2.914 2.914,0 36.202,0 c 2.231,0 4.039,1.805 4.039,4.035 l 0,9.015 0,2.914 2.914,0 19.168,0 2.914,0 0,-2.914 0,-46.855 0,-2.914 -2.914,0 -19.167,0 z"
             id="path1058"
             inkscape:connector-curvature="0"
             style="fill:#374149" />
          <path
             class="st0"
             d="m 46.07,120.66 -2.914,0 0,2.914 0,9.05 c 0,2.23 -1.808,4.035 -4.039,4.035 l -36.203,0 -2.914,0 0,2.914 0,14.859 0,2.914 2.914,0 36.202,0 c 2.231,0 4.039,1.804 4.039,4.038 l 0,9.047 0,2.914 2.914,0 19.168,0 2.914,0 0,-2.914 0,-46.859 0,-2.914 -2.914,0 -19.167,0 z"
             id="path1060"
             inkscape:connector-curvature="0"
             style="fill:#374149" />
        </g>
        <g
           transform="matrix(0.08784994,0,0,0.08784994,9.4772257,233.65888)"
           id="g1719"
           style="opacity:0.5;filter:url(#filter1745)">
          <path
             style="fill:#374149"
             inkscape:connector-curvature="0"
             id="path1683"
             d="m 269.183,243.32 c 0,-2.781 -0.839,-4.984 -2.57,-6.714 -1.73,-1.68 -4.09,-2.516 -7.133,-2.516 l -12.325,0 0,18.406 12.325,0 c 3.042,0 5.402,-0.84 7.133,-2.519 1.731,-1.626 2.57,-3.879 2.57,-6.657 z"
             class="st0" />
          <path
             style="fill:#374149"
             inkscape:connector-curvature="0"
             id="path1685"
             d="m 371.344,89.156 -230.684,0 c -28.961,0 -52.442,23.481 -52.442,52.438 l 0,228.809 c 0,28.965 23.481,52.438 52.442,52.438 l 230.684,0 c 28.961,0 52.438,-23.473 52.438,-52.438 l 0,-228.809 c 0,-28.957 -23.477,-52.438 -52.438,-52.438 z m -152.894,155.426 -18.466,0 -0.414,-1.676 c -0.633,-2.512 -1.746,-4.598 -3.309,-6.199 -1.445,-1.461 -3.535,-2.172 -6.386,-2.172 -1.602,0 -3.027,0.27 -4.226,0.801 -1.192,0.531 -2.192,1.254 -2.973,2.137 -0.535,0.582 -0.95,1.214 -1.301,1.961 -0.344,0.73 -0.633,1.762 -0.871,3.043 -0.254,1.382 -0.438,3.129 -0.558,5.246 -0.137,2.192 -0.195,4.95 -0.195,8.274 0,3.328 0.058,6.09 0.195,8.274 0.121,2.121 0.305,3.875 0.558,5.258 0.238,1.278 0.527,2.305 0.879,3.047 0.343,0.734 0.758,1.367 1.269,1.93 0.813,0.922 1.786,1.613 3,2.156 1.196,0.531 2.622,0.805 4.223,0.805 2.863,0 4.969,-0.718 6.449,-2.191 1.59,-1.598 2.715,-3.672 3.34,-6.18 l 0.414,-1.676 15.843,0 2.539,0.028 -0.457,2.57 c -1.41,7.922 -4.711,14.011 -9.793,18.09 -5.055,4.05 -11.223,6.102 -18.336,6.102 -4.394,0 -8.293,-0.707 -11.602,-2.118 -3.282,-1.386 -6.293,-3.39 -8.934,-5.961 -1.992,-1.992 -3.52,-4.062 -4.566,-6.176 -1.047,-2.078 -1.817,-4.402 -2.286,-6.886 -0.445,-2.367 -0.722,-4.93 -0.828,-7.832 -0.098,-2.746 -0.152,-5.824 -0.152,-9.238 0,-3.406 0.054,-6.484 0.152,-9.226 0.106,-2.867 0.387,-5.508 0.836,-7.844 0.461,-2.473 1.23,-4.797 2.282,-6.89 1.042,-2.102 2.57,-4.168 4.535,-6.141 2.679,-2.598 5.687,-4.606 8.961,-5.992 3.301,-1.402 7.207,-2.114 11.602,-2.114 7.113,0 13.281,2.055 18.336,6.102 5.082,4.082 8.382,10.172 9.793,18.094 l 0.418,2.34 z m -96.344,-41.738 c -0.031,0.007 -0.066,0.011 -0.098,0.019 -4.118,0.902 -8.691,-2.043 -8.691,-6.977 l 0,-48.956 c 0,-16.586 13.566,-30.152 30.152,-30.152 l 39.211,0 c 6.105,0 9.386,7.175 5.394,11.793 l -62.234,71.984 c -1.066,1.234 -2.375,1.968 -3.734,2.289 z m 127.308,63.55 0,0 -0.157,0 0,25.375 -17.307,0 0,-71.527 28.16,0 c 3.726,0 7.133,0.629 10.175,1.785 3.039,1.207 5.61,2.938 7.707,5.035 2.047,2.094 3.672,4.614 4.774,7.39 1.102,2.832 1.68,5.77 1.68,8.867 0,3.094 -0.578,6.078 -1.68,8.86 -1.102,2.832 -2.726,5.297 -4.774,7.394 -2.098,2.148 -4.668,3.828 -7.707,5.031 -3.042,1.211 -6.449,1.789 -10.175,1.789 l -10.629,0 -0.067,0 z m 65.824,7.426 c 1.691,1.762 3.98,2.618 6.996,2.618 3.031,0 5.336,-0.859 7.054,-2.629 1.734,-1.782 2.574,-4.29 2.574,-7.664 l 0,-45.871 17.246,0 0,46.347 c 0,3.875 -0.715,7.442 -2.126,10.594 -1.398,3.136 -3.343,5.867 -5.785,8.109 -2.434,2.226 -5.301,3.969 -8.527,5.192 -3.215,1.218 -6.722,1.835 -10.438,1.835 -3.703,0 -7.211,-0.617 -10.426,-1.835 -3.242,-1.227 -6.11,-2.973 -8.527,-5.192 -2.446,-2.242 -4.398,-4.969 -5.79,-8.113 -1.41,-3.157 -2.121,-6.723 -2.121,-10.59 l 0,-46.347 17.34,0 0,45.871 c 0.003,3.378 0.827,5.89 2.53,7.675 z"
             class="st0" />
          <path
             style="fill:#374149"
             inkscape:connector-curvature="0"
             id="path1687"
             d="m 120.66,67.988 0,0.161 2.914,0 46.859,0 2.91,0 0,-2.914 0,-19.165 0,-2.914 -2.91,0 -9.031,0 c -2.23,0 -4.039,-1.808 -4.039,-4.039 l 0,-36.207 0,-2.91 -2.914,0 -14.914,0 -2.914,0 0,2.91 0,36.206 c 0,2.231 -1.808,4.039 -4.035,4.039 l -9.011,0 -2.914,0 0,2.914 0,19.164 0,2.746 0,0.009 z"
             class="st0" />
          <path
             style="fill:#374149"
             inkscape:connector-curvature="0"
             id="path1689"
             d="m 243.098,68.149 2.914,0 0,-2.914 0,-19.165 0,-2.914 -2.914,0 -9,0 c -2.23,0 -4.035,-1.808 -4.035,-4.039 l 0,-36.207 0,-2.91 -2.914,0 -14.919,0 -2.914,0 0,2.91 0,36.206 c 0,2.231 -1.805,4.039 -4.035,4.039 l -9.043,0 -2.914,0 0,2.914 0,19.164 0,2.914 2.914,0 46.86,0 z"
             class="st0" />
          <path
             style="fill:#374149"
             inkscape:connector-curvature="0"
             id="path1691"
             d="m 265.992,67.988 0,0.161 2.91,0 46.859,0 2.914,0 0,-2.914 0,-19.165 0,-2.914 -2.914,0 -9.027,0 c -2.226,0 -4.035,-1.808 -4.035,-4.039 l 0,-36.207 0,-2.91 -2.914,0 -14.914,0 -2.914,0 0,2.91 0,36.206 c 0,2.231 -1.808,4.039 -4.039,4.039 l -9.015,0 -2.91,0 0,2.914 0,19.164 0,2.746 0,0.009 z"
             class="st0" />
          <path
             style="fill:#374149"
             inkscape:connector-curvature="0"
             id="path1693"
             d="m 388.426,68.149 2.914,0 0,-2.914 0,-19.165 0,-2.914 -2.914,0 -9.05,0 c -2.23,0 -4.039,-1.808 -4.039,-4.039 l 0,-36.207 0,-2.91 -2.91,0 -14.859,0 -2.914,0 0,2.91 0,36.206 c 0,2.231 -1.808,4.039 -4.035,4.039 l -9.046,0 -2.914,0 0,2.914 0,19.164 0,2.914 2.914,0 46.853,0 z"
             class="st0" />
          <path
             style="fill:#374149"
             inkscape:connector-curvature="0"
             id="path1695"
             d="m 341.57,443.848 -2.914,0 0,2.914 0,19.168 0,2.914 2.914,0 9.031,0 c 2.226,0 4.035,1.805 4.035,4.035 l 0,36.206 0,2.915 2.914,0 14.918,0 2.91,0 0,-2.914 0,-36.206 c 0,-2.23 1.808,-4.035 4.038,-4.035 l 9.008,0 2.738,0 0.016,0 0,0 0.16,0 0,-2.914 0,-19.168 0,-2.914 -2.914,0 -46.854,0 z"
             class="st0" />
          <path
             style="fill:#374149"
             inkscape:connector-curvature="0"
             id="path1697"
             d="m 268.902,443.848 -2.91,0 0,2.914 0,19.168 0,2.746 0,0.007 0,0 0,0.161 2.91,0 9,0 c 2.23,0 4.039,1.805 4.039,4.035 l 0,36.206 0,2.915 2.91,0 14.918,0 2.914,0 0,-2.914 0,-36.206 c 0,-2.23 1.809,-4.035 4.035,-4.035 l 9.043,0 2.738,0 0.016,0 0,0 0.16,0 0,-2.914 0,-19.168 0,-2.914 -2.914,0 -46.859,0 z"
             class="st0" />
          <path
             style="fill:#374149"
             inkscape:connector-curvature="0"
             id="path1699"
             d="m 196.238,443.848 -2.914,0 0,2.914 0,19.168 0,2.914 2.914,0 9.027,0 c 2.23,0 4.035,1.805 4.035,4.035 l 0,36.206 0,2.915 2.914,0 14.918,0 2.914,0 0,-2.914 0,-36.206 c 0,-2.23 1.804,-4.035 4.035,-4.035 l 9.015,0 2.738,0 0.015,0 0,0 0.161,0 0,-2.914 0,-19.168 0,-2.914 -2.914,0 -46.858,0 z"
             class="st0" />
          <path
             style="fill:#374149"
             inkscape:connector-curvature="0"
             id="path1701"
             d="m 123.574,443.848 -2.914,0 0,2.914 0,19.168 0,2.746 0,0.007 0,0 0,0.161 2.914,0 9.05,0 c 2.23,0 4.039,1.805 4.039,4.035 l 0,36.206 0,2.746 0,0.008 0,0 0,0.161 2.914,0 14.855,0 2.914,0 0,-2.914 0,-36.206 c 0,-2.23 1.808,-4.035 4.035,-4.035 l 9.05,0 2.734,0 0.019,0 0,0 0.157,0 0,-2.914 0,-19.168 0,-2.914 -2.91,0 -46.857,0 z"
             class="st0" />
          <path
             style="fill:#374149"
             inkscape:connector-curvature="0"
             id="path1703"
             d="m 509.086,136.617 -36.202,0 c -2.231,0 -4.039,-1.804 -4.039,-4.034 l 0,-9.008 0,-2.914 -2.91,0 -19.172,0 -2.91,0 0,2.914 0,46.859 0,2.914 2.91,0 19.172,0 2.91,0 0,-2.914 0,-9.035 c 0,-2.23 1.808,-4.035 4.039,-4.035 l 36.202,0 2.746,0 0.008,0 0,0 0.16,0 0,-2.914 0,-14.918 0,-2.914 -2.914,0 z"
             class="st0" />
          <path
             style="fill:#374149"
             inkscape:connector-curvature="0"
             id="path1705"
             d="m 472.883,209.317 c -2.231,0 -4.039,-1.809 -4.039,-4.039 l 0,-9.039 0,-2.914 -2.91,0 -19.172,0 -2.742,0 -0.011,0 0,0 -0.157,0 0,2.914 0,46.855 0,2.914 2.91,0 19.172,0 2.91,0 0,-2.914 0,-8.996 c 0,-2.23 1.808,-4.039 4.039,-4.039 l 36.202,0 2.915,0 0,-2.914 0,-14.915 0,-2.914 -2.914,0 -36.203,0 z"
             class="st0" />
          <path
             style="fill:#374149"
             inkscape:connector-curvature="0"
             id="path1707"
             d="m 472.883,281.957 c -2.231,0 -4.039,-1.808 -4.039,-4.039 l 0,-9.015 0,-2.914 -2.91,0 -19.172,0 -2.91,0 0,2.914 0,46.859 0,2.914 2.91,0 19.172,0 2.91,0 0,-2.914 0,-9.027 c 0,-2.23 1.808,-4.039 4.039,-4.039 l 36.202,0 2.746,0 0.008,0.004 0,-0.004 0.161,0 0,-2.91 0,-14.914 0,-2.914 -2.914,0 -36.203,0 z"
             class="st0" />
          <path
             style="fill:#374149"
             inkscape:connector-curvature="0"
             id="path1709"
             d="m 472.883,354.652 c -2.231,0 -4.039,-1.804 -4.039,-4.035 l 0,-9.046 0,-2.914 -2.91,0 -19.172,0 -2.91,0 0,2.914 0,46.855 0,2.91 2.91,0 19.172,0 2.91,0 0,-2.91 0,-9.05 c 0,-2.23 1.808,-4.039 4.039,-4.039 l 36.202,0 2.915,0 0,-2.914 0,-14.855 0,-2.914 -2.914,0 -36.203,0 z"
             class="st0" />
          <path
             style="fill:#374149"
             inkscape:connector-curvature="0"
             id="path1711"
             d="m 46.07,338.656 -2.914,0 0,2.914 0,9.027 c 0,2.23 -1.808,4.039 -4.039,4.039 l -36.203,0 -2.914,0 0,2.914 0,14.914 0,2.914 2.914,0 36.202,0 c 2.231,0 4.039,1.808 4.039,4.038 l 0,9.008 0,2.91 2.914,0 19.168,0 2.914,0 0,-2.91 0,-46.854 0,-2.914 -2.914,0 z"
             class="st0" />
          <path
             style="fill:#374149"
             inkscape:connector-curvature="0"
             id="path1713"
             d="m 46.07,265.988 -2.914,0 0,2.914 0,9 c 0,2.23 -1.808,4.035 -4.039,4.035 l -36.203,0 -2.914,0 0,2.914 0,14.918 0,2.914 2.914,0 36.202,0 c 2.231,0 4.039,1.805 4.039,4.035 l 0,9.043 0,2.914 2.914,0 19.168,0 2.914,0 0,-2.914 0,-46.859 0,-2.914 -2.914,0 z"
             class="st0" />
          <path
             style="fill:#374149"
             inkscape:connector-curvature="0"
             id="path1715"
             d="m 46.07,193.324 -2.746,0 -0.007,0 0,0 -0.161,0 0,2.914 0,9.027 c 0,2.23 -1.808,4.035 -4.039,4.035 l -36.203,0 -2.914,0 0,2.914 0,14.914 0,2.914 2.914,0 36.202,0 c 2.231,0 4.039,1.805 4.039,4.035 l 0,9.015 0,2.914 2.914,0 19.168,0 2.914,0 0,-2.914 0,-46.855 0,-2.914 -2.914,0 -19.167,0 z"
             class="st0" />
          <path
             style="fill:#374149"
             inkscape:connector-curvature="0"
             id="path1717"
             d="m 46.07,120.66 -2.914,0 0,2.914 0,9.05 c 0,2.23 -1.808,4.035 -4.039,4.035 l -36.203,0 -2.914,0 0,2.914 0,14.859 0,2.914 2.914,0 36.202,0 c 2.231,0 4.039,1.804 4.039,4.038 l 0,9.047 0,2.914 2.914,0 19.168,0 2.914,0 0,-2.914 0,-46.859 0,-2.914 -2.914,0 -19.167,0 z"
             class="st0" />
        </g>
      </g>
    </g>
  </g>
</svg>
