<?xml version="1.0" encoding="UTF-8" standalone="no"?>
<!-- Created with Inkscape (http://www.inkscape.org/) -->

<svg
   xmlns:dc="http://purl.org/dc/elements/1.1/"
   xmlns:cc="http://creativecommons.org/ns#"
   xmlns:rdf="http://www.w3.org/1999/02/22-rdf-syntax-ns#"
   xmlns:svg="http://www.w3.org/2000/svg"
   xmlns="http://www.w3.org/2000/svg"
   xmlns:xlink="http://www.w3.org/1999/xlink"
   xmlns:sodipodi="http://sodipodi.sourceforge.net/DTD/sodipodi-0.dtd"
   xmlns:inkscape="http://www.inkscape.org/namespaces/inkscape"
   width="64"
   version="1.1"
   height="64"
   id="svg30"
   sodipodi:docname="media-optical-recordable.svg"
   inkscape:version="0.92.3 (unknown)">
  <sodipodi:namedview
     pagecolor="#ffffff"
     bordercolor="#666666"
     borderopacity="1"
     objecttolerance="10"
     gridtolerance="10"
     guidetolerance="10"
     inkscape:pageopacity="0"
     inkscape:pageshadow="2"
     inkscape:window-width="1366"
     inkscape:window-height="700"
     id="namedview32"
     showgrid="false"
     inkscape:zoom="7.375"
     inkscape:cx="28.749353"
     inkscape:cy="27.064417"
     inkscape:window-x="0"
     inkscape:window-y="0"
     inkscape:window-maximized="1"
     inkscape:current-layer="layer1" />
  <defs
     id="defs5455">
    <linearGradient
       inkscape:collect="always"
       id="linearGradient3834"
       xlink:href="#linearGradient4300-2"
       y1="540.79797"
       y2="506.798"
       x2="0"
       gradientUnits="userSpaceOnUse"
       gradientTransform="matrix(1.5292812 0 0 1.529412 -592.82053 -769.10295)" />
    <linearGradient
       inkscape:collect="always"
       id="linearGradient3862"
       xlink:href="#linearGradient4351-4"
       y1="540.79797"
       y2="506.798"
       x2="0"
       gradientUnits="userSpaceOnUse"
       gradientTransform="matrix(0.52941243 0 0 0.52941244 -184.30279 -245.30519)" />
    <linearGradient
       id="linearGradient4290">
      <stop
         style="stop-color:#fccc78"
         id="stop4292" />
      <stop
         offset="1"
         style="stop-color:#fffbf5"
         id="stop4294" />
    </linearGradient>
    <linearGradient
       inkscape:collect="always"
       id="linearGradient4351-4">
      <stop
         style="stop-color:#fbd783"
         id="stop4353-4" />
      <stop
         offset="1"
         style="stop-color:#fcdf9c"
         id="stop4355-3" />
    </linearGradient>
    <linearGradient
       id="linearGradient4300-2">
      <stop
         style="stop-color:#f9b425"
         id="stop4302-4" />
      <stop
         offset="1"
         style="stop-color:#f9bf3b"
         id="stop4304-1" />
    </linearGradient>
  </defs>
  <metadata
     id="metadata5458">
    <rdf:RDF>
      <cc:Work
         rdf:about="">
        <dc:format>image/svg+xml</dc:format>
        <dc:type
           rdf:resource="http://purl.org/dc/dcmitype/StillImage" />
      </cc:Work>
    </rdf:RDF>
  </metadata>
  <g
     inkscape:label="Capa 1"
     inkscape:groupmode="layer"
     id="layer1"
     transform="matrix(1 0 0 1 -376.57144 -491.79797)">
    <path
       style="fill:url(#linearGradient3834)"
       id="rect4146"
       d="M 32 6 C 17.59725 6 6.0019531 17.59602 6.0019531 32 C 6.0019531 46.40398 17.59725 58 32 58 C 46.40275 58 57.998047 46.40398 57.998047 32 C 57.998047 17.59602 46.40275 6 32 6 z M 32 29 C 33.662 29 35 30.338 35 32 C 35 33.662 33.662 35 32 35 C 30.338 35 29 33.662 29 32 C 29 30.338 30.338 29 32 29 z "
       transform="matrix(1 0 0 1 376.57144 491.79797)" />
    <path
       style="fill:url(#linearGradient3862)"
       id="rect4270"
       d="M 32 23 C 27.014 23 23 27.014 23 32 C 23 36.986 27.014 41 32 41 C 36.986 41 41 36.986 41 32 C 41 27.014 36.986 23 32 23 z M 32 24 A 8 8 0 0 1 40 32 A 8 8 0 0 1 32 40 A 8 8 0 0 1 24 32 A 8 8 0 0 1 32 24 z M 32 25 A 7 7 0 0 0 25 32 A 7 7 0 0 0 32 39 A 7 7 0 0 0 39 32 A 7 7 0 0 0 32 25 z M 32 29 C 33.662 29 35 30.338 35 32 C 35 33.662 33.662 35 32 35 C 30.338 35 29 33.662 29 32 C 29 30.338 30.338 29 32 29 z "
       transform="matrix(1 0 0 1 376.57144 491.79797)" />
    <path
       inkscape:connector-curvature="0"
       style="fill:#2e3132;fill-opacity:0.294118"
       id="rect4284"
       d="m 6.0019531,31.191406 c -0.005,0.21774 0,0.435127 0,0.654297 C 6.0019531,46.334943 17.59723,58 32,58 46.40277,58 57.998047,46.334943 57.998047,31.845703 c 0,-0.21917 0.005,-0.436557 0,-0.654297 C 57.654007,45.374776 46.18454,57 32,57 17.81546,57 6.3459931,45.374776 6.0019531,31.191406 Z"
       transform="matrix(1 0 0 1 376.57144 491.79797)" />
    <path
       style="fill:#2e3132;fill-opacity:0.294118;stroke-linecap:round"
       id="path4558"
       d="M 32 24 A 8 8 0 0 0 24 32 A 8 8 0 0 0 32 40 A 8 8 0 0 0 40 32 A 8 8 0 0 0 32 24 z M 32 25 A 7 7 0 0 1 39 32 A 7 7 0 0 1 32 39 A 7 7 0 0 1 25 32 A 7 7 0 0 1 32 25 z "
       transform="matrix(1 0 0 1 376.57144 491.79797)" />
    <path
       inkscape:connector-curvature="0"
       style="fill:#bd902e;fill-opacity:1"
       id="rect4132-4"
       d="m 428.91266,516.70434 -9.09296,9.1463 0.009,0.01 -0.0112,2.8433 h 0.7501 1.50019 0.75595 l 0.10362,0.009 9,-9 v 0 0 l -3,-3 -0.0254,-0.01 z m -1.31379,2.7337 1.41442,1.425 -5.46169,5.5028 0.0186,-0.6881 h -0.75004 -0.7501 l -0.002,-0.6675 v 0 z m -6.27707,6.3243 -0.002,0.6712 h 0.75009 0.7501 l 0.002,0.6674 v 0 l -0.84064,0.847 -0.66334,-9e-4 -0.74762,-0.7583 -9.6e-4,-0.6683 z" />
  </g>
</svg>
