<?xml version="1.0" encoding="UTF-8" standalone="no"?>
<svg
   xmlns:dc="http://purl.org/dc/elements/1.1/"
   xmlns:cc="http://creativecommons.org/ns#"
   xmlns:rdf="http://www.w3.org/1999/02/22-rdf-syntax-ns#"
   xmlns:svg="http://www.w3.org/2000/svg"
   xmlns="http://www.w3.org/2000/svg"
   xmlns:xlink="http://www.w3.org/1999/xlink"
   xmlns:sodipodi="http://sodipodi.sourceforge.net/DTD/sodipodi-0.dtd"
   xmlns:inkscape="http://www.inkscape.org/namespaces/inkscape"
   width="64px"
   height="64px"
   viewBox="0 0 64 64"
   version="1.1"
   id="svg2"
   inkscape:version="0.91 r13725"
   sodipodi:docname="x-office-docment.svg">
  <metadata
     id="metadata19">
    <rdf:RDF>
      <cc:Work
         rdf:about="">
        <dc:format>image/svg+xml</dc:format>
        <dc:type
           rdf:resource="http://purl.org/dc/dcmitype/StillImage" />
        <dc:title>application-pdf</dc:title>
      </cc:Work>
    </rdf:RDF>
  </metadata>
  <sodipodi:namedview
     pagecolor="#ffffff"
     bordercolor="#666666"
     borderopacity="1"
     objecttolerance="10"
     gridtolerance="10"
     guidetolerance="10"
     inkscape:pageopacity="0"
     inkscape:pageshadow="2"
     inkscape:window-width="1366"
     inkscape:window-height="700"
     id="namedview17"
     showgrid="false"
     inkscape:zoom="5.6568542"
     inkscape:cx="-8.6812166"
     inkscape:cy="20.59695"
     inkscape:window-x="0"
     inkscape:window-y="0"
     inkscape:window-maximized="1"
     inkscape:current-layer="svg2"
     inkscape:snap-global="true" />
  <!-- Generator: Sketch 40.3 (33839) - http://www.bohemiancoding.com/sketch -->
  <title
     id="title4">application-pdf</title>
  <desc
     id="desc6">Created with Sketch.</desc>
  <defs
     id="defs8">
    <linearGradient
       inkscape:collect="always"
       id="linearGradient4174">
      <stop
         style="stop-color:#21a8f1;stop-opacity:1"
         offset="0"
         id="stop4176" />
      <stop
         style="stop-color:#0e9ef0;stop-opacity:1"
         offset="1"
         id="stop4178" />
    </linearGradient>
    <linearGradient
       gradientTransform="matrix(0.70607647,0,0,0.70607647,-7.1989039,61.782827)"
       id="SVGID_4_-3"
       gradientUnits="userSpaceOnUse"
       x1="102.6431"
       y1="-34.2061"
       x2="218.0972"
       y2="209.7536">
      <stop
         offset="0"
         style="stop-color:#23b6ef;stop-opacity:1"
         id="stop4202-6" />
      <stop
         offset="0.3941"
         style="stop-color:#45d3fe;stop-opacity:1"
         id="stop4204-7" />
      <stop
         offset="0.583"
         style="stop-color:#4dd0ff;stop-opacity:1"
         id="stop4206-5" />
      <stop
         offset="0.7838"
         style="stop-color:#47d2fd;stop-opacity:1"
         id="stop4208-3" />
      <stop
         offset="1"
         style="stop-color:#2bb2ec;stop-opacity:1"
         id="stop4210-5" />
    </linearGradient>
    <linearGradient
       gradientTransform="matrix(0.70607647,0,0,0.70607647,-7.1989039,61.782827)"
       id="SVGID_3_-6"
       gradientUnits="userSpaceOnUse"
       x1="37.1362"
       y1="-2.4779999"
       x2="152.1362"
       y2="240.522">
      <stop
         offset="0"
         style="stop-color:#20bcf4;stop-opacity:1"
         id="stop4187-2" />
      <stop
         offset="0.3941"
         style="stop-color:#49d3fd;stop-opacity:1"
         id="stop4189-9" />
      <stop
         offset="0.583"
         style="stop-color:#49d6ff;stop-opacity:1"
         id="stop4191-1" />
      <stop
         offset="0.7838"
         style="stop-color:#40d4fe;stop-opacity:1"
         id="stop4193-2" />
      <stop
         offset="1"
         style="stop-color:#20b5e8;stop-opacity:1"
         id="stop4195-7" />
    </linearGradient>
    <linearGradient
       id="a-3"
       y1="17"
       x1="40"
       y2="31"
       gradientUnits="userSpaceOnUse"
       x2="54"
       gradientTransform="matrix(0,3.383376,-3.4244669,0,218.19069,65.244715)">
      <stop
         stop-color="#060606"
         id="stop4172" />
      <stop
         offset="1"
         stop-opacity="0"
         id="stop4174" />
    </linearGradient>
    <linearGradient
       inkscape:collect="always"
       xlink:href="#a-3"
       id="linearGradient4283"
       gradientUnits="userSpaceOnUse"
       gradientTransform="matrix(0,0.845844,-0.85611672,0,54.547617,12.311424)"
       x1="40"
       y1="17"
       x2="54"
       y2="31" />
    <radialGradient
       inkscape:collect="always"
       xlink:href="#linearGradient4174"
       id="radialGradient4180"
       cx="95.778931"
       cy="163.8054"
       fx="95.778931"
       fy="163.8054"
       r="84"
       gradientTransform="matrix(1.4537226,0,0,1.7852612,-45.177115,-119.84905)"
       gradientUnits="userSpaceOnUse" />
    <linearGradient
       gradientTransform="matrix(1.8725482,0,0,1.7991054,-15.936501,-1805.0083)"
       id="d"
       gradientUnits="userSpaceOnUse"
       x1="15.23138"
       x2="25.822527"
       xlink:href="#a"
       y1="1032.542"
       y2="1019.6814" />
    <linearGradient
       id="a">
      <stop
         offset="0"
         stop-color="#f6fbff"
         id="stop5" />
      <stop
         offset="1"
         stop-color="#eaeff2"
         id="stop7" />
    </linearGradient>
  </defs>
  <style
     type="text/css"
     id="style4358">
	.st0{fill:#261300;}
	.st1{fill:#FF7C00;}
</style>
  <g
     id="g4272"
     transform="matrix(0.25,0,0,0.25,0,-4.8135597)">
    <g
       style="fill:none;fill-rule:evenodd;stroke:none;stroke-width:1"
       transform="matrix(1,0,0,-1,0,276)"
       id="Page-1">
      <g
         id="application-pdf">
        <path
           style="fill:url(#radialGradient4180);fill-opacity:1"
           inkscape:connector-curvature="0"
           id="path14361"
           d="m 206,232.74576 -156,0 c -4,0 -6,-2 -6,-6 L 44,30.745762 c 0,-4 2,-6 6,-6 l 110,0 52,52 0,149.999998 c 0,6 -6,6 -6,6 z" />
        <g
           transform="translate(44,28)"
           id="Group">
          <path
             style="fill:#646464;fill-opacity:0.2"
             inkscape:connector-curvature="0"
             id="Combined-Shape-7"
             d="m 0,198.74576 c 0,4 2,6 6,6 l 156,0 c 0,0 6,0 6,-6 l 0,-2 c 0,6 -6,6 -6,6 l -156,0 c -4,0 -6,-2 -6,-6 l 0,2 z" />
          <path
             style="opacity:0.25;fill:#999999"
             inkscape:connector-curvature="0"
             id="path16-5"
             d="m 0,2.745762 c 0,-4 2,-6 6,-6 l 110,0 0,2 -110,0 c -4,0 -6,2 -6,6 l 0,-2 z" />
        </g>
      </g>
    </g>
  </g>
  <path
     style="opacity:0.1;fill:url(#linearGradient4283);fill-rule:evenodd"
     id="path4198-2"
     d="M 39.993635,46.145183 28.008,57.987 l 11.985635,0 z"
     inkscape:connector-curvature="0" />
  <path
     style="fill:#ffffff;fill-opacity:1;fill-rule:evenodd;stroke:none;stroke-width:1;opacity:0.6"
     inkscape:connector-curvature="0"
     id="path19-9"
     d="M 41.238667,44.962667 C 40.502667,44.962667 40,45.597333 40,46.333333 L 40,58 53,44.962667 l -11.761333,0 z" />
  <path
     inkscape:connector-curvature="0"
     style="opacity:0.85;fill:#ffffff"
     d="m 19.928666,49.80721 c -0.439,-0.114 -0.394,-0.237 0.329,-0.912 1.245,-1.163 1.453,-2.322 1.098,-6.137 -0.283,-3.041 -0.346,-3.274 -0.822,-3.02 -1.029,0.551 -2.316,-0.16 -3.776,-2.086 -0.722,-0.952 -0.791,-1.231 -0.667,-2.716 0.076,-0.91 0.231,-2.01 0.345,-2.44 0.175,-0.664 0.118,-0.786 -0.363,-0.786 -0.314,0 -0.732,-0.195 -0.93,-0.434 -0.499,-0.601 0.39,-1.567 1.443,-1.567 0.428,0 0.938,-0.193 1.134,-0.429 0.505,-0.609 1.278,-0.531 2.146,0.215 0.922,0.793 1.236,2.63 0.718,4.2 -0.586,1.775 -0.179,1.949 0.641,0.274 0.459,-0.937 1.106,-1.755 1.639,-2.069 0.485,-0.286 1.193,-1.014 1.573,-1.617 0.381,-0.603 0.858999,-1.203 1.060999,-1.333 0.623,-0.399 2.336001,-0.947 2.975001,-0.951 0.87,-0.005 2.038,1.013 2.246,1.96 0.098,0.448 0.623,1.503 1.165,2.345 0.543,0.842 0.987,1.679 0.987,1.859 0,0.18 0.386,0.813 0.858,1.407 0.706,0.889 0.855,1.337 0.846,2.541 -0.014,1.651 -0.903,3.756 -1.228,2.907 -0.103,-0.268 -0.06,-0.724 0.096,-1.015 0.325,-0.607 0.038,-3.298 -0.314,-2.946 -0.245,0.245 -0.406,2.871 -0.337,5.516 0.089,3.435 -0.078,6.674 -0.349,6.76 -0.692,0.22 -0.995,-0.351 -0.711,-1.342 0.428,-1.493 0.34,-5.461 -0.135,-6.088 -0.219,-0.29 -0.484,-1.029 -0.587,-1.642 -0.104,-0.614 -0.3,-1.185 -0.437,-1.269 -0.451,-0.278 -1.131,1.525 -1.131,2.998 0,1.153 -0.174,1.686 -0.858,2.63 -0.968,1.336 -1.043,1.731 -0.429,2.241 0.479,0.398 0.572,1.307 0.16,1.562 -0.148,0.091 -0.534,-0.118 -0.858,-0.466 -0.458,-0.491 -0.589,-0.532 -0.589,-0.183 0,0.523 -1.060001,0.877 -1.645001,0.55 -0.312999,-0.175 -0.238999,-0.331 0.336,-0.708 1.024,-0.671 0.925,-1.221 -0.443,-2.472 -1.066999,-0.975 -1.161999,-1.171 -0.986999,-2.039 0.554,-2.747 0.551,-2.818 -0.088,-2.818 -0.419,0 -0.603,0.18 -0.603,0.59 0,0.325 -0.142,0.856 -0.315,1.18 -0.306,0.572 -0.397,1.032 -1.138,5.733 -0.369,2.343 -0.46,2.432 -2.055,2.02 m 7.675,-4.99 c 0.371,-0.718 0.425,-1.333 0.266,-3.03 -0.212,-2.257 -0.367,-2.336 -0.985,-0.499 -0.212,0.629 -0.624001,1.45 -0.916001,1.825 -0.68,0.873 -0.668,1.137 0.091,1.944 0.812001,0.864 0.988001,0.837 1.545001,-0.239"
     id="path31" />
</svg>
