<?xml version="1.0" encoding="UTF-8" standalone="no"?>
<svg
   xmlns:dc="http://purl.org/dc/elements/1.1/"
   xmlns:cc="http://creativecommons.org/ns#"
   xmlns:rdf="http://www.w3.org/1999/02/22-rdf-syntax-ns#"
   xmlns:svg="http://www.w3.org/2000/svg"
   xmlns="http://www.w3.org/2000/svg"
   xmlns:xlink="http://www.w3.org/1999/xlink"
   xmlns:sodipodi="http://sodipodi.sourceforge.net/DTD/sodipodi-0.dtd"
   xmlns:inkscape="http://www.inkscape.org/namespaces/inkscape"
   width="64px"
   height="64px"
   viewBox="0 0 64 64"
   version="1.1"
   id="svg2"
   inkscape:version="0.91 r13725"
   sodipodi:docname="application-vnd.ms-word.svg">
  <metadata
     id="metadata19">
    <rdf:RDF>
      <cc:Work
         rdf:about="">
        <dc:format>image/svg+xml</dc:format>
        <dc:type
           rdf:resource="http://purl.org/dc/dcmitype/StillImage" />
        <dc:title>application-pdf</dc:title>
      </cc:Work>
    </rdf:RDF>
  </metadata>
  <sodipodi:namedview
     pagecolor="#ffffff"
     bordercolor="#666666"
     borderopacity="1"
     objecttolerance="10"
     gridtolerance="10"
     guidetolerance="10"
     inkscape:pageopacity="0"
     inkscape:pageshadow="2"
     inkscape:window-width="1366"
     inkscape:window-height="700"
     id="namedview17"
     showgrid="false"
     inkscape:zoom="8.0000001"
     inkscape:cx="15.266202"
     inkscape:cy="33.246321"
     inkscape:window-x="0"
     inkscape:window-y="0"
     inkscape:window-maximized="1"
     inkscape:current-layer="svg2"
     inkscape:snap-global="true" />
  <!-- Generator: Sketch 40.3 (33839) - http://www.bohemiancoding.com/sketch -->
  <title
     id="title4">application-pdf</title>
  <desc
     id="desc6">Created with Sketch.</desc>
  <defs
     id="defs8">
    <linearGradient
       inkscape:collect="always"
       id="linearGradient4174">
      <stop
         style="stop-color:#3979d7;stop-opacity:1"
         offset="0"
         id="stop4176" />
      <stop
         style="stop-color:#2a6dcf;stop-opacity:1"
         offset="1"
         id="stop4178" />
    </linearGradient>
    <linearGradient
       gradientTransform="matrix(0.70607647,0,0,0.70607647,-7.1989039,61.782827)"
       id="SVGID_4_-3"
       gradientUnits="userSpaceOnUse"
       x1="102.6431"
       y1="-34.2061"
       x2="218.0972"
       y2="209.7536">
      <stop
         offset="0"
         style="stop-color:#23b6ef;stop-opacity:1"
         id="stop4202-6" />
      <stop
         offset="0.3941"
         style="stop-color:#45d3fe;stop-opacity:1"
         id="stop4204-7" />
      <stop
         offset="0.583"
         style="stop-color:#4dd0ff;stop-opacity:1"
         id="stop4206-5" />
      <stop
         offset="0.7838"
         style="stop-color:#47d2fd;stop-opacity:1"
         id="stop4208-3" />
      <stop
         offset="1"
         style="stop-color:#2bb2ec;stop-opacity:1"
         id="stop4210-5" />
    </linearGradient>
    <linearGradient
       gradientTransform="matrix(0.70607647,0,0,0.70607647,-7.1989039,61.782827)"
       id="SVGID_3_-6"
       gradientUnits="userSpaceOnUse"
       x1="37.1362"
       y1="-2.4779999"
       x2="152.1362"
       y2="240.522">
      <stop
         offset="0"
         style="stop-color:#20bcf4;stop-opacity:1"
         id="stop4187-2" />
      <stop
         offset="0.3941"
         style="stop-color:#49d3fd;stop-opacity:1"
         id="stop4189-9" />
      <stop
         offset="0.583"
         style="stop-color:#49d6ff;stop-opacity:1"
         id="stop4191-1" />
      <stop
         offset="0.7838"
         style="stop-color:#40d4fe;stop-opacity:1"
         id="stop4193-2" />
      <stop
         offset="1"
         style="stop-color:#20b5e8;stop-opacity:1"
         id="stop4195-7" />
    </linearGradient>
    <linearGradient
       id="a-3"
       y1="17"
       x1="40"
       y2="31"
       gradientUnits="userSpaceOnUse"
       x2="54"
       gradientTransform="matrix(0,3.383376,-3.4244669,0,218.19069,65.244715)">
      <stop
         stop-color="#060606"
         id="stop4172" />
      <stop
         offset="1"
         stop-opacity="0"
         id="stop4174" />
    </linearGradient>
    <linearGradient
       inkscape:collect="always"
       xlink:href="#a-3"
       id="linearGradient4283"
       gradientUnits="userSpaceOnUse"
       gradientTransform="matrix(0,0.845844,-0.85611672,0,54.547617,12.311424)"
       x1="40"
       y1="17"
       x2="54"
       y2="31" />
    <radialGradient
       inkscape:collect="always"
       xlink:href="#linearGradient4174"
       id="radialGradient4180"
       cx="95.778931"
       cy="163.8054"
       fx="95.778931"
       fy="163.8054"
       r="84"
       gradientTransform="matrix(1.4358655,0,0,1.7852612,-43.466777,-119.84905)"
       gradientUnits="userSpaceOnUse" />
  </defs>
  <style
     type="text/css"
     id="style4358">
	.st0{fill:#261300;}
	.st1{fill:#FF7C00;}
</style>
  <g
     id="g4272"
     transform="matrix(0.25,0,0,0.25,0,-4.8135597)">
    <g
       style="fill:none;fill-rule:evenodd;stroke:none;stroke-width:1"
       transform="matrix(1,0,0,-1,0,276)"
       id="Page-1">
      <g
         id="application-pdf">
        <path
           style="fill:url(#radialGradient4180);fill-opacity:1"
           inkscape:connector-curvature="0"
           id="path14361"
           d="m 206,232.74576 -156,0 c -4,0 -6,-2 -6,-6 L 44,30.745762 c 0,-4 2,-6 6,-6 l 110,0 52,52 0,149.999998 c 0,6 -6,6 -6,6 z" />
        <g
           transform="translate(44,28)"
           id="Group">
          <path
             style="fill:#646464;fill-opacity:0.2"
             inkscape:connector-curvature="0"
             id="Combined-Shape-7"
             d="m 0,198.74576 c 0,4 2,6 6,6 l 156,0 c 0,0 6,0 6,-6 l 0,-2 c 0,6 -6,6 -6,6 l -156,0 c -4,0 -6,-2 -6,-6 l 0,2 z" />
          <path
             style="opacity:0.25;fill:#999999"
             inkscape:connector-curvature="0"
             id="path16-5"
             d="m 0,2.745762 c 0,-4 2,-6 6,-6 l 110,0 0,2 -110,0 c -4,0 -6,2 -6,6 l 0,-2 z" />
        </g>
      </g>
    </g>
  </g>
  <path
     style="opacity:0.1;fill:url(#linearGradient4283);fill-rule:evenodd"
     id="path4198-2"
     d="M 39.993635,46.145183 28.008,57.987 l 11.985635,0 z"
     inkscape:connector-curvature="0" />
  <path
     style="fill:#ffffff;fill-opacity:1;fill-rule:evenodd;stroke:none;stroke-width:1;opacity:0.4"
     inkscape:connector-curvature="0"
     id="path19-9"
     d="M 41.238667,44.962667 C 40.502667,44.962667 40,45.597333 40,46.333333 L 40,58 53,44.962667 l -11.761333,0 z" />
  <path
     style="display:inline;fill:#ffffff;stroke-width:1.33333325;enable-background:new"
     d="m 26.923278,27.185757 c -3.973263,0.707565 -7.948865,1.646392 -11.922126,2.340999 0,6.044129 -0.0026,12.090842 0,18.137562 C 18.953679,48.356333 22.908666,49.279475 26.85342,50 l 1.183841,0 0,-22.814241 z m -1.536871,7.389736 -1.830515,7.683961 -1.502487,-0.118459 c -0.344711,-1.715783 -0.746274,-3.421232 -1.054698,-5.144791 -0.303244,1.674317 -0.697525,3.333152 -1.044829,4.997105 -0.49763,-0.02592 -0.997543,-0.05705 -1.497764,-0.09074 -0.430241,-2.280802 -0.935813,-4.546018 -1.337547,-6.832003 0.443201,-0.02073 0.889032,-0.03874 1.332234,-0.0543 0.266954,1.650991 0.570096,3.294164 0.803362,4.947744 0.365448,-1.695047 0.738921,-3.390133 1.101777,-5.085182 0.492446,-0.02851 0.984815,-0.04926 1.477261,-0.07517 0.344713,1.74948 0.697044,3.496103 1.070267,5.237808 0.292874,-1.798726 0.616939,-3.592021 0.93055,-5.388154 0.518364,-0.01813 1.036663,-0.04673 1.552432,-0.07783 z"
     id="path6"
     inkscape:connector-curvature="0"
     sodipodi:nodetypes="cccccccccccccccccccccc" />
  <path
     sodipodi:nodetypes="ccccccccccccccccccccccccccccc"
     inkscape:connector-curvature="0"
     id="path1316"
     d="m 28.852056,30.444936 8.147944,0 0,16.295887 -8.147944,0 0,-1.629589 6.518355,0 0,-0.814795 -6.518355,0 0,-1.629588 6.518355,0 0,-0.814794 -6.518355,0 0,-1.629589 6.518355,0 0,-0.814795 -6.518355,0 0,-1.629588 6.518355,0 0,-0.814794 -6.518355,0 0,-1.626733 6.518355,0 0,-0.81765 -6.518355,0 0,-1.629589 6.518355,0 0,-0.814795 -6.518355,0 z"
     style="display:inline;fill:#ffffff;stroke-width:1.33333325;enable-background:new" />
</svg>
