<?xml version="1.0" encoding="UTF-8" standalone="no"?>
<svg
   xmlns:dc="http://purl.org/dc/elements/1.1/"
   xmlns:cc="http://creativecommons.org/ns#"
   xmlns:rdf="http://www.w3.org/1999/02/22-rdf-syntax-ns#"
   xmlns:svg="http://www.w3.org/2000/svg"
   xmlns="http://www.w3.org/2000/svg"
   xmlns:xlink="http://www.w3.org/1999/xlink"
   xmlns:sodipodi="http://sodipodi.sourceforge.net/DTD/sodipodi-0.dtd"
   xmlns:inkscape="http://www.inkscape.org/namespaces/inkscape"
   width="64px"
   height="64px"
   viewBox="0 0 64 64"
   version="1.1"
   id="svg2"
   inkscape:version="0.92.3 (unknown)"
   sodipodi:docname="application-x-apple-diskimage.svg">
  <metadata
     id="metadata19">
    <rdf:RDF>
      <cc:Work
         rdf:about="">
        <dc:format>image/svg+xml</dc:format>
        <dc:type
           rdf:resource="http://purl.org/dc/dcmitype/StillImage" />
        <dc:title>application-pdf</dc:title>
      </cc:Work>
    </rdf:RDF>
  </metadata>
  <sodipodi:namedview
     pagecolor="#ffffff"
     bordercolor="#666666"
     borderopacity="1"
     objecttolerance="10"
     gridtolerance="10"
     guidetolerance="10"
     inkscape:pageopacity="0"
     inkscape:pageshadow="2"
     inkscape:window-width="1366"
     inkscape:window-height="703"
     id="namedview17"
     showgrid="false"
     inkscape:zoom="2.6074563"
     inkscape:cx="-72.080598"
     inkscape:cy="8.4937749"
     inkscape:window-x="0"
     inkscape:window-y="0"
     inkscape:window-maximized="1"
     inkscape:current-layer="svg2" />
  <!-- Generator: Sketch 40.3 (33839) - http://www.bohemiancoding.com/sketch -->
  <title
     id="title4">application-pdf</title>
  <desc
     id="desc6">Created with Sketch.</desc>
  <defs
     id="defs8">
    <linearGradient
       gradientTransform="matrix(0.70607647,0,0,0.70607647,-7.1989039,61.782827)"
       id="SVGID_4_-3"
       gradientUnits="userSpaceOnUse"
       x1="102.6431"
       y1="-34.2061"
       x2="218.0972"
       y2="209.7536">
      <stop
         offset="0"
         style="stop-color:#23b6ef;stop-opacity:1"
         id="stop4202-6" />
      <stop
         offset="0.3941"
         style="stop-color:#45d3fe;stop-opacity:1"
         id="stop4204-7" />
      <stop
         offset="0.583"
         style="stop-color:#4dd0ff;stop-opacity:1"
         id="stop4206-5" />
      <stop
         offset="0.7838"
         style="stop-color:#47d2fd;stop-opacity:1"
         id="stop4208-3" />
      <stop
         offset="1"
         style="stop-color:#2bb2ec;stop-opacity:1"
         id="stop4210-5" />
    </linearGradient>
    <linearGradient
       gradientTransform="matrix(0.70607647,0,0,0.70607647,-7.1989039,61.782827)"
       id="SVGID_3_-6"
       gradientUnits="userSpaceOnUse"
       x1="37.1362"
       y1="-2.4779999"
       x2="152.1362"
       y2="240.522">
      <stop
         offset="0"
         style="stop-color:#20bcf4;stop-opacity:1"
         id="stop4187-2" />
      <stop
         offset="0.3941"
         style="stop-color:#49d3fd;stop-opacity:1"
         id="stop4189-9" />
      <stop
         offset="0.583"
         style="stop-color:#49d6ff;stop-opacity:1"
         id="stop4191-1" />
      <stop
         offset="0.7838"
         style="stop-color:#40d4fe;stop-opacity:1"
         id="stop4193-2" />
      <stop
         offset="1"
         style="stop-color:#20b5e8;stop-opacity:1"
         id="stop4195-7" />
    </linearGradient>
    <linearGradient
       id="a-3"
       y1="17"
       x1="40"
       y2="31"
       gradientUnits="userSpaceOnUse"
       x2="54"
       gradientTransform="matrix(0,3.383376,-3.4244669,0,218.19069,65.244715)">
      <stop
         stop-color="#060606"
         id="stop4172" />
      <stop
         offset="1"
         stop-opacity="0"
         id="stop4174" />
    </linearGradient>
    <linearGradient
       id="linearGradient4318-0"
       inkscape:collect="always">
      <stop
         id="stop4320-9"
         offset="0"
         style="stop-color:#666666;stop-opacity:1" />
      <stop
         id="stop4322-3"
         offset="1"
         style="stop-color:#555555;stop-opacity:1" />
    </linearGradient>
    <radialGradient
       gradientUnits="userSpaceOnUse"
       gradientTransform="matrix(1.6586439,0.00259808,-0.00327432,2.0903579,-51.818678,-188.63596)"
       r="84"
       fy="184.21622"
       fx="79.590591"
       cy="184.21622"
       cx="79.590591"
       id="radialGradient4324-0"
       xlink:href="#linearGradient4318-0"
       inkscape:collect="always" />
    <linearGradient
       inkscape:collect="always"
       xlink:href="#a-3"
       id="linearGradient4283"
       gradientUnits="userSpaceOnUse"
       gradientTransform="matrix(0,3.383376,-3.4244669,0,218.19069,65.244715)"
       x1="40"
       y1="17"
       x2="54"
       y2="31" />
  </defs>
  <style
     type="text/css"
     id="style4358">
	.st0{fill:#261300;}
	.st1{fill:#FF7C00;}
</style>
  <g
     id="g4272"
     transform="matrix(0.25,0,0,0.25,0,-4)">
    <g
       style="fill:none;fill-rule:evenodd;stroke:none;stroke-width:1"
       transform="matrix(1,0,0,-1,0,276)"
       id="Page-1">
      <g
         id="application-pdf">
        <path
           style="fill:url(#radialGradient4324-0);fill-opacity:1"
           inkscape:connector-curvature="0"
           id="path14361"
           d="m 206,236 -156,0 c -4,0 -6,-2 -6,-6 L 44,34 c 0,-4 2,-6 6,-6 l 110,0 52,52 0,150 c 0,6 -6,6 -6,6 z" />
        <g
           transform="translate(44,28)"
           id="Group">
          <path
             style="fill:#808080;fill-opacity:0.2"
             inkscape:connector-curvature="0"
             id="Combined-Shape-7"
             d="m 0,202 c 0,4 2,6 6,6 l 156,0 c 0,0 6,0 6,-6 l 0,-2 c 0,6 -6,6 -6,6 L 6,206 c -4,0 -6,-2 -6,-6 l 0,2 z" />
          <path
             style="opacity:0.2;fill:#393939;fill-opacity:1"
             inkscape:connector-curvature="0"
             id="path16-5"
             d="M 0,6 C 0,2 2,0 6,0 L 116,0 116,2 6,2 C 2,2 0,4 0,8 L 0,6 Z" />
        </g>
        <path
           style="fill:#b3b3b3;fill-opacity:1"
           inkscape:connector-curvature="0"
           id="path19-9"
           d="m 164.95467,80.149333 c -2.944,0 -4.95467,-2.538666 -4.95467,-5.482666 L 160,28 l 52,52.149333 -47.04533,0 z" />
      </g>
    </g>
    <path
       style="opacity:0.1;fill:url(#linearGradient4283);fill-rule:evenodd"
       id="path4198-2"
       d="m 159.97476,200.57975 -47.94254,47.36727 47.94254,0 z"
       inkscape:connector-curvature="0" />
  </g>
  <path
     inkscape:connector-curvature="0"
     style="fill:#e0e0e0;fill-opacity:1;opacity:0.75"
     d="m 16.989034,36.357761 c 0,0.196443 0.06581,0.352923 0.207246,0.492842 0.101393,0.1003 0.190997,0.152029 0.321086,0.185298 0.08454,0.02161 0.1305,0.0229 0.829235,0.0229 l 0.739726,0 0,-0.701026 0,-0.70103 -0.739726,0 c -0.698735,0 -0.744697,0.0012 -0.829235,0.0229 -0.130089,0.03328 -0.219694,0.08499 -0.321086,0.185299 -0.141437,0.13992 -0.207246,0.296402 -0.207246,0.492845 z m 6.15e-4,2.820019 c 9.21e-4,0.05934 0.0065,0.117907 0.01682,0.158361 0.06039,0.238576 0.244416,0.429285 0.484902,0.50255 0.07709,0.02348 0.101821,0.02422 0.837178,0.02422 l 0.757735,0 0,-0.70103 0,-0.701028 -0.715512,3.07e-4 c -0.815554,6.15e-4 -0.838068,0.0021 -0.9987,0.08189 -0.182634,0.0905 -0.330885,0.27919 -0.370456,0.471554 -0.0089,0.04362 -0.01287,0.103746 -0.01195,0.163088 z m 2.4e-5,-5.629856 c 1.2e-5,0.06212 0.0057,0.124208 0.01688,0.168401 0.06196,0.243747 0.250957,0.437455 0.498082,0.510517 0.06275,0.01854 0.143312,0.02099 0.825592,0.0248 l 0.756067,0.0043 0,-0.701653 0,-0.701635 -0.756067,1.49e-4 c -0.838106,1.49e-4 -0.812335,-0.0019 -0.970432,0.07751 -0.166311,0.08355 -0.305602,0.260603 -0.353315,0.449103 -0.01119,0.04431 -0.01683,0.106437 -0.01679,0.168546 z m 6.14e-4,8.431798 c -9.21e-4,0.115001 0.0186,0.195879 0.07071,0.304914 0.0888,0.185854 0.277255,0.333724 0.480025,0.376684 0.06483,0.01372 0.215729,0.01692 0.812506,0.01707 l 0.732894,2.18e-4 0,-0.70103 0,-0.701028 -0.744481,1.7e-4 c -0.833769,1.92e-4 -0.823876,-6.15e-4 -0.982043,0.08166 -0.217367,0.11309 -0.355369,0.326759 -0.367991,0.569782 -9.21e-4,0.01799 -0.0015,0.03513 -0.0015,0.05156 z m 1.93e-4,5.64118 c 3.07e-4,0.04167 0.0034,0.08083 0.0096,0.112473 0.0077,0.03992 0.03503,0.116511 0.06078,0.170189 0.05998,0.125 0.185332,0.254729 0.299144,0.309595 0.171378,0.08263 0.121579,0.07836 0.964638,0.08257 l 0.76186,0.0038 0,-0.70197 0,-0.701945 -0.779242,0.0034 -0.779243,0.0034 -0.0721,0.02685 c -0.197517,0.0736 -0.364819,0.241542 -0.432083,0.433726 -0.02182,0.06238 -0.03407,0.166169 -0.03327,0.257838 z m 2.4e-5,-2.841071 c 1.81e-4,0.01636 9.22e-4,0.03338 0.0019,0.05128 0.0074,0.133158 0.03628,0.225446 0.103129,0.328862 0.09383,0.145181 0.231945,0.248786 0.394302,0.295812 l 0.09299,0.02695 0.751869,0 0.751842,0 0,-0.701512 0,-0.701488 -0.761861,0.0034 -0.761862,0.0034 -0.099,0.03547 c -0.187119,0.06701 -0.322812,0.186599 -0.404201,0.356238 -0.05102,0.106336 -0.07028,0.187222 -0.069,0.301678 z m 2.803173,-4.163758 4.9e-5,8.53401 0.02821,0.07985 c 0.06366,0.180439 0.210634,0.338849 0.382862,0.412676 0.145014,0.06215 -0.187646,0.05866 5.243037,0.05524 l 5.011483,-0.0031 0.07549,-0.02572 c 0.255145,-0.08684 0.441976,-0.303334 0.485264,-0.56232 0.0058,-0.03461 0.0094,-3.731978 0.0086,-8.57169 l -0.0015,-8.510832 -0.03161,-0.0927 c -0.07598,-0.222841 -0.247093,-0.38928 -0.472447,-0.459555 l -0.08691,-0.0271 -5.017277,0 c -4.189898,0 -5.027788,0.0025 -5.081009,0.01575 -0.262027,0.06476 -0.472631,0.280669 -0.527171,0.540447 -0.01489,0.07093 -0.01704,1.152016 -0.017,8.61512 z m 11.934263,6.28029 0.003,0.698129 0.003,0.698133 0.758966,0 c 0.703519,0 0.764002,-0.0015 0.827883,-0.02127 0.255266,-0.07877 0.435294,-0.265011 0.499363,-0.516572 0.02363,-0.0928 0.01458,-0.28656 -0.01777,-0.379676 -0.07896,-0.22732 -0.265543,-0.401039 -0.494439,-0.46035 -0.06132,-0.0159 -0.173847,-0.01839 -0.825492,-0.01839 l -0.754475,0 z m 0,-1.413645 0.750346,-1.71e-4 c 0.620277,-1.38e-4 0.762941,-0.0031 0.822839,-0.01725 0.254243,-0.05994 0.468001,-0.281774 0.524733,-0.544551 0.01937,-0.08965 0.0058,-0.270304 -0.02744,-0.364735 -0.07573,-0.215397 -0.249158,-0.378356 -0.477057,-0.448232 -0.06449,-0.01977 -0.124484,-0.0213 -0.828487,-0.0213 l -0.758967,0 -0.003,0.698133 -0.003,0.698132 z m 0,-5.619816 0.756621,0 c 0.827993,0 0.821904,3.07e-4 0.964252,-0.06935 0.178635,-0.08757 0.32959,-0.278152 0.370986,-0.468416 0.02078,-0.09551 0.02054,-0.228741 -6.14e-4,-0.318359 -0.0529,-0.224409 -0.231984,-0.423421 -0.450043,-0.500061 -0.120032,-0.04219 -0.220421,-0.04681 -0.940016,-0.04338 l -0.695235,0.0033 -0.003,0.698131 -0.003,0.698132 z m 0,-7.011057 0.003,0.698517 0.003,0.698518 0.747378,0 c 0.807562,0 0.803596,2.62e-4 0.94436,-0.06361 0.196057,-0.08895 0.34982,-0.276061 0.394062,-0.479493 0.07541,-0.346693 -0.115957,-0.69592 -0.449414,-0.820183 l -0.0721,-0.02685 -0.785133,-0.0034 -0.785109,-0.0034 z m 1.72e-4,9.827676 0.767655,-0.0034 0.767655,-0.0034 0.0927,-0.03259 c 0.230671,-0.08111 0.398007,-0.258411 0.457192,-0.484395 0.04354,-0.166253 0.02124,-0.357742 -0.05965,-0.512131 -0.02203,-0.04207 -0.07361,-0.108085 -0.124849,-0.159832 -0.0692,-0.06988 -0.107707,-0.0979 -0.185783,-0.135113 -0.05417,-0.02581 -0.126108,-0.05263 -0.15988,-0.05958 -0.0406,-0.0083 -0.31447,-0.01261 -0.80821,-0.01261 l -0.746822,0 0,0.701487 0,0.701488 z m 0,-5.620734 0.745518,0 c 0.70724,0 0.750187,-0.0012 0.83602,-0.02314 0.124762,-0.03191 0.228152,-0.09248 0.324563,-0.19015 0.0927,-0.09391 0.147454,-0.188676 0.179362,-0.310468 0.04336,-0.165509 0.02071,-0.357862 -0.06018,-0.511142 -0.02231,-0.04227 -0.07352,-0.10738 -0.124849,-0.158697 -0.100287,-0.100299 -0.190046,-0.152359 -0.31988,-0.185564 -0.08458,-0.02165 -0.130522,-0.0229 -0.835029,-0.0229 l -0.745518,0 0,0.70103 0,0.701027 z"
     id="path4147" />
</svg>
