<?xml version="1.0" encoding="UTF-8" standalone="no"?>
<svg
   xmlns:dc="http://purl.org/dc/elements/1.1/"
   xmlns:cc="http://creativecommons.org/ns#"
   xmlns:rdf="http://www.w3.org/1999/02/22-rdf-syntax-ns#"
   xmlns:svg="http://www.w3.org/2000/svg"
   xmlns="http://www.w3.org/2000/svg"
   xmlns:xlink="http://www.w3.org/1999/xlink"
   xmlns:sodipodi="http://sodipodi.sourceforge.net/DTD/sodipodi-0.dtd"
   xmlns:inkscape="http://www.inkscape.org/namespaces/inkscape"
   width="64"
   viewBox="0 0 64 64"
   height="64"
   id="svg2"
   version="1.1"
   inkscape:version="0.91 r13725"
   sodipodi:docname="application-x-db.svg">
  <metadata
     id="metadata33">
    <rdf:RDF>
      <cc:Work
         rdf:about="">
        <dc:format>image/svg+xml</dc:format>
        <dc:type
           rdf:resource="http://purl.org/dc/dcmitype/StillImage" />
        <dc:title></dc:title>
      </cc:Work>
    </rdf:RDF>
  </metadata>
  <sodipodi:namedview
     pagecolor="#ffffff"
     bordercolor="#666666"
     borderopacity="1"
     objecttolerance="10"
     gridtolerance="10"
     guidetolerance="10"
     inkscape:pageopacity="0"
     inkscape:pageshadow="2"
     inkscape:window-width="1366"
     inkscape:window-height="700"
     id="namedview31"
     showgrid="false"
     inkscape:zoom="5.2149125"
     inkscape:cx="22.860224"
     inkscape:cy="22.239833"
     inkscape:window-x="0"
     inkscape:window-y="0"
     inkscape:window-maximized="1"
     inkscape:current-layer="svg2" />
  <defs
     id="defs4">
    <linearGradient
       id="a"
       y1="512.8"
       y2="503.8"
       x2="0"
       gradientUnits="userSpaceOnUse"
       gradientTransform="matrix(1.35 0 0 1.3-519.57-646.94)">
      <stop
         stop-color="#f62459"
         id="stop7" />
      <stop
         offset="1"
         stop-color="#f73768"
         id="stop9" />
    </linearGradient>
    <linearGradient
       id="b"
       xlink:href="#a"
       y1="543.8"
       y2="512.8"
       x2="0"
       gradientUnits="userSpaceOnUse"
       gradientTransform="matrix(1.35 0 0 1.3-519.57-646.94)" />
    <linearGradient
       id="c"
       y1="8"
       y2="25.527"
       x2="0"
       gradientUnits="userSpaceOnUse">
      <stop
         stop-color="#ffd6af"
         id="stop13" />
      <stop
         offset="1"
         stop-color="#fffcf9"
         id="stop15" />
    </linearGradient>
  </defs>
  <rect
     width="54"
     x="5"
     y="19"
     stroke-opacity=".55"
     fill="url(#b)"
     height="41"
     stroke-width="2.8"
     id="rect17" />
  <path
     fill="url(#a)"
     fill-rule="evenodd"
     d="m5 19l8.1-11h39.15l6.75 11z"
     id="path19" />
  <g
     transform="scale(1-1)"
     id="g25">
    <rect
       width="54"
       x="5"
       y="-60"
       fill="#2e3132"
       height="1"
       fill-opacity=".294"
       id="rect27" />
    <rect
       width="54"
       x="5"
       y="-20"
       fill="#ffffff"
       height="1"
       fill-opacity=".412"
       id="rect29" />
  </g>
  <path
     inkscape:connector-curvature="0"
     style="opacity:0.75;fill:#ffffff;fill-opacity:1"
     d="m 41.184,20.036941 0,2 2,0 0,-2 -2,0 z m 2,2 0,2 2,0 0,-2 -2,0 z m 0,2 -2,0 0,2 2,0 0,-2 z m 0,2 0,2 2,0 0,-2 -2,0 z m 0,2 -2,0 0,2 2,0 0,-2 z m 0,2 0,2 2,0 0,-2 -2,0 z m 0,2 -2,0 0,2 2,0 0,-2 z m -2,3 0,4 1,0 0,4 2,0 0,-4 1,0 0,-4 -4,0 z m 1,1 2,0 0,2 -2,0 0,-2 z"
     id="rect4173-3-3" />
  <path
     inkscape:connector-curvature="0"
     d="m 16.057342,48.639164 q -0.661038,0 -1.192234,-0.283302 -0.519381,-0.283289 -0.779064,-0.708255 l -0.04727,0 0,0.802702 -1.038774,0 0,-8.4518 1.085998,0 0,2.667735 -0.04727,0.802688 0.04727,0 q 0.259683,-0.42495 0.779049,-0.70823 0.53121,-0.283315 1.192249,-0.283315 1.121378,0 1.935865,0.885316 0.814497,0.885315 0.814497,2.195573 0,1.31026 -0.814497,2.195573 -0.814487,0.885315 -1.935865,0.885315 z m -0.177079,-0.991557 q 0.75547,0 1.298457,-0.566599 0.542998,-0.578405 0.542998,-1.522732 0,-0.944321 -0.542998,-1.510944 -0.542987,-0.5784 -1.298457,-0.5784 -0.767275,0 -1.31026,0.566612 -0.531171,0.56659 -0.531171,1.522732 0,0.956148 0.531171,1.522732 0.542985,0.566599 1.31026,0.566599 z"
     id="path19-36"
     style="fill:#ffffff" />
  <path
     inkscape:connector-curvature="0"
     d="m 19.402707,48.450309 0,-0.944352 3.29336,-3.848148 -3.19894,0 0,-0.991565 4.532819,0 0,0.944354 -3.29336,3.848148 3.340586,0 0,0.991563 z"
     id="path21-7"
     style="fill:#ffffff" />
  <path
     inkscape:connector-curvature="0"
     d="m 26.422698,41.214338 q -0.224301,0.224276 -0.542996,0.224276 -0.318725,0 -0.542986,-0.224276 -0.224304,-0.224263 -0.224304,-0.542993 0,-0.318695 0.224304,-0.54299 0.224261,-0.224275 0.542986,-0.224275 0.318695,0 0.542996,0.224275 0.224279,0.224295 0.224279,0.54299 0,0.31873 -0.224279,0.542993 z m 0,7.235971 -1.085982,0 0,-5.784065 1.085982,0 z"
     id="path23-5"
     style="fill:#ffffff" />
  <path
     inkscape:connector-curvature="0"
     d="m 30.857553,48.639164 q -0.661038,0 -1.19222,-0.283302 -0.519395,-0.283289 -0.779077,-0.708255 l -0.04727,0 0.04727,0.802702 0,2.549691 -1.086001,0 0,-8.333756 1.038789,0 0,0.802688 0.04727,0 q 0.259681,-0.42495 0.77909,-0.70823 0.531166,-0.283315 1.192221,-0.283315 1.121377,0 1.935875,0.885316 0.814486,0.885315 0.814486,2.195573 0,1.31026 -0.814486,2.195573 -0.814498,0.885315 -1.935875,0.885315 z m -0.17706,-0.991557 q 0.75545,0 1.298439,-0.566599 0.542998,-0.578405 0.542998,-1.522732 0,-0.944321 -0.542998,-1.510944 -0.542989,-0.5784 -1.298439,-0.5784 -0.76729,0 -1.310267,0.566612 -0.531182,0.56659 -0.531182,1.522732 0,0.956148 0.531182,1.522732 0.542977,0.566599 1.310267,0.566599 z"
     id="path25"
     style="fill:#ffffff" />
</svg>
