<?xml version="1.0" encoding="UTF-8" standalone="no"?>
<svg
   xmlns:dc="http://purl.org/dc/elements/1.1/"
   xmlns:cc="http://creativecommons.org/ns#"
   xmlns:rdf="http://www.w3.org/1999/02/22-rdf-syntax-ns#"
   xmlns:svg="http://www.w3.org/2000/svg"
   xmlns="http://www.w3.org/2000/svg"
   xmlns:xlink="http://www.w3.org/1999/xlink"
   xmlns:sodipodi="http://sodipodi.sourceforge.net/DTD/sodipodi-0.dtd"
   xmlns:inkscape="http://www.inkscape.org/namespaces/inkscape"
   width="64px"
   height="64px"
   viewBox="0 0 64 64"
   version="1.1"
   id="svg2"
   inkscape:version="0.91 r13725"
   sodipodi:docname="application-pgpsignature.svg">
  <metadata
     id="metadata19">
    <rdf:RDF>
      <cc:Work
         rdf:about="">
        <dc:format>image/svg+xml</dc:format>
        <dc:type
           rdf:resource="http://purl.org/dc/dcmitype/StillImage" />
        <dc:title>application-pdf</dc:title>
      </cc:Work>
    </rdf:RDF>
  </metadata>
  <sodipodi:namedview
     pagecolor="#ffffff"
     bordercolor="#666666"
     borderopacity="1"
     objecttolerance="10"
     gridtolerance="10"
     guidetolerance="10"
     inkscape:pageopacity="0"
     inkscape:pageshadow="2"
     inkscape:window-width="1366"
     inkscape:window-height="700"
     id="namedview17"
     showgrid="false"
     inkscape:zoom="7.9999999"
     inkscape:cx="-11.121372"
     inkscape:cy="31.591461"
     inkscape:window-x="0"
     inkscape:window-y="0"
     inkscape:window-maximized="1"
     inkscape:current-layer="svg2"
     inkscape:snap-global="true" />
  <!-- Generator: Sketch 40.3 (33839) - http://www.bohemiancoding.com/sketch -->
  <title
     id="title4">application-pdf</title>
  <desc
     id="desc6">Created with Sketch.</desc>
  <defs
     id="defs8">
    <linearGradient
       inkscape:collect="always"
       id="linearGradient4174">
      <stop
         style="stop-color:#768492;stop-opacity:1"
         offset="0"
         id="stop4176" />
      <stop
         style="stop-color:#5e6b78;stop-opacity:1"
         offset="1"
         id="stop4178" />
    </linearGradient>
    <linearGradient
       gradientTransform="matrix(0.70607647,0,0,0.70607647,-7.1989039,61.782827)"
       id="SVGID_4_-3"
       gradientUnits="userSpaceOnUse"
       x1="102.6431"
       y1="-34.2061"
       x2="218.0972"
       y2="209.7536">
      <stop
         offset="0"
         style="stop-color:#23b6ef;stop-opacity:1"
         id="stop4202-6" />
      <stop
         offset="0.3941"
         style="stop-color:#45d3fe;stop-opacity:1"
         id="stop4204-7" />
      <stop
         offset="0.583"
         style="stop-color:#4dd0ff;stop-opacity:1"
         id="stop4206-5" />
      <stop
         offset="0.7838"
         style="stop-color:#47d2fd;stop-opacity:1"
         id="stop4208-3" />
      <stop
         offset="1"
         style="stop-color:#2bb2ec;stop-opacity:1"
         id="stop4210-5" />
    </linearGradient>
    <linearGradient
       gradientTransform="matrix(0.70607647,0,0,0.70607647,-7.1989039,61.782827)"
       id="SVGID_3_-6"
       gradientUnits="userSpaceOnUse"
       x1="37.1362"
       y1="-2.4779999"
       x2="152.1362"
       y2="240.522">
      <stop
         offset="0"
         style="stop-color:#20bcf4;stop-opacity:1"
         id="stop4187-2" />
      <stop
         offset="0.3941"
         style="stop-color:#49d3fd;stop-opacity:1"
         id="stop4189-9" />
      <stop
         offset="0.583"
         style="stop-color:#49d6ff;stop-opacity:1"
         id="stop4191-1" />
      <stop
         offset="0.7838"
         style="stop-color:#40d4fe;stop-opacity:1"
         id="stop4193-2" />
      <stop
         offset="1"
         style="stop-color:#20b5e8;stop-opacity:1"
         id="stop4195-7" />
    </linearGradient>
    <linearGradient
       id="a-3"
       y1="17"
       x1="40"
       y2="31"
       gradientUnits="userSpaceOnUse"
       x2="54"
       gradientTransform="matrix(0,3.383376,-3.4244669,0,218.19069,65.244715)">
      <stop
         stop-color="#060606"
         id="stop4172" />
      <stop
         offset="1"
         stop-opacity="0"
         id="stop4174" />
    </linearGradient>
    <linearGradient
       inkscape:collect="always"
       xlink:href="#a-3"
       id="linearGradient4283"
       gradientUnits="userSpaceOnUse"
       gradientTransform="matrix(0,0.845844,-0.85611672,0,54.547617,12.311424)"
       x1="40"
       y1="17"
       x2="54"
       y2="31" />
    <radialGradient
       inkscape:collect="always"
       xlink:href="#linearGradient4174"
       id="radialGradient4180"
       cx="95.778931"
       cy="163.8054"
       fx="95.778931"
       fy="163.8054"
       r="84"
       gradientTransform="matrix(1.4537226,0,0,1.7852612,-45.177115,-119.84905)"
       gradientUnits="userSpaceOnUse" />
    <linearGradient
       gradientTransform="matrix(1.8725482,0,0,1.7991054,-15.936501,-1805.0083)"
       id="d"
       gradientUnits="userSpaceOnUse"
       x1="15.23138"
       x2="25.822527"
       xlink:href="#a"
       y1="1032.542"
       y2="1019.6814" />
    <linearGradient
       id="a">
      <stop
         offset="0"
         stop-color="#f6fbff"
         id="stop5" />
      <stop
         offset="1"
         stop-color="#eaeff2"
         id="stop7" />
    </linearGradient>
  </defs>
  <style
     type="text/css"
     id="style4358">
	.st0{fill:#261300;}
	.st1{fill:#FF7C00;}
</style>
  <g
     id="g4272"
     transform="matrix(0.25,0,0,0.25,0,-4.8135597)">
    <g
       style="fill:none;fill-rule:evenodd;stroke:none;stroke-width:1"
       transform="matrix(1,0,0,-1,0,276)"
       id="Page-1">
      <g
         id="application-pdf">
        <path
           style="fill:url(#radialGradient4180);fill-opacity:1"
           inkscape:connector-curvature="0"
           id="path14361"
           d="m 206,232.74576 -156,0 c -4,0 -6,-2 -6,-6 L 44,30.745762 c 0,-4 2,-6 6,-6 l 110,0 52,52 0,149.999998 c 0,6 -6,6 -6,6 z" />
        <g
           transform="translate(44,28)"
           id="Group">
          <path
             style="fill:#646464;fill-opacity:0.2"
             inkscape:connector-curvature="0"
             id="Combined-Shape-7"
             d="m 0,198.74576 c 0,4 2,6 6,6 l 156,0 c 0,0 6,0 6,-6 l 0,-2 c 0,6 -6,6 -6,6 l -156,0 c -4,0 -6,-2 -6,-6 l 0,2 z" />
          <path
             style="opacity:0.25;fill:#999999"
             inkscape:connector-curvature="0"
             id="path16-5"
             d="m 0,2.745762 c 0,-4 2,-6 6,-6 l 110,0 0,2 -110,0 c -4,0 -6,2 -6,6 l 0,-2 z" />
        </g>
      </g>
    </g>
  </g>
  <path
     style="opacity:0.1;fill:url(#linearGradient4283);fill-rule:evenodd"
     id="path4198-2"
     d="M 39.993635,46.145183 28.008,57.987 l 11.985635,0 z"
     inkscape:connector-curvature="0" />
  <path
     style="fill:#ffffff;fill-opacity:1;fill-rule:evenodd;stroke:none;stroke-width:1;opacity:0.6"
     inkscape:connector-curvature="0"
     id="path19-9"
     d="M 41.238667,44.962667 C 40.502667,44.962667 40,45.597333 40,46.333333 L 40,58 53,44.962667 l -11.761333,0 z" />
  <g
     transform="translate(-3.96,4.5)"
     style="fill:#343434"
     id="g33">
    <path
       inkscape:connector-curvature="0"
       d="m 28.5,33.5 0,1.102 c -0.626,0.129 -1.221,0.377 -1.754,0.73 l -0.781,-0.781 -1.414,1.414 0.781,0.781 c -0.352,0.533 -0.599,1.128 -0.727,1.754 l -1.105,0 0,2 1.102,0 c 0.129,0.626 0.377,1.221 0.73,1.754 l -0.781,0.781 1.414,1.414 0.781,-0.781 c 0.533,0.352 1.128,0.599 1.754,0.727 l 0,1.105 2,0 0,-1.102 c 0.626,-0.129 1.221,-0.377 1.754,-0.73 l 0.781,0.781 1.414,-1.414 -0.781,-0.781 c 0.352,-0.533 0.599,-1.128 0.727,-1.754 l 1.105,0 0,-2 -1.102,0 c -0.129,-0.626 -0.377,-1.221 -0.73,-1.754 l 0.781,-0.781 -1.414,-1.414 -0.781,0.781 C 31.721,34.98 31.126,34.733 30.5,34.605 l 0,-1.105 z m 1,2 c 1.081,0 2.116,0.438 2.869,1.213 0.725,0.747 1.131,1.746 1.131,2.787 0,1.081 -0.438,2.116 -1.213,2.869 C 31.54,43.094 30.541,43.5 29.5,43.5 28.419,43.5 27.384,43.062 26.631,42.287 25.906,41.54 25.5,40.541 25.5,39.5 c 0,-1.081 0.438,-2.116 1.213,-2.869 C 27.46,35.906 28.459,35.5 29.5,35.5"
       id="path35" />
    <path
       inkscape:connector-curvature="0"
       d="m 22.852,22.924 0.31,1.057 c -0.564,0.3 -1.066,0.705 -1.478,1.194 l -0.969,-0.53 -0.959,1.755 0.969,0.53 c -0.188,0.61 -0.257,1.251 -0.204,1.887 l -1.061,0.311 0.563,1.919 1.057,-0.31 c 0.3,0.564 0.705,1.066 1.194,1.478 l -0.53,0.969 1.755,0.959 0.53,-0.969 c 0.61,0.188 1.251,0.257 1.887,0.204 l 0.311,1.061 1.919,-0.563 -0.31,-1.057 c 0.564,-0.3 1.066,-0.705 1.478,-1.194 l 0.969,0.53 0.959,-1.755 -0.969,-0.53 c 0.188,-0.61 0.257,-1.251 0.204,-1.887 l 1.061,-0.311 -0.563,-1.919 -1.057,0.31 c -0.3,-0.564 -0.705,-1.066 -1.194,-1.478 l 0.53,-0.969 -1.755,-0.959 -0.53,0.969 c -0.61,-0.188 -1.251,-0.257 -1.887,-0.204 l -0.311,-1.061 z m 1.522,1.638 c 1.037,-0.304 2.154,-0.175 3.094,0.357 0.906,0.512 1.576,1.358 1.869,2.356 0.304,1.037 0.175,2.154 -0.357,3.094 -0.512,0.906 -1.358,1.576 -2.356,1.869 -1.037,0.304 -2.154,0.175 -3.094,-0.357 -0.906,-0.512 -1.576,-1.358 -1.869,-2.356 -0.304,-1.037 -0.175,-2.154 0.357,-3.094 0.512,-0.906 1.358,-1.576 2.356,-1.869"
       id="path37" />
  </g>
  <path
     inkscape:connector-curvature="0"
     style="fill:#e0e0e0"
     d="m 18.392,27.024 0.31,1.057 c -0.564,0.3 -1.066,0.705 -1.478,1.194 l -0.969,-0.53 -0.959,1.755 0.969,0.53 c -0.188,0.61 -0.257,1.251 -0.204,1.887 L 15,33.228 l 0.563,1.919 1.057,-0.31 c 0.3,0.564 0.705,1.066 1.194,1.478 l -0.53,0.969 1.755,0.959 0.53,-0.969 c 0.61,0.188 1.251,0.257 1.887,0.204 l 0.311,1.061 1.919,-0.563 -0.31,-1.057 c 0.564,-0.3 1.066,-0.705 1.478,-1.194 l 0.969,0.53 0.959,-1.755 -0.969,-0.53 c 0.188,-0.61 0.257,-1.251 0.204,-1.887 l 1.061,-0.311 -0.563,-1.919 -1.057,0.31 c -0.3,-0.564 -0.705,-1.066 -1.194,-1.478 l 0.53,-0.969 -1.755,-0.959 -0.53,0.969 c -0.61,-0.188 -1.251,-0.257 -1.887,-0.204 l -0.311,-1.061 z m 1.522,1.638 c 1.037,-0.304 2.154,-0.175 3.094,0.357 0.906,0.512 1.576,1.358 1.869,2.356 0.304,1.037 0.175,2.154 -0.357,3.094 -0.512,0.906 -1.358,1.576 -2.356,1.869 -1.037,0.304 -2.154,0.175 -3.094,-0.357 -0.906,-0.512 -1.576,-1.358 -1.869,-2.356 -0.304,-1.037 -0.175,-2.154 0.357,-3.094 0.512,-0.906 1.358,-1.576 2.356,-1.869"
     id="path39" />
  <path
     inkscape:connector-curvature="0"
     style="fill:#343434"
     d="m 35.13,31.931 -0.107,1.096 c -0.636,0.068 -1.252,0.256 -1.817,0.556 l -0.702,-0.854 -1.545,1.27 0.702,0.854 c -0.402,0.496 -0.706,1.065 -0.894,1.675 l -1.1,-0.108 -0.195,1.991 1.096,0.107 c 0.068,0.636 0.256,1.252 0.556,1.817 l -0.854,0.702 1.27,1.545 0.854,-0.702 c 0.496,0.402 1.065,0.706 1.675,0.894 l -0.108,1.1 1.991,0.195 0.107,-1.096 c 0.636,-0.068 1.252,-0.256 1.817,-0.556 l 0.702,0.854 1.545,-1.27 -0.702,-0.854 c 0.402,-0.496 0.706,-1.065 0.894,-1.675 l 1.1,0.108 0.195,-1.991 -1.096,-0.107 C 40.446,36.846 40.258,36.23 39.958,35.665 l 0.854,-0.702 -1.27,-1.545 -0.854,0.702 c -0.496,-0.402 -1.065,-0.706 -1.675,-0.894 l 0.108,-1.1 z m 0.801,2.088 c 1.076,0.105 2.063,0.641 2.737,1.486 0.649,0.814 0.956,1.848 0.854,2.884 -0.105,1.076 -0.641,2.063 -1.486,2.737 -0.814,0.649 -1.848,0.956 -2.884,0.854 -1.076,-0.105 -2.063,-0.641 -2.737,-1.486 -0.649,-0.814 -0.956,-1.848 -0.854,-2.884 0.105,-1.076 0.641,-2.063 1.486,-2.737 0.814,-0.649 1.848,-0.956 2.884,-0.854"
     id="path41" />
  <g
     transform="translate(-3.96,4.5)"
     style="fill:#e0e0e0"
     id="g43">
    <path
       inkscape:connector-curvature="0"
       d="m 38.589,26.931 -0.107,1.096 c -0.636,0.068 -1.252,0.256 -1.817,0.556 l -0.702,-0.854 -1.545,1.27 0.702,0.854 c -0.402,0.496 -0.706,1.065 -0.894,1.675 l -1.1,-0.108 -0.195,1.991 1.096,0.107 c 0.068,0.636 0.256,1.252 0.556,1.817 l -0.854,0.702 1.27,1.545 0.854,-0.702 c 0.496,0.402 1.065,0.706 1.675,0.894 l -0.108,1.1 1.991,0.195 0.107,-1.096 c 0.636,-0.068 1.252,-0.256 1.817,-0.556 l 0.702,0.854 1.545,-1.27 -0.702,-0.854 c 0.402,-0.496 0.706,-1.065 0.894,-1.675 l 1.1,0.108 0.195,-1.991 -1.096,-0.107 C 43.905,31.846 43.717,31.23 43.417,30.665 l 0.854,-0.702 -1.27,-1.545 -0.854,0.702 c -0.496,-0.402 -1.065,-0.706 -1.675,-0.894 l 0.108,-1.1 z m 0.801,2.088 c 1.076,0.105 2.063,0.641 2.737,1.486 0.649,0.814 0.956,1.848 0.854,2.884 -0.105,1.076 -0.641,2.063 -1.486,2.737 -0.814,0.649 -1.848,0.956 -2.884,0.854 -1.076,-0.105 -2.063,-0.641 -2.737,-1.486 -0.649,-0.814 -0.956,-1.848 -0.854,-2.884 0.105,-1.076 0.641,-2.063 1.486,-2.737 0.814,-0.649 1.848,-0.956 2.884,-0.854"
       id="path45" />
    <path
       inkscape:connector-curvature="0"
       d="m 28,33 0,1.102 c -0.626,0.129 -1.221,0.377 -1.754,0.73 l -0.781,-0.781 -1.414,1.414 0.781,0.781 C 24.48,36.779 24.233,37.374 24.105,38 L 23,38 l 0,2 1.102,0 c 0.129,0.626 0.377,1.221 0.73,1.754 l -0.781,0.781 1.414,1.414 0.781,-0.781 c 0.533,0.352 1.128,0.599 1.754,0.727 l 0,1.105 2,0 0,-1.102 c 0.626,-0.129 1.221,-0.377 1.754,-0.73 l 0.781,0.781 1.414,-1.414 -0.781,-0.781 C 33.52,41.221 33.767,40.626 33.895,40 l 1.105,0 0,-2 -1.102,0 c -0.129,-0.626 -0.377,-1.221 -0.73,-1.754 l 0.781,-0.781 -1.414,-1.414 -0.781,0.781 C 31.221,34.48 30.626,34.233 30,34.105 L 30,33 Z m 1,2 c 1.081,0 2.116,0.438 2.869,1.213 C 32.594,36.96 33,37.959 33,39 33,40.081 32.562,41.116 31.787,41.869 31.04,42.594 30.041,43 29,43 27.919,43 26.884,42.562 26.131,41.787 25.406,41.04 25,40.041 25,39 25,37.919 25.438,36.884 26.213,36.131 26.96,35.406 27.959,35 29,35"
       id="path47" />
  </g>
</svg>
