<?xml version="1.0" encoding="UTF-8" standalone="no"?>
<svg
   xmlns:dc="http://purl.org/dc/elements/1.1/"
   xmlns:cc="http://creativecommons.org/ns#"
   xmlns:rdf="http://www.w3.org/1999/02/22-rdf-syntax-ns#"
   xmlns:svg="http://www.w3.org/2000/svg"
   xmlns="http://www.w3.org/2000/svg"
   xmlns:xlink="http://www.w3.org/1999/xlink"
   xmlns:sodipodi="http://sodipodi.sourceforge.net/DTD/sodipodi-0.dtd"
   xmlns:inkscape="http://www.inkscape.org/namespaces/inkscape"
   width="64"
   viewBox="0 0 64 64"
   height="64"
   id="svg2"
   version="1.1"
   inkscape:version="0.91 r13725"
   sodipodi:docname="application-x-bz.svg">
  <metadata
     id="metadata33">
    <rdf:RDF>
      <cc:Work
         rdf:about="">
        <dc:format>image/svg+xml</dc:format>
        <dc:type
           rdf:resource="http://purl.org/dc/dcmitype/StillImage" />
        <dc:title></dc:title>
      </cc:Work>
    </rdf:RDF>
  </metadata>
  <sodipodi:namedview
     pagecolor="#ffffff"
     bordercolor="#666666"
     borderopacity="1"
     objecttolerance="10"
     gridtolerance="10"
     guidetolerance="10"
     inkscape:pageopacity="0"
     inkscape:pageshadow="2"
     inkscape:window-width="1366"
     inkscape:window-height="700"
     id="namedview31"
     showgrid="false"
     inkscape:zoom="2.8284271"
     inkscape:cx="-37.843738"
     inkscape:cy="40.872991"
     inkscape:window-x="0"
     inkscape:window-y="0"
     inkscape:window-maximized="1"
     inkscape:current-layer="svg2" />
  <defs
     id="defs4">
    <linearGradient
       inkscape:collect="always"
       id="linearGradient4152">
      <stop
         id="stop4154"
         offset="0"
         style="stop-color:#9a94c0;stop-opacity:1" />
      <stop
         id="stop4156"
         offset="1"
         style="stop-color:#afa9d4;stop-opacity:1" />
    </linearGradient>
    <linearGradient
       id="a"
       y1="543.8"
       y2="512.8"
       x2="0"
       gradientUnits="userSpaceOnUse"
       gradientTransform="matrix(1.35 0 0 1.3-519.57-646.94)">
      <stop
         stop-color="#f27935"
         id="stop7" />
      <stop
         offset="1"
         stop-color="#f2784b"
         id="stop9" />
    </linearGradient>
    <linearGradient
       xlink:href="#linearGradient4152"
       id="b"
       y1="512.79999"
       y2="503.79999"
       x2="0"
       gradientUnits="userSpaceOnUse"
       gradientTransform="matrix(1.35,0,0,1.3,-519.57,-646.94)" />
    <linearGradient
       id="c"
       y1="8"
       y2="25.527"
       x2="0"
       gradientUnits="userSpaceOnUse">
      <stop
         stop-color="#f7ab89"
         id="stop13" />
      <stop
         offset="1"
         stop-color="#fbd2bf"
         id="stop15" />
    </linearGradient>
    <linearGradient
       inkscape:collect="always"
       xlink:href="#linearGradient4152"
       id="linearGradient4213"
       x1="-161.56215"
       y1="42.072281"
       x2="-161.56215"
       y2="19.932747"
       gradientUnits="userSpaceOnUse" />
  </defs>
  <rect
     width="54"
     x="5"
     y="19"
     height="41"
     id="rect25"
     style="fill:url(#linearGradient4213);fill-opacity:1;stroke-width:2.79999995;stroke-opacity:0.55" />
  <path
     fill="url(#b)"
     fill-rule="evenodd"
     d="m5 19l8.1-11h39.15l6.75 11z"
     id="path19"
     style="fill-opacity:1.0" />
  <g
     transform="scale(1-1)"
     id="g25">
    <rect
       width="54"
       x="5"
       y="-60"
       fill="#2e3132"
       height="1"
       fill-opacity=".294"
       id="rect27" />
    <rect
       width="54"
       x="5"
       y="-20"
       fill="#ffffff"
       height="1"
       fill-opacity=".412"
       id="rect29" />
  </g>
  <path
     id="rect4173-3-3"
     d="m 41.184,20.037 0,2 2,0 0,-2 -2,0 z m 2,2 0,2 2,0 0,-2 -2,0 z m 0,2 -2,0 0,2 2,0 0,-2 z m 0,2 0,2 2,0 0,-2 -2,0 z m 0,2 -2,0 0,2 2,0 0,-2 z m 0,2 0,2 2,0 0,-2 -2,0 z m 0,2 -2,0 0,2 2,0 0,-2 z m -2,3 0,4 1,0 0,4 2,0 0,-4 1,0 0,-4 -4,0 z m 1,1 2,0 0,2 -2,0 0,-2 z"
     style="opacity:0.75;fill:#ffffff;fill-opacity:1"
     inkscape:connector-curvature="0" />
  <path
     inkscape:connector-curvature="0"
     d="m 14.720106,51 q -0.588144,0 -1.060746,-0.252072 -0.46213,-0.252042 -0.693187,-0.630156 l -0.04196,0 0,0.714183 -0.924213,0 0,-7.51983 0.966227,0 0,2.373572 -0.04196,0.714174 0.04196,0 q 0.231077,-0.378075 0.69319,-0.630156 0.472593,-0.252045 1.060736,-0.252045 0.997748,0 1.722425,0.787681 0.724674,0.787681 0.724674,1.953476 0,1.165783 -0.724674,1.953491 Q 15.717848,51 14.720108,51 Z M 14.56258,50.117772 q 0.672168,0 1.155266,-0.504114 0.483131,-0.514618 0.483131,-1.354831 0,-0.840197 -0.483131,-1.344313 -0.483098,-0.514643 -1.155266,-0.514643 -0.682669,0 -1.165783,0.504122 -0.472634,0.504117 -0.472634,1.354834 0,0.850706 0.472634,1.354831 0.483114,0.504114 1.165783,0.504114 z"
     id="path19-3"
     style="fill:#ffffff" />
  <path
     inkscape:connector-curvature="0"
     d="m 17.696596,50.831955 0,-0.840196 2.930216,-3.423834 -2.846196,0 0,-0.882228 4.033007,0 0,0.840214 -2.93022,3.423845 2.972206,0 0,0.882199 z"
     id="path21"
     style="fill:#ffffff" />
  <path
     inkscape:connector-curvature="0"
     d="m 24.84015,51 q -0.997747,0 -1.722423,-0.787682 -0.724673,-0.787708 -0.724673,-1.953491 0,-1.165795 0.724673,-1.953476 0.724676,-0.787681 1.722423,-0.787681 0.588143,0 1.050274,0.252045 0.472603,0.252081 0.703655,0.630156 l 0.04196,0 -0.04196,-0.714174 0,-2.373572 0.966254,0 0,7.51983 -0.924242,0 0,-0.714183 -0.04196,0 Q 26.363049,50.495886 25.890446,50.747928 25.428298,51 24.840152,51 Z m 0.157555,-0.882228 q 0.682663,0 1.155265,-0.504114 0.483121,-0.504125 0.483121,-1.354831 0,-0.850717 -0.483121,-1.354834 -0.472602,-0.504122 -1.155265,-0.504122 -0.672169,0 -1.155302,0.514643 -0.483108,0.504116 -0.483108,1.344313 0,0.840213 0.483108,1.354831 0.483133,0.504114 1.155302,0.504114 z"
     id="path23"
     style="fill:#ffffff" />
  <path
     inkscape:connector-curvature="0"
     d="m 30.271783,50.831955 -2.079514,-5.146258 1.05028,0 1.512357,3.990985 0.02098,0 1.533376,-3.990985 1.029252,0 -2.1005,5.146258 z"
     id="path25"
     style="fill:#ffffff" />
  <path
     inkscape:connector-curvature="0"
     d="m 35.01945,44.39389 q -0.199565,0.199539 -0.483123,0.199539 -0.283565,0 -0.48313,-0.199539 -0.19953,-0.199565 -0.19953,-0.483122 0,-0.283566 0.19953,-0.483126 0.199565,-0.199534 0.48313,-0.199534 0.283558,0 0.483123,0.199534 0.19954,0.19956 0.19954,0.483126 0,0.283557 -0.19954,0.483122 z m 0,6.438065 -0.966253,0 0,-5.146258 0.966253,0 z"
     id="path27"
     style="fill:#ffffff" />
</svg>
