<?xml version="1.0" encoding="UTF-8" standalone="no"?>
<svg
   xmlns:dc="http://purl.org/dc/elements/1.1/"
   xmlns:cc="http://creativecommons.org/ns#"
   xmlns:rdf="http://www.w3.org/1999/02/22-rdf-syntax-ns#"
   xmlns:svg="http://www.w3.org/2000/svg"
   xmlns="http://www.w3.org/2000/svg"
   xmlns:xlink="http://www.w3.org/1999/xlink"
   xmlns:sodipodi="http://sodipodi.sourceforge.net/DTD/sodipodi-0.dtd"
   xmlns:inkscape="http://www.inkscape.org/namespaces/inkscape"
   width="64"
   viewBox="0 0 64 64"
   height="64"
   id="svg2"
   version="1.1"
   inkscape:version="0.91 r13725"
   sodipodi:docname="application-zip.svg">
  <metadata
     id="metadata33">
    <rdf:RDF>
      <cc:Work
         rdf:about="">
        <dc:format>image/svg+xml</dc:format>
        <dc:type
           rdf:resource="http://purl.org/dc/dcmitype/StillImage" />
        <dc:title />
      </cc:Work>
    </rdf:RDF>
  </metadata>
  <sodipodi:namedview
     pagecolor="#ffffff"
     bordercolor="#666666"
     borderopacity="1"
     objecttolerance="10"
     gridtolerance="10"
     guidetolerance="10"
     inkscape:pageopacity="0"
     inkscape:pageshadow="2"
     inkscape:window-width="1366"
     inkscape:window-height="700"
     id="namedview31"
     showgrid="false"
     inkscape:zoom="3.6875"
     inkscape:cx="-52.745763"
     inkscape:cy="32"
     inkscape:window-x="0"
     inkscape:window-y="0"
     inkscape:window-maximized="1"
     inkscape:current-layer="svg2" />
  <defs
     id="defs4">
    <linearGradient
       id="a"
       y1="543.8"
       y2="512.8"
       x2="0"
       gradientUnits="userSpaceOnUse"
       gradientTransform="matrix(1.35 0 0 1.3-519.57-646.94)">
      <stop
         stop-color="#f27935"
         id="stop7" />
      <stop
         offset="1"
         stop-color="#f2784b"
         id="stop9" />
    </linearGradient>
    <linearGradient
       xlink:href="#a"
       id="b"
       y1="512.8"
       y2="503.8"
       x2="0"
       gradientUnits="userSpaceOnUse"
       gradientTransform="matrix(1.35 0 0 1.3-519.57-646.94)" />
    <linearGradient
       id="c"
       y1="8"
       y2="25.527"
       x2="0"
       gradientUnits="userSpaceOnUse">
      <stop
         stop-color="#f7ab89"
         id="stop13" />
      <stop
         offset="1"
         stop-color="#fbd2bf"
         id="stop15" />
    </linearGradient>
  </defs>
  <rect
     width="54"
     x="5"
     y="19"
     stroke-opacity=".55"
     fill="url(#a)"
     height="41"
     stroke-width="2.8"
     id="rect17" />
  <path
     fill="url(#b)"
     fill-rule="evenodd"
     d="m5 19l8.1-11h39.15l6.75 11z"
     id="path19" />
  <g
     transform="scale(1-1)"
     id="g25">
    <rect
       width="54"
       x="5"
       y="-60"
       fill="#2e3132"
       height="1"
       fill-opacity=".294"
       id="rect27" />
    <rect
       width="54"
       x="5"
       y="-20"
       fill="#ffffff"
       height="1"
       fill-opacity=".412"
       id="rect29" />
  </g>
  <path
     inkscape:connector-curvature="0"
     d="m 13,47.829681 0,-1.174121 4.095039,-4.785034 -3.977611,0 0,-1.232878 5.636183,0 0,1.174155 -4.095049,4.785 4.153759,0 0,1.232878 z"
     id="path19-3"
     style="fill:#ffffff;fill-opacity:1" />
  <path
     inkscape:connector-curvature="0"
     d="m 21.728805,38.832403 q -0.278867,0.278846 -0.675166,0.278846 -0.396301,0 -0.675185,-0.278846 -0.278851,-0.279033 -0.278851,-0.675195 0,-0.396333 0.278851,-0.675168 0.278884,-0.278851 0.675185,-0.278851 0.396299,0 0.675166,0.278851 0.278872,0.278835 0.278872,0.675168 0,0.396162 -0.278872,0.675195 z m 0,8.997278 -1.350351,0 0,-7.192033 1.350351,0 z"
     id="path21"
     style="fill:#ffffff;fill-opacity:1" />
  <path
     inkscape:connector-curvature="0"
     d="m 27.243222,48.064471 q -0.821944,0 -1.482435,-0.352264 -0.645819,-0.352274 -0.968721,-0.880606 l -0.0586,0 0.0586,0.99808 0,3.170319 -1.350339,0 0,-10.362352 1.291636,0 0,0.998106 0.05861,0 q 0.322894,-0.528325 0.968713,-0.880611 0.6605,-0.352266 1.482429,-0.352266 1.39439,0 2.407125,1.100701 1.012762,1.100879 1.012762,2.730081 0,1.629222 -1.012762,2.730121 -1.012735,1.100691 -2.407125,1.100691 z m -0.220165,-1.23287 q 0.939362,0 1.614547,-0.704544 0.675154,-0.719239 0.675154,-1.893398 0,-1.174115 -0.675154,-1.878666 -0.675185,-0.719239 -1.614547,-0.719239 -0.954036,0 -1.629209,0.704551 -0.660485,0.704556 -0.660485,1.893354 0,1.188845 0.660485,1.893398 0.675173,0.704544 1.629209,0.704544 z"
     id="path23"
     style="fill:#ffffff;fill-opacity:1" />
  <path
     id="rect4173-3-3"
     d="m 41.184,20.037 0,2 2,0 0,-2 -2,0 z m 2,2 0,2 2,0 0,-2 -2,0 z m 0,2 -2,0 0,2 2,0 0,-2 z m 0,2 0,2 2,0 0,-2 -2,0 z m 0,2 -2,0 0,2 2,0 0,-2 z m 0,2 0,2 2,0 0,-2 -2,0 z m 0,2 -2,0 0,2 2,0 0,-2 z m -2,3 0,4 1,0 0,4 2,0 0,-4 1,0 0,-4 -4,0 z m 1,1 2,0 0,2 -2,0 0,-2 z"
     style="opacity:1;fill:#ffffff;fill-opacity:1"
     inkscape:connector-curvature="0" />
</svg>
