<?xml version="1.0" encoding="UTF-8" standalone="no"?>
<svg
   xmlns:dc="http://purl.org/dc/elements/1.1/"
   xmlns:cc="http://creativecommons.org/ns#"
   xmlns:rdf="http://www.w3.org/1999/02/22-rdf-syntax-ns#"
   xmlns:svg="http://www.w3.org/2000/svg"
   xmlns="http://www.w3.org/2000/svg"
   xmlns:xlink="http://www.w3.org/1999/xlink"
   xmlns:sodipodi="http://sodipodi.sourceforge.net/DTD/sodipodi-0.dtd"
   xmlns:inkscape="http://www.inkscape.org/namespaces/inkscape"
   width="64px"
   height="64px"
   viewBox="0 0 64 64"
   version="1.1"
   id="svg2"
   inkscape:version="0.91 r13725"
   sodipodi:docname="application-x-jva.svg">
  <metadata
     id="metadata19">
    <rdf:RDF>
      <cc:Work
         rdf:about="">
        <dc:format>image/svg+xml</dc:format>
        <dc:type
           rdf:resource="http://purl.org/dc/dcmitype/StillImage" />
        <dc:title>application-pdf</dc:title>
      </cc:Work>
    </rdf:RDF>
  </metadata>
  <sodipodi:namedview
     pagecolor="#ffffff"
     bordercolor="#666666"
     borderopacity="1"
     objecttolerance="10"
     gridtolerance="10"
     guidetolerance="10"
     inkscape:pageopacity="0"
     inkscape:pageshadow="2"
     inkscape:window-width="1366"
     inkscape:window-height="700"
     id="namedview17"
     showgrid="false"
     inkscape:zoom="8.0000001"
     inkscape:cx="10.336186"
     inkscape:cy="33.246321"
     inkscape:window-x="0"
     inkscape:window-y="0"
     inkscape:window-maximized="1"
     inkscape:current-layer="svg2"
     inkscape:snap-global="true" />
  <!-- Generator: Sketch 40.3 (33839) - http://www.bohemiancoding.com/sketch -->
  <title
     id="title4">application-pdf</title>
  <desc
     id="desc6">Created with Sketch.</desc>
  <defs
     id="defs8">
    <linearGradient
       inkscape:collect="always"
       id="linearGradient4174">
      <stop
         style="stop-color:#f0ac00;stop-opacity:1"
         offset="0"
         id="stop4176" />
      <stop
         style="stop-color:#f09000;stop-opacity:1"
         offset="1"
         id="stop4178" />
    </linearGradient>
    <linearGradient
       gradientTransform="matrix(0.70607647,0,0,0.70607647,-7.1989039,61.782827)"
       id="SVGID_4_-3"
       gradientUnits="userSpaceOnUse"
       x1="102.6431"
       y1="-34.2061"
       x2="218.0972"
       y2="209.7536">
      <stop
         offset="0"
         style="stop-color:#23b6ef;stop-opacity:1"
         id="stop4202-6" />
      <stop
         offset="0.3941"
         style="stop-color:#45d3fe;stop-opacity:1"
         id="stop4204-7" />
      <stop
         offset="0.583"
         style="stop-color:#4dd0ff;stop-opacity:1"
         id="stop4206-5" />
      <stop
         offset="0.7838"
         style="stop-color:#47d2fd;stop-opacity:1"
         id="stop4208-3" />
      <stop
         offset="1"
         style="stop-color:#2bb2ec;stop-opacity:1"
         id="stop4210-5" />
    </linearGradient>
    <linearGradient
       gradientTransform="matrix(0.70607647,0,0,0.70607647,-7.1989039,61.782827)"
       id="SVGID_3_-6"
       gradientUnits="userSpaceOnUse"
       x1="37.1362"
       y1="-2.4779999"
       x2="152.1362"
       y2="240.522">
      <stop
         offset="0"
         style="stop-color:#20bcf4;stop-opacity:1"
         id="stop4187-2" />
      <stop
         offset="0.3941"
         style="stop-color:#49d3fd;stop-opacity:1"
         id="stop4189-9" />
      <stop
         offset="0.583"
         style="stop-color:#49d6ff;stop-opacity:1"
         id="stop4191-1" />
      <stop
         offset="0.7838"
         style="stop-color:#40d4fe;stop-opacity:1"
         id="stop4193-2" />
      <stop
         offset="1"
         style="stop-color:#20b5e8;stop-opacity:1"
         id="stop4195-7" />
    </linearGradient>
    <linearGradient
       id="a-3"
       y1="17"
       x1="40"
       y2="31"
       gradientUnits="userSpaceOnUse"
       x2="54"
       gradientTransform="matrix(0,3.383376,-3.4244669,0,218.19069,65.244715)">
      <stop
         stop-color="#060606"
         id="stop4172" />
      <stop
         offset="1"
         stop-opacity="0"
         id="stop4174" />
    </linearGradient>
    <linearGradient
       inkscape:collect="always"
       xlink:href="#a-3"
       id="linearGradient4283"
       gradientUnits="userSpaceOnUse"
       gradientTransform="matrix(0,0.845844,-0.85611672,0,54.547617,12.311424)"
       x1="40"
       y1="17"
       x2="54"
       y2="31" />
    <radialGradient
       inkscape:collect="always"
       xlink:href="#linearGradient4174"
       id="radialGradient4180"
       cx="95.778931"
       cy="163.8054"
       fx="95.778931"
       fy="163.8054"
       r="84"
       gradientTransform="matrix(1.4537226,0,0,1.7852612,-45.177115,-119.84905)"
       gradientUnits="userSpaceOnUse" />
  </defs>
  <style
     type="text/css"
     id="style4358">
	.st0{fill:#261300;}
	.st1{fill:#FF7C00;}
</style>
  <g
     id="g4272"
     transform="matrix(0.25,0,0,0.25,0,-4.8135597)">
    <g
       style="fill:none;fill-rule:evenodd;stroke:none;stroke-width:1"
       transform="matrix(1,0,0,-1,0,276)"
       id="Page-1">
      <g
         id="application-pdf">
        <path
           style="fill:url(#radialGradient4180);fill-opacity:1"
           inkscape:connector-curvature="0"
           id="path14361"
           d="m 206,232.74576 -156,0 c -4,0 -6,-2 -6,-6 L 44,30.745762 c 0,-4 2,-6 6,-6 l 110,0 52,52 0,149.999998 c 0,6 -6,6 -6,6 z" />
        <g
           transform="translate(44,28)"
           id="Group">
          <path
             style="fill:#646464;fill-opacity:0.2"
             inkscape:connector-curvature="0"
             id="Combined-Shape-7"
             d="m 0,198.74576 c 0,4 2,6 6,6 l 156,0 c 0,0 6,0 6,-6 l 0,-2 c 0,6 -6,6 -6,6 l -156,0 c -4,0 -6,-2 -6,-6 l 0,2 z" />
          <path
             style="opacity:0.25;fill:#999999"
             inkscape:connector-curvature="0"
             id="path16-5"
             d="m 0,2.745762 c 0,-4 2,-6 6,-6 l 110,0 0,2 -110,0 c -4,0 -6,2 -6,6 l 0,-2 z" />
        </g>
      </g>
    </g>
  </g>
  <path
     style="opacity:0.1;fill:url(#linearGradient4283);fill-rule:evenodd"
     id="path4198-2"
     d="M 39.993635,46.145183 28.008,57.987 l 11.985635,0 z"
     inkscape:connector-curvature="0" />
  <path
     style="fill:#ffffff;fill-opacity:1;fill-rule:evenodd;stroke:none;stroke-width:1;opacity:0.6"
     inkscape:connector-curvature="0"
     id="path19-9"
     d="M 41.238667,44.962667 C 40.502667,44.962667 40,45.597333 40,46.333333 L 40,58 53,44.962667 l -11.761333,0 z" />
  <g
     id="g76"
     transform="matrix(0.12201886,0,0,0.12201886,-5.230727,10.758735)"
     style="fill:#ffffff">
    <path
       d="m 202.4,317 c -7.6,-2.1 -13.3,-5.6 -17.1,-10.6 -3.9,-4.9 -5.8,-11.4 -5.8,-19.5 l 0,-12.8 c 0,-10.5 -4.6,-15.7 -13.7,-15.7 l 0,-9.3 c 9.1,0 13.7,-5.2 13.7,-15.6 l 0,-13.4 c 0.1,-7.9 2,-14.2 5.8,-19.1 3.8,-4.8 9.4,-8.4 17.1,-10.6 l 2.4,7.4 c -9,2.9 -13.4,10.4 -13.4,22.5 l 0,13.1 c 0,9.8 -3.6,16.6 -10.8,20.4 7.2,3.9 10.8,10.7 10.8,20.5 l 0,13.2 c 0.1,11.9 4.6,19.1 13.4,22 l -2.4,7.5 z"
       id="path78"
       inkscape:connector-curvature="0"
       style="fill:#ffffff" />
    <path
       d="m 227.6,223.7 0,77.8 c 0,13.4 -6.1,20.1 -18.2,20.1 -2.6,0 -5.1,-0.4 -7.3,-1.1 l 0,-9.5 c 1.4,0.3 3.2,0.5 5.4,0.5 2.6,0 4.7,-0.8 6.1,-2.2 1.4,-1.5 2.1,-4 2.1,-7.5 l 0,-78.1 11.9,0 0,0 z m -13.2,-18.5 c 0,-1.9 0.6,-3.5 1.8,-4.9 1.2,-1.4 2.9,-2.1 5.2,-2.1 2.3,0 4.1,0.6 5.3,2 1.2,1.4 1.8,2.9 1.8,4.9 0,2 -0.6,3.5 -1.8,4.8 -1.2,1.3 -2.9,1.9 -5.3,1.9 -2.4,0 -4.1,-0.6 -5.2,-1.9 -1.1,-1.1 -1.8,-2.8 -1.8,-4.7 z"
       id="path80"
       inkscape:connector-curvature="0"
       style="fill:#ffffff" />
    <path
       d="m 287.4,274.9 c 0,-3.2 -1.2,-5.7 -3.6,-7.5 -2.4,-1.8 -6.7,-3.4 -12.7,-4.6 -6,-1.3 -10.8,-2.9 -14.4,-4.6 -3.5,-1.8 -6.1,-3.9 -7.9,-6.4 -1.7,-2.5 -2.6,-5.4 -2.6,-8.9 0,-5.7 2.4,-10.6 7.2,-14.5 4.8,-3.9 11,-5.9 18.5,-5.9 7.9,0 14.4,2.1 19.2,6.1 4.9,4.1 7.4,9.3 7.4,15.7 l -12,0 c 0,-3.2 -1.4,-6.1 -4.1,-8.4 -2.7,-2.3 -6.2,-3.5 -10.5,-3.5 -4.4,0 -7.8,0.9 -10.2,2.9 -2.5,1.9 -3.6,4.4 -3.6,7.4 0,2.9 1.1,5.1 3.5,6.5 2.2,1.4 6.4,2.9 12.4,4.1 6,1.4 10.8,2.9 14.5,4.8 3.7,1.9 6.5,4.1 8.2,6.7 1.7,2.6 2.7,5.8 2.7,9.5 0,6.2 -2.5,11.2 -7.5,15 -5,3.8 -11.5,5.6 -19.4,5.6 -5.5,0 -10.5,-1 -14.9,-3 -4.3,-2 -7.6,-4.8 -10.1,-8.3 -2.4,-3.5 -3.6,-7.4 -3.6,-11.5 l 11.9,0 c 0.3,4 1.8,7.1 4.8,9.5 3,2.3 6.9,3.5 11.9,3.5 4.5,0 8.1,-1 10.9,-2.8 2.6,-1.9 4,-4.3 4,-7.4 z"
       id="path82"
       inkscape:connector-curvature="0"
       style="fill:#ffffff" />
    <path
       d="m 307,309.5 c 8.7,-2.8 13.2,-9.9 13.5,-21.4 l 0,-14.1 c 0,-9.9 3.9,-16.7 11.6,-20.3 -7.8,-3.5 -11.6,-10.3 -11.6,-20.3 l 0,-13.1 c 0,-12.1 -4.5,-19.6 -13.5,-22.5 l 2.5,-7.4 c 7.6,2.1 13.3,5.6 17.1,10.5 3.8,4.8 5.8,11.2 5.8,19.1 l 0,13.6 c 0,10.2 4.5,15.4 13.7,15.4 l 0,9.3 c -9.1,0 -13.7,5.2 -13.7,15.7 l 0,13.1 c 0,8 -2,14.5 -5.9,19.4 -3.9,4.9 -9.6,8.4 -17.1,10.5 l -2.4,-7.5 z"
       id="path84"
       inkscape:connector-curvature="0"
       style="fill:#ffffff" />
  </g>
</svg>
