<?xml version="1.0" encoding="UTF-8" standalone="no"?>
<svg
   xmlns:dc="http://purl.org/dc/elements/1.1/"
   xmlns:cc="http://creativecommons.org/ns#"
   xmlns:rdf="http://www.w3.org/1999/02/22-rdf-syntax-ns#"
   xmlns:svg="http://www.w3.org/2000/svg"
   xmlns="http://www.w3.org/2000/svg"
   xmlns:xlink="http://www.w3.org/1999/xlink"
   xmlns:sodipodi="http://sodipodi.sourceforge.net/DTD/sodipodi-0.dtd"
   xmlns:inkscape="http://www.inkscape.org/namespaces/inkscape"
   width="64px"
   height="64px"
   viewBox="0 0 64 64"
   version="1.1"
   id="svg2"
   inkscape:version="0.91 r13725"
   sodipodi:docname="application-x-trash.svg">
  <metadata
     id="metadata19">
    <rdf:RDF>
      <cc:Work
         rdf:about="">
        <dc:format>image/svg+xml</dc:format>
        <dc:type
           rdf:resource="http://purl.org/dc/dcmitype/StillImage" />
        <dc:title>application-pdf</dc:title>
      </cc:Work>
    </rdf:RDF>
  </metadata>
  <sodipodi:namedview
     pagecolor="#ffffff"
     bordercolor="#666666"
     borderopacity="1"
     objecttolerance="10"
     gridtolerance="10"
     guidetolerance="10"
     inkscape:pageopacity="0"
     inkscape:pageshadow="2"
     inkscape:window-width="1366"
     inkscape:window-height="703"
     id="namedview17"
     showgrid="false"
     inkscape:zoom="3.265625"
     inkscape:cx="13.410864"
     inkscape:cy="34.461749"
     inkscape:window-x="0"
     inkscape:window-y="0"
     inkscape:window-maximized="1"
     inkscape:current-layer="svg2" />
  <!-- Generator: Sketch 40.3 (33839) - http://www.bohemiancoding.com/sketch -->
  <title
     id="title4">application-pdf</title>
  <desc
     id="desc6">Created with Sketch.</desc>
  <defs
     id="defs8">
    <linearGradient
       gradientTransform="matrix(0.70607647,0,0,0.70607647,-7.1989039,61.782827)"
       id="SVGID_4_-3"
       gradientUnits="userSpaceOnUse"
       x1="102.6431"
       y1="-34.2061"
       x2="218.0972"
       y2="209.7536">
      <stop
         offset="0"
         style="stop-color:#23b6ef;stop-opacity:1"
         id="stop4202-6" />
      <stop
         offset="0.3941"
         style="stop-color:#45d3fe;stop-opacity:1"
         id="stop4204-7" />
      <stop
         offset="0.583"
         style="stop-color:#4dd0ff;stop-opacity:1"
         id="stop4206-5" />
      <stop
         offset="0.7838"
         style="stop-color:#47d2fd;stop-opacity:1"
         id="stop4208-3" />
      <stop
         offset="1"
         style="stop-color:#2bb2ec;stop-opacity:1"
         id="stop4210-5" />
    </linearGradient>
    <linearGradient
       gradientTransform="matrix(0.70607647,0,0,0.70607647,-7.1989039,61.782827)"
       id="SVGID_3_-6"
       gradientUnits="userSpaceOnUse"
       x1="37.1362"
       y1="-2.4779999"
       x2="152.1362"
       y2="240.522">
      <stop
         offset="0"
         style="stop-color:#20bcf4;stop-opacity:1"
         id="stop4187-2" />
      <stop
         offset="0.3941"
         style="stop-color:#49d3fd;stop-opacity:1"
         id="stop4189-9" />
      <stop
         offset="0.583"
         style="stop-color:#49d6ff;stop-opacity:1"
         id="stop4191-1" />
      <stop
         offset="0.7838"
         style="stop-color:#40d4fe;stop-opacity:1"
         id="stop4193-2" />
      <stop
         offset="1"
         style="stop-color:#20b5e8;stop-opacity:1"
         id="stop4195-7" />
    </linearGradient>
    <linearGradient
       id="a-3"
       y1="17"
       x1="40"
       y2="31"
       gradientUnits="userSpaceOnUse"
       x2="54"
       gradientTransform="matrix(0,3.383376,-3.4244669,0,218.19069,65.244715)">
      <stop
         stop-color="#060606"
         id="stop4172" />
      <stop
         offset="1"
         stop-opacity="0"
         id="stop4174" />
    </linearGradient>
    <linearGradient
       id="linearGradient4318-0"
       inkscape:collect="always">
      <stop
         id="stop4320-9"
         offset="0"
         style="stop-color:#6eb919;stop-opacity:1" />
      <stop
         id="stop4322-3"
         offset="1"
         style="stop-color:#50a000;stop-opacity:1" />
    </linearGradient>
    <linearGradient
       inkscape:collect="always"
       xlink:href="#a-3"
       id="linearGradient4283"
       gradientUnits="userSpaceOnUse"
       gradientTransform="matrix(0,3.383376,-3.4244669,0,218.19069,65.244715)"
       x1="40"
       y1="17"
       x2="54"
       y2="31" />
    <clipPath
       id="clipPath4224"
       clipPathUnits="userSpaceOnUse">
      <path
         d="M 51.500001,6 12.5,6 C 11.5,6 11,6.499993 11,7.499999 L 11,56.5 c 0,1.00001 0.5,1.5 1.5,1.5 l 27.500002,0 12.999999,-13.00001 0,-37.499991 C 53.000001,6 51.500001,6 51.500001,6 Z"
         id="path4226"
         inkscape:connector-curvature="0"
         style="fill:#000000;fill-opacity:1;fill-rule:evenodd;stroke:none;stroke-width:1" />
    </clipPath>
    <radialGradient
       inkscape:collect="always"
       xlink:href="#linearGradient4318-0"
       id="radialGradient4174"
       cx="80.363335"
       cy="183.7674"
       fx="80.363335"
       fy="183.7674"
       r="84"
       gradientTransform="matrix(2.0412129,-0.02820972,0.03093291,2.238259,-89.359806,-212.95904)"
       gradientUnits="userSpaceOnUse" />
  </defs>
  <style
     type="text/css"
     id="style4358">
	.st0{fill:#261300;}
	.st1{fill:#FF7C00;}
</style>
  <g
     id="g4272"
     transform="matrix(0.25,0,0,0.25,0,-4)">
    <g
       style="fill:none;fill-rule:evenodd;stroke:none;stroke-width:1"
       transform="matrix(1,0,0,-1,0,276)"
       id="Page-1">
      <g
         id="application-pdf">
        <path
           style="fill:url(#radialGradient4174);fill-opacity:1"
           inkscape:connector-curvature="0"
           id="path14361"
           d="m 206,236 -156,0 c -4,0 -6,-2 -6,-6 L 44,34 c 0,-4 2,-6 6,-6 l 110,0 52,52 0,150 c 0,6 -6,6 -6,6 z" />
        <g
           transform="translate(44,28)"
           id="Group">
          <path
             style="fill:#808080;fill-opacity:0.2"
             inkscape:connector-curvature="0"
             id="Combined-Shape-7"
             d="m 0,202 c 0,4 2,6 6,6 l 156,0 c 0,0 6,0 6,-6 l 0,-2 c 0,6 -6,6 -6,6 L 6,206 c -4,0 -6,-2 -6,-6 l 0,2 z" />
          <path
             style="opacity:0.25;fill:#999999"
             inkscape:connector-curvature="0"
             id="path16-5"
             d="M 0,6 C 0,2 2,0 6,0 L 116,0 116,2 6,2 C 2,2 0,4 0,8 L 0,6 Z" />
        </g>
      </g>
    </g>
    <path
       style="opacity:0.1;fill:url(#linearGradient4283);fill-rule:evenodd"
       id="path4198-2"
       d="m 159.97476,200.57975 -47.94254,47.36727 47.94254,0 z"
       inkscape:connector-curvature="0" />
  </g>
  <g
     id="g4179"
     transform="translate(0.81355932,3.1061854)" />
  <path
     style="fill:#8ee22e;fill-opacity:1;fill-rule:evenodd;stroke:none;stroke-width:1"
     inkscape:connector-curvature="0"
     id="path19-9"
     d="M 41.238667,44.962666 C 40.502667,44.962666 40,45.597334 40,46.333334 L 40,58 53,44.962666 l -11.761333,0 z" />
  <style
     id="style4358-6"
     type="text/css">
	.st0{fill:#261300;}
	.st1{fill:#FF7C00;}
</style>
  <path
     inkscape:connector-curvature="0"
     style="fill:#ffffff"
     d="m 17.408055,45.51281 c -0.234474,0.431358 -0.421237,1.080727 -0.421237,1.489744 0,0.09501 0,0.215801 0.02302,0.383239 l -2.932119,-5.163039 c -0.09398,-0.167437 -0.163748,-0.408035 -0.163748,-0.624574 0,-0.216783 0.07001,-0.480459 0.163748,-0.648387 l 1.407561,-2.522106 -1.571309,-0.912063 5.113347,-0.09698 2.485947,4.587567 -1.594564,-0.936614 -2.510882,4.4437 m 2.252194,-14.556185 c 0.445212,-0.793483 1.173087,-1.225823 2.063751,-1.225823 0.96139,0 1.713239,0.456891 2.252193,1.392523 l 0.797882,1.368954 -2.768371,4.900836 -4.479932,-2.666219 2.134477,-3.770271 m 0.327496,18.710185 c -1.336836,0 -2.438957,-1.128847 -2.438957,-2.497801 0,-0.384467 0.164707,-1.033345 0.399181,-1.44138 l 0.749692,-1.368954 5.559757,0 0,5.30838 -4.270153,0 M 24.444664,30.812512 C 24.093193,30.188921 23.624006,29.755352 23.060839,29.515 l 5.770735,0 c 0.516178,0 0.914399,0.216784 1.149832,0.625555 l 1.430576,2.497801 1.547574,-0.937596 -2.486906,4.564736 -5.089851,-0.0734 1.571308,-0.912063 -2.509922,-4.468251 m 8.889858,13.593793 c 0.702941,0 1.289844,-0.192232 1.782047,-0.575716 l -2.909103,5.187589 c -0.234473,0.408035 -0.655951,0.648388 -1.148393,0.648388 l -2.745115,0 0,1.849168 -2.62668,-4.491083 2.62668,-4.492556 0,1.87421 5.020803,0 m 2.250276,-4.323646 c 0.211697,0.384467 0.329413,0.792255 0.329413,1.224841 0,0.864926 -0.540152,1.777725 -1.289844,2.209574 -0.35243,0.193215 -0.845591,0.31376 -1.336835,0.31376 l -1.549492,0 -2.766693,-4.900836 4.479932,-2.618346 2.133519,3.771007"
     id="path35" />
</svg>
