<?xml version="1.0" encoding="UTF-8" standalone="no"?>
<svg
   xmlns:dc="http://purl.org/dc/elements/1.1/"
   xmlns:cc="http://creativecommons.org/ns#"
   xmlns:rdf="http://www.w3.org/1999/02/22-rdf-syntax-ns#"
   xmlns:svg="http://www.w3.org/2000/svg"
   xmlns="http://www.w3.org/2000/svg"
   xmlns:xlink="http://www.w3.org/1999/xlink"
   xmlns:sodipodi="http://sodipodi.sourceforge.net/DTD/sodipodi-0.dtd"
   xmlns:inkscape="http://www.inkscape.org/namespaces/inkscape"
   width="64px"
   height="64px"
   viewBox="0 0 64 64"
   version="1.1"
   id="svg2"
   inkscape:version="0.91 r13725"
   sodipodi:docname="application-x-java.svg">
  <metadata
     id="metadata19">
    <rdf:RDF>
      <cc:Work
         rdf:about="">
        <dc:format>image/svg+xml</dc:format>
        <dc:type
           rdf:resource="http://purl.org/dc/dcmitype/StillImage" />
        <dc:title>application-pdf</dc:title>
      </cc:Work>
    </rdf:RDF>
  </metadata>
  <sodipodi:namedview
     pagecolor="#ffffff"
     bordercolor="#666666"
     borderopacity="1"
     objecttolerance="10"
     gridtolerance="10"
     guidetolerance="10"
     inkscape:pageopacity="0"
     inkscape:pageshadow="2"
     inkscape:window-width="1366"
     inkscape:window-height="700"
     id="namedview17"
     showgrid="false"
     inkscape:zoom="8.0000001"
     inkscape:cx="13.891202"
     inkscape:cy="33.246321"
     inkscape:window-x="0"
     inkscape:window-y="0"
     inkscape:window-maximized="1"
     inkscape:current-layer="svg2"
     inkscape:snap-global="true" />
  <!-- Generator: Sketch 40.3 (33839) - http://www.bohemiancoding.com/sketch -->
  <title
     id="title4">application-pdf</title>
  <desc
     id="desc6">Created with Sketch.</desc>
  <defs
     id="defs8">
    <linearGradient
       inkscape:collect="always"
       id="linearGradient4174">
      <stop
         style="stop-color:#e55947;stop-opacity:1"
         offset="0"
         id="stop4176" />
      <stop
         style="stop-color:#dd4f37;stop-opacity:1"
         offset="1"
         id="stop4178" />
    </linearGradient>
    <linearGradient
       gradientTransform="matrix(0.70607647,0,0,0.70607647,-7.1989039,61.782827)"
       id="SVGID_4_-3"
       gradientUnits="userSpaceOnUse"
       x1="102.6431"
       y1="-34.2061"
       x2="218.0972"
       y2="209.7536">
      <stop
         offset="0"
         style="stop-color:#23b6ef;stop-opacity:1"
         id="stop4202-6" />
      <stop
         offset="0.3941"
         style="stop-color:#45d3fe;stop-opacity:1"
         id="stop4204-7" />
      <stop
         offset="0.583"
         style="stop-color:#4dd0ff;stop-opacity:1"
         id="stop4206-5" />
      <stop
         offset="0.7838"
         style="stop-color:#47d2fd;stop-opacity:1"
         id="stop4208-3" />
      <stop
         offset="1"
         style="stop-color:#2bb2ec;stop-opacity:1"
         id="stop4210-5" />
    </linearGradient>
    <linearGradient
       gradientTransform="matrix(0.70607647,0,0,0.70607647,-7.1989039,61.782827)"
       id="SVGID_3_-6"
       gradientUnits="userSpaceOnUse"
       x1="37.1362"
       y1="-2.4779999"
       x2="152.1362"
       y2="240.522">
      <stop
         offset="0"
         style="stop-color:#20bcf4;stop-opacity:1"
         id="stop4187-2" />
      <stop
         offset="0.3941"
         style="stop-color:#49d3fd;stop-opacity:1"
         id="stop4189-9" />
      <stop
         offset="0.583"
         style="stop-color:#49d6ff;stop-opacity:1"
         id="stop4191-1" />
      <stop
         offset="0.7838"
         style="stop-color:#40d4fe;stop-opacity:1"
         id="stop4193-2" />
      <stop
         offset="1"
         style="stop-color:#20b5e8;stop-opacity:1"
         id="stop4195-7" />
    </linearGradient>
    <linearGradient
       id="a-3"
       y1="17"
       x1="40"
       y2="31"
       gradientUnits="userSpaceOnUse"
       x2="54"
       gradientTransform="matrix(0,3.383376,-3.4244669,0,218.19069,65.244715)">
      <stop
         stop-color="#060606"
         id="stop4172" />
      <stop
         offset="1"
         stop-opacity="0"
         id="stop4174" />
    </linearGradient>
    <linearGradient
       inkscape:collect="always"
       xlink:href="#a-3"
       id="linearGradient4283"
       gradientUnits="userSpaceOnUse"
       gradientTransform="matrix(0,0.845844,-0.85611672,0,54.547617,12.311424)"
       x1="40"
       y1="17"
       x2="54"
       y2="31" />
    <radialGradient
       inkscape:collect="always"
       xlink:href="#linearGradient4174"
       id="radialGradient4180"
       cx="95.778931"
       cy="163.8054"
       fx="95.778931"
       fy="163.8054"
       r="84"
       gradientTransform="matrix(1.4537226,0,0,1.7852612,-45.177115,-119.84905)"
       gradientUnits="userSpaceOnUse" />
  </defs>
  <style
     type="text/css"
     id="style4358">
	.st0{fill:#261300;}
	.st1{fill:#FF7C00;}
</style>
  <g
     id="g4272"
     transform="matrix(0.25,0,0,0.25,0,-4.8135597)">
    <g
       style="fill:none;fill-rule:evenodd;stroke:none;stroke-width:1"
       transform="matrix(1,0,0,-1,0,276)"
       id="Page-1">
      <g
         id="application-pdf">
        <path
           style="fill:url(#radialGradient4180);fill-opacity:1"
           inkscape:connector-curvature="0"
           id="path14361"
           d="m 206,232.74576 -156,0 c -4,0 -6,-2 -6,-6 L 44,30.745762 c 0,-4 2,-6 6,-6 l 110,0 52,52 0,149.999998 c 0,6 -6,6 -6,6 z" />
        <g
           transform="translate(44,28)"
           id="Group">
          <path
             style="fill:#646464;fill-opacity:0.2"
             inkscape:connector-curvature="0"
             id="Combined-Shape-7"
             d="m 0,198.74576 c 0,4 2,6 6,6 l 156,0 c 0,0 6,0 6,-6 l 0,-2 c 0,6 -6,6 -6,6 l -156,0 c -4,0 -6,-2 -6,-6 l 0,2 z" />
          <path
             style="opacity:0.25;fill:#999999"
             inkscape:connector-curvature="0"
             id="path16-5"
             d="m 0,2.745762 c 0,-4 2,-6 6,-6 l 110,0 0,2 -110,0 c -4,0 -6,2 -6,6 l 0,-2 z" />
        </g>
      </g>
    </g>
  </g>
  <path
     style="opacity:0.1;fill:url(#linearGradient4283);fill-rule:evenodd"
     id="path4198-2"
     d="M 39.993635,46.145183 28.008,57.987 l 11.985635,0 z"
     inkscape:connector-curvature="0" />
  <path
     style="fill:#ffffff;fill-opacity:1;fill-rule:evenodd;stroke:none;stroke-width:1;opacity:0.6"
     inkscape:connector-curvature="0"
     id="path19-9"
     d="M 41.238667,44.962667 C 40.502667,44.962667 40,45.597333 40,46.333333 L 40,58 53,44.962667 l -11.761333,0 z" />
  <path
     id="path4458"
     d="m 28.985075,20.171 c 1.250034,4.924616 -4.409266,6.411994 -6.451788,9.478942 -1.390912,2.089619 0.682756,4.335054 3.509913,6.885583 -1.102474,-2.492203 -4.841328,-4.672241 0.0015,-8.49735 6.039,-4.766592 2.940304,-7.867175 2.940304,-7.867175 z m 3.736189,6.092837 c 6.7e-5,0 -10.211507,2.549677 -5.334699,8.169392 1.439675,1.657232 -0.377652,3.147339 -0.377652,3.147339 0,0 3.653389,-1.885543 1.975901,-4.24803 -1.567294,-2.20213 -2.768751,-3.296111 3.73645,-7.068701 z m 1.8084,10.038129 c -0.358789,0.0012 -0.739762,0.06345 -1.130608,0.200787 -0.313365,0.110926 -0.477783,0.368802 -0.477783,0.368802 0,0 0.198113,-0.07974 0.63982,-0.171916 1.806292,-0.376381 4.394381,2.418058 -1.202395,5.325578 -0.02594,0.06929 -0.111903,0.146947 -0.111839,0.146947 6.656003,-1.749712 5.204416,-5.875629 2.282805,-5.870198 z m -11.991955,0.283763 c -0.438428,-0.01012 -2.333778,0.01802 -4.598646,1.113688 -3.062068,1.480588 7.572761,2.155096 13.078871,0.706923 0.572429,-0.39064 1.363134,-0.729799 1.363134,-0.729799 0,0 -2.252004,0.402597 -4.495912,0.59092 -2.746457,0.230417 -5.692585,0.275906 -7.171455,0.07802 -3.501402,-0.468104 1.919461,-1.755854 1.919461,-1.755854 0,0 -0.03282,-0.0027 -0.09545,-0.0039 z m -1.166763,3.387648 c -5.051139,1.676419 2.811901,3.57894 9.871445,1.513985 -0.750058,-0.264401 -1.226322,-0.748282 -1.226322,-0.748282 -3.451645,0.664266 -5.445371,0.64304 -7.970709,0.38233 -1.952386,-0.201786 -0.674414,-1.148033 -0.674414,-1.148033 z m 0.713947,3.265415 c -4.586468,1.281506 2.790497,3.928567 8.630298,1.426589 -0.956466,-0.371691 -1.642466,-0.800817 -1.642466,-0.800817 -2.604191,0.492246 -3.812221,0.531024 -6.176092,0.261136 -1.950934,-0.223757 -0.81174,-0.886908 -0.81174,-0.886908 z m -3.185578,2.164979 c -2.059639,0.06355 -6.087664,1.915449 -2.404011,2.513243 11.905734,1.929806 21.702425,-0.869237 18.614624,-2.26252 0,0 0.843463,0.69543 -0.92878,1.233086 -3.369957,1.020726 -14.028809,1.328604 -16.989321,0.04083 -1.063496,-0.463216 0.931707,-1.105274 1.559498,-1.240876 0.654578,-0.141593 1.028391,-0.115747 1.028391,-0.115747 -0.184935,-0.130223 -0.498989,-0.179786 -0.880401,-0.168014 z M 37,47.173672 c 0,0 -0.375285,0.963517 -4.439212,1.728034 -4.584755,0.863152 -10.240784,0.762519 -13.594112,0.208858 0,0 0.686866,0.568667 4.216836,0.795862 C 28.554551,50.249806 36.804746,49.715374 37,47.173672 Z"
     style="clip-rule:evenodd;display:inline;fill:#ffffff;fill-opacity:1;fill-rule:evenodd;stroke-width:3.83576179;enable-background:new"
     inkscape:connector-curvature="0" />
</svg>
