<?xml version="1.0" encoding="UTF-8" standalone="no"?>
<svg
   xmlns:dc="http://purl.org/dc/elements/1.1/"
   xmlns:cc="http://creativecommons.org/ns#"
   xmlns:rdf="http://www.w3.org/1999/02/22-rdf-syntax-ns#"
   xmlns:svg="http://www.w3.org/2000/svg"
   xmlns="http://www.w3.org/2000/svg"
   xmlns:xlink="http://www.w3.org/1999/xlink"
   xmlns:sodipodi="http://sodipodi.sourceforge.net/DTD/sodipodi-0.dtd"
   xmlns:inkscape="http://www.inkscape.org/namespaces/inkscape"
   width="64"
   viewBox="0 0 64 64"
   height="64"
   id="svg2"
   version="1.1"
   inkscape:version="0.91 r13725"
   sodipodi:docname="application-x-cpio.svg">
  <metadata
     id="metadata33">
    <rdf:RDF>
      <cc:Work
         rdf:about="">
        <dc:format>image/svg+xml</dc:format>
        <dc:type
           rdf:resource="http://purl.org/dc/dcmitype/StillImage" />
        <dc:title></dc:title>
      </cc:Work>
    </rdf:RDF>
  </metadata>
  <sodipodi:namedview
     pagecolor="#ffffff"
     bordercolor="#666666"
     borderopacity="1"
     objecttolerance="10"
     gridtolerance="10"
     guidetolerance="10"
     inkscape:pageopacity="0"
     inkscape:pageshadow="2"
     inkscape:window-width="1366"
     inkscape:window-height="700"
     id="namedview31"
     showgrid="false"
     inkscape:zoom="3.6875"
     inkscape:cx="-20.528563"
     inkscape:cy="32"
     inkscape:window-x="0"
     inkscape:window-y="0"
     inkscape:window-maximized="1"
     inkscape:current-layer="svg2" />
  <defs
     id="defs4">
    <linearGradient
       id="a"
       y1="543.8"
       y2="512.8"
       x2="0"
       gradientUnits="userSpaceOnUse"
       gradientTransform="matrix(1.35 0 0 1.3-519.57-646.94)">
      <stop
         stop-color="#f27935"
         id="stop7" />
      <stop
         offset="1"
         stop-color="#f2784b"
         id="stop9" />
    </linearGradient>
    <linearGradient
       xlink:href="#a"
       id="b"
       y1="512.8"
       y2="503.8"
       x2="0"
       gradientUnits="userSpaceOnUse"
       gradientTransform="matrix(1.35 0 0 1.3-519.57-646.94)" />
    <linearGradient
       id="c"
       y1="8"
       y2="25.527"
       x2="0"
       gradientUnits="userSpaceOnUse">
      <stop
         stop-color="#f7ab89"
         id="stop13" />
      <stop
         offset="1"
         stop-color="#fbd2bf"
         id="stop15" />
    </linearGradient>
  </defs>
  <rect
     width="54"
     x="5"
     y="19"
     stroke-opacity=".55"
     fill="url(#a)"
     height="41"
     stroke-width="2.8"
     id="rect17" />
  <path
     fill="url(#b)"
     fill-rule="evenodd"
     d="m5 19l8.1-11h39.15l6.75 11z"
     id="path19" />
  <g
     transform="scale(1-1)"
     id="g25">
    <rect
       width="54"
       x="5"
       y="-60"
       fill="#2e3132"
       height="1"
       fill-opacity=".294"
       id="rect27" />
    <rect
       width="54"
       x="5"
       y="-20"
       fill="#ffffff"
       height="1"
       fill-opacity=".412"
       id="rect29" />
  </g>
  <path
     id="rect4173-3-3"
     d="m 41.184,20.037 0,2 2,0 0,-2 -2,0 z m 2,2 0,2 2,0 0,-2 -2,0 z m 0,2 -2,0 0,2 2,0 0,-2 z m 0,2 0,2 2,0 0,-2 -2,0 z m 0,2 -2,0 0,2 2,0 0,-2 z m 0,2 0,2 2,0 0,-2 -2,0 z m 0,2 -2,0 0,2 2,0 0,-2 z m -2,3 0,4 1,0 0,4 2,0 0,-4 1,0 0,-4 -4,0 z m 1,1 2,0 0,2 -2,0 0,-2 z"
     style="opacity:1;fill:#ffffff;fill-opacity:1"
     inkscape:connector-curvature="0" />
  <path
     inkscape:connector-curvature="0"
     d="m 13.29664,48.383587 q -1.439005,0 -2.367802,-0.968063 Q 10,46.434408 10,44.969204 q 0,-1.465187 0.928838,-2.433244 0.928797,-0.981156 2.367802,-0.981156 1.072755,0 1.779158,0.523308 0.706444,0.523267 1.033498,1.321269 l -1.098915,0.457849 q -0.497108,-1.20351 -1.792218,-1.20351 -0.79798,0 -1.412846,0.654061 -0.601767,0.654126 -0.601767,1.661423 0,1.007315 0.601767,1.6614 0.614866,0.654125 1.412846,0.654125 1.347428,0 1.857635,-1.203573 l 1.072715,0.45791 q -0.327053,0.784881 -1.059614,1.321248 -0.719504,0.523273 -1.792259,0.523273 z"
     id="path19-3"
     style="fill:#ffffff" />
  <path
     inkscape:connector-curvature="0"
     d="m 20.447571,48.383587 q -0.732562,0 -1.321269,-0.313937 -0.575585,-0.313972 -0.863421,-0.784921 l -0.05214,0 0.05214,0.88958 0,2.825691 -1.20351,0 0,-9.23586 1.151192,0 0,0.88958 0.05215,0 q 0.287797,-0.47095 0.863412,-0.784944 0.588686,-0.313972 1.321259,-0.313972 1.242793,0 2.145466,0.981156 0.902639,0.981157 0.902639,2.433244 0,1.452105 -0.902639,2.433261 -0.902673,0.981122 -2.145466,0.981122 z m -0.196195,-1.098858 q 0.83722,0 1.439021,-0.627926 0.60175,-0.641025 0.60175,-1.687599 0,-1.046556 -0.60175,-1.674482 -0.601801,-0.641002 -1.439021,-0.641002 -0.850362,0 -1.452104,0.627902 -0.588709,0.627967 -0.588709,1.687582 0,1.059633 0.588709,1.687599 0.601742,0.627926 1.452104,0.627926 z"
     id="path21"
     style="fill:#ffffff" />
  <path
     inkscape:connector-curvature="0"
     d="m 25.829595,40.155059 q -0.248576,0.248554 -0.601767,0.248554 -0.353193,0 -0.601767,-0.248554 -0.248553,-0.248554 -0.248553,-0.601767 0,-0.353252 0.248553,-0.601808 0.248574,-0.248553 0.601767,-0.248553 0.353191,0 0.601767,0.248553 0.248554,0.248556 0.248554,0.601808 0,0.353213 -0.248554,0.601767 z m 0,8.01925 -1.203534,0 0,-6.410169 1.203534,0 z"
     id="path23"
     style="fill:#ffffff" />
  <path
     inkscape:connector-curvature="0"
     d="m 27.894494,42.53596 q 0.928838,-0.981156 2.367866,-0.981156 1.439005,0 2.367802,0.981156 0.928838,0.968057 0.928838,2.433244 0,1.465204 -0.928838,2.44632 -0.928797,0.968063 -2.367802,0.968063 -1.439028,0 -2.367866,-0.968063 -0.928797,-0.981116 -0.928797,-2.44632 0,-1.465187 0.928797,-2.433244 z m 0.889579,4.120843 q 0.627926,0.627926 1.478287,0.627926 0.850297,0 1.465164,-0.627926 0.627925,-0.641025 0.627925,-1.687599 0,-1.046556 -0.627925,-1.674482 -0.614867,-0.641002 -1.465164,-0.641002 -0.850361,0 -1.478287,0.641002 -0.614867,0.627926 -0.614867,1.674482 0,1.046574 0.614867,1.687599 z"
     id="path25"
     style="fill:#ffffff" />
</svg>
