<?xml version="1.0" encoding="UTF-8" standalone="no"?>
<svg
   xmlns:dc="http://purl.org/dc/elements/1.1/"
   xmlns:cc="http://creativecommons.org/ns#"
   xmlns:rdf="http://www.w3.org/1999/02/22-rdf-syntax-ns#"
   xmlns:svg="http://www.w3.org/2000/svg"
   xmlns="http://www.w3.org/2000/svg"
   xmlns:sodipodi="http://sodipodi.sourceforge.net/DTD/sodipodi-0.dtd"
   xmlns:inkscape="http://www.inkscape.org/namespaces/inkscape"
   height="32"
   width="32"
   id="svg2"
   version="1.1"
   inkscape:version="0.91 r13725"
   sodipodi:docname="preferences-desktop-font.svg">
  <metadata
     id="metadata23">
    <rdf:RDF>
      <cc:Work
         rdf:about="">
        <dc:format>image/svg+xml</dc:format>
        <dc:type
           rdf:resource="http://purl.org/dc/dcmitype/StillImage" />
        <dc:title></dc:title>
      </cc:Work>
    </rdf:RDF>
  </metadata>
  <defs
     id="defs21" />
  <sodipodi:namedview
     pagecolor="#ffffff"
     bordercolor="#666666"
     borderopacity="1"
     objecttolerance="10"
     gridtolerance="10"
     guidetolerance="10"
     inkscape:pageopacity="0"
     inkscape:pageshadow="2"
     inkscape:window-width="1920"
     inkscape:window-height="1134"
     id="namedview19"
     showgrid="false"
     inkscape:zoom="4.9166667"
     inkscape:cx="24"
     inkscape:cy="24"
     inkscape:window-x="1920"
     inkscape:window-y="0"
     inkscape:window-maximized="1"
     inkscape:current-layer="svg2" />
  <linearGradient
     id="a"
     gradientUnits="userSpaceOnUse"
     x1="400.57138"
     x2="400.57138"
     y1="545.79797"
     y2="517.79797">
    <stop
       offset="0"
       stop-color="#2e3e46"
       id="stop5" />
    <stop
       offset="1"
       stop-color="#435a64"
       id="stop7" />
  </linearGradient>
  <g
     transform="translate(-384.57143,-515.79796)"
     id="g9">
    <rect
       height="27.999973"
       ry="13.999987"
       width="27.999973"
       x="386.57144"
       y="517.79797"
       id="rect11"
       style="fill:url(#a)" />
    <g
       id="g13"
       style="fill:#ffffff">
      <path
         d="m 391.13144,537.11224 4.48525,-11.8942 1.72765,0 4.48525,11.8942 -1.69443,0 -1.14623,-3.22273 -5.00022,0 -1.16284,3.22273 z m 3.37224,-4.65136 3.95366,0 -1.9436,-5.36569 -0.0664,0 -1.94361,5.36569 z"
         id="path15"
         inkscape:connector-curvature="0"
         style="fill:#ffffff;fill-opacity:0.85648205" />
      <path
         d="m 405.53355,537.37804 q -1.29574,0 -2.17618,-0.74754 -0.86382,-0.74755 -0.86382,-1.97684 0,-1.32896 1.02994,-2.0765 1.02995,-0.76415 2.54164,-0.76415 1.34558,0 2.2094,0.49836 l 0,-0.23257 q 0,-0.89705 -0.61464,-1.42863 -0.61465,-0.5482 -1.5117,-0.5482 -0.66448,0 -1.21268,0.31563 -0.53158,0.31563 -0.73093,0.86382 l -1.3954,-0.59803 q 0.2824,-0.73093 1.113,-1.34557 0.8306,-0.63126 2.19279,-0.63126 1.56153,0 2.59147,0.91366 1.02995,0.91366 1.02995,2.57487 l 0,4.91715 -1.46186,0 0,-1.12961 -0.0665,0 q -0.91366,1.39541 -2.67453,1.39541 z m 0.24918,-1.39541 q 0.94688,0 1.71104,-0.69771 0.78076,-0.71432 0.78076,-1.67781 -0.64787,-0.53159 -1.94361,-0.53159 -1.113,0 -1.67781,0.48175 -0.56481,0.48175 -0.56481,1.12962 0,0.59803 0.51497,0.94688 0.51498,0.34886 1.17946,0.34886 z"
         id="path17"
         inkscape:connector-curvature="0"
         style="fill:#ffffff;fill-opacity:0.85648205" />
    </g>
  </g>
</svg>
