<?xml version="1.0" encoding="UTF-8" standalone="no"?>
<svg
   xmlns:dc="http://purl.org/dc/elements/1.1/"
   xmlns:cc="http://creativecommons.org/ns#"
   xmlns:rdf="http://www.w3.org/1999/02/22-rdf-syntax-ns#"
   xmlns:svg="http://www.w3.org/2000/svg"
   xmlns="http://www.w3.org/2000/svg"
   xmlns:sodipodi="http://sodipodi.sourceforge.net/DTD/sodipodi-0.dtd"
   xmlns:inkscape="http://www.inkscape.org/namespaces/inkscape"
   viewBox="0 0 48 48"
   id="svg2"
   version="1.1"
   inkscape:version="0.91 r13725"
   sodipodi:docname="applications-other.svg">
  <metadata
     id="metadata29">
    <rdf:RDF>
      <cc:Work
         rdf:about="">
        <dc:format>image/svg+xml</dc:format>
        <dc:type
           rdf:resource="http://purl.org/dc/dcmitype/StillImage" />
      </cc:Work>
    </rdf:RDF>
  </metadata>
  <sodipodi:namedview
     pagecolor="#ffffff"
     bordercolor="#666666"
     borderopacity="1"
     objecttolerance="10"
     gridtolerance="10"
     guidetolerance="10"
     inkscape:pageopacity="0"
     inkscape:pageshadow="2"
     inkscape:window-width="1920"
     inkscape:window-height="1134"
     id="namedview27"
     showgrid="false"
     inkscape:zoom="4.9166667"
     inkscape:cx="24"
     inkscape:cy="24"
     inkscape:window-x="1920"
     inkscape:window-y="0"
     inkscape:window-maximized="1"
     inkscape:current-layer="svg2" />
  <defs
     id="defs4">
    <linearGradient
       id="0"
       y1="518.08"
       x2="0"
       y2="545.15"
       gradientUnits="userSpaceOnUse">
      <stop
         stop-color="#faf7f7"
         id="stop7" />
      <stop
         offset="1"
         stop-color="#d4d4d4"
         id="stop9" />
    </linearGradient>
    <linearGradient
       id="1"
       x1="403.44"
       y1="545.15"
       x2="402.47"
       y2="518.08"
       gradientUnits="userSpaceOnUse">
      <stop
         stop-color="#d3d3d3"
         id="stop12" />
      <stop
         offset="1"
         stop-color="#fcf9f9"
         id="stop14" />
    </linearGradient>
    <linearGradient
       gradientUnits="userSpaceOnUse"
       y2="510"
       x2="0"
       y1="552"
       id="2">
      <stop
         stop-color="#2a2c2f"
         id="stop17" />
      <stop
         offset="1"
         stop-color="#424649"
         id="stop19" />
    </linearGradient>
  </defs>
  <g
     transform="matrix(1.3333215,0,0,1.3333215,-554.00344,-683.82701)"
     id="g21">
    <circle
       cx="400.51999"
       cy="531.73999"
       r="14.226"
       transform="matrix(1.05085,0,0,1.05085,12.62,-27.904)"
       id="circle23"
       style="fill:url(#1);stroke:url(#0);stroke-width:1.52400005" />
    <path
       d="m 433.47,528 c -1.662,0 -3,1.338 -3,3 0,1.662 1.338,3 3,3 1.662,0 3,-1.338 3,-3 0,-1.662 -1.338,-3 -3,-3 m -7.5,0 c -1.662,0 -3,1.338 -3,3 0,1.662 1.338,3 3,3 1.662,0 3,-1.338 3,-3 0,-1.662 -1.338,-3 -3,-3 m 15,0 c -1.662,0 -3,1.338 -3,3 0,1.662 1.338,3 3,3 1.662,0 3,-1.338 3,-3 0,-1.662 -1.338,-3 -3,-3"
       id="path25"
       style="fill:url(#2)"
       inkscape:connector-curvature="0" />
  </g>
</svg>
