<?xml version="1.0" encoding="UTF-8" standalone="no"?>
<svg
   xmlns:dc="http://purl.org/dc/elements/1.1/"
   xmlns:cc="http://creativecommons.org/ns#"
   xmlns:rdf="http://www.w3.org/1999/02/22-rdf-syntax-ns#"
   xmlns:svg="http://www.w3.org/2000/svg"
   xmlns="http://www.w3.org/2000/svg"
   xmlns:sodipodi="http://sodipodi.sourceforge.net/DTD/sodipodi-0.dtd"
   xmlns:inkscape="http://www.inkscape.org/namespaces/inkscape"
   viewBox="0 0 48 48"
   id="svg2"
   version="1.1"
   inkscape:version="0.91 r13725"
   sodipodi:docname="applications-education-mathematics.svg">
  <metadata
     id="metadata32">
    <rdf:RDF>
      <cc:Work
         rdf:about="">
        <dc:format>image/svg+xml</dc:format>
        <dc:type
           rdf:resource="http://purl.org/dc/dcmitype/StillImage" />
      </cc:Work>
    </rdf:RDF>
  </metadata>
  <sodipodi:namedview
     pagecolor="#ffffff"
     bordercolor="#666666"
     borderopacity="1"
     objecttolerance="10"
     gridtolerance="10"
     guidetolerance="10"
     inkscape:pageopacity="0"
     inkscape:pageshadow="2"
     inkscape:window-width="1920"
     inkscape:window-height="1134"
     id="namedview30"
     showgrid="false"
     inkscape:zoom="4.9166667"
     inkscape:cx="24"
     inkscape:cy="24"
     inkscape:window-x="1920"
     inkscape:window-y="0"
     inkscape:window-maximized="1"
     inkscape:current-layer="svg2" />
  <defs
     id="defs4">
    <linearGradient
       y1="545.8"
       x2="0"
       y2="517.8"
       gradientUnits="userSpaceOnUse"
       id="linearGradient6">
      <stop
         stop-color="#3889e9"
         id="stop8" />
      <stop
         offset="1"
         stop-color="#5ea5fb"
         id="stop10" />
    </linearGradient>
    <linearGradient
       id="0"
       gradientUnits="userSpaceOnUse"
       x1="400.51"
       y1="546.07"
       x2="400.7"
       y2="517.77">
      <stop
         stop-color="#2e3e46"
         id="stop13" />
      <stop
         offset="1"
         stop-color="#435a64"
         id="stop15" />
    </linearGradient>
    <linearGradient
       id="1"
       x1="41.16"
       y1="89.36"
       x2="54.04"
       y2="20.836"
       gradientUnits="userSpaceOnUse">
      <stop
         stop-color="#e3e3e3"
         id="stop18" />
      <stop
         offset="1"
         stop-color="#fffcff"
         id="stop20" />
    </linearGradient>
  </defs>
  <g
     transform="matrix(1.5,0,0,1.5,-576.85501,-773.69998)"
     id="g22">
    <circle
       r="14"
       cy="531.79999"
       cx="400.57001"
       id="circle24"
       style="fill:url(#0)" />
    <circle
       cx="400.57001"
       cy="531.79999"
       r="14"
       id="circle26"
       style="fill:#5ea5fb;fill-opacity:0" />
    <path
       d="M 72.77,74.28 C 59.404,63.829 68.837,20.84 68.837,20.84 c 0,0 14.631,0 16.336,0 1.705,0 8.389,-1.072 8.389,-9.08 0,-9.846 -8.168,-9.241 -8.168,-9.241 0,0 -44.774,0 -60.15,0 -9.873,0 -18.784,11.304 -23.899,19.389 -2.723,4.318 -1.183,5.528 3.493,3.493 16.392,-7.178 21.01,-4.593 21.01,-4.593 1.155,5.528 1.54,30.473 -2.667,40.32 -4.263,9.269 -12.13,21.01 -0.578,27.915 9.02,5.115 18.481,-5.391 17.546,-23.268 -0.44,-9.461 -1.183,-44.938 -1.183,-44.938 l 15.07,0 c -0.469,5.528 -3.02,33.745 -0.357,50.47 2.777,27.915 33.11,22.497 38.777,6.685 1.402,-4.373 1.073,-7.729 0.027,-10.26 -1.926,-4.702 -5.144,-4.949 -4.785,-2.75 0.221,1.402 0.083,2.777 -0.138,4.02 -0.661,3.823 -8.471,9.817 -14.797,5.281"
       transform="matrix(0.14254,0,0,0.14254,393.45,525.46)"
       id="path28"
       inkscape:connector-curvature="0"
       style="opacity:0.9;fill:#ffffff;fill-opacity:0.85500004" />
  </g>
</svg>
