<?xml version="1.0" encoding="UTF-8" standalone="no"?>
<svg
   xmlns:dc="http://purl.org/dc/elements/1.1/"
   xmlns:cc="http://creativecommons.org/ns#"
   xmlns:rdf="http://www.w3.org/1999/02/22-rdf-syntax-ns#"
   xmlns:svg="http://www.w3.org/2000/svg"
   xmlns="http://www.w3.org/2000/svg"
   xmlns:sodipodi="http://sodipodi.sourceforge.net/DTD/sodipodi-0.dtd"
   xmlns:inkscape="http://www.inkscape.org/namespaces/inkscape"
   viewBox="0 0 48 48"
   id="svg2"
   version="1.1"
   inkscape:version="0.91 r13725"
   sodipodi:docname="applications-utilities.svg">
  <metadata
     id="metadata25">
    <rdf:RDF>
      <cc:Work
         rdf:about="">
        <dc:format>image/svg+xml</dc:format>
        <dc:type
           rdf:resource="http://purl.org/dc/dcmitype/StillImage" />
      </cc:Work>
    </rdf:RDF>
  </metadata>
  <sodipodi:namedview
     pagecolor="#ffffff"
     bordercolor="#666666"
     borderopacity="1"
     objecttolerance="10"
     gridtolerance="10"
     guidetolerance="10"
     inkscape:pageopacity="0"
     inkscape:pageshadow="2"
     inkscape:window-width="1920"
     inkscape:window-height="1134"
     id="namedview23"
     showgrid="false"
     inkscape:zoom="4.9166667"
     inkscape:cx="24"
     inkscape:cy="24"
     inkscape:window-x="1920"
     inkscape:window-y="0"
     inkscape:window-maximized="1"
     inkscape:current-layer="svg2" />
  <defs
     id="defs4">
    <linearGradient
       id="0"
       x1="407.2"
       y1="549.67"
       x2="406.32"
       y2="498.42"
       gradientUnits="userSpaceOnUse">
      <stop
         stop-color="#69159f"
         id="stop7" />
      <stop
         offset="1"
         stop-color="#b92ff5"
         id="stop9" />
    </linearGradient>
    <linearGradient
       gradientUnits="userSpaceOnUse"
       y2="517.8"
       x2="0"
       y1="545.8"
       id="linearGradient11">
      <stop
         stop-color="#3889e9"
         id="stop13" />
      <stop
         offset="1"
         stop-color="#5ea5fb"
         id="stop15" />
    </linearGradient>
  </defs>
  <g
     id="g17"
     transform="matrix(0.875,0,0,0.875,2.9999936,3.0000107)"
     style="color:#000000;color-interpolation:sRGB;color-interpolation-filters:linearRGB;color-rendering:auto;image-rendering:auto;shape-rendering:auto">
    <circle
       cx="408.57001"
       cy="523.79999"
       r="24"
       transform="translate(-384.57,-499.8)"
       id="circle19"
       style="fill:url(#0)" />
  </g>
  <path
     d="m 36.123119,21.887513 c -0.08526,-0.111776 -0.195757,-0.178364 -0.334986,-0.199508 l -2.91845,-0.446592 c -0.159522,-0.510367 -0.377617,-1.031646 -0.654115,-1.563072 0.191238,-0.26584 0.478309,-0.640558 0.861126,-1.124579 0.382732,-0.483936 0.653859,-0.837339 0.813466,-1.06072 0.08517,-0.117062 0.127463,-0.239239 0.127463,-0.366874 0,-0.148778 -0.037,-0.26567 -0.111605,-0.350845 -0.382732,-0.542509 -1.260057,-1.44618 -2.631806,-2.711694 -0.127293,-0.106319 -0.260384,-0.159351 -0.39842,-0.159351 -0.159521,0 -0.287241,0.04775 -0.382902,0.143322 l -2.264762,1.706905 c -0.43619,-0.223381 -0.914669,-0.420161 -1.435608,-0.591278 l -0.446591,-2.934649 c -0.01057,-0.138206 -0.07187,-0.25254 -0.18348,-0.342745 -0.111776,-0.09046 -0.241797,-0.135478 -0.391002,-0.135478 l -3.541615,0 c -0.308386,0 -0.499795,0.148779 -0.574227,0.446592 -0.138206,0.531511 -0.292527,1.520441 -0.46262,2.966025 -0.499794,0.159777 -0.982792,0.361758 -1.451125,0.606283 L 17.540702,14.06235 c -0.138206,-0.106319 -0.276413,-0.159351 -0.414619,-0.159351 -0.233954,0 -0.736306,0.380004 -1.507312,1.140438 -0.77075,0.760434 -1.294502,1.331847 -1.572109,1.714579 -0.09575,0.138206 -0.143493,0.260554 -0.143493,0.366873 0,0.127635 0.05303,0.255269 0.159351,0.382733 0.712433,0.861126 1.281458,1.594958 1.706906,2.201328 -0.265841,0.489051 -0.473193,0.978273 -0.621972,1.467324 l -2.966025,0.446592 c -0.116891,0.02132 -0.217924,0.09046 -0.303099,0.207523 -0.08517,0.116891 -0.127634,0.239239 -0.127634,0.366703 l 0,3.541615 c 0,0.138377 0.04246,0.263113 0.127634,0.374718 0.08517,0.111776 0.195757,0.178534 0.334987,0.199679 l 2.919302,0.430563 c 0.148778,0.520938 0.366703,1.047248 0.653859,1.577992 -0.191239,0.265841 -0.47848,0.640558 -0.861126,1.124579 -0.382733,0.483936 -0.654115,0.837339 -0.813466,1.06072 -0.08518,0.117233 -0.127634,0.23924 -0.127634,0.366874 0,0.138206 0.03717,0.260384 0.111605,0.366703 0.414619,0.574397 1.291689,1.467751 2.631806,2.679807 0.117062,0.117062 0.249982,0.17538 0.398761,0.17538 0.159521,0 0.292527,-0.04775 0.398761,-0.143322 l 2.249073,-1.706905 c 0.43619,0.223381 0.91467,0.420161 1.435608,0.591278 l 0.446592,2.934649 c 0.01074,0.138206 0.07187,0.25254 0.18348,0.342745 0.111605,0.09063 0.241967,0.135478 0.390746,0.135478 l 3.541615,0 c 0.308727,0 0.50005,-0.148778 0.574567,-0.446592 0.138036,-0.531766 0.292101,-1.520441 0.462195,-2.966024 0.499794,-0.159522 0.984753,-0.361759 1.451125,-0.606284 l 2.201328,1.723104 c 0.148779,0.09558 0.287241,0.143322 0.414619,0.143322 0.233783,0 0.733577,-0.377275 1.499042,-1.132338 0.76589,-0.754892 1.292541,-1.329288 1.577992,-1.723104 0.09575,-0.10632 0.143663,-0.228497 0.143663,-0.366704 0,-0.138206 -0.05303,-0.271553 -0.159522,-0.398761 -0.765464,-0.935813 -1.334404,-1.66939 -1.706905,-2.201157 0.212639,-0.393475 0.420162,-0.87724 0.622143,-1.451125 l 2.950337,-0.446336 c 0.127463,-0.02132 0.234124,-0.09063 0.319128,-0.207694 0.085,-0.117062 0.127293,-0.23941 0.127293,-0.366873 l 0,-3.541616 c 0,-0.138206 -0.04212,-0.262941 -0.127464,-0.374717 m -9.23451,5.000328 c -0.797437,0.797608 -1.759852,1.196198 -2.88716,1.196198 -1.127307,0 -2.089552,-0.398761 -2.887074,-1.196198 -0.797437,-0.797437 -1.196198,-1.759681 -1.196198,-2.886903 0,-1.127308 0.398591,-2.089552 1.196198,-2.887075 0.797607,-0.797436 1.760022,-1.196197 2.887074,-1.196197 1.127308,0 2.089723,0.398761 2.88716,1.196197 0.797436,0.797608 1.196197,1.759852 1.196197,2.887075 0,1.127307 -0.398761,2.089552 -1.196197,2.886903"
     id="path21"
     inkscape:connector-curvature="0"
     style="fill:#ffffff;fill-opacity:0.85" />
</svg>
