<?xml version="1.0" encoding="UTF-8" standalone="no"?>
<svg
   xmlns:dc="http://purl.org/dc/elements/1.1/"
   xmlns:cc="http://creativecommons.org/ns#"
   xmlns:rdf="http://www.w3.org/1999/02/22-rdf-syntax-ns#"
   xmlns:svg="http://www.w3.org/2000/svg"
   xmlns="http://www.w3.org/2000/svg"
   xmlns:sodipodi="http://sodipodi.sourceforge.net/DTD/sodipodi-0.dtd"
   xmlns:inkscape="http://www.inkscape.org/namespaces/inkscape"
   viewBox="0 0 48 48"
   id="svg2"
   version="1.1"
   inkscape:version="0.91 r13725"
   sodipodi:docname="applications-development.svg">
  <metadata
     id="metadata37">
    <rdf:RDF>
      <cc:Work
         rdf:about="">
        <dc:format>image/svg+xml</dc:format>
        <dc:type
           rdf:resource="http://purl.org/dc/dcmitype/StillImage" />
      </cc:Work>
    </rdf:RDF>
  </metadata>
  <sodipodi:namedview
     pagecolor="#ffffff"
     bordercolor="#666666"
     borderopacity="1"
     objecttolerance="10"
     gridtolerance="10"
     guidetolerance="10"
     inkscape:pageopacity="0"
     inkscape:pageshadow="2"
     inkscape:window-width="1920"
     inkscape:window-height="1134"
     id="namedview35"
     showgrid="false"
     inkscape:zoom="4.9166667"
     inkscape:cx="24"
     inkscape:cy="24"
     inkscape:window-x="1920"
     inkscape:window-y="0"
     inkscape:window-maximized="1"
     inkscape:current-layer="svg2" />
  <defs
     id="defs4">
    <linearGradient
       id="2"
       gradientUnits="userSpaceOnUse"
       y1="542.2"
       x2="0"
       y2="526.2">
      <stop
         stop-color="#e3e3e3"
         id="stop7" />
      <stop
         offset="1"
         stop-color="#fffcff"
         id="stop9" />
    </linearGradient>
    <linearGradient
       id="1"
       y1="542.2"
       x2="0"
       y2="526.2"
       gradientUnits="userSpaceOnUse">
      <stop
         stop-color="#d0d0d0"
         id="stop12" />
      <stop
         offset="1"
         stop-color="#f1eeee"
         id="stop14" />
    </linearGradient>
    <linearGradient
       y1="545.8"
       x2="0"
       y2="517.8"
       gradientUnits="userSpaceOnUse"
       id="linearGradient16">
      <stop
         stop-color="#3889e9"
         id="stop18" />
      <stop
         offset="1"
         stop-color="#5ea5fb"
         id="stop20" />
    </linearGradient>
    <linearGradient
       id="0"
       gradientUnits="userSpaceOnUse"
       y1="544.8"
       x2="0"
       y2="517.8">
      <stop
         stop-color="#0973d9"
         id="stop23" />
      <stop
         offset="1"
         stop-color="#0cbffe"
         id="stop25" />
    </linearGradient>
  </defs>
  <g
     transform="matrix(1.5,0,0,1.5,-594.05401,-778.05448)"
     id="g27"
     style="fill:url(#1)">
    <circle
       r="14"
       cy="531.79999"
       cx="400.57001"
       transform="translate(11.466,2.903)"
       id="circle29"
       style="fill:url(#0)" />
    <circle
       cx="400.57001"
       cy="531.79999"
       r="14"
       transform="translate(11.466,2.903)"
       id="circle31"
       style="fill:#5ea5fb;fill-opacity:0" />
    <path
       d="m 410.95,526.9 0.111,0.023 c 1.287,-0.427 4.177,1.256 3.533,2.756 -0.163,0.236 -0.135,0.654 0.061,0.917 l -3.613,3.608 c -0.202,-0.202 -0.652,-0.198 -0.859,0 l -5.975,5.725 c -0.545,0.522 -0.116,0.965 0.114,1.199 l 1.072,1.07 c 0.234,0.233 0.853,0.547 1.293,0.082 l 5.639,-5.933 c 0.197,-0.206 0.198,-0.65 0,-0.853 0,0 0.003,-0.003 0,-0.003 l 3.628,-3.62 c 0.383,0.345 0.745,0.374 1.088,0.281 0.663,-0.181 1.032,0.466 1.429,0.939 l -0.179,0.176 c -0.265,0.268 -0.24,0.718 0.057,1.015 0.297,0.297 0.75,0.321 1.015,0.057 l 1.185,-1.182 c 0.265,-0.267 0.24,-0.718 -0.058,-1.013 -0.268,-0.269 -0.657,-0.304 -0.928,-0.112 -0.813,-0.91 -0.386,-1.047 -1.458,-2.231 l -2.01,-2.048 c -1.446,-1.416 -3.325,-1.414 -5.145,-0.852"
       id="path33"
       style="opacity:0.9;fill:url(#2)"
       inkscape:connector-curvature="0" />
  </g>
</svg>
