<?xml version="1.0" encoding="UTF-8" standalone="no"?>
<svg
   xmlns:dc="http://purl.org/dc/elements/1.1/"
   xmlns:cc="http://creativecommons.org/ns#"
   xmlns:rdf="http://www.w3.org/1999/02/22-rdf-syntax-ns#"
   xmlns:svg="http://www.w3.org/2000/svg"
   xmlns="http://www.w3.org/2000/svg"
   xmlns:sodipodi="http://sodipodi.sourceforge.net/DTD/sodipodi-0.dtd"
   xmlns:inkscape="http://www.inkscape.org/namespaces/inkscape"
   viewBox="0 0 48 48"
   id="svg2"
   version="1.1"
   inkscape:version="0.91 r13725"
   sodipodi:docname="applications-internet.svg">
  <metadata
     id="metadata24">
    <rdf:RDF>
      <cc:Work
         rdf:about="">
        <dc:format>image/svg+xml</dc:format>
        <dc:type
           rdf:resource="http://purl.org/dc/dcmitype/StillImage" />
      </cc:Work>
    </rdf:RDF>
  </metadata>
  <sodipodi:namedview
     pagecolor="#ffffff"
     bordercolor="#666666"
     borderopacity="1"
     objecttolerance="10"
     gridtolerance="10"
     guidetolerance="10"
     inkscape:pageopacity="0"
     inkscape:pageshadow="2"
     inkscape:window-width="1920"
     inkscape:window-height="1134"
     id="namedview22"
     showgrid="false"
     inkscape:zoom="4.9166667"
     inkscape:cx="24"
     inkscape:cy="24"
     inkscape:window-x="1920"
     inkscape:window-y="0"
     inkscape:window-maximized="1"
     inkscape:current-layer="svg2" />
  <defs
     id="defs4">
    <linearGradient
       id="0"
       y1="2.125"
       x2="0"
       y2="-42.875"
       gradientUnits="userSpaceOnUse">
      <stop
         stop-color="#187ced"
         id="stop7" />
      <stop
         offset="1"
         stop-color="#42d6fc"
         id="stop9" />
    </linearGradient>
    <linearGradient
       id="1"
       y1="29.505"
       x2="0"
       y2="2.32"
       gradientUnits="userSpaceOnUse"
       gradientTransform="matrix(1.79921,0,0,1.79339,38.493,-50.578)">
      <stop
         stop-color="#0164c2"
         id="stop12" />
      <stop
         offset="1"
         stop-color="#00a9f3"
         id="stop14" />
    </linearGradient>
  </defs>
  <g
     transform="matrix(0.8755655,0,0,0.8755655,-34.98685,43.152995)"
     id="g16"
     style="enable-background:new">
    <circle
       cx="67.370003"
       cy="-21.875"
       r="22.820999"
       id="circle18"
       style="fill:url(#0);stroke:url(#0);stroke-width:2.3269999" />
    <path
       d="m 67.33,-45.784 c -3.03,0 -5.905,0.575 -8.566,1.585 -0.194,0.177 -0.445,0.313 -0.644,0.297 -0.028,-0.003 -0.054,-0.019 -0.083,-0.03 -1.312,0.547 -2.556,1.217 -3.736,1.978 0.153,0.248 0.199,0.524 -0.116,0.658 -0.053,0.021 -0.72,0.09 -0.953,0.085 -3.355,2.43 -6.05,5.699 -7.768,9.515 0.028,-0.005 0.052,-0.016 0.081,-0.018 0.261,-0.005 0.637,0.07 0.888,0.123 0.231,0.047 0.418,0.202 0.618,0.217 0.568,0.043 0.705,-0.398 1.169,-0.644 0.479,0.067 0.797,-0.082 1.23,-0.033 0.295,0.033 0.508,0.347 0.738,0.364 0.193,0.019 0.363,-0.181 0.551,-0.152 0.182,0.028 0.495,0.423 0.525,0.644 0.038,0.276 -0.203,0.524 -0.124,0.827 0.29,0.294 0.816,0.354 1.23,0.523 0.27,-0.221 0.036,-0.632 0,-0.953 -0.005,-0.141 0.019,-0.267 0,-0.397 -0.024,-0.221 -0.119,-0.423 -0.121,-0.612 -0.005,-0.872 0.706,-1.281 1.293,-1.625 0.254,-0.15 0.454,-0.413 0.675,-0.523 0.311,-0.156 0.543,-0.192 0.801,-0.336 0.466,-0.261 0.865,-0.47 1.23,-0.766 0.168,-0.396 0.016,-0.926 0.031,-1.317 0.168,-0.103 0.313,0.044 0.492,0.03 0.281,-0.058 0.304,-0.454 0.464,-0.612 0.092,-0.091 0.346,-0.155 0.461,-0.245 0.28,-0.219 0.371,-0.55 0.616,-0.644 0.088,-0.036 0.29,-0.024 0.429,-0.062 0.182,-0.048 0.441,-0.263 0.738,-0.364 0.193,-0.067 0.636,-0.081 0.71,-0.154 0.091,-0.092 -1e-4,-0.352 0.031,-0.49 0.149,-0.692 1.195,-0.839 1.813,-1.072 0.433,-0.163 0.878,-0.463 1.354,-0.371 -0.093,0.329 -0.537,0.212 -0.462,0.612 0.104,0.554 0.848,-0.158 1.045,-0.24 0.375,-0.157 1.018,-0.254 1.511,-0.432 0.432,-0.157 1.206,-0.397 0.799,-0.89 -0.339,-0.019 -0.503,0.397 -0.799,0.523 -0.204,0.033 -0.165,-0.17 -0.34,-0.187 -0.165,-0.019 -0.258,0.152 -0.429,0.123 -0.169,-0.028 -0.407,-0.293 -0.433,-0.49 -0.067,-0.512 0.434,-0.723 0.647,-1.104 -0.141,-0.463 -0.783,-0.094 -1.171,-0.275 0.038,-0.276 0.323,-0.466 0.646,-0.518 0.265,-0.044 0.859,-0.021 1.017,0.118 0.091,0.079 0.006,0.271 0.154,0.399 0.157,0.141 0.35,0.126 0.553,0.094 0.072,-0.349 -0.456,-0.262 -0.398,-0.493 0.415,-0.271 1.091,-0.049 1.6,-0.123 0.293,-0.043 0.6,-0.249 0.86,-0.395 0.247,-0.14 0.567,-0.383 0.829,-0.154 0.069,0.25 -0.228,0.333 -0.368,0.458 -0.47,0.417 -0.955,0.895 -1.321,1.38 0.224,0.218 0.632,0.108 1.012,0.154 0.149,0.019 0.335,0.063 0.492,0.092 0.184,0.033 0.379,0.023 0.522,0.061 0.258,0.063 0.327,0.339 0.583,0.339 0.421,-1e-4 0.426,-0.454 0.187,-0.738 0.075,-0.289 0.193,-0.439 0.092,-0.642 -0.19,-0.378 -0.885,-0.019 -0.921,-0.49 -0.022,-0.306 0.257,-0.292 0.368,-0.521 -0.051,-0.591 0.486,-0.633 0.429,-1.163 -0.024,-0.221 -0.212,-0.225 -0.368,-0.432 -0.079,-0.101 -0.118,-0.297 -0.208,-0.385 -0.718,-0.062 -1.443,-0.103 -2.178,-0.103 z m -12.377,4.824 0.003,0 c 0.143,0.019 0.316,0.174 0.49,0.187 0.163,0.005 0.3,-0.09 0.401,-0.062 0.257,0.067 0.366,0.455 0.123,0.644 -0.201,0.024 -0.279,-0.088 -0.431,-0.061 -0.418,0.07 -0.578,0.886 -0.89,0.859 -0.294,-0.024 -0.454,-0.74 -0.154,-0.953 0.019,-0.186 -0.137,-0.216 -0.126,-0.399 0.089,-0.113 0.341,-0.234 0.586,-0.215 m -1.385,0.095 c 0.086,0.003 0.15,0.023 0.183,0.06 -0.041,0.327 -0.297,0.305 -0.55,0.458 -0.437,0.263 -0.69,0.664 -0.829,1.226 -0.041,0.163 -0.471,0.597 -0.679,0.553 -0.488,-0.102 0.135,-0.999 0.246,-1.135 0.124,-0.151 0.288,-0.283 0.433,-0.458 0.141,-0.169 0.232,-0.397 0.368,-0.49 0.148,-0.102 0.572,-0.225 0.829,-0.215 m 3.64,1.102 c 0.156,0.003 0.297,0.028 0.361,0.092 -0.1,0.405 -0.975,0.298 -1.295,0.151 0.019,-0.153 0.26,-0.195 0.461,-0.215 0.142,-0.005 0.317,-0.033 0.473,-0.028 m -1.991,0.747 c 0.104,-0.003 0.209,0.019 0.319,0.049 -0.283,0.236 -0.589,0.37 -1.075,0.523 -0.234,0.073 -0.637,0.164 -0.677,-0.096 -0.048,-0.319 0.342,-0.245 0.555,-0.273 0.269,-0.038 0.564,-0.193 0.879,-0.203 m 30.545,1.817 c -0.037,0.088 -0.062,0.173 -0.059,0.257 0.019,0.148 0.182,0.29 0.218,0.49 0.019,0.106 -0.05,0.335 0,0.432 0.148,0.286 0.536,0.081 0.813,0.096 -0.315,-0.432 -0.629,-0.865 -0.972,-1.275 m 1.572,2.108 c -0.044,0.211 -0.188,0.487 -0.305,0.663 -0.268,0.406 -0.632,0.425 -1.017,0.642 -0.321,0.181 -0.459,0.483 -0.647,0.799 -0.204,0.34 -0.33,0.546 -0.246,1.039 -0.275,0.543 -0.691,0.876 -1.26,1.135 -0.168,0.076 -0.398,0.104 -0.553,0.215 -0.123,0.088 -0.193,0.325 -0.368,0.521 -0.216,0.239 -0.442,0.34 -0.555,0.523 -0.088,0.141 -0.118,0.422 -0.215,0.612 -0.132,0.257 -0.411,0.384 -0.583,0.644 -0.079,0.12 -0.132,0.365 -0.218,0.523 -0.195,0.353 -0.528,0.607 -0.492,0.918 0.036,0.3 0.377,0.353 0.401,0.614 0.005,0.148 -0.098,0.238 -0.092,0.399 0.005,0.235 0.164,0.4 0.183,0.581 0.046,0.455 -0.155,0.637 -0.241,0.948 -0.041,0.149 -0.023,0.316 -0.063,0.432 -0.077,0.228 -0.394,0.433 -0.401,0.703 -0.003,0.192 0.197,0.345 0.213,0.614 0.005,0.186 -0.092,0.383 -0.058,0.553 0.065,0.334 0.663,0.721 0.923,0.981 0.348,0.347 0.803,0.615 0.953,0.981 0.126,0.31 0.125,0.714 0.368,0.948 0.179,0.173 0.478,0.28 0.707,0.46 0.214,0.167 0.448,0.312 0.677,0.49 0.374,0.292 0.94,0.874 1.537,0.829 0.311,-0.021 0.631,-0.276 0.984,-0.339 0.363,-0.064 0.835,-0.099 1.202,-0.06 0.281,0.028 0.57,0.195 0.862,0.182 0.308,-0.019 0.662,-0.247 1.012,-0.399 0.282,-0.122 0.628,-0.258 1.01,-0.357 0.174,-1.166 0.267,-2.361 0.267,-3.577 0,-4.896 -1.469,-9.433 -3.982,-13.215 m -39.672,8.03 c -0.511,0.028 -0.846,0.051 -1.136,0.182 -0.665,0.302 -0.537,1.198 -1.202,1.41 -0.23,0.073 -0.546,0.077 -0.799,0.123 -0.219,0.04 -0.485,0.158 -0.71,0.154 -0.063,-10e-5 -0.151,-0.048 -0.23,-0.071 -0.059,0.42 -0.108,0.845 -0.146,1.272 0.633,0.12 0.959,0.956 1.518,1.233 0.153,0.076 0.353,0.081 0.55,0.124 0.159,0.036 0.28,0.102 0.433,0.154 0.325,0.11 0.724,0.097 0.984,0.213 0.392,0.173 0.679,0.908 1.017,1.104 0.019,0.198 -0.039,0.464 0.031,0.612 0.159,0.215 0.384,0.168 0.646,0.308 0.314,0.169 0.41,0.605 0.707,0.738 0.103,0.046 0.36,0.04 0.522,0.089 0.408,0.123 0.541,0.593 0.89,0.49 0.229,-0.067 0.211,-0.302 0.248,-0.521 0.151,-0.163 0.317,-0.423 0.553,-0.427 0.382,-0.019 0.416,0.394 0.555,0.763 0.079,0.209 0.284,0.391 0.337,0.612 0.095,0.381 0.048,1.521 -0.034,1.749 -0.096,0.279 -0.476,0.398 -0.71,0.707 -0.11,0.145 -0.162,0.358 -0.246,0.46 -0.151,0.183 -0.375,0.231 -0.487,0.399 -0.063,0.095 -0.126,0.299 -0.188,0.427 -0.185,0.39 -0.432,0.666 -0.276,1.135 0.065,0.193 0.367,0.322 0.368,0.549 1e-4,0.267 -0.57,0.506 -0.614,0.799 -0.034,0.218 0.176,0.606 0.246,0.89 0.051,0.214 0.457,0.348 0.583,0.49 0.216,0.242 0.388,0.584 0.586,0.887 0.39,0.597 0.696,1.325 1.075,1.903 0.201,0.303 0.482,0.575 0.616,0.89 0.068,0.158 0.059,0.348 0.121,0.49 0.22,0.494 1.19,1.01 1.691,1.256 0.234,0.113 0.495,0.154 0.71,0.273 0.326,0.181 0.972,0.668 1.136,0.953 0.147,0.256 0.238,0.879 0.309,1.286 0.096,0.538 10e-5,0.951 0.031,1.534 0.019,0.315 0.12,0.632 0.124,0.948 10e-5,0.11 -0.059,0.193 -0.063,0.306 0,0.018 0.006,0.04 0.006,0.058 3.02,1.363 6.368,2.139 9.911,2.139 0.64,0 1.273,-0.034 1.9,-0.083 0.028,-0.047 0.053,-0.096 0.088,-0.14 0.145,-0.189 0.273,-0.354 0.368,-0.521 0.091,-0.56 -0.224,-0.951 -0.092,-1.441 0.147,-0.55 0.91,-0.887 1.445,-1.135 0.184,-0.085 0.372,-0.224 0.522,-0.275 0.37,-0.129 0.833,-0.058 1.171,-0.182 0.576,-0.21 0.636,-0.826 0.921,-1.35 0.135,-0.248 0.311,-0.496 0.337,-0.672 0.023,-0.158 -0.058,-0.308 -0.033,-0.495 0.028,-0.185 0.194,-0.345 0.246,-0.549 0.067,-0.265 0.096,-0.655 0.096,-0.95 0,-0.243 -0.114,-0.456 -0.123,-0.675 -0.04,-0.795 0.288,-0.884 0.583,-1.317 0.148,-0.215 0.203,-0.46 0.307,-0.614 0.496,-0.737 1.355,-1.093 1.293,-2.206 -0.019,-0.369 -0.253,-1.202 -0.525,-1.319 -0.156,-0.067 -0.513,-0.005 -0.738,-0.092 -0.727,-0.27 -1.153,-1.168 -1.907,-1.226 -0.16,-0.019 -0.308,0.065 -0.49,0.062 -0.298,-0.019 -0.748,-0.208 -1.078,-0.245 -0.21,-0.021 -0.49,0.062 -0.616,0 -0.192,-0.093 -0.212,-0.446 -0.368,-0.551 -0.123,-0.086 -0.365,-0.113 -0.553,-0.187 -0.303,-0.115 -0.543,-0.251 -0.892,-0.275 -0.108,-0.005 -0.242,0.051 -0.368,0.033 -0.193,-0.033 -0.346,-0.261 -0.525,-0.369 -0.224,-0.136 -0.43,-0.201 -0.522,-0.395 0.202,-0.66 -0.356,-0.844 -0.492,-1.226 -0.065,-0.179 -0.036,-0.394 -0.092,-0.553 -0.081,-0.228 -0.307,-0.36 -0.555,-0.551 -0.445,-0.341 -0.84,-0.662 -1.476,-0.74 -0.28,-0.036 -0.557,0.084 -0.895,0.062 -0.358,-0.021 -0.807,-0.335 -1.075,-0.64 -0.26,-0.298 -0.387,-0.565 -0.614,-0.707 -0.215,-0.138 -0.5,-0.134 -0.647,-0.273 -0.065,-0.061 -0.053,-0.164 -0.124,-0.308 -0.108,-0.223 -0.289,-0.347 -0.154,-0.614 -0.245,-0.126 -0.252,0.233 -0.52,0.187 -0.239,-0.338 -0.441,-0.498 -0.984,-0.399 -0.249,0.046 -0.387,0.359 -0.677,0.367 -0.238,0.019 -0.424,-0.264 -0.738,-0.308 -0.237,-0.033 -0.506,0.063 -0.675,0.033 -0.262,-0.052 -0.343,-0.27 -0.583,-0.427 -0.176,-0.115 -0.517,-0.311 -0.616,-0.308 -0.309,0.019 -0.529,0.655 -0.956,0.43 -0.207,-0.262 0.337,-0.4 0.092,-0.645 -0.186,-0.186 -0.343,0.085 -0.492,0.187 -0.171,0.117 -0.331,0.234 -0.52,0.304 -0.422,0.157 -0.686,0.075 -1.017,0.245 -0.306,0.157 -0.319,0.422 -0.492,0.735 -0.142,0.257 -0.464,0.631 -0.677,0.647 -0.258,0.019 -0.504,-0.359 -0.738,-0.46 -0.704,-0.304 -1.046,0.27 -1.63,0.278 -0.543,0.019 -1.318,-0.874 -1.291,-1.382 0.005,-0.31 0.179,-0.781 0.215,-1.165 0.034,-0.305 0.242,-0.489 0.246,-0.768 0.005,-0.372 -0.496,-0.659 -0.738,-0.703 -0.575,-0.105 -1.372,0.23 -2.031,-0.033 -0.125,-0.208 0.148,-0.351 0.218,-0.553 0.04,-0.114 0.016,-0.268 0.058,-0.395 0.072,-0.195 0.278,-0.347 0.37,-0.553 0.068,-0.157 0.086,-0.386 0.154,-0.581 0.082,-0.223 0.229,-0.367 0.246,-0.523 0.021,-0.206 -0.055,-0.445 -0.218,-0.581 z m 8.222,6.489 c 0.208,0.019 0.235,0.449 0.021,0.483 -0.23,0.036 -0.347,-0.36 -0.123,-0.462 0.038,-0.019 0.073,-0.019 0.103,-0.018 l 0,-0.003"
       id="path20"
       style="fill:url(#1)"
       inkscape:connector-curvature="0" />
  </g>
</svg>
