<?xml version="1.0" encoding="UTF-8" standalone="no"?>
<svg
   xmlns:dc="http://purl.org/dc/elements/1.1/"
   xmlns:cc="http://creativecommons.org/ns#"
   xmlns:rdf="http://www.w3.org/1999/02/22-rdf-syntax-ns#"
   xmlns:svg="http://www.w3.org/2000/svg"
   xmlns="http://www.w3.org/2000/svg"
   xmlns:xlink="http://www.w3.org/1999/xlink"
   xmlns:sodipodi="http://sodipodi.sourceforge.net/DTD/sodipodi-0.dtd"
   xmlns:inkscape="http://www.inkscape.org/namespaces/inkscape"
   viewBox="0 0 48 48"
   id="svg2"
   version="1.1"
   inkscape:version="0.91 r13725"
   sodipodi:docname="applications-office.svg">
  <metadata
     id="metadata21">
    <rdf:RDF>
      <cc:Work
         rdf:about="">
        <dc:format>image/svg+xml</dc:format>
        <dc:type
           rdf:resource="http://purl.org/dc/dcmitype/StillImage" />
      </cc:Work>
    </rdf:RDF>
  </metadata>
  <sodipodi:namedview
     pagecolor="#ffffff"
     bordercolor="#666666"
     borderopacity="1"
     objecttolerance="10"
     gridtolerance="10"
     guidetolerance="10"
     inkscape:pageopacity="0"
     inkscape:pageshadow="2"
     inkscape:window-width="1920"
     inkscape:window-height="1134"
     id="namedview19"
     showgrid="false"
     inkscape:zoom="4.9166667"
     inkscape:cx="-7.7288134"
     inkscape:cy="24"
     inkscape:window-x="1920"
     inkscape:window-y="0"
     inkscape:window-maximized="1"
     inkscape:current-layer="svg2" />
  <defs
     id="defs4">
    <linearGradient
       xlink:href="#2"
       id="0"
       x1="396.11"
       y1="545.48"
       x2="397.66"
       y2="516.98"
       gradientUnits="userSpaceOnUse" />
    <linearGradient
       xlink:href="#2"
       id="1"
       x1="403.44"
       y1="545.15"
       x2="402.47"
       y2="518.08"
       gradientUnits="userSpaceOnUse" />
    <linearGradient
       id="2">
      <stop
         stop-color="#dce2ff"
         id="stop9" />
      <stop
         offset="1"
         stop-color="#f8feff"
         id="stop11" />
    </linearGradient>
    <linearGradient
       inkscape:collect="always"
       xlink:href="#linearGradient4178"
       id="linearGradient4247"
       x1="30.711863"
       y1="103.11864"
       x2="29.898296"
       y2="54.915257"
       gradientUnits="userSpaceOnUse"
       gradientTransform="matrix(0.8750001,0,0,0.8750001,-3.0508459,-45.406791)" />
    <linearGradient
       y2="155.59"
       x2="20.030001"
       y1="261.26001"
       x1="18.6"
       gradientUnits="userSpaceOnUse"
       id="linearGradient4178"
       gradientTransform="matrix(0.43355,0,0,0.43481,-57.018323,-61.893693)">
      <stop
         id="stop4180"
         stop-color="#2a2c2f"
         style="stop-color:#18191b;stop-opacity:1" />
      <stop
         id="stop4182"
         stop-color="#424649"
         offset="1" />
    </linearGradient>
    <linearGradient
       gradientTransform="matrix(1.6956427,0,0,1.6904165,-669.72811,-883.36212)"
       inkscape:collect="always"
       xlink:href="#2"
       id="linearGradient4163-1"
       x1="407.7587"
       y1="543.61151"
       x2="407.97034"
       y2="529.81995"
       gradientUnits="userSpaceOnUse" />
    <linearGradient
       gradientTransform="matrix(1.6956427,0,0,1.6904165,-669.72811,-883.36212)"
       inkscape:collect="always"
       xlink:href="#2"
       id="linearGradient4155-2"
       x1="407.7587"
       y1="543.61151"
       x2="407.97034"
       y2="529.81995"
       gradientUnits="userSpaceOnUse" />
  </defs>
  <ellipse
     style="opacity:1;fill:url(#linearGradient4247);fill-opacity:1;stroke:#3daee6;stroke-width:0;stroke-linecap:round;stroke-linejoin:round;stroke-miterlimit:4;stroke-dasharray:none;stroke-opacity:1"
     id="path4239"
     cx="24"
     cy="24"
     rx="20.999996"
     ry="20.999998" />
  <path
     inkscape:connector-curvature="0"
     d="M 23.789778,14.249084 14.897827,25.63066 c -1.666816,2.133305 -1.200515,5.935052 0.932604,7.601803 2.134814,1.666751 5.93475,1.200195 7.603262,-0.93311 l 8.891951,-11.381575 1.110645,-1.423331 c 1.112342,-1.423331 0.800343,-3.957265 -0.622301,-5.067869 -1.422644,-1.112294 -3.95763,-0.799567 -5.068276,0.622074 l -1.112341,1.42333 -6.668963,8.536604 -1.112341,1.423331 c -0.556171,0.711665 -0.400172,1.977788 0.310302,2.533934 0.71217,0.556148 1.978815,0.400629 2.534985,-0.311036 l 7.781305,-9.958244 1.422645,1.112294 -7.781305,9.958244 c -1.112342,1.42333 -3.645631,1.734367 -5.068276,0.622073 -1.422644,-1.112294 -1.734643,-3.646228 -0.622301,-5.067869 l 1.112342,-1.42333 7.781304,-9.958244 c 1.666817,-2.133307 5.468448,-2.599861 7.603262,-0.933111 2.134814,1.666751 2.601116,5.468498 0.934299,7.601803 l -1.112341,1.423331 -8.891951,11.381575 c -2.222987,2.844971 -7.291263,3.467045 -10.136552,1.244146 -2.845288,-2.222897 -3.467589,-7.290765 -1.244602,-10.137427 l 8.891951,-11.381575 1.422644,1.112294 z"
     id="path17-4"
     style="fill:url(#linearGradient4163-1);fill-opacity:1;stroke:url(#linearGradient4155-2);stroke-width:0;stroke-linecap:round;stroke-linejoin:round;stroke-miterlimit:4;stroke-dasharray:none;stroke-opacity:0.8" />
</svg>
