<?xml version="1.0" encoding="UTF-8" standalone="no"?>
<svg
   xmlns:dc="http://purl.org/dc/elements/1.1/"
   xmlns:cc="http://creativecommons.org/ns#"
   xmlns:rdf="http://www.w3.org/1999/02/22-rdf-syntax-ns#"
   xmlns:svg="http://www.w3.org/2000/svg"
   xmlns="http://www.w3.org/2000/svg"
   xmlns:sodipodi="http://sodipodi.sourceforge.net/DTD/sodipodi-0.dtd"
   xmlns:inkscape="http://www.inkscape.org/namespaces/inkscape"
   viewBox="0 0 48 48"
   id="svg2"
   version="1.1"
   inkscape:version="0.91 r13725"
   sodipodi:docname="applications-education-miscellaneous.svg">
  <metadata
     id="metadata24">
    <rdf:RDF>
      <cc:Work
         rdf:about="">
        <dc:format>image/svg+xml</dc:format>
        <dc:type
           rdf:resource="http://purl.org/dc/dcmitype/StillImage" />
      </cc:Work>
    </rdf:RDF>
  </metadata>
  <sodipodi:namedview
     pagecolor="#ffffff"
     bordercolor="#666666"
     borderopacity="1"
     objecttolerance="10"
     gridtolerance="10"
     guidetolerance="10"
     inkscape:pageopacity="0"
     inkscape:pageshadow="2"
     inkscape:window-width="1920"
     inkscape:window-height="1134"
     id="namedview22"
     showgrid="false"
     inkscape:zoom="4.9166667"
     inkscape:cx="24"
     inkscape:cy="24"
     inkscape:window-x="1920"
     inkscape:window-y="0"
     inkscape:window-maximized="1"
     inkscape:current-layer="svg2" />
  <defs
     id="defs4">
    <linearGradient
       id="0"
       x1="403.66"
       y1="545.75"
       x2="402.65"
       y2="517.44"
       gradientUnits="userSpaceOnUse">
      <stop
         stop-color="#d3d3d3"
         id="stop7" />
      <stop
         offset="1"
         stop-color="#fcf9f9"
         id="stop9" />
    </linearGradient>
    <linearGradient
       id="1"
       x1="12.613"
       y1="24.02"
       x2="11.598"
       y2="-.7"
       gradientUnits="userSpaceOnUse">
      <stop
         stop-color="#00cafe"
         id="stop12" />
      <stop
         offset="1"
         stop-color="#1460f3"
         id="stop14" />
    </linearGradient>
  </defs>
  <g
     transform="matrix(1.4117647,0,0,1.4117647,-541.58117,-726.67762)"
     id="g16">
    <circle
       cx="400.62"
       cy="531.72998"
       r="14.875"
       id="circle18"
       style="fill:url(#0)" />
    <path
       d="m 23.09,18.561 c -0.37,0.644 -1.042,1 -1.734,1 -0.339,0 -0.683,-0.086 -0.998,-0.268 l -5.982,-3.455 0,6.91 c 0,1.104 -0.896,2 -2,2 -1.104,0 -2,-0.896 -2,-2 l 0,-6.911 -5.985,3.456 c -0.315,0.182 -0.659,0.268 -0.998,0.268 -0.691,0 -1.364,-0.356 -1.734,-1 -0.552,-0.957 -0.225,-2.18 0.732,-2.73 L 8.374,12.375 2.389,8.919 C 1.432,8.366 1.105,7.145 1.657,6.188 2.209,5.231 3.433,4.903 4.389,5.456 l 5.984,3.455 0,-6.911 c 0,-1.104 0.896,-2 2,-2 1.104,0 2,0.896 2,2 l 0,6.91 5.982,-3.455 c 0.956,-0.553 2.183,-0.225 2.732,0.732 0.552,0.957 0.225,2.18 -0.732,2.731 l -5.981,3.456 5.982,3.455 c 0.957,0.552 1.286,1.775 0.734,2.732"
       transform="matrix(0.73501,0,0,0.73501,391.58,523.08)"
       id="path20"
       style="fill:url(#1)"
       inkscape:connector-curvature="0" />
  </g>
</svg>
