<?xml version="1.0" encoding="UTF-8" standalone="no"?>
<svg
   xmlns:dc="http://purl.org/dc/elements/1.1/"
   xmlns:cc="http://creativecommons.org/ns#"
   xmlns:rdf="http://www.w3.org/1999/02/22-rdf-syntax-ns#"
   xmlns:svg="http://www.w3.org/2000/svg"
   xmlns="http://www.w3.org/2000/svg"
   xmlns:sodipodi="http://sodipodi.sourceforge.net/DTD/sodipodi-0.dtd"
   xmlns:inkscape="http://www.inkscape.org/namespaces/inkscape"
   viewBox="0 0 48 48"
   id="svg2"
   version="1.1"
   inkscape:version="0.91 r13725"
   sodipodi:docname="applications-development-translation.svg">
  <metadata
     id="metadata33">
    <rdf:RDF>
      <cc:Work
         rdf:about="">
        <dc:format>image/svg+xml</dc:format>
        <dc:type
           rdf:resource="http://purl.org/dc/dcmitype/StillImage" />
        <dc:title></dc:title>
      </cc:Work>
    </rdf:RDF>
  </metadata>
  <sodipodi:namedview
     pagecolor="#ffffff"
     bordercolor="#666666"
     borderopacity="1"
     objecttolerance="10"
     gridtolerance="10"
     guidetolerance="10"
     inkscape:pageopacity="0"
     inkscape:pageshadow="2"
     inkscape:window-width="1920"
     inkscape:window-height="1134"
     id="namedview31"
     showgrid="false"
     inkscape:zoom="4.9166667"
     inkscape:cx="24"
     inkscape:cy="24"
     inkscape:window-x="1920"
     inkscape:window-y="0"
     inkscape:window-maximized="1"
     inkscape:current-layer="svg2" />
  <defs
     id="defs4">
    <linearGradient
       id="0"
       gradientUnits="userSpaceOnUse"
       x1="-32.727"
       y1="77.6"
       x2="-32.406"
       y2="29.08">
      <stop
         stop-color="#0a80fd"
         id="stop7" />
      <stop
         offset="1"
         stop-color="#56c5fa"
         id="stop9" />
    </linearGradient>
  </defs>
  <g
     transform="matrix(0.875,0,0,0.875,52.546875,-22.479999)"
     id="g11"
     style="enable-background:new">
    <circle
       cx="-32.625"
       cy="53.119999"
       r="24"
       id="circle13"
       style="fill:url(#0)" />
    <g
       id="g15"
       style="fill:#dff1ff">
      <path
         d="m -27.548,68.43 c -0.218,0.249 -0.5,0.482 -0.766,0.696 -1.717,-1.775 -3.734,-3.742 -5.65,-3.742 -1.188,0 -2.044,0.904 -3.042,1.543 -1.386,0.886 -3.286,1.384 -4.915,0.734 -0.876,-0.333 -1.725,-0.823 -2.359,-1.618 1.282,0.884 3.202,1 4.649,0.403 1.6,-0.664 3.228,-1.545 5.05,-1.545 2.687,0 5.241,1.818 7.03,3.529 m -19.861,-5.582 c 1.779,2.025 4.681,1.374 7.06,1.879 0.331,0.07 0.641,0.18 0.996,0.126 -0.282,-0.179 -0.657,-0.199 -0.983,-0.322 -1.843,-0.694 -2.13,-2.666 -3.139,-4.02 1.288,0.856 2.355,2.029 3.56,3.131 0.838,0.767 1.883,1.095 2.966,1.315 -0.26,0.095 -0.601,0.073 -0.881,0.142 -1.946,0.483 -4.103,1.245 -6.174,0.561 -1.336,-0.441 -2.727,-1.485 -3.402,-2.809 m -2.852,-4.687 c 1.11,2.513 3.898,2.709 5.752,4.251 0.353,0.293 0.702,0.563 1.089,0.743 l 0.02,-0.02 c -0.428,-0.387 -0.891,-0.848 -1.222,-1.33 -1.06,-1.54 -0.707,-3.644 -1.524,-5.276 0.742,0.889 1.438,1.804 1.866,2.822 0.688,1.638 0.921,3.506 2.464,4.75 -1.67,-0.551 -3.596,-0.441 -5.099,-1.426 -1.58,-1.035 -3.045,-2.669 -3.346,-4.514 m -1.189,-5.083 c 0.16,2.214 2.517,3.396 3.641,5.216 0.24,0.389 0.487,0.79 0.836,1.104 -0.054,-0.236 -0.248,-0.445 -0.355,-0.676 -0.36,-0.781 -0.524,-1.684 -0.434,-2.613 0.109,-1.13 0.581,-2.18 0.4,-3.369 0.969,2.091 0.656,4.704 1.216,6.965 0.124,0.5 0.428,0.938 0.616,1.411 -0.952,-0.724 -2.199,-1.367 -3.244,-2.19 -1.01,-0.796 -1.887,-1.73 -2.343,-2.944 -0.328,-0.875 -0.414,-1.919 -0.333,-2.903 m 0.066,-4.079 c 0.114,-0.494 0.201,-1.01 0.416,-1.459 -0.407,2.088 0.982,3.597 1.457,5.403 0.179,0.681 0.24,1.404 0.515,2.04 0.026,0.014 0.048,-0.013 0.064,-0.033 -0.685,-1.923 0.319,-3.7 1.298,-5.215 0.257,-0.398 0.381,-0.862 0.501,-1.331 0.106,0.87 -0.079,1.878 -0.24,2.776 -0.207,1.156 -0.603,2.24 -0.917,3.356 -0.207,0.697 -0.152,1.484 -0.046,2.214 l -0.1,-0.08 c -0.729,-1.345 -2.166,-2.396 -2.601,-3.864 -0.347,-1.173 -0.587,-2.529 -0.347,-3.806 m 0.769,-2.246 c 0,-1.58 0.615,-2.869 1.538,-4.046 0.027,-0.013 0.046,-0.04 0.08,-0.034 -1.016,1.546 -0.091,3.497 -0.222,5.25 l -0.134,1.799 c 0.02,0.013 0.02,0.067 0.067,0.046 0.06,-0.201 0.078,-0.414 0.113,-0.621 0.245,-1.45 1.518,-2.46 2.598,-3.484 0.256,-0.242 0.443,-0.529 0.563,-0.836 -0.09,0.723 -0.291,1.463 -0.616,2.12 -0.831,1.683 -2.437,3.042 -2.726,4.955 -0.14,-1.833 -1.263,-3.196 -1.263,-5.148 m 2.678,-5.331 c 0.511,-0.566 1.084,-1.01 1.765,-1.182 -1.324,0.91 -1.252,2.537 -1.657,3.897 -0.148,0.497 -0.366,0.963 -0.482,1.477 l 0.033,0.027 c 0.22,-0.581 0.598,-1.14 1.09,-1.604 0.931,-0.878 2.331,-1.41 2.792,-2.695 -0.021,1.786 -1.543,3.143 -2.933,4.193 -0.624,0.471 -1.153,1.103 -1.477,1.766 0.054,-0.493 0.079,-0.904 0.035,-1.385 -0.143,-1.56 -0.235,-3.309 0.834,-4.494 m 5.373,-3 c -0.982,0.862 -1.638,1.972 -2.393,2.969 -0.628,0.83 -1.489,1.344 -2.23,2.04 0.4,-0.83 0.474,-1.78 0.981,-2.583 0.868,-1.372 2.303,-1.905 3.641,-2.426"
         id="path17"
         inkscape:connector-curvature="0" />
      <path
         d="m -37.702,68.43 c 0.218,0.249 0.5,0.482 0.766,0.696 1.717,-1.775 3.734,-3.742 5.65,-3.742 1.188,0 2.044,0.904 3.042,1.543 1.386,0.886 3.286,1.384 4.915,0.734 0.876,-0.333 1.725,-0.823 2.359,-1.618 -1.282,0.884 -3.202,1 -4.649,0.403 -1.6,-0.664 -3.228,-1.545 -5.05,-1.545 -2.687,0 -5.241,1.818 -7.03,3.529 m 19.861,-5.582 c -1.779,2.025 -4.681,1.374 -7.06,1.879 -0.331,0.07 -0.641,0.18 -0.996,0.126 0.282,-0.179 0.657,-0.199 0.983,-0.322 1.843,-0.694 2.13,-2.666 3.139,-4.02 -1.288,0.856 -2.355,2.029 -3.56,3.131 -0.838,0.767 -1.883,1.095 -2.966,1.315 0.26,0.095 0.601,0.073 0.881,0.142 1.946,0.483 4.103,1.245 6.174,0.561 1.336,-0.441 2.727,-1.485 3.402,-2.809 m 2.852,-4.687 c -1.11,2.513 -3.898,2.709 -5.752,4.251 -0.353,0.293 -0.702,0.563 -1.089,0.743 l -0.02,-0.02 c 0.428,-0.387 0.891,-0.848 1.222,-1.33 1.06,-1.54 0.707,-3.644 1.524,-5.276 -0.742,0.889 -1.438,1.804 -1.866,2.822 -0.688,1.638 -0.921,3.506 -2.464,4.75 1.67,-0.551 3.596,-0.441 5.099,-1.426 1.58,-1.035 3.045,-2.669 3.346,-4.514 m 1.189,-5.083 c -0.16,2.214 -2.517,3.396 -3.641,5.216 -0.24,0.389 -0.487,0.79 -0.836,1.104 0.054,-0.236 0.248,-0.445 0.355,-0.676 0.36,-0.781 0.524,-1.684 0.434,-2.613 -0.109,-1.13 -0.581,-2.18 -0.4,-3.369 -0.969,2.091 -0.656,4.704 -1.216,6.965 -0.124,0.5 -0.428,0.938 -0.616,1.411 0.952,-0.724 2.199,-1.367 3.244,-2.19 1.01,-0.796 1.887,-1.73 2.343,-2.944 0.328,-0.875 0.414,-1.919 0.333,-2.903 m -0.066,-4.079 c -0.114,-0.494 -0.201,-1.01 -0.416,-1.459 0.407,2.088 -0.982,3.597 -1.457,5.403 -0.179,0.681 -0.24,1.404 -0.515,2.04 -0.026,0.014 -0.048,-0.013 -0.064,-0.033 0.685,-1.923 -0.319,-3.7 -1.298,-5.215 -0.257,-0.398 -0.381,-0.862 -0.501,-1.331 -0.106,0.87 0.079,1.878 0.24,2.776 0.207,1.156 0.603,2.24 0.917,3.356 0.207,0.697 0.152,1.484 0.046,2.214 l 0.1,-0.08 c 0.729,-1.345 2.166,-2.396 2.601,-3.864 0.347,-1.173 0.587,-2.529 0.347,-3.806 m -0.769,-2.246 c 0,-1.58 -0.615,-2.869 -1.538,-4.046 -0.027,-0.013 -0.046,-0.04 -0.08,-0.034 1.016,1.546 0.091,3.497 0.222,5.25 l 0.134,1.799 c -0.02,0.013 -0.02,0.067 -0.067,0.046 -0.06,-0.201 -0.078,-0.414 -0.113,-0.621 -0.245,-1.45 -1.518,-2.46 -2.598,-3.484 -0.256,-0.242 -0.443,-0.529 -0.563,-0.836 0.09,0.723 0.291,1.463 0.616,2.12 0.831,1.683 2.437,3.042 2.726,4.955 0.14,-1.833 1.263,-3.196 1.263,-5.148 m -2.678,-5.331 c -0.511,-0.566 -1.084,-1.01 -1.765,-1.182 1.324,0.91 1.252,2.537 1.657,3.897 0.148,0.497 0.366,0.963 0.482,1.477 l -0.034,0.027 c -0.22,-0.581 -0.598,-1.14 -1.09,-1.604 -0.931,-0.878 -2.331,-1.41 -2.792,-2.695 0.021,1.786 1.543,3.143 2.933,4.193 0.624,0.471 1.153,1.103 1.477,1.766 -0.054,-0.493 -0.079,-0.904 -0.035,-1.385 0.143,-1.56 0.235,-3.309 -0.834,-4.494 m -5.373,-3 c 0.982,0.862 1.638,1.972 2.393,2.969 0.628,0.83 1.489,1.344 2.23,2.04 -0.4,-0.83 -0.474,-1.78 -0.981,-2.583 -0.868,-1.372 -2.303,-1.905 -3.641,-2.426"
         id="path19"
         inkscape:connector-curvature="0" />
      <path
         d="m -20.625,56.27 -0.29,-0.158 c -0.615,1.269 -1.43,2.423 -2.404,3.422 l -1.695,-1.695 c 0.831,-0.856 1.5,-1.827 1.993,-2.877 l -0.289,-0.158 c -0.488,1.041 -1.144,1.988 -1.935,2.804 l -1.536,-1.536 c 0.659,-0.685 1.182,-1.467 1.56,-2.312 l -0.287,-0.156 c -0.37,0.833 -0.88,1.59 -1.503,2.239 l -1.697,-1.697 c 0.472,-0.5 0.836,-1.076 1.084,-1.698 l -0.287,-0.156 c -0.237,0.607 -0.587,1.159 -1.026,1.626 l -1.54,-1.54 c 0.439,-0.49 0.693,-1.104 0.729,-1.76 l 2.18,0 c -0.019,0.589 -0.139,1.153 -0.343,1.675 l 0.287,0.156 c 0.229,-0.577 0.359,-1.194 0.378,-1.831 l 2.404,0 c -0.022,1.061 -0.258,2.07 -0.665,2.987 l 0.287,0.156 c 0.437,-0.979 0.679,-2.042 0.7,-3.144 l 2.176,0 c -0.023,1.494 -0.368,2.911 -0.965,4.187 l 0.289,0.158 c 0.632,-1.345 0.975,-2.818 0.998,-4.345 l 2.403,0 c -0.024,1.967 -0.487,3.83 -1.295,5.495 l 0.29,0.158 c 0.869,-1.79 1.33,-3.766 1.33,-5.814 0,-1.742 -0.334,-3.431 -0.968,-4.999 l -0.298,0.128 c 0.597,1.479 0.921,3.07 0.941,4.71 l -2.404,0 c -0.019,-1.309 -0.277,-2.577 -0.747,-3.76 l -0.296,0.127 c 0.454,1.144 0.702,2.369 0.721,3.634 l -2.176,0 c -0.019,-0.964 -0.207,-1.899 -0.546,-2.774 l -0.296,0.127 c 0.323,0.835 0.501,1.727 0.52,2.647 l -2.404,0 c -0.017,-0.588 -0.128,-1.159 -0.326,-1.697 l -0.296,0.127 c 0.181,0.499 0.283,1.027 0.3,1.57 l -2.18,0 c -0.036,-0.656 -0.29,-1.271 -0.729,-1.76 l 1.542,-1.542 c 0.476,0.506 0.836,1.094 1.068,1.732 l 0.296,-0.127 c -0.248,-0.674 -0.631,-1.296 -1.136,-1.832 l 1.7,-1.699 c 0.725,0.755 1.279,1.631 1.646,2.582 l 0.296,-0.127 c -0.383,-0.988 -0.96,-1.898 -1.714,-2.682 l 1.539,-1.539 c 0.953,0.983 1.685,2.123 2.176,3.361 l 0.296,-0.127 c -0.507,-1.275 -1.262,-2.45 -2.244,-3.462 l 1.699,-1.7 c 1.202,1.231 2.129,2.66 2.755,4.211 l 0.298,-0.128 c -0.662,-1.637 -1.65,-3.141 -2.937,-4.427 -1.291,-1.291 -2.801,-2.282 -4.445,-2.944 l -0.118,0.301 c 1.555,0.626 2.987,1.554 4.22,2.759 l -1.699,1.7 c -0.995,-0.964 -2.148,-1.712 -3.399,-2.218 l -0.117,0.299 c 1.21,0.491 2.325,1.214 3.289,2.149 l -1.539,1.539 c -0.748,-0.72 -1.611,-1.279 -2.546,-1.661 l -0.117,0.299 c 0.895,0.367 1.72,0.901 2.436,1.589 l -1.699,1.699 c -0.478,-0.451 -1.025,-0.804 -1.615,-1.051 l -0.118,0.299 c 0.55,0.231 1.059,0.56 1.506,0.979 l -1.542,1.542 c -0.49,-0.439 -1.104,-0.693 -1.761,-0.729 l 0,-2.18 c 0.627,0.019 1.233,0.152 1.797,0.389 l 0.118,-0.299 c -0.6,-0.251 -1.247,-0.391 -1.914,-0.411 l 0,-2.404 c 0.973,0.02 1.916,0.217 2.793,0.577 l 0.117,-0.299 c -0.914,-0.374 -1.896,-0.579 -2.91,-0.599 l 0,-2.177 c 1.291,0.02 2.542,0.277 3.706,0.749 l 0.117,-0.299 c -1.201,-0.486 -2.492,-0.751 -3.823,-0.771 l 0,-2.404 c 1.637,0.02 3.225,0.342 4.701,0.937 l 0.118,-0.301 c -1.562,-0.629 -3.246,-0.96 -4.98,-0.96 -2.143,0 -4.168,0.511 -5.964,1.414 l 0.146,0.28 c 1.738,-0.871 3.66,-1.345 5.657,-1.369 l 0,2.404 c -1.628,0.024 -3.167,0.419 -4.539,1.101 l 0.146,0.28 c 1.352,-0.669 2.844,-1.036 4.393,-1.059 l 0,2.177 c -1.211,0.024 -2.356,0.315 -3.382,0.815 l 0.147,0.281 c 0.998,-0.485 2.096,-0.752 3.235,-0.775 l 0,2.404 c -0.755,0.022 -1.472,0.201 -2.119,0.505 l 0.148,0.282 c 0.612,-0.284 1.28,-0.444 1.971,-0.466 l 0,2.181 c -0.338,0.019 -0.661,0.096 -0.958,0.221 l 0.147,0.282 c 0.304,-0.125 0.633,-0.19 0.971,-0.19 0.685,0 1.329,0.267 1.813,0.751 0.484,0.484 0.751,1.128 0.751,1.813 0,1.414 -1.15,2.564 -2.564,2.564 -0.685,0 -1.329,-0.267 -1.813,-0.751 -0.484,-0.485 -0.751,-1.128 -0.751,-1.813 0,-0.685 0.267,-1.329 0.751,-1.813 0.245,-0.245 0.531,-0.433 0.842,-0.561 l -0.147,-0.282 c -0.295,0.125 -0.566,0.297 -0.802,0.508 l -1.543,-1.543 c 0.399,-0.374 0.847,-0.677 1.331,-0.902 l -0.148,-0.282 c -0.52,0.244 -0.995,0.569 -1.409,0.959 l -1.701,-1.701 c 0.597,-0.573 1.269,-1.039 1.994,-1.391 l -0.147,-0.281 c -0.765,0.373 -1.464,0.863 -2.072,1.447 l -1.542,-1.542 c 0.778,-0.755 1.656,-1.37 2.602,-1.838 l -0.146,-0.28 c -0.99,0.492 -1.894,1.132 -2.68,1.894 l -1.703,-1.703 c 0.976,-0.953 2.078,-1.731 3.265,-2.327 l -0.146,-0.28 c -2.595,1.304 -4.708,3.43 -5.995,6.04 l 0.279,0.151 c 0.6,-1.22 1.394,-2.352 2.37,-3.352 l 1.703,1.703 c -0.792,0.816 -1.454,1.759 -1.953,2.795 l 0.278,0.15 c 0.475,-0.992 1.111,-1.911 1.898,-2.722 l 1.542,1.542 c -0.621,0.646 -1.136,1.396 -1.517,2.219 l 0.279,0.15 c 0.359,-0.783 0.85,-1.507 1.462,-2.145 l 1.701,1.701 c -0.435,0.461 -0.789,0.999 -1.04,1.591 l 0.281,0.152 c 0.231,-0.555 0.562,-1.069 0.985,-1.518 l 1.543,1.542 c -0.423,0.473 -0.692,1.085 -0.73,1.76 l -2.181,0 c 0.019,-0.622 0.15,-1.224 0.383,-1.784 l -0.281,-0.152 c -0.254,0.598 -0.403,1.251 -0.423,1.936 l -2.404,0 c 0.022,-1.082 0.264,-2.126 0.704,-3.084 l -0.279,-0.15 c -0.457,0.987 -0.723,2.081 -0.746,3.234 l -2.177,0 c 0.023,-1.503 0.368,-2.953 1,-4.273 l -0.278,-0.15 c -0.647,1.343 -1.018,2.841 -1.042,4.424 l -2.404,0 c 0.024,-1.963 0.482,-3.855 1.325,-5.569 l -0.279,-0.151 c -0.876,1.775 -1.371,3.771 -1.371,5.881 0,1.291 0.184,2.552 0.536,3.757 l 0.315,-0.079 c -0.331,-1.129 -0.512,-2.31 -0.526,-3.517 l 2.404,0 c 0.015,1.01 0.17,1.991 0.455,2.93 l 0.312,-0.079 c -0.279,-0.914 -0.43,-1.871 -0.445,-2.851 l 2.176,0 c 0.016,0.798 0.147,1.577 0.384,2.318 l 0.312,-0.079 c -0.231,-0.716 -0.36,-1.468 -0.375,-2.24 l 2.404,0 c 0.017,0.571 0.122,1.126 0.309,1.651 l 0.312,-0.079 c -0.181,-0.499 -0.284,-1.028 -0.301,-1.572 l 2.181,0 c 0.036,0.656 0.29,1.271 0.729,1.76 l -1.542,1.542 c -0.476,-0.506 -0.836,-1.093 -1.067,-1.73 l -0.312,0.079 c 0.247,0.692 0.636,1.33 1.153,1.878 l -1.699,1.7 c -0.827,-0.861 -1.432,-1.881 -1.79,-2.989 l -0.312,0.079 c 0.372,1.164 1.01,2.234 1.876,3.138 l -1.539,1.539 c -1.151,-1.187 -1.982,-2.603 -2.452,-4.144 l -0.312,0.079 c 0.484,1.596 1.344,3.064 2.537,4.292 l -1.699,1.7 c -1.504,-1.541 -2.578,-3.391 -3.169,-5.405 l -0.315,0.079 c 0.62,2.12 1.762,4.063 3.368,5.669 1.087,1.087 2.33,1.963 3.677,2.608 l 0.16,-0.283 c -1.275,-0.608 -2.454,-1.426 -3.493,-2.441 l 1.699,-1.699 c 0.883,0.857 1.89,1.541 2.979,2.039 l 0.159,-0.281 c -1.064,-0.483 -2.048,-1.149 -2.911,-1.985 l 1.539,-1.539 c 0.721,0.694 1.55,1.238 2.446,1.619 l 0.158,-0.281 c -0.871,-0.366 -1.677,-0.891 -2.377,-1.564 l 1.7,-1.7 c 0.546,0.515 1.182,0.903 1.871,1.15 l 0.161,-0.284 c -0.665,-0.23 -1.279,-0.599 -1.805,-1.093 l 1.542,-1.542 c 0.49,0.439 1.104,0.693 1.76,0.729 l 0,2.181 c -0.517,-0.016 -1.021,-0.11 -1.498,-0.275 l -0.161,0.284 c 0.527,0.189 1.085,0.295 1.658,0.312 l 0,2.403 c -0.995,-0.02 -1.958,-0.226 -2.851,-0.6 l -0.158,0.281 c 0.942,0.4 1.959,0.621 3.01,0.641 l 0,2.177 c -1.432,-0.022 -2.815,-0.337 -4.084,-0.913 l -0.159,0.281 c 1.317,0.602 2.755,0.93 4.243,0.953 l 0,2.403 c -1.909,-0.023 -3.751,-0.456 -5.428,-1.255 l -0.16,0.283 c 1.772,0.848 3.726,1.297 5.748,1.297 2.122,0 4.166,-0.496 6.01,-1.427 l -0.152,-0.295 c -1.716,0.869 -3.648,1.371 -5.694,1.396 l 0,-2.403 c 1.622,-0.024 3.184,-0.413 4.595,-1.123 l -0.15,-0.291 c -1.341,0.676 -2.849,1.067 -4.445,1.092 l 0,-2.177 c 1.217,-0.023 2.389,-0.316 3.45,-0.845 l -0.149,-0.289 c -0.999,0.498 -2.117,0.789 -3.301,0.813 l 0,-2.403 c 0.775,-0.023 1.522,-0.209 2.201,-0.542 l -0.148,-0.288 c -0.624,0.305 -1.319,0.485 -2.053,0.508 l 0,-2.18 c 0.657,-0.036 1.271,-0.29 1.761,-0.729 l 1.54,1.54 c -0.369,0.346 -0.789,0.637 -1.248,0.861 l 0.148,0.288 c 0.481,-0.236 0.929,-0.543 1.329,-0.92 l 1.697,1.697 c -0.566,0.544 -1.216,1 -1.925,1.355 l 0.149,0.289 c 0.728,-0.363 1.404,-0.836 2.01,-1.415 l 1.536,1.536 c -0.748,0.726 -1.607,1.336 -2.546,1.809 l 0.15,0.291 c 0.954,-0.48 1.84,-1.105 2.627,-1.869 l 1.695,1.695 c -0.946,0.923 -2.033,1.701 -3.223,2.303 l 0.152,0.295 c 1.247,-0.631 2.402,-1.46 3.419,-2.478 1.069,-1.069 1.932,-2.289 2.574,-3.611 z"
         id="path21"
         inkscape:connector-curvature="0" />
      <path
         d="m -33.04,48.25 -0.148,0 -0.027,-0.3 0.081,-0.055 0,-0.15 -0.471,0 -0.013,-0.15 0.067,-0.041 -0.108,-0.041 -0.081,0.109 -0.027,0.123 -0.135,0.027 0,0.068 -0.094,0 0,0.177 -0.377,0.314 -0.753,-0.027 c -0.054,0.123 -0.189,-0.014 -0.189,-0.014 -0.027,-0.082 -0.215,0 -0.215,0 0,0.15 -0.256,-0.068 -0.256,-0.068 l -0.471,-0.341 c -0.269,-0.246 -0.672,0.068 -0.686,0.136 0.013,0.191 -0.309,0.041 -0.309,0.041 0,0 -0.269,-0.082 -0.309,0.027 -0.04,0.109 -0.215,0.082 -0.215,0.082 l -0.027,0.055 -0.135,0.027 -0.027,0.082 -0.161,0.027 0.403,-0.014 c 0.108,-0.014 -0.04,0.232 -0.107,0.218 l -0.188,0.014 -0.067,0.068 -0.175,0 -0.081,0.109 -0.255,-0.014 c 0,0 -0.148,0.123 -0.134,0.164 0.013,0.041 -0.027,0.164 -0.067,0.164 -0.04,0 -0.121,0.123 -0.094,0.164 0.027,0.041 -0.081,0.177 -0.081,0.177 l -0.027,0.137 -0.081,0.027 0,0.369 -0.161,0.109 0,0.164 -0.242,0.259 0.027,0.218 -0.202,0.218 0.027,0.218 -0.121,0.041 -0.027,0.096 -0.054,0.286 0.134,0.014 c 0.067,-0.027 0.054,0.177 0,0.205 -0.054,0.027 -0.202,0.082 -0.121,0.136 0.081,0.055 -0.215,0.041 -0.215,-0.041 0,-0.082 -0.161,-0.15 -0.202,-0.123 -0.04,0.027 -0.108,-0.123 -0.108,-0.123 -0.148,-0.15 -0.605,0.014 -0.605,0.014 l -0.067,0.218 c -0.148,0.027 -0.242,0.273 -0.242,0.273 -0.121,0.041 -0.215,0.191 -0.175,0.232 0.04,0.041 -0.067,0.055 -0.067,0.055 l 0,0.3 -0.067,0.096 0.013,0.327 c 0.081,0 0.067,0.15 0.067,0.15 -0.135,0.014 -0.108,0.191 -0.108,0.191 l -0.282,0.095 -0.054,0.082 -0.35,-0.014 -0.094,0.096 -0.094,-0.096 -0.672,0 -0.027,-0.068 -0.135,-0.027 -0.014,-0.15 -0.202,0.014 -0.04,0.082 -0.215,0.014 c 0.013,0.137 -0.215,0.341 -0.242,0.287 -0.027,-0.055 -0.175,-0.205 -0.108,-0.232 0.067,-0.027 0.242,-0.055 0.242,-0.055 l 0,-0.095 -0.498,-0.014 -0.054,0.082 -0.202,0.014 0,0.218 -0.094,0.027 c -0.067,0.041 0.013,0.191 0.013,0.191 0.094,0.095 -0.013,0.245 -0.013,0.245 -0.081,0.082 0.067,0.232 0.067,0.232 0.108,0.027 -0.067,0.109 -0.067,0.109 0.027,0.136 0.107,0.177 0.107,0.177 -0.081,0.136 0.054,0.205 0.054,0.205 l 0.013,0.232 0.094,0.055 0,0.15 0.054,0.096 0.215,0 -0.013,-0.341 c -0.188,-0.218 0.161,-0.273 0.175,-0.191 0.014,0.082 0.161,0.123 0.161,0.123 0.027,0.205 0.256,0.327 0.323,0.123 0.067,-0.205 0.121,-0.082 0.161,0.013 0.04,0.096 0.296,0.328 0.296,0.328 l 0.202,0 0.027,0.191 c 0.229,-0.014 0.296,0.014 0.39,0.327 0.094,0.314 0.35,0.396 0.35,0.396 l 0.188,-0.014 c 0,-0.163 0.188,0.028 0.188,0.11 0,0.082 0.363,0.395 0.363,0.395 l 0.363,0.082 0.337,0.273 0.255,-0.027 0.108,0 c 0.067,-0.232 0.39,0.013 0.417,0.095 0.027,0.082 0.242,0.218 0.269,0.15 0.027,-0.068 0.175,-0.027 0.202,0.177 0.027,0.205 0.121,0.164 0.121,0.164 l 0.767,-0.014 0.269,-0.232 0.686,-0.013 c 0.35,-0.014 0.134,-0.491 0.067,-0.491 -0.121,-0.095 0.04,-0.491 0.04,-0.491 l -0.982,-0.914 c -0.229,0 -0.027,-0.328 -0.027,-0.328 0.175,-0.109 -0.04,-0.286 -0.04,-0.286 0.027,-0.164 -0.094,-0.355 -0.094,-0.355 -0.242,-0.164 -0.175,-0.478 -0.175,-0.478 l 0,-0.218 c -0.202,-0.191 0.081,-0.218 0.081,-0.218 0.094,-0.163 -0.067,-0.286 -0.067,-0.286 l -0.013,-0.177 -0.215,-0.027 -0.027,-0.641 -0.484,-0.696 c -0.094,-0.028 -0.027,-0.191 -0.027,-0.191 0.121,-0.068 -0.027,-0.232 -0.027,-0.232 l -0.013,-0.3 0.282,-0.027 0.067,-0.109 0.134,0 -0.013,-0.355 c 0.067,-0.177 0.228,-0.082 0.228,-0.082 l 0.188,0.014 0.108,-0.205 0.027,-0.164 -0.148,-0.014 c -0.161,-0.096 -0.081,-0.45 -0.081,-0.45 0.255,-0.382 0.551,-0.164 0.551,-0.164 l 0.188,-0.014 c 0.282,0.191 0.027,0.546 0.027,0.546 -0.054,0.082 -0.027,0.341 -0.027,0.341 l 0.067,0.436 -0.175,0.15 c -0.148,0.082 -0.148,0.273 0.014,0.314 0.107,0.014 0.067,0.273 -0.094,0.095 -0.242,0 0.135,0.218 0.027,0.164 0.242,0.123 0.188,-0.109 0.188,-0.109 l 0.323,-0.259 c 0.121,-0.095 0.336,0.205 0.336,0.246 0,0.041 0.538,0.014 0.538,0.014 0.148,0.096 0.202,0.341 0.202,0.341 0.148,-0.191 0.457,-0.014 0.229,0.095 0.215,0.136 0.215,0.259 0.215,0.259 0.175,-0.055 0.175,0.082 0.175,0.123 0,0.041 0.054,-0.205 0.054,-0.205 -0.202,-0.15 0.269,-0.205 0.135,0.068 l -0.081,0.123 0.135,0.109 0.013,0.314 c 0.296,-0.027 0.215,-0.396 0.215,-0.396 l 0.134,-0.027 c 0,-0.123 0.094,-0.055 0.094,-0.055 -0.094,-0.464 0.215,-0.546 0.215,-0.546 0.175,-0.041 0.188,-0.41 0.188,-0.41 -0.121,-0.055 -0.054,-0.245 0.081,-0.082 0.134,0.163 -0.081,-0.328 -0.081,-0.328 l -0.107,-0.095 -0.148,-0.014 -0.014,-0.15 -0.242,0 -0.04,0.191 -0.094,0.027 -0.027,-0.055 -0.04,0.15 -0.242,0 -0.013,-0.164 0.148,-0.041 0.054,-0.082 0.04,-0.218 0.175,0 0.229,-0.068 c 0.013,-0.232 0.134,-0.177 0.134,-0.177 l 0.081,0.068 0.121,0.096 0.014,0.082 -0.081,0.041 -0.013,0.109 0.04,0.15 0.107,0 c 0.04,-0.218 0.323,-0.218 0.403,-0.082 l 0.081,-0.191 c -0.188,-0.096 -0.004,-0.246 0.05,-0.177 0.054,0.068 0.178,-0.177 0.178,-0.177 0,0 0.094,0.123 0,-0.041 -0.094,-0.164 0.067,-0.246 0.067,-0.246 -0.027,-0.164 0.175,-0.136 0.175,-0.136 l 0.014,-0.218 -0.188,-0.014 c -0.04,0.191 -0.202,0.027 -0.121,-0.014 0.081,-0.041 0.161,-0.123 0.161,-0.123 l 0,-0.136 0.081,-0.027 0.013,-0.136 0.202,0 0.175,-0.082 0.04,-0.068 0.188,-0.014 0.269,-0.246 -0.027,-0.109 c -0.161,0 0,-0.123 0,-0.123 l 0.027,-0.204"
         id="path23"
         inkscape:connector-curvature="0" />
      <path
         d="m -33.27,50.788 0,-0.191 -0.027,-0.177 -0.201,-0.095 -0.148,0.136 -0.027,0.191 0,0.123 -0.134,0.027 -0.027,0.368 -0.107,0.041 0.013,0.136 -0.148,0.041 -0.148,0.041 -0.027,0.177 -0.107,0.068 -0.054,0.164 -0.067,0.396 c 0,0 0.121,0.232 0.188,0.123 0.067,-0.109 0.175,-0.123 0.175,-0.123 l 0.04,-0.096 0.363,0.014 c 0.027,-0.15 0.202,-0.095 0.202,-0.027 0,0.068 0.135,0.014 0.135,0.014 l 0.094,-0.15 0.148,0 0.013,-0.164 0.067,-0.041 0,-0.246 c 0.215,-0.068 0.188,-0.273 0.188,-0.273 l 0.054,-0.068 -0.027,-0.095 c -0.108,-0.041 -0.054,-0.137 0.013,-0.109 0.067,0.027 -0.094,-0.123 -0.094,-0.123 -0.081,0.068 -0.148,-0.082 -0.148,-0.082 l -0.202,0"
         id="path25"
         inkscape:connector-curvature="0" />
      <path
         d="m -28.04,41.02 c -0.039,0.119 -0.054,0.287 -0.121,0.287 -0.067,0 -0.04,0.178 -0.04,0.178 0,0 0.175,0 0.229,0.014 0.054,0.014 0.054,0.15 0.054,0.15 0.202,-0.014 0.283,0.259 0.256,0.328 -0.027,0.068 0.081,0.068 0.081,0.068 0,0 0,0.218 -0.027,0.273 -0.027,0.055 0.175,0.096 0.229,0.177 0.054,0.082 -0.027,0.355 -0.067,0.368 -0.04,0.014 0.107,0.055 0.094,0.123 -0.014,0.068 0.04,0 0.054,0.109 0.013,0.109 0.04,0.341 0.04,0.341 l 0.188,0.014 c 0.027,-0.177 0.374,-0.184 0.43,-0.164 0.229,0.082 0.404,0.437 0.404,0.518 0,0.082 -0.148,0.096 -0.148,0.096 l 0.027,0.396 c 0.228,0.068 0.417,0.396 0.39,0.45 -0.027,0.055 0.161,0.041 0.161,0.041 0.027,-0.246 0.256,-0.164 0.269,-0.082 0.014,0.082 0.054,0.259 0.054,0.259 l 0.067,0.123 0.094,0.096 0.148,-0.014 0.04,0.082 0.175,0.027 c 0,0 0.148,0.164 0.161,0.205 0.014,0.041 0.215,0.027 0.269,0.041 0.054,0.014 0.135,0.055 0.148,0.123 0.014,0.068 0.094,0.177 0.094,0.177 0,0 0.161,0.041 0.175,0.096 0.013,0.054 0.081,0.177 0.081,0.177 l 0.134,0.109 0.014,0.123 0.148,0.014 0.04,0.164 0.242,-0.014 0.135,-0.096 c 0.175,-0.095 0.296,-0.218 0.309,-0.273 0.013,-0.055 0.04,-0.259 0.175,-0.218 0.134,0.041 0.04,-0.3 0.04,-0.3 0,0 -0.188,-0.136 -0.175,-0.205 0.014,-0.068 -0.188,-0.205 -0.175,-0.259 0.013,-0.055 -0.175,-0.164 -0.161,-0.218 0.013,-0.055 -0.094,-0.205 -0.094,-0.205 l -0.202,-0.191 -0.027,-0.123 -0.161,-0.014 -0.323,-0.396 0.013,-0.109 -0.094,-0.014 0,-0.15 -0.094,-0.055 -0.148,-0.014 -0.296,-0.327 -0.027,-0.15 -0.148,0 0.027,-0.287 c 0.094,-0.123 0.04,-0.355 0.04,-0.355 0,0 -0.188,0.096 -0.282,0.055 -0.094,-0.041 0.04,-0.136 0.04,-0.136 l 0,-0.109 -0.081,-0.082 c 0,0 -0.229,0.027 -0.242,-0.014 -0.014,-0.041 -0.054,-0.218 -0.054,-0.218 l -0.014,-0.232 -0.094,-0.041 -0.014,-0.082 -0.148,0.014 0,-0.164 -0.081,-0.027 -0.081,-0.041 -0.013,-0.164 -0.296,-0.014 -0.094,-0.136 -0.107,-0.164 -0.336,-0.027 -0.081,-0.082 -0.134,-0.027 -0.094,-0.041 -0.04,0.068 -0.256,0.014 -0.013,0.082 c -0.134,0.068 -0.672,0.014 -0.686,0.054"
         id="path27"
         inkscape:connector-curvature="0" />
      <path
         d="m -25.18,48.659 c -0.054,0.055 -0.175,0.082 -0.175,0.082 l -0.04,0.15 -0.067,0.055 c 0,0 0.013,0.041 0,0.136 -0.014,0.095 -0.135,0.15 -0.135,0.15 l -0.054,0.068 c 0,0 -0.324,0.018 -0.363,0 -0.121,-0.055 -0.04,-0.218 0.04,-0.205 0.081,0.014 -0.014,-0.232 -0.014,-0.232 l 0.108,-0.014 c 0,0 0.013,-0.246 0.054,-0.246 0.04,0 -0.013,-0.082 -0.067,-0.123 -0.054,-0.041 -0.121,-0.177 -0.175,-0.164 -0.054,0.014 -0.269,0 -0.269,0 l -0.04,0.082 -0.148,0.027 c 0,0 0.013,0.106 -0.013,0.137 -0.081,0.095 -0.39,0.3 -0.256,-0.041 l 0.04,-0.082 0,-0.123 -0.242,-0.014 c 0,0 -0.121,-0.041 -0.121,-0.096 0,-0.055 -0.014,-0.123 -0.014,-0.123 l -0.282,-0.314 -0.336,-0.041 -0.027,-0.068 -0.201,-0.027 c -0.242,-0.123 -0.457,-0.014 -0.417,0.191 0.04,0.205 0.107,0.287 -0.027,0.287 -0.135,0 -0.161,-0.109 -0.161,-0.109 0,0 -0.107,-0.041 -0.107,0.014 0,0.055 -0.04,0.164 0,0.218 0.04,0.055 -0.054,0.136 -0.094,0.096 -0.04,-0.041 -0.148,-0.164 -0.121,-0.205 0.027,-0.041 -0.188,-0.3 0.027,-0.341 0.215,-0.041 -0.013,-0.164 0.067,-0.191 l 0.107,-0.055 0.107,0 0.067,-0.055 -0.175,-0.027 -0.107,-0.014 -0.202,-0.014 c -0.202,0.136 -0.242,0.3 -0.242,0.3 -0.108,0.205 -0.363,-0.082 -0.269,-0.191 0.094,-0.109 -0.296,-0.014 -0.363,0.041 -0.067,0.055 -0.269,0.027 -0.269,0.027 -0.04,0.123 -0.228,-0.014 -0.175,-0.095 0.054,-0.082 0.054,-0.136 0.054,-0.136 l -0.067,-0.014 -0.081,0.15 c -0.188,0 -0.242,0.109 -0.202,0.177 0.04,0.068 -0.054,-0.014 -0.081,0.082 -0.027,0.096 0.014,0.096 0.094,0.136 0.081,0.041 -0.04,0.041 0.013,0.109 0.054,0.068 0.215,0 0.121,0.096 -0.094,0.095 -0.283,0.055 -0.283,0.055 -0.013,0.123 -0.269,0.095 -0.296,0.055 -0.027,-0.041 -0.229,-0.287 -0.229,-0.287 l -0.256,-0.014 c -0.027,-0.191 0.121,-0.096 0.175,-0.246 0.054,-0.15 0.081,-0.396 0.081,-0.396 0,0 -0.215,-0.014 -0.229,0.055 -0.013,0.068 -0.148,0.109 -0.148,0.109 0,0 -0.108,0.041 -0.067,0.096 0.04,0.055 -0.081,0.082 -0.081,0.082 0,0 0.021,0.088 -0.013,0.123 -0.107,0.109 -0.377,0.014 -0.417,-0.027 l -0.161,-0.068 -0.161,-0.109 -0.188,0.082 -0.054,0.055 -0.202,0 -0.013,0.164 0.363,0.041 0.027,0.338 -0.148,-0.051 -0.094,0 -0.04,-0.082 -0.081,-0.014 0,0.3 0.081,0.068 0.067,0.068 0.134,0.014 0.027,0.164 0.336,0.014 0.04,0.068 0.202,0.014 0.39,0.396 -0.027,0.123 -0.067,0.041 c 0.027,0.096 -0.175,0.041 -0.175,0.041 l 0,0.082 0.094,0.014 0.094,0.055 0.134,-0.232 c 0.148,-0.096 0.215,0.041 0.229,0.123 0.013,0.082 -0.067,0.068 -0.067,0.068 l 0,0.191 0.081,0.027 c 0.135,0.164 -0.054,0.259 -0.054,0.259 l -0.04,0.136 c -0.04,0.123 -0.188,0.095 -0.188,0.095 l -0.054,0.082 -0.162,0.041 0.319,0.041 c 0.03,-0.109 0.111,-0.136 0.151,-0.082 0.04,0.055 0.04,0.15 0.04,0.15 l 0.081,0.014 -0.014,0.15 0.081,0.027 0,0.437 0.094,0.109 c 0.161,-0.068 0.161,0.041 0.081,0.096 -0.081,0.054 -0.027,0.3 -0.027,0.3 l -0.067,0.068 0,0.109 -0.081,0.055 0,0.15 c -0.135,-0.068 -0.296,-0.041 -0.336,0 -0.121,-0.082 -0.376,-0.055 -0.376,0.014 0.081,0.109 -0.094,0.136 -0.094,0.136 l -0.094,0.109 c 0.067,0.137 -0.067,0.15 -0.067,0.15 l 0,0.259 -0.161,0.15 0.014,0.355 c 0,0.096 0.202,0.109 0.242,0.055 0.04,-0.055 0.202,0.109 0.202,0.109 l 0.121,0 0.027,-0.246 -0.081,-0.041 0,-0.396 0.135,-0.15 c 0.161,-0.055 0.108,0.355 0.108,0.396 0.013,0.15 0.08,0.136 0.148,0.109 0.134,-0.055 0.027,0.15 -0.081,0.136 -0.107,-0.014 -0.04,0.136 -0.04,0.136 l 0.067,0.027 -0.121,0.096 -0.107,0.123 -0.135,-0.041 -0.161,-0.014 -0.054,-0.096 -0.094,-0.014 -0.013,0.191 -0.067,0.082 -0.161,0.164 c 0.215,0 -0.027,0.15 -0.081,0.15 0.121,0.041 -0.013,0.164 -0.323,0.068 l 0,0.095 -0.108,0.014 0.094,0.109 0.107,0.014 -0.04,0.232 c 0,0.177 -0.444,0.054 -0.484,0.014 l -0.013,0.246 -0.081,0.013 0.013,0.164 -0.013,0.232 0.148,-0.027 0,0.096 0.363,0.014 0.524,-0.56 0.309,-0.068 c 0.027,-0.137 0.161,0.027 0.161,0.027 0.135,-0.014 0.161,0.082 0.161,0.082 l 0.175,0.027 c 0.148,0.041 0.058,0.055 0.067,0.109 0.013,0.082 0.081,0.054 0.081,0.054 l 0.027,-0.177 0.081,0.014 -0.081,-0.096 -0.148,-0.068 -0.161,-0.068 c -0.108,-0.15 0.027,-0.123 0.135,-0.109 l 0.175,0 c 0,0 0.202,0.273 0.202,0.341 0,0.068 0.094,0.082 0.094,0.082 l 0.121,-0.014 0.04,0.095 0.121,0 0.04,0.082 0.242,0 0.013,-0.123 -0.229,-0.041 -0.013,-0.137 -0.161,-0.041 c -0.054,-0.232 0.04,-0.3 0.107,-0.191 l 0.081,0.013 -0.027,-0.205 0.094,-0.027 -0.027,-0.287 -0.081,-0.027 0,-0.096 0.336,0.014 c -0.027,-0.178 0.014,-0.259 0.014,-0.259 l 0.094,0 0.013,0.068 0.411,0.039 0.291,-0.334 c -0.015,-0.025 0.029,-0.041 -0.003,-0.074 -0.04,-0.041 -0.094,0 -0.162,-0.041 -0.067,-0.041 0,-0.273 -0.013,-0.327 -0.013,-0.055 0.229,-0.137 0.188,-0.014 -0.04,0.123 0,0.177 0,0.177 0.175,-0.164 0.323,0.014 0.309,0.055 -0.014,0.041 0.094,0.082 0.161,0.041 0.067,-0.041 0.148,0.123 0.121,0.205 -0.027,0.082 -0.269,0.068 -0.282,-0.014 -0.014,-0.082 -0.054,-0.055 -0.081,-0.014 -0.027,0.041 -0.148,0.068 -0.215,0.027 -0.014,-0.008 -0.02,-0.015 -0.024,-0.022 l -0.291,0.334 0.019,0.002 c 0.161,0.096 0.081,0.218 0.027,0.246 -0.054,0.027 -0.148,0.027 -0.148,0.027 l -0.027,0.055 -0.35,0.027 -0.027,0.137 c -0.175,-0.028 -0.242,0.164 -0.202,0.259 0.04,0.095 0,0.177 0,0.177 l 0.148,0.068 0.188,-0.054 c 0.027,-0.137 0.148,-0.164 0.256,-0.246 0.107,-0.082 0.282,0.15 0.228,0.259 -0.054,0.109 -0.054,0.15 -0.054,0.15 l 0.013,0.123 -0.134,0.054 -0.107,0.055 -0.014,0.068 -0.363,0 -0.067,0.068 -0.175,0.014 -0.054,0.082 -0.121,0.014 c 0,0 -0.202,0.096 -0.121,0.205 0.081,0.109 -0.336,0.096 -0.43,-0.055 -0.027,0.136 -0.175,0.014 -0.175,0.014 l -0.148,-0.041 -0.013,-0.204 c -0.027,-0.137 -0.282,-0.137 -0.269,-0.041 0.013,0.096 -0.484,0.041 -0.484,0.041 l -0.161,0.078 -0.148,0.085 -0.013,0.068 -0.242,0.027 -0.107,0.055 -0.04,-0.082 -0.107,0 -0.108,0.15 c -0.282,0.014 -0.551,0.177 -0.524,0.246 0.027,0.068 -0.107,0.137 -0.107,0.137 l -0.121,0.04 -0.08,0.123 -0.161,0.055 -0.027,0.287 -0.08,0.054 0,0.123 -0.094,0.027 0,0.068 -0.134,0.014 0.08,0.205 0.108,0.055 c 0.188,0.027 0.107,0.259 0.107,0.259 l 0.107,0.013 0.054,0.15 0.107,0.218 c 0.04,0.164 0.161,0.123 0.215,0.109 0.054,-0.013 0.107,0.164 0.107,0.164 l 0.538,0.014 c 0,0 -0.027,0.055 0.067,0.082 0.094,0.027 0.713,0.055 0.74,0.014 -0.027,-0.123 0.336,-0.15 0.484,-0.041 0.148,0.109 0.35,0.041 0.35,0.041 l 0.202,0.245 0.135,0.3 0.228,0.068 0.161,0.041 0.054,0.232 0.121,0.014 0.04,0.15 c 0.148,0.109 -0.04,0.341 -0.04,0.341 l 0,0.3 0.108,0.055 -0.014,0.109 0.175,0.177 0.202,0.014 0.511,0.546 0.403,0.123 0.067,0.218 0.108,-0.014 0.081,-0.068 0.323,-0.014 0.161,-0.15 0.175,-0.027 1.492,-1.269 -0.135,-0.082 0,-0.3 c 0.242,-0.177 0.256,-0.491 0.027,-0.519 -0.173,-0.021 -0.094,-0.205 0.067,-0.232 l 0.094,-0.041 0,-0.123 0.309,-0.286 0,-0.218 -0.672,-0.56 c -0.296,-0.109 0,-0.764 0.201,-0.75 0.202,0.013 -0.013,-1.01 -0.013,-1.01 l -0.108,-0.054 0.027,-0.328 -0.148,0 -0.242,0.314 -0.067,0.218 c -0.027,0.287 -0.861,0.232 -0.901,0.191 -0.04,-0.041 -0.323,-0.164 -0.323,-0.164 0,0 -0.215,-0.177 -0.256,-0.123 -0.04,0.055 -0.228,-0.068 -0.228,-0.027 0,0.041 -0.175,-0.095 -0.175,-0.095 l -0.269,-0.096 0.202,-0.041 -0.04,-0.164 0.349,0.177 c 0.04,0.054 0.215,0.041 0.215,0.041 l 0.054,0.068 c 0,0 0.108,-0.014 0.175,0.068 0.067,0.082 0.417,0.014 0.417,0.014 l 0.094,0.082 0.148,0.055 0.417,0.014 0.013,-0.259 0.081,-0.082 -0.014,-0.164 0.094,-0.082 0,-0.136 0.081,-0.027 0.013,-0.3 0.067,-0.014 0,-0.655 -0.202,-0.191 c -0.013,0.068 -0.228,0.068 -0.228,0.068 0,0 -0.054,0.095 -0.094,0.095 -0.04,0 0.054,0.123 0.027,0.205 -0.027,0.082 -0.134,0.082 -0.134,0.082 l -0.202,0.055 -0.054,0.068 -0.215,0 -0.027,-0.177 0.242,-0.068 0.134,-0.068 0.067,-0.137 c 0.013,-0.136 0.175,-0.123 0.175,-0.123 0,0 0.309,-0.259 0.323,-0.382 0.014,-0.123 0.121,-0.464 0.309,-0.464 l 0.35,0 c 0.134,-0.055 0.094,-0.232 0.094,-0.232 l 0.175,-0.027 0.027,0.096 c 0,0 0.242,0.027 0.269,-0.014 0.027,-0.041 0.081,-0.136 0.148,-0.096 0.067,0.041 0.282,-0.096 0.282,-0.096 0.013,-0.096 0.35,-0.055 0.35,-0.055 l 0.04,-0.123 c 0,0 -0.229,-0.314 -0.269,-0.314 -0.04,0 -0.256,-0.191 -0.282,-0.123 -0.215,-0.055 -0.202,-0.355 -0.202,-0.355 l -0.081,-0.191 c 0,-0.109 -0.201,-0.341 -0.242,-0.314 -0.202,-0.15 -0.054,-0.328 0,-0.341 0.054,-0.014 0.188,-0.205 0.188,-0.205 l 0.067,-0.191 0.229,-0.068 0.027,-0.177 -0.121,-0.014 c 0,0 0.134,-0.246 0.202,-0.246 0.067,0 0.511,0 0.551,-0.027 0.04,-0.027 0.121,-0.245 0.121,-0.286 0,-0.041 0.108,-0.055 0.148,-0.068 0.04,-0.014 0.134,-0.123 0.161,-0.177 0.027,-0.055 -0.067,-0.396 -0.121,-0.342"
         id="path29"
         inkscape:connector-curvature="0" />
    </g>
  </g>
</svg>
