<?xml version="1.0" encoding="UTF-8" standalone="no"?>
<svg
   xmlns:dc="http://purl.org/dc/elements/1.1/"
   xmlns:cc="http://creativecommons.org/ns#"
   xmlns:rdf="http://www.w3.org/1999/02/22-rdf-syntax-ns#"
   xmlns:svg="http://www.w3.org/2000/svg"
   xmlns="http://www.w3.org/2000/svg"
   xmlns:xlink="http://www.w3.org/1999/xlink"
   xmlns:sodipodi="http://sodipodi.sourceforge.net/DTD/sodipodi-0.dtd"
   xmlns:inkscape="http://www.inkscape.org/namespaces/inkscape"
   viewBox="0 0 32 32"
   id="svg2"
   version="1.1"
   inkscape:version="0.91 r13725"
   sodipodi:docname="preferences-desktop-online-accounts.svg"
   width="32"
   height="32">
  <metadata
     id="metadata83">
    <rdf:RDF>
      <cc:Work
         rdf:about="">
        <dc:format>image/svg+xml</dc:format>
        <dc:type
           rdf:resource="http://purl.org/dc/dcmitype/StillImage" />
        <dc:title></dc:title>
      </cc:Work>
    </rdf:RDF>
  </metadata>
  <sodipodi:namedview
     pagecolor="#ffffff"
     bordercolor="#666666"
     borderopacity="1"
     objecttolerance="10"
     gridtolerance="10"
     guidetolerance="10"
     inkscape:pageopacity="0"
     inkscape:pageshadow="2"
     inkscape:window-width="1920"
     inkscape:window-height="1134"
     id="namedview81"
     showgrid="false"
     inkscape:zoom="4.9166667"
     inkscape:cx="-32.338983"
     inkscape:cy="24"
     inkscape:window-x="1920"
     inkscape:window-y="0"
     inkscape:window-maximized="1"
     inkscape:current-layer="svg2" />
  <defs
     id="defs4">
    <clipPath
       id="clipPath6">
      <path
         d="m -24,13 c 0,1.105 -0.672,2 -1.5,2 -0.828,0 -1.5,-0.895 -1.5,-2 0,-1.105 0.672,-2 1.5,-2 0.828,0 1.5,0.895 1.5,2"
         transform="matrix(15.33333,0,0,11.5,415,-125.5)"
         id="path8"
         inkscape:connector-curvature="0"
         style="fill:#1890d0" />
    </clipPath>
    <clipPath
       id="clipPath10">
      <path
         transform="matrix(15.33333,0,0,11.5,415,-125.5)"
         d="m -24,13 c 0,1.105 -0.672,2 -1.5,2 -0.828,0 -1.5,-0.895 -1.5,-2 0,-1.105 0.672,-2 1.5,-2 0.828,0 1.5,0.895 1.5,2"
         id="path12"
         inkscape:connector-curvature="0"
         style="fill:#1890d0" />
    </clipPath>
    <clipPath
       id="clipPath14">
      <path
         transform="matrix(15.33333,0,0,11.5,415,-125.5)"
         d="m -24,13 c 0,1.105 -0.672,2 -1.5,2 -0.828,0 -1.5,-0.895 -1.5,-2 0,-1.105 0.672,-2 1.5,-2 0.828,0 1.5,0.895 1.5,2"
         id="path16"
         inkscape:connector-curvature="0"
         style="fill:#1890d0" />
    </clipPath>
    <clipPath
       id="clipPath18">
      <path
         d="m -24,13 c 0,1.105 -0.672,2 -1.5,2 -0.828,0 -1.5,-0.895 -1.5,-2 0,-1.105 0.672,-2 1.5,-2 0.828,0 1.5,0.895 1.5,2"
         transform="matrix(15.33333,0,0,11.5,415,-125.5)"
         id="path20"
         inkscape:connector-curvature="0"
         style="fill:#1890d0" />
    </clipPath>
    <clipPath
       id="clipPath22">
      <path
         d="m -24,13 c 0,1.105 -0.672,2 -1.5,2 -0.828,0 -1.5,-0.895 -1.5,-2 0,-1.105 0.672,-2 1.5,-2 0.828,0 1.5,0.895 1.5,2"
         transform="matrix(15.33333,0,0,11.5,415,-125.5)"
         id="path24"
         inkscape:connector-curvature="0"
         style="fill:#1890d0" />
    </clipPath>
    <clipPath
       id="clipPath26">
      <path
         transform="matrix(15.33333,0,0,11.5,415,-125.5)"
         d="m -24,13 c 0,1.105 -0.672,2 -1.5,2 -0.828,0 -1.5,-0.895 -1.5,-2 0,-1.105 0.672,-2 1.5,-2 0.828,0 1.5,0.895 1.5,2"
         id="path28"
         inkscape:connector-curvature="0"
         style="fill:#1890d0" />
    </clipPath>
    <clipPath
       id="clipPath30">
      <path
         d="m -24,13 c 0,1.105 -0.672,2 -1.5,2 -0.828,0 -1.5,-0.895 -1.5,-2 0,-1.105 0.672,-2 1.5,-2 0.828,0 1.5,0.895 1.5,2"
         transform="matrix(15.33333,0,0,11.5,415,-125.5)"
         id="path32"
         inkscape:connector-curvature="0"
         style="fill:#1890d0" />
    </clipPath>
    <clipPath
       id="clipPath34">
      <path
         d="m -24,13 c 0,1.105 -0.672,2 -1.5,2 -0.828,0 -1.5,-0.895 -1.5,-2 0,-1.105 0.672,-2 1.5,-2 0.828,0 1.5,0.895 1.5,2"
         transform="matrix(15.33333,0,0,11.5,415,-125.5)"
         id="path36"
         inkscape:connector-curvature="0"
         style="fill:#1890d0" />
    </clipPath>
    <linearGradient
       gradientUnits="userSpaceOnUse"
       y2="517.29999"
       x2="0"
       y1="546.29999"
       xlink:href="#4"
       id="linearGradient38" />
    <linearGradient
       gradientUnits="userSpaceOnUse"
       y1="545.62"
       x2="0"
       y2="517.62"
       id="linearGradient40">
      <stop
         stop-color="#e3e3e3"
         id="stop42" />
      <stop
         offset="1"
         stop-color="#fcf9f9"
         id="stop44" />
    </linearGradient>
    <linearGradient
       y2="545.81"
       x2="0"
       y1="515.23999"
       gradientUnits="userSpaceOnUse"
       id="3"
       xlink:href="#4" />
    <linearGradient
       gradientUnits="userSpaceOnUse"
       y2="517.62"
       x2="0"
       y1="545.62"
       id="2">
      <stop
         stop-color="#d3d3d3"
         id="stop48" />
      <stop
         offset="1"
         stop-color="#fcf9f9"
         id="stop50" />
    </linearGradient>
    <linearGradient
       gradientUnits="userSpaceOnUse"
       x2="47"
       x1="0"
       id="linearGradient52">
      <stop
         stop-color="#a9a3d4"
         id="stop54" />
      <stop
         offset=".47"
         stop-color="#87baff"
         id="stop56" />
      <stop
         offset="1"
         stop-color="#89ec85"
         id="stop58" />
    </linearGradient>
    <linearGradient
       gradientUnits="userSpaceOnUse"
       x2="11.758"
       x1="2.819"
       xlink:href="#0"
       id="linearGradient60" />
    <linearGradient
       id="4">
      <stop
         stop-color="#00cafe"
         id="stop63" />
      <stop
         offset="1"
         stop-color="#1460f3"
         id="stop65" />
    </linearGradient>
    <linearGradient
       gradientUnits="userSpaceOnUse"
       y2="517.21997"
       x2="0"
       y1="545.21997"
       id="1"
       xlink:href="#0" />
    <linearGradient
       id="0">
      <stop
         stop-color="#333538"
         id="stop69" />
      <stop
         offset="1"
         stop-color="#566069"
         id="stop71" />
    </linearGradient>
  </defs>
  <g
     transform="matrix(0.60869405,0,0,0.60869405,-232.6898,-302.83396)"
     id="g73"
     style="stroke-width:1.31700003">
    <circle
       r="14"
       cy="531.79999"
       cx="400.57001"
       transform="matrix(1.56997,0,0,1.56997,-220.32,-311.11)"
       id="circle75"
       style="fill:url(#3);stroke:url(#3);stroke-width:1.29999995" />
    <path
       d="m 391.84,540.91 c -0.421,-0.329 -0.949,-0.524 -1.523,-0.524 -1.351,0 -2.451,1.084 -2.485,2.435 -1.395,0.526 -2.388,1.88 -2.388,3.466 0,1.874 1.385,3.423 3.182,3.667 l 0,0.034 12.73,0 0,-0.006 c 1.775,-0.104 3.182,-1.584 3.182,-3.395 0,-1.747 -1.309,-3.186 -2.994,-3.379 0.007,-0.106 0.011,-0.214 0.011,-0.322 0,-2.707 -2.271,-4.901 -5.072,-4.901 -2.073,0 -3.856,1.202 -4.643,2.925"
       transform="matrix(1.67588,0,0,1.68488,-253.38,-392.76)"
       id="path77"
       inkscape:connector-curvature="0"
       style="fill:#ffffff;fill-opacity:0.847" />
  </g>
</svg>
