<?xml version="1.0" encoding="UTF-8" standalone="no"?>
<!-- Created with Inkscape (http://www.inkscape.org/) -->

<svg
   xmlns:dc="http://purl.org/dc/elements/1.1/"
   xmlns:cc="http://creativecommons.org/ns#"
   xmlns:rdf="http://www.w3.org/1999/02/22-rdf-syntax-ns#"
   xmlns:svg="http://www.w3.org/2000/svg"
   xmlns="http://www.w3.org/2000/svg"
   xmlns:sodipodi="http://sodipodi.sourceforge.net/DTD/sodipodi-0.dtd"
   xmlns:inkscape="http://www.inkscape.org/namespaces/inkscape"
   id="svg4153"
   version="1.1"
   inkscape:version="0.91 r13725"
   width="128"
   height="128"
   sodipodi:docname="user-none.svg"
   viewBox="0 0 128 128">
  <metadata
     id="metadata4159">
    <rdf:RDF>
      <cc:Work
         rdf:about="">
        <dc:format>image/svg+xml</dc:format>
        <dc:type
           rdf:resource="http://purl.org/dc/dcmitype/StillImage" />
        <dc:title></dc:title>
      </cc:Work>
    </rdf:RDF>
  </metadata>
  <defs
     id="defs4157">
    <style
       type="text/css"
       id="current-color-scheme">
      .ColorScheme-Text {
        color:#202020;
      }
      .ColorScheme-Background {
        color:#ffffff;
      }
      .ColorScheme-Highlight {
        color:#009bff;
      }
      .ColorScheme-ViewText {
        color:#202020;
      }
      .ColorScheme-ViewBackground {
        color:#ffffff;
      }
      .ColorScheme-ViewHover {
        color:#2dacff;
      }
      .ColorScheme-ViewFocus{
        color:#009bff;
      }
      .ColorScheme-ButtonText {
        color:#202020;
      }
      .ColorScheme-ButtonBackground {
        color:#ffffff;
      }
      .ColorScheme-ButtonHover {
        color:#2dacff;
      }
      .ColorScheme-ButtonFocus{
        color:#009bff;
      }
      </style>
  </defs>
  <sodipodi:namedview
     pagecolor="#ffffff"
     bordercolor="#666666"
     borderopacity="1"
     objecttolerance="10"
     gridtolerance="10000"
     guidetolerance="10"
     inkscape:pageopacity="0"
     inkscape:pageshadow="2"
     inkscape:window-width="1920"
     inkscape:window-height="1134"
     id="namedview4155"
     inkscape:document-units="px"
     showgrid="true"
     inkscape:showpageshadow="false"
     borderlayer="true"
     inkscape:zoom="1.9999999"
     inkscape:cx="-169.64143"
     inkscape:cy="-71.175743"
     inkscape:window-x="1920"
     inkscape:window-y="0"
     inkscape:window-maximized="1"
     inkscape:current-layer="svg4153">
    <inkscape:grid
       type="xygrid"
       id="grid898" />
  </sodipodi:namedview>
  <inkscape:clipboard
     style="opacity:0.01000001;fill:#00000f;fill-opacity:0;stroke-width:1;stroke-linecap:butt;stroke-linejoin:miter;stroke-miterlimit:4;stroke-dasharray:none;stroke-dashoffset:0;stroke-opacity:1;stroke:none"
     min="0,0"
     max="22,22" />
  <g
     style="clip-rule:evenodd;fill-rule:evenodd;stroke-linejoin:round;stroke-miterlimit:1.41420996"
     id="user-identity"
     transform="translate(0,106)">
    <path
       inkscape:connector-curvature="0"
       id="path2"
       style="color:#202020;fill:#ee4a50;fill-opacity:1;stroke:none"
       d="m 17.333334,4.666667 87.499996,0 c 0,0 0,-17.5 0,-17.5 0,-12.88 -10.45333,-23.333334 -23.33333,-23.333334 l -34.999999,0 c -12.88,0 -23.333334,10.453334 -23.333334,23.333334 l 0,17.5 c 0,0 -5.833333,0 -5.833333,0 l 0,-17.5 C 17.333334,-28.933333 30.4,-42 46.5,-42 l 35,0 c 16.1,0 29.16667,13.066667 29.16667,29.166667 l 0,23.333333 -93.333336,0 z M 64,-94.5 c 12.88,0 23.333334,10.453333 23.333334,23.333333 0,12.88 -10.453334,23.333334 -23.333334,23.333334 -12.879999,0 -23.333333,-10.453334 -23.333333,-23.333334 C 40.666667,-84.046667 51.120001,-94.5 64,-94.5 Z m 0,5.833333 c 9.66,0 17.5,7.84 17.5,17.5 0,9.66 -7.84,17.5 -17.5,17.5 -9.66,0 -17.5,-7.84 -17.5,-17.5 0,-9.66 7.84,-17.5 17.5,-17.5 z"
       class="ColorScheme-Text" />
    <rect
       ry="0.85507244"
       y="0"
       x="0"
       height="22"
       width="22"
       id="rect819"
       style="fill:#008080;fill-opacity:0;stroke-width:0.81743646;stroke-miterlimit:1.41420996;stroke-dasharray:none" />
  </g>
</svg>
