<?xml version="1.0" encoding="UTF-8" standalone="no"?>
<svg
   xmlns:dc="http://purl.org/dc/elements/1.1/"
   xmlns:cc="http://creativecommons.org/ns#"
   xmlns:rdf="http://www.w3.org/1999/02/22-rdf-syntax-ns#"
   xmlns:svg="http://www.w3.org/2000/svg"
   xmlns="http://www.w3.org/2000/svg"
   xmlns:sodipodi="http://sodipodi.sourceforge.net/DTD/sodipodi-0.dtd"
   xmlns:inkscape="http://www.inkscape.org/namespaces/inkscape"
   viewBox="0 0 32 32"
   id="svg2"
   version="1.1"
   inkscape:version="0.91 r13725"
   sodipodi:docname="preferences-kcalc-constants.svg"
   width="32"
   height="32">
  <metadata
     id="metadata35">
    <rdf:RDF>
      <cc:Work
         rdf:about="">
        <dc:format>image/svg+xml</dc:format>
        <dc:type
           rdf:resource="http://purl.org/dc/dcmitype/StillImage" />
        <dc:title></dc:title>
      </cc:Work>
    </rdf:RDF>
  </metadata>
  <defs
     id="defs33" />
  <sodipodi:namedview
     pagecolor="#ffffff"
     bordercolor="#666666"
     borderopacity="1"
     objecttolerance="10"
     gridtolerance="10"
     guidetolerance="10"
     inkscape:pageopacity="0"
     inkscape:pageshadow="2"
     inkscape:window-width="1920"
     inkscape:window-height="1134"
     id="namedview31"
     showgrid="false"
     inkscape:zoom="11.313708"
     inkscape:cx="20.258873"
     inkscape:cy="24.873291"
     inkscape:window-x="1920"
     inkscape:window-y="0"
     inkscape:window-maximized="1"
     inkscape:current-layer="svg2" />
  <linearGradient
     id="a"
     gradientUnits="userSpaceOnUse"
     x1="399.57144"
     x2="399.57144"
     y1="545.79797"
     y2="517.79797">
    <stop
       offset="0"
       stop-color="#3889e9"
       id="stop5" />
    <stop
       offset="1"
       stop-color="#5ea5fb"
       id="stop7" />
  </linearGradient>
  <linearGradient
     id="b"
     gradientUnits="userSpaceOnUse"
     x1="400.5119"
     x2="400.69922"
     y1="546.07446"
     y2="517.77289">
    <stop
       offset="0"
       stop-color="#3f4952"
       id="stop10" />
    <stop
       offset="1"
       stop-color="#67747f"
       id="stop12" />
  </linearGradient>
  <linearGradient
     id="c"
     gradientUnits="userSpaceOnUse"
     x1="41.16489"
     x2="54.039001"
     y1="89.36377"
     y2="20.836">
    <stop
       offset="0"
       stop-color="#e3e3e3"
       id="stop15" />
    <stop
       offset="1"
       stop-color="#fffcff"
       id="stop17" />
  </linearGradient>
  <g
     transform="matrix(0.89482599,0,0,0.89482599,-342.50122,-459.90737)"
     id="g19">
    <circle
       cx="400.57138"
       cy="531.79791"
       r="0"
       id="circle21"
       style="fill:url(#a)" />
    <g
       transform="matrix(1.1175366,0,0,1.1175366,-47.015292,-62.460178)"
       id="g23">
      <circle
         cx="400.57138"
         cy="531.79791"
         r="13.999958"
         id="circle25"
         style="fill:url(#b)" />
      <circle
         cx="400.57144"
         cy="531.79797"
         r="13.999958"
         id="circle27"
         style="fill:none" />
      <path
         d="M 72.766,74.275 C 59.4,63.824 68.833,20.837 68.833,20.837 l 16.336,0 c 1.705,0 8.389,-1.072 8.389,-9.076 0,-9.846 -8.168,-9.241 -8.168,-9.241 0,0 -44.774,0 -60.147,0 -9.873,0 -18.784,11.304 -23.899,19.389 -2.723,4.318 -1.183,5.528 3.493,3.493 16.392,-7.178 21.012,-4.593 21.012,-4.593 1.155,5.528 1.54,30.473 -2.667,40.318 -4.263,9.269 -12.128,21.012 -0.578,27.915 9.021,5.115 18.481,-5.391 17.546,-23.268 -0.44,-9.461 -1.183,-44.938 -1.183,-44.938 l 15.072,0 c -0.469,5.528 -3.025,33.745 -0.357,50.467 2.777,27.915 33.112,22.497 38.777,6.685 1.402,-4.373 1.073,-7.729 0.027,-10.26 -1.926,-4.702 -5.144,-4.949 -4.785,-2.75 0.221,1.402 0.083,2.777 -0.138,4.016 -0.661,3.823 -8.471,9.817 -14.797,5.281 z"
         transform="matrix(0.14253951,0,0,0.14253951,393.4505,525.46117)"
         id="path29"
         style="opacity:0.9;fill:url(#c)"
         inkscape:connector-curvature="0" />
    </g>
  </g>
</svg>
