<?xml version="1.0" encoding="UTF-8" standalone="no"?>
<svg
   xmlns:dc="http://purl.org/dc/elements/1.1/"
   xmlns:cc="http://creativecommons.org/ns#"
   xmlns:rdf="http://www.w3.org/1999/02/22-rdf-syntax-ns#"
   xmlns:svg="http://www.w3.org/2000/svg"
   xmlns="http://www.w3.org/2000/svg"
   xmlns:sodipodi="http://sodipodi.sourceforge.net/DTD/sodipodi-0.dtd"
   xmlns:inkscape="http://www.inkscape.org/namespaces/inkscape"
   width="128"
   height="128"
   version="1"
   id="svg34"
   sodipodi:docname="fog.svg"
   inkscape:version="0.92.2 (unknown)">
  <metadata
     id="metadata40">
    <rdf:RDF>
      <cc:Work
         rdf:about="">
        <dc:format>image/svg+xml</dc:format>
        <dc:type
           rdf:resource="http://purl.org/dc/dcmitype/StillImage" />
        <dc:title></dc:title>
      </cc:Work>
    </rdf:RDF>
  </metadata>
  <defs
     id="defs38">
    <clipPath
       id="clipPath-363610498">
      <g
         id="g12"
         transform="translate(0,-1004.3622)">
        <path
           id="path14"
           style="fill:#1890d0"
           transform="matrix(15.333333,0,0,11.5,414.99999,878.8622)"
           d="m -24,13 c 0,1.105 -0.672,2 -1.5,2 -0.828,0 -1.5,-0.895 -1.5,-2 0,-1.105 0.672,-2 1.5,-2 0.828,0 1.5,0.895 1.5,2 z"
           inkscape:connector-curvature="0" />
      </g>
    </clipPath>
    <clipPath
       id="clipPath-375834240">
      <g
         id="g17"
         transform="translate(0,-1004.3622)">
        <path
           id="path19"
           style="fill:#1890d0"
           transform="matrix(15.333333,0,0,11.5,414.99999,878.8622)"
           d="m -24,13 c 0,1.105 -0.672,2 -1.5,2 -0.828,0 -1.5,-0.895 -1.5,-2 0,-1.105 0.672,-2 1.5,-2 0.828,0 1.5,0.895 1.5,2 z"
           inkscape:connector-curvature="0" />
      </g>
    </clipPath>
  </defs>
  <sodipodi:namedview
     pagecolor="#ffffff"
     bordercolor="#666666"
     borderopacity="1"
     objecttolerance="10"
     gridtolerance="10"
     guidetolerance="10"
     inkscape:pageopacity="0"
     inkscape:pageshadow="2"
     inkscape:window-width="1920"
     inkscape:window-height="1027"
     id="namedview36"
     showgrid="false"
     showguides="true"
     inkscape:zoom="2"
     inkscape:cx="-10.69928"
     inkscape:cy="78.914045"
     inkscape:window-x="0"
     inkscape:window-y="25"
     inkscape:window-maximized="1"
     inkscape:current-layer="svg34"
     inkscape:guide-bbox="true"
     inkscape:snap-global="true"
     inkscape:snap-nodes="true"
     inkscape:snap-object-midpoints="false"
     inkscape:snap-midpoints="true"
     inkscape:snap-smooth-nodes="true"
     inkscape:snap-intersection-paths="true"
     inkscape:object-paths="true"
     inkscape:object-nodes="true">
    <inkscape:grid
       type="xygrid"
       id="grid106" />
  </sodipodi:namedview>
  <circle
     style="fill:#0091cf;fill-opacity:1;stroke-width:1.72661865"
     id="path4665"
     cx="64"
     cy="64"
     r="60" />
  <path
     style="fill:#ffffff;fill-opacity:1;stroke-width:1.72661865;opacity:0.1"
     d="M 64 4 A 60 60 0 0 0 4 64 A 60 60 0 0 0 4.0410156 65.169922 A 60 60 0 0 1 64 6 A 60 60 0 0 1 123.95898 64.830078 A 60 60 0 0 0 124 64 A 60 60 0 0 0 64 4 z "
     id="circle926" />
  <g
     id="g893"
     transform="translate(-108.57573,-5.9199982)">
    <path
       transform="scale(-1)"
       style="fill:#ff8a47;fill-opacity:1;stroke:none;stroke-width:0.66617775"
       inkscape:transform-center-x="-1.793378e-05"
       inkscape:transform-center-y="-2.3272899e-06"
       d="m -188.57573,-11.919945 -12,-12.000053 -16.00179,0 v -16 l -11.99817,-11.999944 11.99817,-12.000056 v -16 h 16.00179 l 12,-11.999941 12,11.999941 h 16 v 16 l 11.99996,12.000056 -11.99996,11.999944 v 16 h -16 z"
       id="path42"
       inkscape:connector-curvature="0"
       sodipodi:nodetypes="ccccccccccccccccc" />
    <path
       style="opacity:1;fill:#ffcc42;fill-opacity:1;stroke:none;stroke-width:0.63627309;stroke-linecap:square;stroke-linejoin:miter;stroke-miterlimit:4;stroke-dasharray:none;stroke-dashoffset:0;stroke-opacity:1"
       d="M 216.57568,51.919945 A 27.999947,27.999947 0 0 1 188.57573,79.919892 27.999947,27.999947 0 0 1 160.57578,51.919945 27.999947,27.999947 0 0 1 188.57573,23.919998 27.999947,27.999947 0 0 1 216.57568,51.919945 Z"
       id="path4645-3"
       inkscape:connector-curvature="0" />
    <path
       style="opacity:0.2;fill:#000000;fill-opacity:1;stroke:none;stroke-width:0.63627309;stroke-linecap:square;stroke-linejoin:miter;stroke-miterlimit:4;stroke-dasharray:none;stroke-dashoffset:0;stroke-opacity:1"
       d="M 107.95898 46.828125 A 27.999947 27.999947 0 0 1 80 74 A 27.999947 27.999947 0 0 1 52.041016 47.171875 A 27.999947 27.999947 0 0 0 52 48 A 27.999947 27.999947 0 0 0 80 76 A 27.999947 27.999947 0 0 0 108 48 A 27.999947 27.999947 0 0 0 107.95898 46.828125 z "
       transform="translate(108.57573,5.9199982)"
       id="path905" />
    <path
       style="opacity:0.3;fill:#ffffff;fill-opacity:1;stroke:none;stroke-width:0.63627309;stroke-linecap:square;stroke-linejoin:miter;stroke-miterlimit:4;stroke-dasharray:none;stroke-dashoffset:0;stroke-opacity:1"
       d="m 188.57573,23.920123 a 27.999947,27.999947 0 0 0 -28,28 27.999947,27.999947 0 0 0 0.041,1.171875 27.999947,27.999947 0 0 1 27.95898,-27.171875 27.999947,27.999947 0 0 1 27.95898,26.828125 27.999947,27.999947 0 0 0 0.041,-0.828125 27.999947,27.999947 0 0 0 -28,-28 z"
       id="path910"
       inkscape:connector-curvature="0" />
    <path
       style="fill:#000000;fill-opacity:1;stroke:none;stroke-width:0.66617775;opacity:0.2"
       d="M 41 47 L 40 48 L 52 60 L 52 58 L 41 47 z M 119 47 L 108.00195 58 L 108.00195 60 L 120 48 L 119 47 z M 52 74 L 52 76 L 68 76 L 80 88 L 92 76 L 108.00195 76 L 108.00195 74 L 92 74 L 80 86 L 68 74 L 52 74 z "
       transform="translate(108.57573,5.9199982)"
       id="path915" />
    <path
       style="fill:#ffffff;fill-opacity:1;stroke:none;stroke-width:0.66617775;opacity:0.3"
       d="M 80 6 L 68 18 L 52 18 L 52 20 L 68 20 L 80 8 L 92 20 L 108.00195 20 L 108.00195 18 L 92 18 L 80 6 z M 52 34 L 40 46 L 41 47 L 52 36 L 52 34 z M 108.00195 34 L 108.00195 36 L 119 47 L 120 46 L 108.00195 34 z "
       transform="translate(108.57573,5.9199982)"
       id="path920" />
  </g>
  <g
     id="layer1-86"
     inkscape:label="Capa"
     style="display:inline;opacity:0.12949638"
     transform="translate(1692.4507,899.46141)" />
  <g
     id="g33"
     transform="translate(1692.4507,899.46141)">
    <g
       clip-path="url(#clipPath-363610498)"
       id="g35">
      <g
         id="g37"
         transform="translate(1,1)">
        <g
           id="g39"
           style="opacity:0.1">
          <!-- color: #a8cd01 -->
        </g>
      </g>
    </g>
  </g>
  <g
     id="g41"
     transform="translate(1692.4507,899.46141)">
    <g
       clip-path="url(#clipPath-375834240)"
       id="g43">
      <!-- color: #a8cd01 -->
    </g>
  </g>
  <g
     id="g974"
     transform="matrix(1.25,0,0,-1.25,82.923848,240.38029)"
     style="fill:#ffffff;fill-opacity:1" />
  <path
     style="fill:#000000;fill-opacity:1;stroke-width:1.72661865;opacity:0.2"
     d="M 123.95898 64.830078 A 60 60 0 0 1 64 124 A 60 60 0 0 1 4.0410156 65.169922 A 60 60 0 0 0 4 66 A 60 60 0 0 0 64 126 A 60 60 0 0 0 124 66 A 60 60 0 0 0 123.95898 64.830078 z "
     id="circle924" />
  <g
     id="g1050"
     transform="translate(-39.99218,-68)"
     style="opacity:0.2">
    <path
       sodipodi:nodetypes="ccccsccccc"
       id="path900-7-5-6"
       d="M 69.99218,133 C 64.47239,133.004 59.99999,137.4802 60,143 H 69.99218 80 103 c 5.52285,0 10,-4.47715 10,-10 H 103 93 70 Z"
       style="opacity:1;fill:#000000;fill-opacity:1;stroke:none;stroke-width:1.02714288;stroke-miterlimit:4;stroke-dasharray:none"
       inkscape:connector-curvature="0" />
    <path
       sodipodi:nodetypes="ccccsccccc"
       id="path900-7-5-3-2"
       d="M 69.99219,148 C 64.47239,148.004 60,152.4802 60,158 H 69.99219 80 103.00001 c 5.52284,0 10,-4.47715 10,-10 h -10 -10 H 70 Z"
       style="opacity:1;fill:#000000;fill-opacity:1;stroke:none;stroke-width:1.02714288;stroke-miterlimit:4;stroke-dasharray:none"
       inkscape:connector-curvature="0" />
    <path
       sodipodi:nodetypes="ccccsccccc"
       id="path900-7-5-3-5-9"
       d="M 69.99219,163 C 64.4724,163.004 60,167.4802 60,173 H 69.99219 80 103.00001 c 5.52285,0 10,-4.47715 10,-10 h -10 -10 H 70 Z"
       style="opacity:1;fill:#000000;fill-opacity:1;stroke:none;stroke-width:1.02714288;stroke-miterlimit:4;stroke-dasharray:none"
       inkscape:connector-curvature="0" />
  </g>
  <path
     inkscape:connector-curvature="0"
     style="opacity:1;fill:#ffffff;fill-opacity:1;stroke:none;stroke-width:1.02714288;stroke-miterlimit:4;stroke-dasharray:none"
     d="M 29.99218,63 C 24.47239,63.004 19.99999,67.4802 20,73 H 29.99218 40 63 c 5.52285,0 10,-4.47715 10,-10 H 63 53 30 Z"
     id="path900-7-5"
     sodipodi:nodetypes="ccccsccccc" />
  <path
     inkscape:connector-curvature="0"
     style="opacity:1;fill:#ffffff;fill-opacity:1;stroke:none;stroke-width:1.02714288;stroke-miterlimit:4;stroke-dasharray:none"
     d="M 29.99219,78 C 24.47239,78.004 20,82.4802 20,88 H 29.99219 40 63.00001 c 5.52284,0 10,-4.47715 10,-10 h -10 -10 H 30 Z"
     id="path900-7-5-3"
     sodipodi:nodetypes="ccccsccccc" />
  <path
     inkscape:connector-curvature="0"
     style="opacity:1;fill:#ffffff;fill-opacity:1;stroke:none;stroke-width:1.02714288;stroke-miterlimit:4;stroke-dasharray:none"
     d="M 29.99219,93 C 24.4724,93.004 20,97.4802 20,103 H 29.99219 40 63.00001 c 5.52285,0 10,-4.47715 10,-10 h -10 -10 H 30 Z"
     id="path900-7-5-3-5"
     sodipodi:nodetypes="ccccsccccc" />
</svg>
