<?xml version="1.0" encoding="UTF-8" standalone="no"?>
<!-- Created with Inkscape (http://www.inkscape.org/) -->

<svg
   xmlns:dc="http://purl.org/dc/elements/1.1/"
   xmlns:cc="http://creativecommons.org/ns#"
   xmlns:rdf="http://www.w3.org/1999/02/22-rdf-syntax-ns#"
   xmlns:svg="http://www.w3.org/2000/svg"
   xmlns="http://www.w3.org/2000/svg"
   xmlns:sodipodi="http://sodipodi.sourceforge.net/DTD/sodipodi-0.dtd"
   xmlns:inkscape="http://www.inkscape.org/namespaces/inkscape"
   id="svg7759"
   version="1.1"
   inkscape:version="0.92.2 (unknown)"
   xml:space="preserve"
   width="128"
   height="128"
   viewBox="0 0 128 128"
   sodipodi:docname="nodata.svg"
   inkscape:export-filename="/home/at2/Imágenes/Iconos de Clima/Tema/22/nodata.png"
   inkscape:export-xdpi="15.46875"
   inkscape:export-ydpi="15.46875"><metadata
     id="metadata7765"><rdf:RDF><cc:Work
         rdf:about=""><dc:format>image/svg+xml</dc:format><dc:type
           rdf:resource="http://purl.org/dc/dcmitype/StillImage" /><dc:title></dc:title></cc:Work></rdf:RDF></metadata><defs
     id="defs7763" /><sodipodi:namedview
     pagecolor="#ffffff"
     bordercolor="#666666"
     borderopacity="1"
     objecttolerance="10"
     gridtolerance="10"
     guidetolerance="10"
     inkscape:pageopacity="0"
     inkscape:pageshadow="2"
     inkscape:window-width="1920"
     inkscape:window-height="1027"
     id="namedview7761"
     showgrid="true"
     fit-margin-top="0"
     fit-margin-left="0"
     fit-margin-right="0"
     fit-margin-bottom="0"
     inkscape:zoom="4.4424176"
     inkscape:cx="53.029849"
     inkscape:cy="38.276698"
     inkscape:current-layer="g7767"
     inkscape:window-x="0"
     inkscape:window-y="25"
     inkscape:window-maximized="1"><inkscape:grid
       type="xygrid"
       id="grid821" /></sodipodi:namedview><g
     id="g7767"
     inkscape:groupmode="layer"
     inkscape:label="ink_ext_XXXXXX"
     transform="matrix(1.25,0,0,-1.25,-162.07615,127.88029)"><g
       style="opacity:0.1"
       id="g39"
       transform="matrix(0.8,0,0,-0.8,1372.4215,-521.2649)"><!-- color: #a8cd01 --></g><g
       id="g1109"><circle
         transform="scale(1,-1)"
         style="fill:#db3c30;fill-opacity:1;stroke-width:1.28920865"
         id="circle829"
         cx="181.66092"
         cy="-51.904228"
         r="44.799999" /><path
         id="path999"
         d="m 184.86023,27.90423 h -6.3999 v 6.399909 h 6.3999 z m 6.62391,24.799646 -2.87996,-2.943958 c -2.30397,-2.335966 -3.74395,-4.255939 -3.74395,-9.05587 h -6.3999 v 1.599977 c 0,3.519949 1.43998,6.719904 3.74394,9.055871 l 3.96795,4.031942 c 1.18398,1.151984 1.88797,2.75196 1.88797,4.511936 0,3.519949 -2.87996,6.399907 -6.39991,6.399907 -3.51995,0 -6.39991,-2.879958 -6.39991,-6.399907 h -6.39991 c 0,7.071898 5.72792,12.799816 12.79982,12.799816 7.0719,0 12.79982,-5.727918 12.79982,-12.799816 0,-2.81596 -1.15199,-5.375923 -2.97596,-7.199898 z"
         style="opacity:0.2;stroke-width:1.60000002"
         inkscape:connector-curvature="0" /><path
         id="path1001"
         d="m 184.86023,29.504528 h -6.3999 v 6.399908 h 6.3999 z m 6.62391,24.799644 -2.87996,-2.943956 c -2.30397,-2.335968 -3.74395,-4.25594 -3.74395,-9.055872 h -6.3999 v 1.599977 c 0,3.519951 1.43998,6.719904 3.74394,9.055871 l 3.96795,4.031942 c 1.18398,1.151984 1.88797,2.751962 1.88797,4.511936 0,3.519949 -2.87996,6.399909 -6.39991,6.399909 -3.51995,0 -6.39991,-2.87996 -6.39991,-6.399909 h -6.39991 c 0,7.071899 5.72792,12.799816 12.79982,12.799816 7.0719,0 12.79982,-5.727917 12.79982,-12.799816 0,-2.81596 -1.15199,-5.375923 -2.97596,-7.199898 z"
         style="fill:#ffffff;stroke-width:1.60000002"
         inkscape:connector-curvature="0" /><path
         style="fill:#000000;fill-opacity:1;stroke-width:1.61151075;opacity:0.2"
         d="M 120.95898 63.830078 A 55.999999 55.999999 0 0 1 65 119 A 55.999999 55.999999 0 0 1 9.0410156 64.169922 A 55.999999 55.999999 0 0 0 9 65 A 55.999999 55.999999 0 0 0 65 121 A 55.999999 55.999999 0 0 0 121 65 A 55.999999 55.999999 0 0 0 120.95898 63.830078 z "
         transform="matrix(0.8,0,0,-0.8,129.66092,102.30423)"
         id="circle1111" /><circle
         r="44.799999"
         cy="-51.904228"
         cx="181.66092"
         id="circle1113"
         style="fill:#ffffff;fill-opacity:1;stroke-width:1.28920865"
         transform="scale(1,-1)" /></g><g
       id="g1125"><circle
         r="44.799999"
         cy="-51.904228"
         cx="181.66092"
         id="circle1115"
         style="fill:#db3c30;fill-opacity:1;stroke-width:1.28920865"
         transform="scale(1,-1)" /><path
         inkscape:connector-curvature="0"
         style="opacity:0.2;stroke-width:1.60000002"
         d="m 184.86023,27.90423 h -6.3999 v 6.399909 h 6.3999 z m 6.62391,24.799646 -2.87996,-2.943958 c -2.30397,-2.335966 -3.74395,-4.255939 -3.74395,-9.05587 h -6.3999 v 1.599977 c 0,3.519949 1.43998,6.719904 3.74394,9.055871 l 3.96795,4.031942 c 1.18398,1.151984 1.88797,2.75196 1.88797,4.511936 0,3.519949 -2.87996,6.399907 -6.39991,6.399907 -3.51995,0 -6.39991,-2.879958 -6.39991,-6.399907 h -6.39991 c 0,7.071898 5.72792,12.799816 12.79982,12.799816 7.0719,0 12.79982,-5.727918 12.79982,-12.799816 0,-2.81596 -1.15199,-5.375923 -2.97596,-7.199898 z"
         id="path1117" /><path
         inkscape:connector-curvature="0"
         style="fill:#ffffff;stroke-width:1.60000002"
         d="m 184.86023,29.504528 h -6.3999 v 6.399908 h 6.3999 z m 6.62391,24.799644 -2.87996,-2.943956 c -2.30397,-2.335968 -3.74395,-4.25594 -3.74395,-9.055872 h -6.3999 v 1.599977 c 0,3.519951 1.43998,6.719904 3.74394,9.055871 l 3.96795,4.031942 c 1.18398,1.151984 1.88797,2.751962 1.88797,4.511936 0,3.519949 -2.87996,6.399909 -6.39991,6.399909 -3.51995,0 -6.39991,-2.87996 -6.39991,-6.399909 h -6.39991 c 0,7.071899 5.72792,12.799816 12.79982,12.799816 7.0719,0 12.79982,-5.727917 12.79982,-12.799816 0,-2.81596 -1.15199,-5.375923 -2.97596,-7.199898 z"
         id="path1119" /><path
         style="fill:#ffffff;fill-opacity:1;stroke-width:1.61151075;opacity:0.1"
         d="M 65 7 A 55.999999 55.999999 0 0 0 9 63 A 55.999999 55.999999 0 0 0 9.0410156 64.169922 A 55.999999 55.999999 0 0 1 65 9 A 55.999999 55.999999 0 0 1 120.95898 63.830078 A 55.999999 55.999999 0 0 0 121 63 A 55.999999 55.999999 0 0 0 65 7 z "
         id="circle1123"
         transform="matrix(0.8,0,0,-0.8,129.66092,102.30423)" /></g></g></svg>