<?xml version="1.0" encoding="UTF-8" standalone="no"?>
<svg
   xmlns:dc="http://purl.org/dc/elements/1.1/"
   xmlns:cc="http://creativecommons.org/ns#"
   xmlns:rdf="http://www.w3.org/1999/02/22-rdf-syntax-ns#"
   xmlns:svg="http://www.w3.org/2000/svg"
   xmlns="http://www.w3.org/2000/svg"
   xmlns:sodipodi="http://sodipodi.sourceforge.net/DTD/sodipodi-0.dtd"
   xmlns:inkscape="http://www.inkscape.org/namespaces/inkscape"
   width="128"
   height="128"
   version="1"
   id="svg34"
   sodipodi:docname="sun-night.svg"
   inkscape:version="0.92.2 (unknown)">
  <metadata
     id="metadata40">
    <rdf:RDF>
      <cc:Work
         rdf:about="">
        <dc:format>image/svg+xml</dc:format>
        <dc:type
           rdf:resource="http://purl.org/dc/dcmitype/StillImage" />
        <dc:title />
      </cc:Work>
    </rdf:RDF>
  </metadata>
  <defs
     id="defs38" />
  <sodipodi:namedview
     pagecolor="#ffffff"
     bordercolor="#666666"
     borderopacity="1"
     objecttolerance="10"
     gridtolerance="10"
     guidetolerance="10"
     inkscape:pageopacity="0"
     inkscape:pageshadow="2"
     inkscape:window-width="718"
     inkscape:window-height="410"
     id="namedview36"
     showgrid="false"
     showguides="false"
     inkscape:zoom="1.4142136"
     inkscape:cx="62.467621"
     inkscape:cy="145.90978"
     inkscape:window-x="12"
     inkscape:window-y="58"
     inkscape:window-maximized="1"
     inkscape:current-layer="svg34"
     inkscape:guide-bbox="true"
     inkscape:snap-global="true"
     inkscape:snap-nodes="true"
     inkscape:snap-object-midpoints="false"
     inkscape:snap-midpoints="true"
     inkscape:snap-smooth-nodes="true"
     inkscape:snap-intersection-paths="true"
     inkscape:object-paths="true"
     inkscape:object-nodes="true">
    <inkscape:grid
       type="xygrid"
       id="grid106" />
    <sodipodi:guide
       position="15,15"
       orientation="-0.70710678,0.70710678"
       id="guide1599"
       inkscape:locked="false" />
    <sodipodi:guide
       position="40,40"
       orientation="0.70710678,0.70710678"
       id="guide1601"
       inkscape:locked="false" />
    <sodipodi:guide
       position="0,40"
       orientation="0,1"
       id="guide1603"
       inkscape:locked="false" />
    <sodipodi:guide
       position="80,40"
       orientation="1,0"
       id="guide1620"
       inkscape:locked="false" />
    <sodipodi:guide
       position="0,39"
       orientation="1,0"
       id="guide1622"
       inkscape:locked="false" />
    <sodipodi:guide
       position="40,80"
       orientation="0,1"
       id="guide1624"
       inkscape:locked="false" />
    <sodipodi:guide
       position="97,88"
       orientation="0,1"
       id="guide1771"
       inkscape:locked="false" />
  </sodipodi:namedview>
  <circle
     style="fill:#0068b8;fill-opacity:1;stroke-width:1.72661865"
     id="path4665"
     cx="64"
     cy="64"
     r="60" />
  <path
     style="opacity:1;fill:#fecd38;fill-opacity:1;stroke:none;stroke-width:0.6391111;stroke-miterlimit:4;stroke-dasharray:none"
     d="M 55.179688,25.035158 A 40,40 0 0 0 24,64.000002 40,40 0 0 0 64,104 40,40 0 0 0 102.98046,72.818361 37.5,37.5 0 0 1 90.5,75.000002 37.5,37.5 0 0 1 53,37.500002 37.5,37.5 0 0 1 55.179688,25.035158 Z"
     id="path1574"
     inkscape:connector-curvature="0" />
  <path
     transform="scale(1,-1)"
     sodipodi:type="star"
     style="color:#000000;display:inline;overflow:visible;visibility:visible;opacity:1;fill:#ffffff;fill-opacity:1;fill-rule:nonzero;stroke:none;stroke-width:0.10267861;stroke-linecap:round;stroke-linejoin:bevel;stroke-miterlimit:4;stroke-dasharray:none;stroke-dashoffset:0;stroke-opacity:1;marker:none;enable-background:accumulate"
     id="path13883-9-05-6-51-4"
     sodipodi:sides="5"
     sodipodi:cx="75.5"
     sodipodi:cy="-39.954037"
     sodipodi:r1="12.008691"
     sodipodi:r2="8.0909758"
     sodipodi:arg1="1.5707963"
     sodipodi:arg2="2.1991149"
     inkscape:flatsided="false"
     inkscape:rounded="0.296964"
     inkscape:randomized="0"
     d="m 75.5,-27.945346 c -2.150911,0 -3.015633,-4.19868 -4.755757,-5.462954 -1.740123,-1.264274 -6.000519,-0.789209 -6.665187,-2.834847 -0.664668,-2.045638 3.061301,-4.165501 3.725969,-6.211139 0.664668,-2.045638 -1.10368,-5.950712 0.636443,-7.214985 1.740124,-1.264274 4.907621,1.624259 7.058532,1.624259 2.150911,-10e-7 5.318408,-2.888534 7.058531,-1.62426 1.740124,1.264274 -0.02822,5.169349 0.636444,7.214987 0.664668,2.045637 4.390637,4.1655 3.725969,6.211138 -0.664668,2.045638 -4.925064,1.570574 -6.665188,2.834847 -1.740123,1.264274 -2.604845,5.462954 -4.755756,5.462954 z"
     inkscape:transform-center-y="-1.2333345"
     inkscape:transform-center-x="-1.3867456e-06" />
  <path
     transform="scale(1,-1)"
     sodipodi:type="star"
     style="color:#000000;display:inline;overflow:visible;visibility:visible;opacity:1;fill:#ffffff;fill-opacity:1;fill-rule:nonzero;stroke:none;stroke-width:0.05357146;stroke-linecap:round;stroke-linejoin:bevel;stroke-miterlimit:4;stroke-dasharray:none;stroke-dashoffset:0;stroke-opacity:1;marker:none;enable-background:accumulate"
     id="path13883-9-05-6-51-4-6"
     sodipodi:sides="5"
     sodipodi:cx="92.985229"
     sodipodi:cy="-55.778621"
     sodipodi:r1="6.2654047"
     sodipodi:r2="4.2213793"
     sodipodi:arg1="1.5707963"
     sodipodi:arg2="2.1991149"
     inkscape:flatsided="false"
     inkscape:rounded="0.296964"
     inkscape:randomized="0"
     d="m 92.98523,-49.513217 c -1.122215,0 -1.573374,-2.190616 -2.481265,-2.850237 -0.907891,-0.659621 -3.130706,-0.411762 -3.477489,-1.479051 -0.346784,-1.06729 1.5972,-2.173305 1.943983,-3.240595 0.346784,-1.067289 -0.575833,-3.104719 0.332058,-3.76434 0.907891,-0.659622 2.560498,0.847439 3.682713,0.847439 1.122214,0 2.774821,-1.507061 3.682712,-0.84744 0.907891,0.659622 -0.01473,2.697052 0.332058,3.764342 0.346783,1.067289 2.290767,2.173304 1.943984,3.240594 -0.346784,1.067289 -2.569599,0.81943 -3.47749,1.479051 -0.907891,0.659621 -1.35905,2.850237 -2.481264,2.850237 z"
     inkscape:transform-center-y="-0.64347715"
     inkscape:transform-center-x="1.7505621e-06" />
  <path
     style="opacity:0.2;fill:#000000;fill-opacity:1;stroke:none;stroke-width:0.63910925;stroke-miterlimit:4;stroke-dasharray:none"
     d="M 55.179688 27.035156 A 39.999767 40 0 0 0 54.507812 27.222656 A 37.5 37.5 0 0 0 53 37.5 A 37.5 37.5 0 0 0 53.042969 38.707031 A 37.499782 37.5 0 0 1 55.179688 27.035156 z M 24.033203 64.664062 A 39.999767 40 0 0 0 24 66 A 39.999767 40 0 0 0 64 106 A 39.999767 40 0 0 0 102.98047 74.818359 A 37.499782 37.5 0 0 1 102.4082 74.990234 A 40 40 0 0 1 64 104 A 40 40 0 0 1 24.033203 64.664062 z "
     id="path1808" />
  <path
     style="opacity:0.2;fill:#ffffff;fill-opacity:1;stroke:none;stroke-width:0.6391111;stroke-miterlimit:4;stroke-dasharray:none"
     d="M 55.179688 25.035156 A 40 40 0 0 0 24 64 A 40 40 0 0 0 24.033203 64.664062 A 39.999767 40 0 0 1 54.507812 27.222656 A 37.5 37.5 0 0 1 55.179688 25.035156 z M 53.042969 38.707031 A 37.499782 37.5 0 0 0 53 39.5 A 37.499782 37.5 0 0 0 90.5 77 A 37.499782 37.5 0 0 0 102.4082 74.990234 A 40 40 0 0 0 102.98047 72.818359 A 37.5 37.5 0 0 1 90.5 75 A 37.5 37.5 0 0 1 53.042969 38.707031 z "
     id="path1813" />
  <path
     style="color:#000000;display:inline;overflow:visible;visibility:visible;opacity:0.2;fill:#000000;fill-opacity:1;fill-rule:nonzero;stroke:none;stroke-width:0.10267861;stroke-linecap:round;stroke-linejoin:bevel;stroke-miterlimit:4;stroke-dasharray:none;stroke-dashoffset:0;stroke-opacity:1;marker:none;enable-background:accumulate"
     d="M 64.302734 37.8125 C 64.210286 37.943212 64.129871 38.082929 64.078125 38.242188 C 63.413457 40.287826 67.140019 42.407487 67.804688 44.453125 C 67.838801 44.558116 67.862667 44.670978 67.884766 44.785156 C 67.970604 43.921648 68.01205 43.093275 67.804688 42.455078 C 67.308708 40.92861 65.111604 39.359947 64.302734 37.8125 z M 86.697266 37.8125 C 85.888396 39.359946 83.691292 40.928611 83.195312 42.455078 C 82.98795 43.093275 83.029396 43.921648 83.115234 44.785156 C 83.137333 44.670978 83.161199 44.558116 83.195312 44.453125 C 83.859981 42.407487 87.586543 40.287825 86.921875 38.242188 C 86.870129 38.082929 86.789714 37.943212 86.697266 37.8125 z M 75.5 48.044922 C 73.349089 48.044922 70.18153 50.934196 68.441406 49.669922 C 68.027494 49.369197 67.815611 48.915942 67.71875 48.376953 C 67.579647 49.757793 67.576369 51.039482 68.441406 51.667969 C 70.18153 52.932243 73.349089 50.044922 75.5 50.044922 C 77.650911 50.044922 80.81847 52.932242 82.558594 51.667969 C 83.423631 51.039482 83.420353 49.757793 83.28125 48.376953 C 83.184389 48.915942 82.972506 49.369197 82.558594 49.669922 C 80.81847 50.934196 77.650911 48.044922 75.5 48.044922 z "
     id="path1818" />
  <path
     style="color:#000000;display:inline;overflow:visible;visibility:visible;opacity:0.2;fill:#000000;fill-opacity:1;fill-rule:nonzero;stroke:none;stroke-width:0.05357146;stroke-linecap:round;stroke-linejoin:bevel;stroke-miterlimit:4;stroke-dasharray:none;stroke-dashoffset:0;stroke-opacity:1;marker:none;enable-background:accumulate"
     d="M 87.572266 55.263672 C 87.309623 55.399893 87.112174 55.580716 87.027344 55.841797 C 86.687941 56.886372 88.533283 57.967518 88.9375 59.013672 C 89.013329 58.318992 89.135839 57.592221 88.970703 57.083984 C 88.776148 56.485204 88.08571 55.873153 87.572266 55.263672 z M 98.398438 55.263672 C 97.884993 55.873153 97.194555 56.485204 97 57.083984 C 96.834864 57.592221 96.957374 58.318992 97.033203 59.013672 C 97.43742 57.967518 99.282762 56.886372 98.943359 55.841797 C 98.858529 55.580716 98.66108 55.399893 98.398438 55.263672 z M 92.984375 60 C 91.86216 60 90.210625 61.507277 89.302734 60.847656 C 89.152458 60.738474 89.064031 60.582234 89 60.408203 C 88.896028 61.372076 88.701151 62.41058 89.302734 62.847656 C 90.210625 63.507277 91.86216 62 92.984375 62 C 94.106589 62 95.760078 63.507277 96.667969 62.847656 C 97.269997 62.410257 97.072653 61.37072 96.96875 60.40625 C 96.904744 60.580956 96.818689 60.738152 96.667969 60.847656 C 95.760078 61.507277 94.106589 60 92.984375 60 z "
     id="path1820" />
  <path
     style="color:#000000;display:inline;overflow:visible;visibility:visible;opacity:0.2;fill:#ffffff;fill-opacity:1;fill-rule:nonzero;stroke:none;stroke-width:0.10267861;stroke-linecap:round;stroke-linejoin:bevel;stroke-miterlimit:4;stroke-dasharray:none;stroke-dashoffset:0;stroke-opacity:1;marker:none;enable-background:accumulate"
     d="M 75.5 27.945312 C 73.349089 27.945313 72.484264 32.143929 70.744141 33.408203 C 69.004017 34.672477 64.742793 34.19655 64.078125 36.242188 C 63.909436 36.761358 64.027628 37.286195 64.302734 37.8125 C 65.397759 36.264241 69.13949 36.57405 70.744141 35.408203 C 72.484264 34.143929 73.349089 29.945313 75.5 29.945312 C 77.650911 29.945312 78.515736 34.143929 80.255859 35.408203 C 81.86051 36.57405 85.602241 36.264241 86.697266 37.8125 C 86.972372 37.286195 87.090564 36.761358 86.921875 36.242188 C 86.257207 34.196549 81.995983 34.672477 80.255859 33.408203 C 78.515736 32.143929 77.650911 27.945312 75.5 27.945312 z M 67.884766 44.785156 C 67.760909 46.031116 67.535441 47.356918 67.71875 48.376953 C 67.845107 47.122636 68.079197 45.789727 67.884766 44.785156 z M 83.115234 44.785156 C 82.920803 45.789727 83.154893 47.122636 83.28125 48.376953 C 83.464559 47.356918 83.239091 46.031116 83.115234 44.785156 z "
     id="path1829" />
  <path
     style="color:#000000;display:inline;overflow:visible;visibility:visible;opacity:0.2;fill:#ffffff;fill-opacity:1;fill-rule:nonzero;stroke:none;stroke-width:0.05357146;stroke-linecap:round;stroke-linejoin:bevel;stroke-miterlimit:4;stroke-dasharray:none;stroke-dashoffset:0;stroke-opacity:1;marker:none;enable-background:accumulate"
     d="M 92.984375 49.513672 C 91.86216 49.513672 91.411797 51.70366 90.503906 52.363281 C 89.596016 53.022902 87.374127 52.774507 87.027344 53.841797 C 86.875116 54.310306 87.170526 54.786789 87.572266 55.263672 C 88.383295 54.843028 89.818105 54.861545 90.503906 54.363281 C 91.411797 53.70366 91.86216 51.513672 92.984375 51.513672 C 94.106589 51.513672 94.558906 53.70366 95.466797 54.363281 C 96.152599 54.861545 97.587408 54.843028 98.398438 55.263672 C 98.800177 54.786789 99.095587 54.310306 98.943359 53.841797 C 98.596576 52.774507 96.374688 53.022902 95.466797 52.363281 C 94.558906 51.70366 94.106589 49.513672 92.984375 49.513672 z M 88.9375 59.013672 C 88.880447 59.536343 88.861401 60.0315 89 60.408203 C 89.052939 59.917429 89.087702 59.442117 88.970703 59.082031 C 88.963323 59.059317 88.94629 59.036421 88.9375 59.013672 z M 97.033203 59.013672 C 97.024413 59.036421 97.00738 59.059317 97 59.082031 C 96.883171 59.441594 96.915962 59.916248 96.96875 60.40625 C 97.106699 60.029715 97.090179 59.535629 97.033203 59.013672 z "
     id="path1831" />
  <path
     style="fill:#000000;fill-opacity:1;stroke-width:1.72661865;opacity:0.2"
     d="M 123.95898 64.830078 A 60 60 0 0 1 64 124 A 60 60 0 0 1 4.0410156 65.169922 A 60 60 0 0 0 4 66 A 60 60 0 0 0 64 126 A 60 60 0 0 0 124 66 A 60 60 0 0 0 123.95898 64.830078 z "
     id="circle829" />
  <path
     style="fill:#ffffff;fill-opacity:1;stroke-width:1.72661865;opacity:0.1"
     d="M 123.95898,65.169922 A 60,60 0 0 0 64,6 60,60 0 0 0 4.0410156,64.830082 60,60 0 0 1 4,64.000002 60,60 0 0 1 64,4 a 60,60 0 0 1 60,60.000002 60,60 0 0 1 -0.041,1.16992 z"
     id="circle834"
     inkscape:connector-curvature="0" />
</svg>
