<?xml version="1.0" encoding="UTF-8" standalone="no"?>
<svg
   xmlns:dc="http://purl.org/dc/elements/1.1/"
   xmlns:cc="http://creativecommons.org/ns#"
   xmlns:rdf="http://www.w3.org/1999/02/22-rdf-syntax-ns#"
   xmlns:svg="http://www.w3.org/2000/svg"
   xmlns="http://www.w3.org/2000/svg"
   xmlns:sodipodi="http://sodipodi.sourceforge.net/DTD/sodipodi-0.dtd"
   xmlns:inkscape="http://www.inkscape.org/namespaces/inkscape"
   viewBox="0 0 22 22"
   id="svg2"
   version="1.1"
   inkscape:version="0.91 r13725"
   sodipodi:docname="system-log-out.svg"
   width="22"
   height="22">
  <metadata
     id="metadata15">
    <rdf:RDF>
      <cc:Work
         rdf:about="">
        <dc:format>image/svg+xml</dc:format>
        <dc:type
           rdf:resource="http://purl.org/dc/dcmitype/StillImage" />
        <dc:title></dc:title>
      </cc:Work>
    </rdf:RDF>
  </metadata>
  <sodipodi:namedview
     pagecolor="#ffffff"
     bordercolor="#666666"
     borderopacity="1"
     objecttolerance="10"
     gridtolerance="10"
     guidetolerance="10"
     inkscape:pageopacity="0"
     inkscape:pageshadow="2"
     inkscape:window-width="1920"
     inkscape:window-height="1134"
     id="namedview13"
     showgrid="false"
     inkscape:zoom="4.9166667"
     inkscape:cx="-24.508474"
     inkscape:cy="24"
     inkscape:window-x="1920"
     inkscape:window-y="0"
     inkscape:window-maximized="1"
     inkscape:current-layer="svg2" />
  <defs
     id="defs4">
    <linearGradient
       gradientUnits="userSpaceOnUse"
       y2="-1.974"
       x2="47.060001"
       y1="132.3"
       x1="44.671001"
       id="0"
       gradientTransform="matrix(0.07518967,0,0,0.07518967,7.4015827,6.1505566)">
      <stop
         stop-color="#566069"
         id="stop7" />
      <stop
         offset="1"
         stop-color="#6c7884"
         id="stop9" />
    </linearGradient>
  </defs>
  <path
     d="m 10.212924,11.00405 2.977135,-2.9772099 c 0.151131,-0.1511317 0.227073,-0.3359475 0.227073,-0.554449 0,-0.2185006 -0.07519,-0.403242 -0.227073,-0.5543729 L 12.73065,6.4585339 C 12.579519,6.307403 12.394778,6.2322134 12.176353,6.2322134 c -0.218502,0 -0.403243,0.075189 -0.554449,0.2263205 L 7.6278284,10.446594 c -0.1511312,0.151131 -0.2270727,0.335948 -0.2270727,0.554448 0,0.218502 0.07519,0.403243 0.2270727,0.554374 l 3.9940756,3.98806 c 0.151131,0.151131 0.335947,0.227073 0.554449,0.227073 0.218425,0 0.403242,-0.07519 0.554297,-0.227073 l 0.459409,-0.459409 c 0.151131,-0.151131 0.227073,-0.334895 0.227073,-0.551366 0,-0.216396 -0.07519,-0.402264 -0.227073,-0.557456 L 10.212924,11.0042 M 20.625,11 A 9.625,9.625 0 0 1 11,20.625 9.625,9.625 0 0 1 1.3750001,11 9.625,9.625 0 0 1 11,1.375 9.625,9.625 0 0 1 20.625,11"
     id="path11"
     style="fill:url(#0);stroke:none;stroke-width:4.51100016"
     inkscape:connector-curvature="0" />
</svg>
