<?xml version="1.0" encoding="UTF-8" standalone="no"?>
<svg
   xmlns:dc="http://purl.org/dc/elements/1.1/"
   xmlns:cc="http://creativecommons.org/ns#"
   xmlns:rdf="http://www.w3.org/1999/02/22-rdf-syntax-ns#"
   xmlns:svg="http://www.w3.org/2000/svg"
   xmlns="http://www.w3.org/2000/svg"
   xmlns:sodipodi="http://sodipodi.sourceforge.net/DTD/sodipodi-0.dtd"
   xmlns:inkscape="http://www.inkscape.org/namespaces/inkscape"
   height="32"
   viewBox="0 0 32 32"
   width="32"
   id="svg2"
   version="1.1"
   inkscape:version="0.91 r13725"
   sodipodi:docname="preferences-desktop-emoticons.svg">
  <metadata
     id="metadata27">
    <rdf:RDF>
      <cc:Work
         rdf:about="">
        <dc:format>image/svg+xml</dc:format>
        <dc:type
           rdf:resource="http://purl.org/dc/dcmitype/StillImage" />
        <dc:title></dc:title>
      </cc:Work>
    </rdf:RDF>
  </metadata>
  <defs
     id="defs25" />
  <sodipodi:namedview
     pagecolor="#ffffff"
     bordercolor="#666666"
     borderopacity="1"
     objecttolerance="10"
     gridtolerance="10"
     guidetolerance="10"
     inkscape:pageopacity="0"
     inkscape:pageshadow="2"
     inkscape:window-width="1920"
     inkscape:window-height="1134"
     id="namedview23"
     showgrid="false"
     inkscape:snap-page="false"
     inkscape:zoom="4.9166667"
     inkscape:cx="24.610169"
     inkscape:cy="24"
     inkscape:window-x="1920"
     inkscape:window-y="0"
     inkscape:window-maximized="1"
     inkscape:current-layer="svg2" />
  <linearGradient
     id="a"
     gradientUnits="userSpaceOnUse"
     x1="488.20422"
     x2="488.11148"
     y1="547.74359"
     y2="537.67596">
    <stop
       offset="0"
       stop-color="#ffeb96"
       id="stop5" />
    <stop
       offset="1"
       stop-color="#fff1b7"
       id="stop7" />
  </linearGradient>
  <g
     id="g3355"
     transform="matrix(0.60869564,0,0,0.60869564,1.391264,1.3912585)">
    <g
       id="g9"
       transform="matrix(4.1818183,0,0,4.1818183,-2017.8498,-2244.0174)">
      <circle
         id="circle11"
         r="5.5"
         cy="542.35199"
         cx="488.26843"
         style="fill:url(#a)" />
      <circle
         id="circle13"
         r="0.60000002"
         cy="542.29797"
         cx="485.18286"
         style="fill:#414141" />
      <circle
         id="circle15"
         r="0.60000002"
         cy="542.29797"
         cx="491.34543"
         style="fill:#414141" />
    </g>
    <g
       id="g17"
       transform="matrix(4.1818183,0,0,4.1818183,-2053.1031,-2160.3268)">
      <path
         id="path19"
         d="m 499.04677,523.9624 c 0,0.0697 0.78328,0.13891 0.7785,0.20747 -0.10987,1.57513 -1.46142,2.82136 -3.1162,2.82711 -1.64847,0.006 -3.00505,-1.22186 -3.13541,-2.78762 -0.006,-0.0744 0.3045,-0.14957 0.304,-0.2254 l 2.82029,-0.0216 z"
         inkscape:connector-curvature="0"
         style="fill:#f7aa86" />
      <path
         id="path21"
         d="m 493.65983,523.64038 6.07747,0 c 0.049,0 0.0884,0.0394 0.0884,0.0884 l 0,0.38477 c 0,0.049 -0.01,0.20628 -0.01,0.20628 l -6.23426,0 c 0,0 -0.01,-0.15728 -0.01,-0.20628 l 0,-0.38477 c 0,-0.049 0.0394,-0.0884 0.0884,-0.0884 z"
         inkscape:connector-curvature="0"
         style="fill:#f3f3f3" />
    </g>
  </g>
</svg>
