<?xml version="1.0" encoding="UTF-8" standalone="no"?>
<svg
   xmlns:dc="http://purl.org/dc/elements/1.1/"
   xmlns:cc="http://creativecommons.org/ns#"
   xmlns:rdf="http://www.w3.org/1999/02/22-rdf-syntax-ns#"
   xmlns:svg="http://www.w3.org/2000/svg"
   xmlns="http://www.w3.org/2000/svg"
   xmlns:xlink="http://www.w3.org/1999/xlink"
   xmlns:sodipodi="http://sodipodi.sourceforge.net/DTD/sodipodi-0.dtd"
   xmlns:inkscape="http://www.inkscape.org/namespaces/inkscape"
   height="32"
   width="32"
   id="svg2"
   version="1.1"
   inkscape:version="0.91 r13725"
   sodipodi:docname="preferences-kde-connect.svg">
  <metadata
     id="metadata42">
    <rdf:RDF>
      <cc:Work
         rdf:about="">
        <dc:format>image/svg+xml</dc:format>
        <dc:type
           rdf:resource="http://purl.org/dc/dcmitype/StillImage" />
        <dc:title></dc:title>
      </cc:Work>
    </rdf:RDF>
  </metadata>
  <defs
     id="defs40" />
  <sodipodi:namedview
     pagecolor="#ffffff"
     bordercolor="#666666"
     borderopacity="1"
     objecttolerance="10"
     gridtolerance="10"
     guidetolerance="10"
     inkscape:pageopacity="0"
     inkscape:pageshadow="2"
     inkscape:window-width="1920"
     inkscape:window-height="1134"
     id="namedview38"
     showgrid="false"
     inkscape:zoom="4.9166667"
     inkscape:cx="24"
     inkscape:cy="24"
     inkscape:window-x="1920"
     inkscape:window-y="0"
     inkscape:window-maximized="1"
     inkscape:current-layer="svg2" />
  <linearGradient
     id="a">
    <stop
       offset="0"
       stop-color="#141414"
       id="stop5" />
    <stop
       offset="1"
       stop-color="#2d2d2f"
       id="stop7" />
  </linearGradient>
  <linearGradient
     id="b">
    <stop
       offset="0"
       stop-color="#08f"
       id="stop10" />
    <stop
       offset="1"
       stop-color="#02c3ff"
       id="stop12" />
  </linearGradient>
  <linearGradient
     id="c"
     gradientTransform="matrix(0.93022459,0,0,0.91890978,14.81504,32.586917)"
     gradientUnits="userSpaceOnUse"
     x1="169.50124"
     x2="159.23744"
     xlink:href="#b"
     y1="624.71625"
     y2="63.268539" />
  <linearGradient
     id="d"
     gradientUnits="userSpaceOnUse"
     x1="159.46294"
     x2="160.66307"
     xlink:href="#b"
     y1="668.02557"
     y2="596.96564" />
  <linearGradient
     id="e"
     gradientUnits="userSpaceOnUse"
     x1="8.1667156"
     x2="8.1149874"
     xlink:href="#a"
     y1="1050.4657"
     y2="1038.3525" />
  <linearGradient
     gradientUnits="userSpaceOnUse"
     x1="184.70731"
     x2="187.27681"
     xlink:href="#a"
     y1="448.4129"
     y2="70.32579"
     id="linearGradient17" />
  <linearGradient
     id="f"
     gradientUnits="userSpaceOnUse"
     x1="159.46292"
     x2="160.66307"
     xlink:href="#b"
     y1="668.02557"
     y2="596.96564" />
  <g
     transform="matrix(0.04652965,0,0,0.04047386,8.4928039,2.1242328)"
     id="g20">
    <rect
       height="525.80939"
       ry="9.3022461"
       width="292.69278"
       x="18.553144"
       y="87.912102"
       id="rect22"
       style="fill:url(#c);fill-rule:evenodd" />
    <path
       d="m 11.403509,1037.3622 -6.807018,0 c -0.310036,0 -0.561404,0.2514 -0.561404,0.5614 l 0,12.8772 c 0,0.31 0.251368,0.5614 0.561404,0.5614 l 6.807018,0 c 0.310035,0 0.561404,-0.2514 0.561404,-0.5614 l 0,-12.8772 c 0,-0.31 -0.251369,-0.5614 -0.561404,-0.5614 z m -0.08154,11.7777 -6.643931,0 0,-9.5554 6.643931,0 z"
       transform="matrix(42.98335,0,0,49.41461,-182.5246,-51263.918)"
       id="path24"
       style="fill:url(#e)"
       inkscape:connector-curvature="0" />
    <ellipse
       cx="161.34221"
       cy="637.97839"
       rx="25.225653"
       ry="28.999971"
       id="ellipse26"
       style="fill:url(#f);fill-rule:evenodd;stroke:url(#d);stroke-width:7.41089296;stroke-linecap:round" />
  </g>
  <g
     transform="matrix(0.43677045,0,0,0.43542418,214.77765,72.608162)"
     id="g28"
     style="fill:#121212;fill-opacity:0.84693903">
    <ellipse
       cx="-462.60782"
       cy="-130.50694"
       rx="2.4999931"
       ry="2.5"
       id="ellipse30" />
    <ellipse
       cx="-458.10782"
       cy="-123.00694"
       rx="2.9999919"
       ry="3"
       id="ellipse32" />
    <ellipse
       cx="-460.60788"
       cy="-138.50693"
       rx="1.500003"
       ry="1.499995"
       id="ellipse34" />
    <path
       d="m -452.10784,-140.00692 -2.84375,2.84374 4.375,4.375 -4.53125,5.15625 3,2.625 7.00002,-8 0,0 -7.00002,-6.99999 z"
       id="path36"
       inkscape:connector-curvature="0" />
  </g>
</svg>
