<?xml version="1.0" encoding="UTF-8" standalone="no"?>
<svg
   xmlns:dc="http://purl.org/dc/elements/1.1/"
   xmlns:cc="http://creativecommons.org/ns#"
   xmlns:rdf="http://www.w3.org/1999/02/22-rdf-syntax-ns#"
   xmlns:svg="http://www.w3.org/2000/svg"
   xmlns="http://www.w3.org/2000/svg"
   xmlns:sodipodi="http://sodipodi.sourceforge.net/DTD/sodipodi-0.dtd"
   xmlns:inkscape="http://www.inkscape.org/namespaces/inkscape"
   height="32"
   width="32"
   id="svg2"
   version="1.1"
   inkscape:version="0.91 r13725"
   sodipodi:docname="preferences-desktop-text-to-speech.svg">
  <metadata
     id="metadata29">
    <rdf:RDF>
      <cc:Work
         rdf:about="">
        <dc:format>image/svg+xml</dc:format>
        <dc:type
           rdf:resource="http://purl.org/dc/dcmitype/StillImage" />
        <dc:title></dc:title>
      </cc:Work>
    </rdf:RDF>
  </metadata>
  <defs
     id="defs27" />
  <sodipodi:namedview
     pagecolor="#ffffff"
     bordercolor="#666666"
     borderopacity="1"
     objecttolerance="10"
     gridtolerance="10"
     guidetolerance="10"
     inkscape:pageopacity="0"
     inkscape:pageshadow="2"
     inkscape:window-width="1920"
     inkscape:window-height="1134"
     id="namedview25"
     showgrid="false"
     inkscape:zoom="4.9166667"
     inkscape:cx="1.4237288"
     inkscape:cy="24"
     inkscape:window-x="1920"
     inkscape:window-y="0"
     inkscape:window-maximized="1"
     inkscape:current-layer="svg2" />
  <linearGradient
     gradientUnits="userSpaceOnUse"
     x1="0"
     x2="47"
     y1="23.5"
     y2="23.5"
     id="linearGradient4">
    <stop
       offset="0"
       stop-color="#a9a3d4"
       id="stop6" />
    <stop
       offset=".47001833"
       stop-color="#87baff"
       id="stop8" />
    <stop
       offset="1"
       stop-color="#89ec85"
       id="stop10" />
  </linearGradient>
  <linearGradient
     id="a"
     gradientUnits="userSpaceOnUse"
     x1="399.9939"
     x2="399.9939"
     y1="545.13873"
     y2="518.13873">
    <stop
       offset="0"
       stop-color="#4dc003"
       id="stop13" />
    <stop
       offset="1"
       stop-color="#89f907"
       id="stop15" />
  </linearGradient>
  <g
     transform="matrix(0.10326639,0,0,0.10326639,11.146464,8.9779379)"
     id="g17"
     style="fill:#ffffff;fill-opacity:0.85;stroke-width:1.31742203">
    <circle
       cx="400.57138"
       cy="531.79791"
       r="13.999958"
       transform="matrix(9.6837219,0,0,9.6837219,-3832.0217,-5081.7836)"
       id="circle19"
       style="fill:url(#a);fill-opacity:1" />
    <path
       d="m 47,94.07 c 7.17,0 13.307,-2.553 18.412,-7.657 C 70.517,81.309 73.07,75.17 73.07,68 l 0,-41.714 C 73.07,19.116 70.519,12.979 65.412,7.873 60.307,2.768 54.17,0.214 47,0.214 c -7.17,0 -13.307,2.554 -18.413,7.659 -5.106,5.105 -7.659,11.243 -7.659,18.413 l 0,41.714 c 0,7.17 2.554,13.309 7.659,18.413 C 33.692,91.517 39.83,94.07 47,94.07 Z"
       id="path21"
       inkscape:connector-curvature="0"
       style="fill:#ffffff;fill-opacity:0.85" />
    <path
       d="m 92.38,53.905 c -1.03,-1.032 -2.254,-1.548 -3.666,-1.548 -1.412,0 -2.634,0.516 -3.666,1.548 -1.032,1.032 -1.548,2.254 -1.548,3.666 L 83.5,68 C 83.5,78.049 79.928,86.643 72.786,93.786 65.645,100.929 57.049,104.5 47,104.5 36.951,104.5 28.356,100.929 21.213,93.786 14.071,86.645 10.5,78.049 10.5,68 l 0,-10.429 C 10.5,56.159 9.984,54.937 8.952,53.905 7.92,52.873 6.699,52.357 5.286,52.357 c -1.413,0 -2.635,0.516 -3.667,1.548 -1.032,1.032 -1.548,2.254 -1.548,3.666 l 0,10.429 c 0,12.004 4.006,22.446 12.017,31.326 8.011,8.88 17.91,13.972 29.697,15.275 l 0,10.756 -20.857,0 c -1.412,0 -2.634,0.516 -3.666,1.548 -1.032,1.032 -1.548,2.254 -1.548,3.666 0,1.411 0.516,2.635 1.548,3.666 1.032,1.032 2.254,1.549 3.666,1.549 l 52.142,0 c 1.412,0 2.636,-0.517 3.666,-1.549 1.033,-1.031 1.55,-2.255 1.55,-3.666 0,-1.412 -0.517,-2.634 -1.55,-3.666 -1.03,-1.032 -2.254,-1.548 -3.666,-1.548 l -20.855,0 0,-10.756 C 64,113.298 73.899,108.206 81.911,99.326 89.923,90.446 93.93,80.004 93.93,68 l 0,-10.429 c 0,-1.412 -0.517,-2.633 -1.55,-3.666 z"
       id="path23"
       inkscape:connector-curvature="0"
       style="fill:#ffffff;fill-opacity:0.85" />
  </g>
</svg>
