<?xml version="1.0" encoding="UTF-8" standalone="no"?>
<!-- Created with Inkscape (http://www.inkscape.org/) -->

<svg
   xmlns:dc="http://purl.org/dc/elements/1.1/"
   xmlns:cc="http://creativecommons.org/ns#"
   xmlns:rdf="http://www.w3.org/1999/02/22-rdf-syntax-ns#"
   xmlns:svg="http://www.w3.org/2000/svg"
   xmlns="http://www.w3.org/2000/svg"
   xmlns:xlink="http://www.w3.org/1999/xlink"
   xmlns:sodipodi="http://sodipodi.sourceforge.net/DTD/sodipodi-0.dtd"
   xmlns:inkscape="http://www.inkscape.org/namespaces/inkscape"
   width="64"
   version="1.1"
   height="64"
   id="svg37"
   sodipodi:docname="media-flash-sd-mmc.svg"
   inkscape:version="0.92.3 (unknown)">
  <sodipodi:namedview
     pagecolor="#ffffff"
     bordercolor="#666666"
     borderopacity="1"
     objecttolerance="10"
     gridtolerance="10"
     guidetolerance="10"
     inkscape:pageopacity="0"
     inkscape:pageshadow="2"
     inkscape:window-width="741"
     inkscape:window-height="480"
     id="namedview39"
     showgrid="false"
     inkscape:zoom="3.6875"
     inkscape:cx="32"
     inkscape:cy="32"
     inkscape:window-x="0"
     inkscape:window-y="0"
     inkscape:window-maximized="0"
     inkscape:current-layer="layer1" />
  <defs
     id="defs5455">
    <linearGradient
       inkscape:collect="always"
       id="linearGradient4187">
      <stop
         style="stop-color:#1f2021"
         id="stop4189" />
      <stop
         offset="1"
         style="stop-color:#272b2d"
         id="stop4191" />
    </linearGradient>
    <linearGradient
       inkscape:collect="always"
       id="linearGradient4158"
       xlink:href="#linearGradient4271"
       y1="543.79797"
       y2="503.798"
       gradientUnits="userSpaceOnUse"
       x2="0"
       gradientTransform="matrix(1.0271756 0 0 1 -394.97889 -499.79799)" />
    <linearGradient
       inkscape:collect="always"
       id="linearGradient4271">
      <stop
         style="stop-color:#2a2c2f"
         id="stop4273" />
      <stop
         offset="1"
         style="stop-color:#424649"
         id="stop4275" />
    </linearGradient>
    <linearGradient
       inkscape:collect="always"
       id="linearGradient4435">
      <stop
         style="stop-color:#c61423"
         id="stop4437" />
      <stop
         offset="1"
         style="stop-color:#dc2b41"
         id="stop4439" />
    </linearGradient>
    <linearGradient
       inkscape:collect="always"
       xlink:href="#linearGradient4187"
       id="linearGradient4415"
       y1="543.79797"
       y2="511.798"
       x2="0"
       gradientUnits="userSpaceOnUse" />
    <linearGradient
       inkscape:collect="always"
       xlink:href="#linearGradient4435"
       id="linearGradient4183"
       y1="520.34692"
       y2="503.798"
       x2="0"
       gradientUnits="userSpaceOnUse" />
    <linearGradient
       inkscape:collect="always"
       xlink:href="#linearGradient4227"
       id="linearGradient4521"
       y1="32.00002"
       x1="23.999987"
       y2="56.00002"
       x2="47.999985"
       gradientUnits="userSpaceOnUse" />
    <linearGradient
       inkscape:collect="always"
       id="linearGradient4227">
      <stop
         style="stop-color:#292c2f"
         id="stop4229" />
      <stop
         offset="1"
         style="stop-opacity:0"
         id="stop4231" />
    </linearGradient>
  </defs>
  <metadata
     id="metadata5458">
    <rdf:RDF>
      <cc:Work
         rdf:about="">
        <dc:format>image/svg+xml</dc:format>
        <dc:type
           rdf:resource="http://purl.org/dc/dcmitype/StillImage" />
      </cc:Work>
    </rdf:RDF>
  </metadata>
  <g
     inkscape:label="Capa 1"
     inkscape:groupmode="layer"
     id="layer1"
     transform="matrix(1 0 0 1 -376.57144 -491.79797)">
    <path
       inkscape:connector-curvature="0"
       style="fill:#afc0c6"
       id="rect4202"
       d="m 388.57144,510.79797 c -0.554,0 -1,0.446 -1,1 l 0,7 c 0,0.554 0.446,1 1,1 l 2,0 0,-9 -2,0 z" />
    <path
       style="fill:url(#linearGradient4158)"
       id="rect4139"
       d="M 11 6 L 11 20 L 13 20 L 13 33 L 11 33 L 11 58 L 53 58 L 53 28 L 52 28 L 52 23 L 53 23 L 53 13 L 46 6 L 11 6 z "
       transform="matrix(1 0 0 1 376.57144 491.79797)" />
    <rect
       width="42"
       x="387.57144"
       y="548.79797"
       height="1.00002"
       style="stroke-opacity:0.550265;fill:#1c1e20;stroke-width:2.8"
       id="rect4492" />
    <rect
       width="15.599988"
       x="400.77151"
       y="506.89804"
       rx="7.799993"
       height="15.599988"
       style="fill:#abb9be;stroke-width:0.1"
       id="rect4963" />
    <rect
       width="35.999985"
       x="390.57144"
       y="511.798"
       height="31.999989"
       style="fill:url(#linearGradient4415)"
       id="rect4407" />
    <path
       style="fill:url(#linearGradient4521);opacity:0.2"
       id="rect4500"
       d="M 28.707031 31.292969 L 27.292969 32.707031 L 35.34375 40.757812 L 35.119141 41 L 52.119141 58 L 53 58 L 53 49.119141 L 39.804688 35.923828 L 36.701172 39.287109 L 28.707031 31.292969 z M 26.560547 37.439453 L 24.439453 39.560547 L 29.939453 45.060547 L 28.585938 46.414062 L 40.171875 58 L 47.121094 58 L 26.560547 37.439453 z "
       transform="matrix(1 0 0 1 376.57144 491.79797)" />
    <rect
       width="35.999985"
       x="390.57144"
       y="505.798"
       height="10.999989"
       style="fill:url(#linearGradient4183)"
       id="rect4175" />
    <rect
       width="30.999985"
       x="393.07144"
       y="545.79785"
       rx="1"
       height="2"
       style="fill:#1c1e20"
       id="rect4185" />
    <rect
       width="2"
       x="387.57144"
       y="511.798"
       height="1"
       style="fill:#96aab5"
       id="rect4332" />
    <path
       style="fill:#dfe6e8"
       id="rect4604"
       d="M 16 16 L 16 17 L 28 17 L 28 16 L 16 16 z M 16 18 L 16 19 L 34 19 L 34 18 L 16 18 z M 16 20 L 16 21 L 24 21 L 24 20 L 16 20 z M 16 22 L 16 23 L 21 23 L 21 22 L 16 22 z "
       transform="matrix(1 0 0 1 376.57144 491.79797)" />
    <path
       inkscape:connector-curvature="0"
       style="fill:#dfe6e8;fill-rule:evenodd"
       id="path4616"
       d="m 394.57144,519.79799 -1.00001,0.99998 -0.99999,-0.99998 z" />
    <path
       style="fill:#afc0c6"
       id="rect4618"
       d="M 43 47 L 43 48 L 48 48 L 48 47 L 43 47 z M 43 49 L 43 50 L 45 50 L 45 49 L 43 49 z "
       transform="matrix(1 0 0 1 376.57144 491.79797)" />
    <path
       inkscape:connector-curvature="0"
       style="fill:#cf1d2f;fill-opacity:1"
       d="m 392.42495,541.77258 v -3.625 h 0.9375 c 0.26042,1.08334 0.65104,1.85677 1.17188,2.32032 0.52083,0.46354 1.08333,0.69531 1.6875,0.69531 0.44792,0 0.80468,-0.13281 1.07031,-0.39844 0.26563,-0.26563 0.39844,-0.57812 0.39844,-0.9375 0,-0.25521 -0.0833,-0.51041 -0.25,-0.76562 -0.16667,-0.25521 -0.5625,-0.53907 -1.1875,-0.85157 -1.20313,-0.59896 -2.01563,-1.03776 -2.4375,-1.3164 -0.42188,-0.27865 -0.76042,-0.63672 -1.01563,-1.07422 -0.25521,-0.4375 -0.38281,-0.9401 -0.38281,-1.50781 0,-0.91147 0.32682,-1.66276 0.98047,-2.25391 0.65365,-0.59115 1.41015,-0.88672 2.26953,-0.88672 0.90105,0 1.66666,0.30208 2.29687,0.90625 0.10417,-0.15625 0.19011,-0.39583 0.25782,-0.71875 h 0.89843 v 3.125 h -0.875 c -0.15625,-0.69271 -0.45312,-1.26302 -0.89062,-1.71094 -0.4375,-0.44792 -0.92968,-0.67187 -1.47656,-0.67187 -0.41146,0 -0.73828,0.11458 -0.98047,0.34375 -0.24219,0.22917 -0.36328,0.51562 -0.36328,0.85937 0,0.26563 0.0781,0.51172 0.23437,0.73828 0.15625,0.22657 0.36719,0.41407 0.63281,0.5625 0.26563,0.14844 0.82813,0.42318 1.6875,0.82422 0.77084,0.36459 1.34115,0.69011 1.71094,0.97657 0.3698,0.28646 0.66276,0.64713 0.87891,1.08203 0.21615,0.43489 0.32422,0.90494 0.32422,1.41015 0,0.93751 -0.34635,1.71745 -1.03907,2.33985 -0.69271,0.6224 -1.51822,0.93359 -2.47656,0.93359 -0.54688,0 -1.08203,-0.11458 -1.60547,-0.34375 -0.52344,-0.22917 -0.9414,-0.53385 -1.2539,-0.91406 -0.11979,0.23437 -0.20834,0.52083 -0.26563,0.85937 z m 8.58594,0.17969 v -0.86719 c 0.55729,0 0.92708,-0.0872 1.10937,-0.26172 0.1823,-0.17448 0.27344,-0.51952 0.27344,-1.03515 v -6.27344 c 0,-0.5 -0.0859,-0.84114 -0.25781,-1.02344 -0.17188,-0.18229 -0.54687,-0.27343 -1.125,-0.27343 v -0.85938 l 1.27344,-0.0469 c 1.28125,-0.0521 2.28645,-0.0781 3.01562,-0.0781 1.21876,0 2.20963,0.0703 2.97266,0.21094 0.76302,0.14062 1.48437,0.44921 2.16406,0.92578 0.67969,0.47656 1.20312,1.09375 1.57031,1.85156 0.36719,0.75782 0.55078,1.59245 0.55078,2.50391 0,0.93229 -0.194,1.76562 -0.58203,2.5 -0.38802,0.73438 -0.91015,1.32031 -1.5664,1.75781 -0.65626,0.4375 -1.33594,0.70833 -2.03907,0.8125 -0.70312,0.10417 -1.8854,0.15625 -3.54687,0.15625 z m 4.15625,-9.76562 v 7.29687 c 0,0.46875 0.0221,0.78385 0.0664,0.94531 0.0443,0.16146 0.16146,0.29948 0.35156,0.41407 0.19011,0.11458 0.48307,0.17187 0.87891,0.17187 0.97917,0 1.71223,-0.35937 2.19922,-1.07812 0.48698,-0.71876 0.73047,-1.79427 0.73047,-3.22657 0,-1.15625 -0.17969,-2.07682 -0.53907,-2.76172 -0.35937,-0.6849 -0.82552,-1.14973 -1.39843,-1.39453 -0.57292,-0.24479 -1.33594,-0.36718 -2.28907,-0.36718 z"
       id="SD" />
  </g>
</svg>
