<?xml version="1.0" encoding="UTF-8" standalone="no"?>
<svg
   xmlns:dc="http://purl.org/dc/elements/1.1/"
   xmlns:cc="http://creativecommons.org/ns#"
   xmlns:rdf="http://www.w3.org/1999/02/22-rdf-syntax-ns#"
   xmlns:svg="http://www.w3.org/2000/svg"
   xmlns="http://www.w3.org/2000/svg"
   xmlns:xlink="http://www.w3.org/1999/xlink"
   xmlns:sodipodi="http://sodipodi.sourceforge.net/DTD/sodipodi-0.dtd"
   xmlns:inkscape="http://www.inkscape.org/namespaces/inkscape"
   height="32"
   width="32"
   id="svg2"
   version="1.1"
   inkscape:version="0.91 r13725"
   sodipodi:docname="preferences-desktop-printer.svg">
  <metadata
     id="metadata105">
    <rdf:RDF>
      <cc:Work
         rdf:about="">
        <dc:format>image/svg+xml</dc:format>
        <dc:type
           rdf:resource="http://purl.org/dc/dcmitype/StillImage" />
        <dc:title></dc:title>
      </cc:Work>
    </rdf:RDF>
  </metadata>
  <defs
     id="defs103">
    <linearGradient
       inkscape:collect="always"
       xlink:href="#d"
       id="linearGradient3433"
       gradientUnits="userSpaceOnUse"
       gradientTransform="matrix(0.99806114,0,0,1,1.4832,0)"
       x1="744.57147"
       y1="408.86908"
       x2="744.57147"
       y2="301.798" />
    <linearGradient
       inkscape:collect="always"
       xlink:href="#c"
       id="linearGradient3435"
       gradientUnits="userSpaceOnUse"
       x1="747.80255"
       y1="499.83661"
       x2="746.38837"
       y2="417.81219" />
    <linearGradient
       inkscape:collect="always"
       xlink:href="#e"
       id="linearGradient3437"
       gradientUnits="userSpaceOnUse"
       x1="744.57147"
       y1="380.99802"
       x2="744.57147"
       y2="310.99802" />
    <linearGradient
       inkscape:collect="always"
       xlink:href="#b"
       id="linearGradient3439"
       gradientUnits="userSpaceOnUse"
       x1="745.90625"
       y1="499.56796"
       x2="742.22821"
       y2="438.56796" />
    <linearGradient
       inkscape:collect="always"
       xlink:href="#b"
       id="linearGradient3441"
       gradientUnits="userSpaceOnUse"
       x1="735.7807"
       y1="464.76047"
       x2="736.69702"
       y2="504.26047" />
    <linearGradient
       inkscape:collect="always"
       xlink:href="#a"
       id="linearGradient3443"
       gradientUnits="userSpaceOnUse"
       gradientTransform="matrix(0.99867048,0,0,1,0.185367,0)"
       x1="736.45404"
       y1="501.81488"
       x2="736.62952"
       y2="571.81488" />
    <linearGradient
       inkscape:collect="always"
       xlink:href="#i"
       id="linearGradient3445"
       gradientUnits="userSpaceOnUse"
       x1="743.7807"
       y1="547.50397"
       x2="748.19672"
       y2="463.91818" />
    <linearGradient
       inkscape:collect="always"
       xlink:href="#a"
       id="linearGradient3447"
       gradientUnits="userSpaceOnUse"
       x1="754.57147"
       y1="302.79797"
       x2="752.57147"
       y2="258.79797" />
    <linearGradient
       inkscape:collect="always"
       xlink:href="#k"
       id="linearGradient3449"
       gradientUnits="userSpaceOnUse"
       x1="736.81683"
       y1="307.46643"
       x2="738.93817"
       y2="233.2202" />
    <linearGradient
       inkscape:collect="always"
       xlink:href="#d"
       id="linearGradient3451"
       gradientUnits="userSpaceOnUse"
       gradientTransform="matrix(0.99806114,0,0,1,1.4832,0)"
       x1="744.57147"
       y1="408.86908"
       x2="744.57147"
       y2="301.798" />
    <linearGradient
       inkscape:collect="always"
       xlink:href="#c"
       id="linearGradient3453"
       gradientUnits="userSpaceOnUse"
       x1="747.80255"
       y1="499.83661"
       x2="746.38837"
       y2="417.81219" />
    <linearGradient
       inkscape:collect="always"
       xlink:href="#e"
       id="linearGradient3455"
       gradientUnits="userSpaceOnUse"
       x1="744.57147"
       y1="380.99802"
       x2="744.57147"
       y2="310.99802" />
    <linearGradient
       inkscape:collect="always"
       xlink:href="#i"
       id="linearGradient3457"
       gradientUnits="userSpaceOnUse"
       x1="743.7807"
       y1="547.50397"
       x2="748.19672"
       y2="463.91818" />
    <linearGradient
       inkscape:collect="always"
       xlink:href="#k"
       id="linearGradient3459"
       gradientUnits="userSpaceOnUse"
       x1="736.81683"
       y1="307.46643"
       x2="738.93817"
       y2="233.2202" />
  </defs>
  <sodipodi:namedview
     pagecolor="#ffffff"
     bordercolor="#666666"
     borderopacity="1"
     objecttolerance="10"
     gridtolerance="10"
     guidetolerance="10"
     inkscape:pageopacity="0"
     inkscape:pageshadow="2"
     inkscape:window-width="1920"
     inkscape:window-height="1134"
     id="namedview101"
     showgrid="false"
     inkscape:zoom="3.6875"
     inkscape:cx="32"
     inkscape:cy="32"
     inkscape:window-x="1920"
     inkscape:window-y="0"
     inkscape:window-maximized="1"
     inkscape:current-layer="svg2" />
  <linearGradient
     id="a">
    <stop
       offset="0"
       stop-color="#1f1f1f"
       id="stop5" />
    <stop
       offset="1"
       stop-color="#444"
       id="stop7" />
  </linearGradient>
  <linearGradient
     id="b">
    <stop
       offset="0"
       stop-color="#060606"
       id="stop10" />
    <stop
       offset="1"
       stop-color="#343434"
       id="stop12" />
  </linearGradient>
  <linearGradient
     id="c"
     gradientUnits="userSpaceOnUse"
     x1="747.80255"
     x2="746.38837"
     y1="499.83661"
     y2="417.81219">
    <stop
       offset="0"
       stop-color="#a8a8a8"
       id="stop15" />
    <stop
       offset="1"
       stop-color="#ccc"
       id="stop17" />
  </linearGradient>
  <linearGradient
     id="d"
     gradientTransform="matrix(0.99806114,0,0,1,1.4832,0)"
     gradientUnits="userSpaceOnUse"
     x1="744.57147"
     x2="744.57147"
     y1="408.86908"
     y2="301.798">
    <stop
       offset="0"
       stop-color="#cbcbcb"
       id="stop20" />
    <stop
       offset=".60000002"
       stop-color="#e9e9e9"
       id="stop22" />
    <stop
       offset="1"
       stop-color="#bebebe"
       id="stop24" />
  </linearGradient>
  <linearGradient
     id="e"
     gradientUnits="userSpaceOnUse"
     x1="744.57147"
     x2="744.57147"
     y1="380.99802"
     y2="310.99802">
    <stop
       offset="0"
       stop-color="#333"
       id="stop27" />
    <stop
       offset=".64285713"
       stop-color="#4e4e4e"
       id="stop29" />
    <stop
       offset="1"
       stop-color="#333"
       id="stop31" />
  </linearGradient>
  <linearGradient
     id="f"
     gradientUnits="userSpaceOnUse"
     x1="735.7807"
     x2="736.69702"
     xlink:href="#b"
     y1="464.76047"
     y2="504.26047" />
  <linearGradient
     id="g"
     gradientUnits="userSpaceOnUse"
     x1="745.90625"
     x2="742.22821"
     xlink:href="#b"
     y1="499.56796"
     y2="438.56796" />
  <linearGradient
     id="h"
     gradientTransform="matrix(0.99867048,0,0,1,0.185367,0)"
     gradientUnits="userSpaceOnUse"
     x1="736.45404"
     x2="736.62952"
     xlink:href="#a"
     y1="501.81488"
     y2="571.81488" />
  <linearGradient
     id="i"
     gradientUnits="userSpaceOnUse"
     x1="743.7807"
     x2="748.19672"
     y1="547.50397"
     y2="463.91818">
    <stop
       offset="0"
       stop-color="#f4f4f4"
       id="stop37" />
    <stop
       offset="1"
       stop-color="#b0b0b0"
       id="stop39" />
  </linearGradient>
  <linearGradient
     id="j"
     gradientUnits="userSpaceOnUse"
     x1="754.57147"
     x2="752.57147"
     xlink:href="#a"
     y1="302.79797"
     y2="258.79797" />
  <linearGradient
     id="k"
     gradientUnits="userSpaceOnUse"
     x1="736.81683"
     x2="738.93817"
     y1="307.46643"
     y2="233.2202">
    <stop
       offset="0"
       stop-color="#cbcbcb"
       id="stop43" />
    <stop
       offset="1"
       stop-color="#f3f3f3"
       id="stop45" />
  </linearGradient>
  <g
     id="g3461"
     transform="matrix(0.49800671,0,0,0.49800671,0.06378527,15.791089)">
    <g
       style="fill-rule:evenodd"
       id="g47"
       transform="translate(-85.57145,-636.79799)">
      <path
         style="fill:#2a2a2a"
         inkscape:connector-curvature="0"
         id="path49"
         d="m 94.55645,662.31116 46.311,0 0.3,0.50383 0,0.82199 -46.911003,0 0,-0.8494 z" />
      <g
         id="g51"
         transform="matrix(0.15590772,0,0,0.15590772,2.306184,574.43716)">
        <path
           style="fill:url(#linearGradient3433)"
           inkscape:connector-curvature="0"
           id="path53"
           d="m 588.94957,310.33196 298.63015,0 31.84975,30.50885 0,75.55717 -360.339,0 0,-75.91072 z" />
        <path
           style="fill:url(#linearGradient3435)"
           inkscape:connector-curvature="0"
           id="path55"
           d="m 919.62949,416.34827 0,74.73071 c 0,7.6452 -6.1548,13.8 -13.8,13.8 l -333.02448,0 c -7.64521,0 -13.80001,-6.1548 -13.80001,-13.8 l 0,-75.48071 z" />
        <path
           style="fill:url(#linearGradient3437)"
           inkscape:connector-curvature="0"
           id="path57"
           d="m 629.20947,309.62056 220.41632,0 10,21.37742 0,38.72667 c 0,0 0.0574,15.55634 -15.55638,15.55634 l -209.30362,0 c 0,0 -15.05632,-0.61359 -15.55632,-14.84924 l 0,-39.68377 z" />
        <path
           style="fill:url(#linearGradient3439)"
           inkscape:connector-curvature="0"
           id="path59"
           d="m 621.58398,443.13195 235.4665,0 c 9.79345,0 17.6777,7.88426 17.6777,17.6777 l 0,44.19433 -270.8219,0 0,-44.19433 c 0,-9.79344 7.88426,-17.6777 17.6777,-17.6777 z" />
        <path
           style="fill:url(#linearGradient3441)"
           inkscape:connector-curvature="0"
           id="path61"
           d="m 638.45834,461.5169 205.06099,0 c 9.79343,0 17.67767,7.88424 17.67767,17.67767 l 0,25.80941 -240.41632,0 0,-25.80941 c 0,-9.79343 7.88424,-17.67767 17.67766,-17.67767 z" />
        <path
           style="fill:url(#linearGradient3443)"
           inkscape:connector-curvature="0"
           id="path63"
           d="m 603.83585,504.87898 270.81488,0 15.97874,61.87185 -300.775,0 z" />
        <path
           style="fill:url(#linearGradient3445)"
           inkscape:connector-curvature="0"
           id="path65"
           d="m 636.33246,461.51691 210.36427,0 10,89.80256 -230.36427,0 z" />
        <path
           style="fill:url(#linearGradient3447)"
           inkscape:connector-curvature="0"
           id="path67"
           d="m 616.57147,248.99797 243,0 0,61.00002 -243,0 z" />
        <path
           style="fill:url(#linearGradient3449)"
           inkscape:connector-curvature="0"
           id="path69"
           d="m 633.9328,233.2202 211.07138,0 0,77.07465 -211.07138,0 z" />
        <path
           style="fill:#3b3b3b"
           inkscape:connector-curvature="0"
           id="path71"
           d="m 897.29645,369.54797 22.12492,0 0,14.75 -22.12492,0 c -4.08575,0 -7.375,-3.28925 -7.375,-7.375 0,-4.08575 3.28925,-7.375 7.375,-7.375 z" />
        <rect
           style="fill:#d5d5d5"
           id="rect73"
           y="372.54044"
           x="895.28961"
           width="19.982233"
           ry="4.4787769"
           height="8.9575529" />
      </g>
      <path
         style="fill:#2a2a2a"
         inkscape:connector-curvature="0"
         id="path75"
         d="m 94.55645,662.31116 46.311,0 0.3,0.50383 0,0.82199 -46.911003,0 0,-0.8494 z" />
      <g
         id="g77"
         transform="matrix(0.15590772,0,0,0.15590772,2.306184,574.43716)">
        <path
           style="fill:url(#linearGradient3451)"
           inkscape:connector-curvature="0"
           id="path79"
           d="m 588.94957,310.33196 298.63015,0 31.84975,30.50885 0,75.55717 -360.339,0 0,-75.91072 z" />
        <path
           style="fill:url(#linearGradient3453)"
           inkscape:connector-curvature="0"
           id="path81"
           d="m 919.62949,416.34827 0,74.73071 c 0,7.6452 -6.1548,13.8 -13.8,13.8 l -333.02448,0 c -7.64521,0 -13.80001,-6.1548 -13.80001,-13.8 l 0,-75.48071 z" />
        <path
           style="fill:url(#linearGradient3455)"
           inkscape:connector-curvature="0"
           id="path83"
           d="m 629.20947,309.62056 220.41632,0 10,21.37742 0,38.72667 c 0,0 0.0574,15.55634 -15.55638,15.55634 l -209.30362,0 c 0,0 -15.05632,-0.61359 -15.55632,-14.84924 l 0,-39.68377 z" />
        <path
           style="fill:url(#g)"
           inkscape:connector-curvature="0"
           id="path85"
           d="m 621.58398,443.13195 235.4665,0 c 9.79345,0 17.6777,7.88426 17.6777,17.6777 l 0,44.19433 -270.8219,0 0,-44.19433 c 0,-9.79344 7.88426,-17.6777 17.6777,-17.6777 z" />
        <path
           style="fill:url(#f)"
           inkscape:connector-curvature="0"
           id="path87"
           d="m 638.45834,461.5169 205.06099,0 c 9.79343,0 17.67767,7.88424 17.67767,17.67767 l 0,25.80941 -240.41632,0 0,-25.80941 c 0,-9.79343 7.88424,-17.67767 17.67766,-17.67767 z" />
        <path
           style="fill:url(#h)"
           inkscape:connector-curvature="0"
           id="path89"
           d="m 603.83585,504.87898 270.81488,0 15.97874,61.87185 -300.775,0 z" />
        <path
           style="fill:url(#linearGradient3457)"
           inkscape:connector-curvature="0"
           id="path91"
           d="m 636.33246,461.51691 210.36427,0 10,89.80256 -230.36427,0 z" />
        <path
           style="fill:url(#j)"
           inkscape:connector-curvature="0"
           id="path93"
           d="m 616.57147,248.99797 243,0 0,61.00002 -243,0 z" />
        <path
           style="fill:url(#linearGradient3459)"
           inkscape:connector-curvature="0"
           id="path95"
           d="m 633.9328,233.2202 211.07138,0 0,77.07465 -211.07138,0 z" />
        <path
           style="fill:#3b3b3b"
           inkscape:connector-curvature="0"
           id="path97"
           d="m 897.29645,369.54797 22.12492,0 0,14.75 -22.12492,0 c -4.08575,0 -7.375,-3.28925 -7.375,-7.375 0,-4.08575 3.28925,-7.375 7.375,-7.375 z" />
        <rect
           style="fill:#d5d5d5"
           id="rect99"
           y="372.54044"
           x="895.28961"
           width="19.982233"
           ry="4.4787769"
           height="8.9575529" />
      </g>
    </g>
  </g>
</svg>
