<?xml version="1.0" encoding="UTF-8" standalone="no"?>
<svg
   xmlns:dc="http://purl.org/dc/elements/1.1/"
   xmlns:cc="http://creativecommons.org/ns#"
   xmlns:rdf="http://www.w3.org/1999/02/22-rdf-syntax-ns#"
   xmlns:svg="http://www.w3.org/2000/svg"
   xmlns="http://www.w3.org/2000/svg"
   xmlns:sodipodi="http://sodipodi.sourceforge.net/DTD/sodipodi-0.dtd"
   xmlns:inkscape="http://www.inkscape.org/namespaces/inkscape"
   width="128"
   height="128"
   version="1"
   id="svg34"
   sodipodi:docname="lightcloud.svg"
   inkscape:version="0.92.2 (unknown)">
  <metadata
     id="metadata40">
    <rdf:RDF>
      <cc:Work
         rdf:about="">
        <dc:format>image/svg+xml</dc:format>
        <dc:type
           rdf:resource="http://purl.org/dc/dcmitype/StillImage" />
        <dc:title></dc:title>
      </cc:Work>
    </rdf:RDF>
  </metadata>
  <defs
     id="defs38" />
  <sodipodi:namedview
     pagecolor="#ffffff"
     bordercolor="#666666"
     borderopacity="1"
     objecttolerance="10"
     gridtolerance="10"
     guidetolerance="10"
     inkscape:pageopacity="0"
     inkscape:pageshadow="2"
     inkscape:window-width="1920"
     inkscape:window-height="1027"
     id="namedview36"
     showgrid="false"
     showguides="false"
     inkscape:zoom="4"
     inkscape:cx="38.723386"
     inkscape:cy="59.700881"
     inkscape:window-x="0"
     inkscape:window-y="25"
     inkscape:window-maximized="1"
     inkscape:current-layer="svg34"
     inkscape:guide-bbox="true"
     inkscape:snap-global="true"
     inkscape:snap-nodes="true"
     inkscape:snap-object-midpoints="false"
     inkscape:snap-midpoints="true"
     inkscape:snap-smooth-nodes="true"
     inkscape:snap-intersection-paths="true"
     inkscape:object-paths="true"
     inkscape:object-nodes="true">
    <inkscape:grid
       type="xygrid"
       id="grid106" />
  </sodipodi:namedview>
  <circle
     r="60"
     cy="64"
     cx="64"
     id="circle829"
     style="fill:#0091cf;fill-opacity:1;stroke-width:1.72661865" />
  <path
     style="fill:#ffffff;fill-opacity:1;stroke-width:1.72661865;opacity:0.1"
     d="M 64 4 A 60 60 0 0 0 4 64 A 60 60 0 0 0 4.0410156 65.169922 A 60 60 0 0 1 64 6 A 60 60 0 0 1 123.95898 64.830078 A 60 60 0 0 0 124 64 A 60 60 0 0 0 64 4 z "
     id="path4665" />
  <path
     style="opacity:1;fill:#ff8a47;fill-opacity:1;stroke:none;stroke-width:0.57519996;stroke-miterlimit:4;stroke-dasharray:none"
     d="M 64,19 51,32 H 32 V 51 L 19,64 32,77 V 96 H 51 L 64,109 77,96 H 96 V 77 L 109,64 96,51 V 32 H 77 Z"
     id="rect1284"
     inkscape:connector-curvature="0" />
  <path
     inkscape:connector-curvature="0"
     id="path1308"
     d="M 64,19 51,32 H 32 v 2 H 51 L 64,21 77,34 H 96 V 32 H 77 Z M 32,51 19,64 20,65 32,53 Z m 64,0 v 2 l 12,12 1,-1 z"
     style="opacity:0.2;fill:#ffffff;fill-opacity:1;stroke:none;stroke-width:0.57519996;stroke-miterlimit:4;stroke-dasharray:none" />
  <circle
     style="opacity:1;fill:#ffcc42;fill-opacity:1;stroke:none;stroke-width:1.21094739;stroke-miterlimit:4;stroke-dasharray:none"
     id="path1292"
     cx="64"
     cy="64"
     r="32" />
  <path
     style="opacity:0.2;fill:#000000;fill-opacity:1;stroke:none;stroke-width:0.57519996;stroke-miterlimit:4;stroke-dasharray:none"
     d="m 20,65 -1,1 13,13 v -2 z m 88,0 -12,12 v 2 L 109,66 Z M 32,96 v 2 H 51 L 64,111 77,98 H 96 V 96 H 77 L 64,109 51,96 Z"
     id="path1304-3"
     inkscape:connector-curvature="0" />
  <path
     style="opacity:0.2;fill:#000000;fill-opacity:1;stroke:none;stroke-width:1.21094739;stroke-miterlimit:4;stroke-dasharray:none"
     d="M 95.958984 64.828125 A 32 32 0 0 1 64 96 A 32 32 0 0 1 32.041016 65.171875 A 32 32 0 0 0 32 66 A 32 32 0 0 0 64 98 A 32 32 0 0 0 96 66 A 32 32 0 0 0 95.958984 64.828125 z "
     id="circle1400" />
  <path
     style="opacity:0.2;fill:#ffffff;fill-opacity:1;stroke:none;stroke-width:1.21094739;stroke-miterlimit:4;stroke-dasharray:none"
     d="M 64 32 A 32 32 0 0 0 32 64 A 32 32 0 0 0 32.041016 65.171875 A 32 32 0 0 1 64 34 A 32 32 0 0 1 95.958984 64.828125 A 32 32 0 0 0 96 64 A 32 32 0 0 0 64 32 z "
     id="circle1407" />
  <path
     style="fill:#000000;fill-opacity:1;stroke-width:1.72661865;opacity:0.2"
     d="M 123.95898 64.830078 A 60 60 0 0 1 64 124 A 60 60 0 0 1 4.0410156 65.169922 A 60 60 0 0 0 4 66 A 60 60 0 0 0 64 126 A 60 60 0 0 0 124 66 A 60 60 0 0 0 123.95898 64.830078 z "
     id="circle822" />
  <g
     id="g922"
     transform="translate(-150.69699,56.651805)">
    <circle
       r="15"
       cy="27.348196"
       cx="184.69702"
       id="path1262-97"
       style="opacity:1;fill:#ffffff;fill-opacity:1;stroke:none;stroke-width:0.72584164;stroke-miterlimit:4;stroke-dasharray:none" />
    <circle
       r="18"
       cy="20.348196"
       cx="200.69702"
       id="path1262-9-3"
       style="opacity:1;fill:#ffffff;fill-opacity:1;stroke:none;stroke-width:0.87100995;stroke-miterlimit:4;stroke-dasharray:none" />
    <circle
       r="13"
       cy="29.348196"
       cx="214.69702"
       id="path1279-6"
       style="opacity:1;fill:#ffffff;fill-opacity:1;stroke:none;stroke-width:1.03855562;stroke-miterlimit:4;stroke-dasharray:none" />
    <rect
       y="33.348194"
       x="184.69702"
       height="9"
       width="30.179886"
       id="rect1348"
       style="opacity:1;fill:#ffffff;fill-opacity:1;stroke:none;stroke-width:0.71899998;stroke-miterlimit:4;stroke-dasharray:none" />
    <path
       style="opacity:0.2;fill:#000000;fill-opacity:1;stroke:none;stroke-width:0.72584164;stroke-miterlimit:4;stroke-dasharray:none"
       d="m 169.73999,28.295465 a 15,15 0 0 0 -0.043,1.05273 15,15 0 0 0 15,15 h 30 0.17969 v -0.0059 a 13,13 0 0 0 12.82031,-12.9941 13,13 0 0 0 -0.0469,-0.92383 13,13 0 0 1 -12.77343,12.01758 v 0.0059 h -0.17967 -30 a 15,15 0 0 1 -14.95703,-14.15238 z"
       id="circle1369"
       inkscape:connector-curvature="0" />
  </g>
</svg>
