<?xml version="1.0" encoding="UTF-8" standalone="no"?>
<svg
   xmlns:dc="http://purl.org/dc/elements/1.1/"
   xmlns:cc="http://creativecommons.org/ns#"
   xmlns:rdf="http://www.w3.org/1999/02/22-rdf-syntax-ns#"
   xmlns:svg="http://www.w3.org/2000/svg"
   xmlns="http://www.w3.org/2000/svg"
   xmlns:xlink="http://www.w3.org/1999/xlink"
   xmlns:sodipodi="http://sodipodi.sourceforge.net/DTD/sodipodi-0.dtd"
   xmlns:inkscape="http://www.inkscape.org/namespaces/inkscape"
   width="48"
   height="48"
   id="svg2"
   version="1.1"
   inkscape:version="0.91 r13725"
   sodipodi:docname="weather-overcast.svg">
  <sodipodi:namedview
     pagecolor="#ffffff"
     bordercolor="#666666"
     borderopacity="1"
     objecttolerance="10"
     gridtolerance="10"
     guidetolerance="10"
     inkscape:pageopacity="0"
     inkscape:pageshadow="2"
     inkscape:window-width="1920"
     inkscape:window-height="1134"
     id="namedview27"
     showgrid="false"
     inkscape:zoom="9.8333333"
     inkscape:cx="10.830509"
     inkscape:cy="1.0640995"
     inkscape:window-x="1920"
     inkscape:window-y="0"
     inkscape:window-maximized="1"
     inkscape:current-layer="svg2" />
  <defs
     id="defs4">
    <linearGradient
       id="0">
      <stop
         stop-color="#6f8181"
         id="stop7" />
      <stop
         offset="1"
         stop-color="#334545"
         id="stop9" />
    </linearGradient>
    <linearGradient
       xlink:href="#0"
       id="1"
       y1="511.798"
       x2="0"
       y2="535.79797"
       gradientUnits="userSpaceOnUse"
       gradientTransform="translate(-1,4)" />
    <linearGradient
       xlink:href="#0"
       id="2"
       x1="34"
       y1="34"
       x2="8"
       y2="15"
       gradientUnits="userSpaceOnUse" />
  </defs>
  <metadata
     id="metadata13">
    <rdf:RDF>
      <cc:Work
         rdf:about="">
        <dc:format>image/svg+xml</dc:format>
        <dc:type
           rdf:resource="http://purl.org/dc/dcmitype/StillImage" />
        <dc:title></dc:title>
      </cc:Work>
    </rdf:RDF>
  </metadata>
  <g
     style="fill:#d9d9d9;fill-opacity:1"
     transform="matrix(-0.51460107,0,0,-0.5725415,124.19389,50.317011)"
     id="g931-0-5-3-9">
    <ellipse
       style="opacity:1;fill:#e6e6e6;fill-opacity:1;stroke:none;stroke-width:1.44993353;stroke-miterlimit:4;stroke-dasharray:none"
       id="path877-6-4-6-1"
       cx="203.26093"
       cy="-47.30423"
       transform="scale(1,-1)"
       rx="12.000001"
       ry="12.2" />
    <ellipse
       style="opacity:1;fill:#ebebeb;fill-opacity:1;stroke:none;stroke-width:1.44993365;stroke-miterlimit:4;stroke-dasharray:none"
       id="path877-3-2-7-7-2"
       cx="193.66092"
       cy="-57.064228"
       transform="scale(1,-1)"
       rx="12.000001"
       ry="12.2" />
    <ellipse
       style="opacity:1;fill:#ebebeb;fill-opacity:1;stroke:none;stroke-width:2.17490029;stroke-miterlimit:4;stroke-dasharray:none"
       id="path877-3-6-6-6-5-7"
       cx="176.86092"
       cy="-58.284229"
       transform="scale(1,-1)"
       rx="18.000002"
       ry="18.299999" />
    <ellipse
       style="opacity:1;fill:#ebebeb;fill-opacity:1;stroke:none;stroke-width:1.73992038;stroke-miterlimit:4;stroke-dasharray:none"
       id="path877-3-6-7-1-5-3-0"
       cx="164.86092"
       cy="-49.744232"
       transform="scale(1,-1)"
       rx="14.400002"
       ry="14.639999" />
    <rect
       style="opacity:1;fill:#ebebeb;fill-opacity:1;stroke:none;stroke-width:0.58718896;stroke-miterlimit:4;stroke-dasharray:none"
       id="rect924-8-6-5-9"
       width="38.400005"
       height="12.2"
       x="164.86092"
       y="-47.30423"
       transform="scale(1,-1)" />
    <path
       style="opacity:0.2;fill:#000000;fill-opacity:1;stroke:none;stroke-width:0.59916651;stroke-miterlimit:4;stroke-dasharray:none"
       d="M 11.023438,26.496094 A 6.0000002,6.0000001 0 0 0 11,27 a 6.0000002,6.0000001 0 0 0 6,6 l 16,0 A 4.9999999,5.0000001 0 0 0 38,28 4.9999999,5.0000001 0 0 0 37.972656,27.484375 4.9999999,5.0000001 0 0 1 33,32 l -16,0 a 6.0000001,5.9999999 0 0 1 -5.976562,-5.503906 z"
       transform="matrix(2.4000003,0,0,-2.44,124.06091,113.18423)"
       id="path850-6-3"
       inkscape:connector-curvature="0" />
    <path
       style="opacity:0.5;fill:#ffffff;fill-opacity:1;stroke:none;stroke-width:0.59916651;stroke-miterlimit:4;stroke-dasharray:none"
       d="M 22,11 A 7.5000001,7.4999999 0 0 0 14.800781,16.419922 6.0000001,5.9999999 0 0 0 11,22 6.0000001,5.9999999 0 0 0 11.023438,22.496094 6.0000002,6.0000001 0 0 1 14.800781,17.419922 7.5,7.5000001 0 0 1 22,12 7.5,7.5000001 0 0 1 28.056641,15.09375 4.9999999,5.0000001 0 0 1 29,15 4.9999999,5.0000001 0 0 1 33.914062,19.087891 4.9999999,5.0000001 0 0 1 37.972656,23.484375 4.9999999,5.0000001 0 0 0 38,23 4.9999999,5.0000001 0 0 0 33.914062,18.087891 4.9999999,5.0000001 0 0 0 29,14 4.9999999,5.0000001 0 0 0 28.056641,14.09375 7.5000001,7.4999999 0 0 0 22,11 Z"
       transform="matrix(2.4000003,0,0,-2.44,124.06091,103.42423)"
       id="path965-2-6"
       inkscape:connector-curvature="0" />
  </g>
  <g
     style="fill:#d9d9d9;fill-opacity:1"
     transform="matrix(0.56089735,0,0,-0.55170238,-83.159667,55.27765)"
     id="g931-0-5">
    <ellipse
       style="opacity:1;fill:#e1e1e1;fill-opacity:1;stroke:none;stroke-width:1.44993353;stroke-miterlimit:4;stroke-dasharray:none"
       id="path877-6-4"
       cx="203.26093"
       cy="-47.30423"
       transform="scale(1,-1)"
       rx="12.000001"
       ry="12.2" />
    <ellipse
       style="opacity:1;fill:#e1e1e1;fill-opacity:1;stroke:none;stroke-width:1.44993365;stroke-miterlimit:4;stroke-dasharray:none"
       id="path877-3-2-7"
       cx="193.66092"
       cy="-57.064228"
       transform="scale(1,-1)"
       rx="12.000001"
       ry="12.2" />
    <ellipse
       style="opacity:1;fill:#e1e1e1;fill-opacity:1;stroke:none;stroke-width:2.17490029;stroke-miterlimit:4;stroke-dasharray:none"
       id="path877-3-6-6-6"
       cx="176.86092"
       cy="-58.284229"
       transform="scale(1,-1)"
       rx="18.000002"
       ry="18.299999" />
    <ellipse
       style="opacity:1;fill:#e1e1e1;fill-opacity:1;stroke:none;stroke-width:1.73992038;stroke-miterlimit:4;stroke-dasharray:none"
       id="path877-3-6-7-1-5"
       cx="164.86092"
       cy="-49.744232"
       transform="scale(1,-1)"
       rx="14.400002"
       ry="14.639999" />
    <rect
       style="opacity:1;fill:#e1e1e1;fill-opacity:1;stroke:none;stroke-width:0.58718896;stroke-miterlimit:4;stroke-dasharray:none"
       id="rect924-8-6"
       width="38.400005"
       height="12.2"
       x="164.86092"
       y="-47.30423"
       transform="scale(1,-1)" />
    <path
       style="opacity:0.2;fill:#000000;fill-opacity:1;stroke:none;stroke-width:0.59916651;stroke-miterlimit:4;stroke-dasharray:none"
       d="M 11.023438,26.496094 A 6.0000002,6.0000001 0 0 0 11,27 a 6.0000002,6.0000001 0 0 0 6,6 l 16,0 A 4.9999999,5.0000001 0 0 0 38,28 4.9999999,5.0000001 0 0 0 37.972656,27.484375 4.9999999,5.0000001 0 0 1 33,32 l -16,0 a 6.0000001,5.9999999 0 0 1 -5.976562,-5.503906 z"
       transform="matrix(2.4000003,0,0,-2.44,124.06091,113.18423)"
       id="path850"
       inkscape:connector-curvature="0" />
    <path
       style="opacity:0.63;fill:#ffffff;fill-opacity:1;stroke:none;stroke-width:0.59916651;stroke-miterlimit:4;stroke-dasharray:none"
       d="M 22,11 A 7.5000001,7.4999999 0 0 0 14.800781,16.419922 6.0000001,5.9999999 0 0 0 11,22 6.0000001,5.9999999 0 0 0 11.023438,22.496094 6.0000002,6.0000001 0 0 1 14.800781,17.419922 7.5,7.5000001 0 0 1 22,12 7.5,7.5000001 0 0 1 28.056641,15.09375 4.9999999,5.0000001 0 0 1 29,15 4.9999999,5.0000001 0 0 1 33.914062,19.087891 4.9999999,5.0000001 0 0 1 37.972656,23.484375 4.9999999,5.0000001 0 0 0 38,23 4.9999999,5.0000001 0 0 0 33.914062,18.087891 4.9999999,5.0000001 0 0 0 29,14 4.9999999,5.0000001 0 0 0 28.056641,14.09375 7.5000001,7.4999999 0 0 0 22,11 Z"
       transform="matrix(2.4000003,0,0,-2.44,124.06091,103.42423)"
       id="path965"
       inkscape:connector-curvature="0" />
  </g>
  <g
     style="fill:#d9d9d9;fill-opacity:1"
     transform="matrix(0.30979885,0,0,-0.35025753,-25.565113,52.971532)"
     id="g931-0-5-3">
    <ellipse
       style="opacity:1;fill:#e6e6e6;fill-opacity:1;stroke:none;stroke-width:1.44993353;stroke-miterlimit:4;stroke-dasharray:none"
       id="path877-6-4-6"
       cx="203.26093"
       cy="-47.30423"
       transform="scale(1,-1)"
       rx="12.000001"
       ry="12.2" />
    <ellipse
       style="opacity:1;fill:#e6e6e6;fill-opacity:1;stroke:none;stroke-width:1.44993365;stroke-miterlimit:4;stroke-dasharray:none"
       id="path877-3-2-7-7"
       cx="193.66092"
       cy="-57.064228"
       transform="scale(1,-1)"
       rx="12.000001"
       ry="12.2" />
    <ellipse
       style="opacity:1;fill:#e6e6e6;fill-opacity:1;stroke:none;stroke-width:2.17490029;stroke-miterlimit:4;stroke-dasharray:none"
       id="path877-3-6-6-6-5"
       cx="176.86092"
       cy="-58.284229"
       transform="scale(1,-1)"
       rx="18.000002"
       ry="18.299999" />
    <ellipse
       style="opacity:1;fill:#e6e6e6;fill-opacity:1;stroke:none;stroke-width:1.73992038;stroke-miterlimit:4;stroke-dasharray:none"
       id="path877-3-6-7-1-5-3"
       cx="164.86092"
       cy="-49.744232"
       transform="scale(1,-1)"
       rx="14.400002"
       ry="14.639999" />
    <rect
       style="opacity:1;fill:#e6e6e6;fill-opacity:1;stroke:none;stroke-width:0.58718896;stroke-miterlimit:4;stroke-dasharray:none"
       id="rect924-8-6-5"
       width="38.400005"
       height="12.2"
       x="164.86092"
       y="-47.30423"
       transform="scale(1,-1)" />
    <path
       style="opacity:0.2;fill:#000000;fill-opacity:1;stroke:none;stroke-width:0.59916651;stroke-miterlimit:4;stroke-dasharray:none"
       d="M 11.023438,26.496094 A 6.0000002,6.0000001 0 0 0 11,27 a 6.0000002,6.0000001 0 0 0 6,6 l 16,0 A 4.9999999,5.0000001 0 0 0 38,28 4.9999999,5.0000001 0 0 0 37.972656,27.484375 4.9999999,5.0000001 0 0 1 33,32 l -16,0 a 6.0000001,5.9999999 0 0 1 -5.976562,-5.503906 z"
       transform="matrix(2.4000003,0,0,-2.44,124.06091,113.18423)"
       id="path850-6"
       inkscape:connector-curvature="0" />
    <path
       style="opacity:0.62;fill:#ffffff;fill-opacity:1;stroke:none;stroke-width:0.59916651;stroke-miterlimit:4;stroke-dasharray:none"
       d="M 22,11 A 7.5000001,7.4999999 0 0 0 14.800781,16.419922 6.0000001,5.9999999 0 0 0 11,22 6.0000001,5.9999999 0 0 0 11.023438,22.496094 6.0000002,6.0000001 0 0 1 14.800781,17.419922 7.5,7.5000001 0 0 1 22,12 7.5,7.5000001 0 0 1 28.056641,15.09375 4.9999999,5.0000001 0 0 1 29,15 4.9999999,5.0000001 0 0 1 33.914062,19.087891 4.9999999,5.0000001 0 0 1 37.972656,23.484375 4.9999999,5.0000001 0 0 0 38,23 4.9999999,5.0000001 0 0 0 33.914062,18.087891 4.9999999,5.0000001 0 0 0 29,14 4.9999999,5.0000001 0 0 0 28.056641,14.09375 7.5000001,7.4999999 0 0 0 22,11 Z"
       transform="matrix(2.4000003,0,0,-2.44,124.06091,103.42423)"
       id="path965-2"
       inkscape:connector-curvature="0" />
  </g>
</svg>
