<?xml version="1.0" encoding="UTF-8" standalone="no"?>
<!-- Created with Inkscape (http://www.inkscape.org/) -->

<svg
   xmlns:dc="http://purl.org/dc/elements/1.1/"
   xmlns:cc="http://creativecommons.org/ns#"
   xmlns:rdf="http://www.w3.org/1999/02/22-rdf-syntax-ns#"
   xmlns:svg="http://www.w3.org/2000/svg"
   xmlns="http://www.w3.org/2000/svg"
   xmlns:xlink="http://www.w3.org/1999/xlink"
   xmlns:sodipodi="http://sodipodi.sourceforge.net/DTD/sodipodi-0.dtd"
   xmlns:inkscape="http://www.inkscape.org/namespaces/inkscape"
   width="32"
   version="1.1"
   height="32"
   id="svg2"
   inkscape:version="0.91 r13725"
   sodipodi:docname="preferences-system-bluetooth.svg">
  <sodipodi:namedview
     pagecolor="#ffffff"
     bordercolor="#666666"
     borderopacity="1"
     objecttolerance="10"
     gridtolerance="10"
     guidetolerance="10"
     inkscape:pageopacity="0"
     inkscape:pageshadow="2"
     inkscape:window-width="1366"
     inkscape:window-height="700"
     id="namedview22"
     showgrid="false"
     inkscape:zoom="5.2149125"
     inkscape:cx="34.302644"
     inkscape:cy="14.089927"
     inkscape:window-x="0"
     inkscape:window-y="0"
     inkscape:window-maximized="1"
     inkscape:current-layer="layer1" />
  <defs
     id="defs5455">
    <linearGradient
       inkscape:collect="always"
       id="linearGradient4143">
      <stop
         style="stop-color:#197cf1"
         id="stop4145" />
      <stop
         offset="1"
         style="stop-color:#20bcfa"
         id="stop4147" />
    </linearGradient>
    <linearGradient
       inkscape:collect="always"
       xlink:href="#linearGradient4143"
       id="linearGradient4149"
       y1="545.79797"
       y2="517.79797"
       x2="0"
       gradientUnits="userSpaceOnUse" />
    <filter
       inkscape:collect="always"
       style="color-interpolation-filters:sRGB"
       id="filter4215"
       x="-0.058752168"
       width="1.1175043"
       y="-0.061301987"
       height="1.122604">
      <feGaussianBlur
         inkscape:collect="always"
         stdDeviation="0.1723002"
         id="feGaussianBlur4217" />
    </filter>
  </defs>
  <metadata
     id="metadata5458">
    <rdf:RDF>
      <cc:Work
         rdf:about="">
        <dc:format>image/svg+xml</dc:format>
        <dc:type
           rdf:resource="http://purl.org/dc/dcmitype/StillImage" />
        <dc:title></dc:title>
      </cc:Work>
    </rdf:RDF>
  </metadata>
  <g
     inkscape:label="Capa 1"
     inkscape:groupmode="layer"
     id="layer1"
     transform="matrix(1 0 0 1 -384.57143 -515.798)">
    <rect
       width="28.00001"
       x="386.57144"
       y="517.79797"
       rx="14.00001"
       height="28.00003"
       style="fill:url(#linearGradient4149)"
       id="rect4130" />
    <path
       style="fill:#cccccc"
       d="m 404.25164,539.74418 0,2.26474 -3.39711,0 -3.39711,0 0,-0.70773 0,-0.70773 -0.2831,0 -0.28309,0 0,-0.84928 0,-0.84928 0.28309,0 0.2831,0 0,-0.70773 0,-0.70774 3.39711,0 3.39711,0 0,2.26475 z"
       id="path4147-3"
       inkscape:connector-curvature="0" />
    <path
       style="fill:#cccccc;fill-opacity:1"
       d="M 15.501953 5.1621094 L 15.501953 5.9609375 C 15.245142 5.9691546 15.026597 5.9839649 14.742188 6.0214844 C 13.584649 6.1738398 12.486993 6.524656 11.472656 7.0546875 L 11.080078 6.3828125 L 9.9003906 7.0722656 L 10.308594 7.7714844 C 10.061729 7.9476272 9.8196622 8.1315789 9.5859375 8.3320312 C 8.8939627 8.925488 8.2937409 9.6116066 7.7949219 10.361328 L 7.0351562 9.8964844 L 6.3203125 11.060547 L 7.125 11.554688 C 6.6488196 12.542297 6.3258567 13.601835 6.2050781 14.695312 C 6.1785855 14.935763 6.1814047 15.132031 6.1738281 15.314453 L 5.3515625 15.314453 L 5.3515625 16.679688 L 6.1894531 16.679688 C 6.1952479 16.746192 6.1911656 16.819847 6.1992188 16.896484 C 6.3474905 18.304404 6.7749207 19.63235 7.4628906 20.851562 L 6.8730469 21.259766 L 7.6523438 22.382812 L 9.484375 21.113281 L 8.7050781 19.990234 L 8.6933594 19.998047 C 8.5901096 19.798966 8.4316406 19.477741 8.4316406 19.458984 C 8.4316406 19.450334 8.4022875 19.376422 8.3671875 19.294922 C 8.0164775 18.478842 7.8059894 17.643504 7.6933594 16.615234 C 7.5759594 15.543404 7.6590387 14.651859 7.9804688 13.537109 C 8.0851288 13.174059 8.2434031 12.753851 8.4082031 12.394531 C 8.4554031 12.291571 8.4941406 12.202266 8.4941406 12.197266 C 8.4941406 12.181536 9.1028563 11.11565 9.1601562 11.03125 C 9.1883562 10.98955 9.2209219 10.946147 9.2324219 10.935547 C 9.2438919 10.925227 9.3049875 10.850078 9.3671875 10.767578 C 9.8277475 10.156448 10.475551 9.5202375 11.082031 9.0859375 C 11.133691 9.0489375 11.185013 9.0091469 11.195312 8.9980469 C 11.218782 8.9727069 12.342753 8.29125 12.376953 8.28125 C 12.390713 8.27715 12.481825 8.2376594 12.578125 8.1933594 C 13.368145 7.8302194 14.279117 7.5909531 15.210938 7.5019531 C 15.391078 7.4849531 15.499116 7.4844937 16.072266 7.4960938 C 16.433426 7.5035938 16.789228 7.5164375 16.861328 7.5234375 C 17.510458 7.5865975 18.242757 7.7564575 18.873047 7.9921875 C 19.376577 8.1804875 19.638932 8.308105 20.201172 8.640625 C 20.459172 8.793235 20.689191 8.9293062 20.712891 8.9414062 C 20.773361 8.9726762 21.034505 9.1626081 21.203125 9.2988281 C 22.342035 10.218838 23.198154 11.369658 23.740234 12.710938 C 23.902364 13.112138 24.073703 13.686483 24.158203 14.101562 C 24.196433 14.289423 24.320844 15.037272 24.339844 15.195312 C 24.409774 15.779442 24.382266 16.411414 24.259766 17.021484 C 24.236366 17.138434 24.196775 17.339973 24.171875 17.470703 C 24.081205 17.946173 23.928562 18.475076 23.757812 18.910156 C 23.667233 19.140956 23.56285 19.379934 23.53125 19.427734 C 23.51926 19.445834 23.446241 19.587408 23.369141 19.742188 C 23.313277 19.854307 23.256562 19.935669 23.203125 20.033203 L 22.484375 21.072266 L 24.316406 22.341797 L 25.09375 21.21875 L 24.490234 20.800781 C 25.08078 19.813146 25.505157 18.696473 25.703125 17.539062 C 25.762452 17.192192 25.798652 16.847333 25.822266 16.501953 L 26.603516 16.501953 L 26.603516 15.136719 L 25.816406 15.136719 C 25.732725 13.906309 25.421059 12.71162 24.890625 11.597656 L 25.617188 11.091797 L 24.837891 9.9707031 L 24.222656 10.398438 C 24.214735 10.386426 24.209149 10.373313 24.201172 10.361328 C 23.600507 9.4588699 22.860445 8.6696804 22.021484 8.0175781 L 22.457031 7.2324219 L 21.261719 6.5703125 L 20.878906 7.2597656 C 19.736453 6.6011252 18.470033 6.1627713 17.148438 6.0097656 C 17.040165 5.9972145 16.948852 6.0038257 16.867188 5.9960938 L 16.867188 5.1621094 L 15.501953 5.1621094 z "
       transform="translate(384.57143,515.798)"
       id="path4147-36" />
    <path
       inkscape:connector-curvature="0"
       id="path4197"
       d="m 402.47461,531.53661 c 0.0505,0.50788 -0.1647,0.99134 -0.57547,1.29205 -0.14091,0.10314 -0.27919,0.17101 -0.4542,0.22291 -0.74296,0.22028 -1.50509,-0.15961 -1.75013,-0.87237 -0.0611,-0.17778 -0.0754,-0.27819 -0.0678,-0.47336 l 0.006,-0.14043 -2.08085,-2.5308 c -1.14448,-1.39195 -2.08912,-2.54153 -2.09919,-2.55457 -0.0143,-0.0186 -0.0128,-0.0334 0.007,-0.0678 l 0.025,-0.0439 2.64828,1.95266 2.64825,1.95267 0.0728,-0.012 c 0.19016,-0.0315 0.49001,0.003 0.68605,0.0764 0.12671,0.0481 0.31006,0.15351 0.41026,0.23582 0.113,0.0928 0.24813,0.25 0.32577,0.37889 0.0849,0.14105 0.18348,0.43052 0.19878,0.58391 z"
       style="fill:#000000;opacity:0.2;filter:url(#filter4215)" />
    <path
       style="fill:#ffffff"
       d="m 402.47496,531.32884 c 0.0481,0.48746 -0.15677,0.95148 -0.54775,1.2401 -0.13413,0.099 -0.26575,0.16414 -0.43233,0.21395 -0.70717,0.21143 -1.43259,-0.15319 -1.66583,-0.8373 -0.0582,-0.17063 -0.0718,-0.267 -0.0645,-0.45433 l 0.006,-0.13478 -1.98063,-2.42906 c -1.08936,-1.33599 -1.9885,-2.43935 -1.99808,-2.45187 -0.0136,-0.0179 -0.0122,-0.0321 0.007,-0.0651 l 0.0238,-0.0421 2.52073,1.87416 2.52069,1.87417 0.0693,-0.0115 c 0.181,-0.0302 0.46641,0.003 0.653,0.0733 0.12061,0.0462 0.29513,0.14734 0.3905,0.22634 0.10756,0.0891 0.23618,0.23995 0.31008,0.36366 0.0808,0.13538 0.17465,0.41321 0.18921,0.56043 z"
       id="path4195"
       inkscape:connector-curvature="0" />
  </g>
</svg>
