<?xml version="1.0" encoding="UTF-8" standalone="no"?>
<svg
   xmlns:dc="http://purl.org/dc/elements/1.1/"
   xmlns:cc="http://creativecommons.org/ns#"
   xmlns:rdf="http://www.w3.org/1999/02/22-rdf-syntax-ns#"
   xmlns:svg="http://www.w3.org/2000/svg"
   xmlns="http://www.w3.org/2000/svg"
   xmlns:sodipodi="http://sodipodi.sourceforge.net/DTD/sodipodi-0.dtd"
   xmlns:inkscape="http://www.inkscape.org/namespaces/inkscape"
   width="48"
   height="48"
   version="1"
   id="svg34"
   sodipodi:docname="snowthunder-night.svg"
   inkscape:version="0.92.2 (unknown)">
  <metadata
     id="metadata40">
    <rdf:RDF>
      <cc:Work
         rdf:about="">
        <dc:format>image/svg+xml</dc:format>
        <dc:type
           rdf:resource="http://purl.org/dc/dcmitype/StillImage" />
        <dc:title />
      </cc:Work>
    </rdf:RDF>
  </metadata>
  <defs
     id="defs38">
    <clipPath
       id="clipPath-363610498-6-0-8">
      <g
         id="g12-7-2-4"
         transform="translate(0,-1004.3622)">
        <path
           id="path14-5-3-5"
           style="fill:#1890d0"
           transform="matrix(15.333333,0,0,11.5,414.99999,878.8622)"
           d="m -24,13 c 0,1.105 -0.672,2 -1.5,2 -0.828,0 -1.5,-0.895 -1.5,-2 0,-1.105 0.672,-2 1.5,-2 0.828,0 1.5,0.895 1.5,2 z"
           inkscape:connector-curvature="0" />
      </g>
    </clipPath>
    <clipPath
       id="clipPath-375834240-3-7-0">
      <g
         id="g17-5-5-3"
         transform="translate(0,-1004.3622)">
        <path
           id="path19-6-9-6"
           style="fill:#1890d0"
           transform="matrix(15.333333,0,0,11.5,414.99999,878.8622)"
           d="m -24,13 c 0,1.105 -0.672,2 -1.5,2 -0.828,0 -1.5,-0.895 -1.5,-2 0,-1.105 0.672,-2 1.5,-2 0.828,0 1.5,0.895 1.5,2 z"
           inkscape:connector-curvature="0" />
      </g>
    </clipPath>
  </defs>
  <sodipodi:namedview
     pagecolor="#ffffff"
     bordercolor="#666666"
     borderopacity="1"
     objecttolerance="10"
     gridtolerance="10"
     guidetolerance="10"
     inkscape:pageopacity="0"
     inkscape:pageshadow="2"
     inkscape:window-width="1920"
     inkscape:window-height="1027"
     id="namedview36"
     showgrid="false"
     showguides="false"
     inkscape:zoom="1"
     inkscape:cx="-153.34883"
     inkscape:cy="-6.2966783"
     inkscape:window-x="0"
     inkscape:window-y="25"
     inkscape:window-maximized="1"
     inkscape:current-layer="svg34"
     inkscape:guide-bbox="true"
     inkscape:snap-global="true"
     inkscape:snap-nodes="true"
     inkscape:snap-object-midpoints="false"
     inkscape:snap-midpoints="true"
     inkscape:snap-smooth-nodes="true"
     inkscape:snap-intersection-paths="true"
     inkscape:object-paths="true"
     inkscape:object-nodes="true">
    <inkscape:grid
       type="xygrid"
       id="grid106" />
    <sodipodi:guide
       position="73,37"
       orientation="0,1"
       id="guide1226"
       inkscape:locked="false" />
    <sodipodi:guide
       position="67.33333,15.333329"
       orientation="0,1"
       id="guide1237"
       inkscape:locked="false" />
    <sodipodi:guide
       position="75.969785,21.666384"
       orientation="0,1"
       inkscape:locked="false"
       id="guide1281" />
    <sodipodi:guide
       position="27.894428,16.552787"
       orientation="0.89442759,-0.4472128"
       id="guide1378"
       inkscape:locked="false"
       inkscape:label=""
       inkscape:color="rgb(0,0,255)" />
    <sodipodi:guide
       position="27,17"
       orientation="-0.4472128,-0.89442759"
       id="guide1380"
       inkscape:locked="false"
       inkscape:label=""
       inkscape:color="rgb(0,0,255)" />
    <sodipodi:guide
       position="25,13"
       orientation="-0.4472128,-0.89442759"
       id="guide1382"
       inkscape:locked="false"
       inkscape:label=""
       inkscape:color="rgb(0,0,255)" />
    <sodipodi:guide
       position="27,18"
       orientation="-0.94282572,0.33328614"
       id="guide1399"
       inkscape:locked="false" />
    <sodipodi:guide
       position="27,21"
       orientation="0.3218821,0.94677976"
       id="guide1405"
       inkscape:locked="false" />
  </sodipodi:namedview>
  <circle
     r="20"
     cy="24"
     cx="23.999992"
     id="circle829"
     style="fill:#0068b8;fill-opacity:1;stroke-width:0.57553953" />
  <g
     transform="matrix(0.41666662,0,0,-0.40983607,-51.692043,41.731242)"
     inkscape:label="ink_ext_XXXXXX"
     id="g7767-2-1">
    <g
       transform="translate(-142.71278,-10.917924)"
       id="g873-9-0" />
    <g
       transform="matrix(0.8,0,0,-0.8,1371.6215,-520.4649)"
       style="display:inline;opacity:0.12949638"
       inkscape:label="Capa"
       id="layer1-86-1-6" />
    <g
       transform="matrix(0.8,0,0,-0.8,1371.6215,-520.4649)"
       id="g33-2-3">
      <g
         id="g35-7-2"
         clip-path="url(#clipPath-363610498-6-0-8)">
        <g
           transform="translate(1,1)"
           id="g37-0-0">
          <g
             style="opacity:0.1"
             id="g39-9-6">
            <!-- color: #a8cd01 -->
          </g>
        </g>
      </g>
    </g>
    <g
       transform="matrix(0.8,0,0,-0.8,1371.6215,-520.4649)"
       id="g41-3-1">
      <g
         id="g43-6-5"
         clip-path="url(#clipPath-375834240-3-7-0)">
        <!-- color: #a8cd01 -->
      </g>
    </g>
    <g
       style="fill:#d9d9d9;fill-opacity:1"
       transform="translate(7.2955322e-6,-1.6)"
       id="g931-0-5">
      <ellipse
         style="opacity:1;fill:#e6e6e6;fill-opacity:1;stroke:none;stroke-width:1.44993353;stroke-miterlimit:4;stroke-dasharray:none"
         id="path877-6-4"
         cx="203.26093"
         cy="-47.30423"
         transform="scale(1,-1)"
         rx="12.000001"
         ry="12.2" />
      <ellipse
         style="opacity:1;fill:#e6e6e6;fill-opacity:1;stroke:none;stroke-width:1.44993365;stroke-miterlimit:4;stroke-dasharray:none"
         id="path877-3-2-7"
         cx="193.66092"
         cy="-57.064228"
         transform="scale(1,-1)"
         rx="12.000001"
         ry="12.2" />
      <ellipse
         style="opacity:1;fill:#e6e6e6;fill-opacity:1;stroke:none;stroke-width:2.17490029;stroke-miterlimit:4;stroke-dasharray:none"
         id="path877-3-6-6-6"
         cx="176.86092"
         cy="-58.284229"
         transform="scale(1,-1)"
         rx="18.000002"
         ry="18.299999" />
      <ellipse
         style="opacity:1;fill:#e6e6e6;fill-opacity:1;stroke:none;stroke-width:1.73992038;stroke-miterlimit:4;stroke-dasharray:none"
         id="path877-3-6-7-1-5"
         cx="164.86092"
         cy="-49.744232"
         transform="scale(1,-1)"
         rx="14.400002"
         ry="14.639999" />
      <rect
         style="opacity:1;fill:#e6e6e6;fill-opacity:1;stroke:none;stroke-width:0.58718896;stroke-miterlimit:4;stroke-dasharray:none"
         id="rect924-8-6"
         width="38.400005"
         height="12.2"
         x="164.86092"
         y="-47.30423"
         transform="scale(1,-1)" />
      <path
         inkscape:connector-curvature="0"
         style="opacity:0.2;fill:#000000;fill-opacity:1;stroke:none;stroke-width:0.59916651;stroke-miterlimit:4;stroke-dasharray:none"
         d="M 11.023438,26.496094 A 6.0000002,6.0000001 0 0 0 11,27 6.0000002,6.0000001 0 0 0 17,33 H 33 A 4.9999999,5.0000001 0 0 0 38,28 4.9999999,5.0000001 0 0 0 37.972656,27.484375 4.9999999,5.0000001 0 0 1 33,32 H 17 a 6.0000001,5.9999999 0 0 1 -5.976562,-5.503906 z"
         transform="matrix(2.4000003,0,0,-2.44,124.06091,113.18423)"
         id="path850" />
      <path
         style="opacity:0.2;fill:#ffffff;fill-opacity:1;stroke:none;stroke-width:0.59916651;stroke-miterlimit:4;stroke-dasharray:none"
         d="M 22 11 A 7.5000001 7.4999999 0 0 0 14.800781 16.419922 A 6.0000001 5.9999999 0 0 0 11 22 A 6.0000001 5.9999999 0 0 0 11.023438 22.496094 A 6.0000002 6.0000001 0 0 1 14.800781 17.419922 A 7.5 7.5000001 0 0 1 22 12 A 7.5 7.5000001 0 0 1 28.056641 15.09375 A 4.9999999 5.0000001 0 0 1 29 15 A 4.9999999 5.0000001 0 0 1 33.914062 19.087891 A 4.9999999 5.0000001 0 0 1 37.972656 23.484375 A 4.9999999 5.0000001 0 0 0 38 23 A 4.9999999 5.0000001 0 0 0 33.914062 18.087891 A 4.9999999 5.0000001 0 0 0 29 14 A 4.9999999 5.0000001 0 0 0 28.056641 14.09375 A 7.5000001 7.4999999 0 0 0 22 11 z "
         transform="matrix(2.4000003,0,0,-2.44,124.06091,103.42423)"
         id="ellipse861" />
    </g>
    <g
       style="fill:#000000;fill-opacity:1"
       transform="translate(83.999998,3.6)"
       id="g931-5-7-9" />
    <g
       id="g970-9-3"
       transform="translate(83.999998,5.2)"
       style="fill:#ffffff;fill-opacity:1" />
    <g
       style="fill:#ffffff;fill-opacity:1"
       transform="translate(83.999998,6.8)"
       id="g974-2-7" />
  </g>
  <path
     style="fill:#000000;fill-opacity:1;stroke-width:0.57553953;opacity:0.2"
     d="M 43.978516 24.417969 A 20 20 0 0 1 24 44 A 20 20 0 0 1 4.0214844 24.582031 A 20 20 0 0 0 4 25 A 20 20 0 0 0 24 45 A 20 20 0 0 0 44 25 A 20 20 0 0 0 43.978516 24.417969 z "
     id="circle935" />
  <path
     style="fill:#ffffff;fill-opacity:1;stroke-width:0.57553953;opacity:0.1"
     d="M 24 4 A 20 20 0 0 0 4 24 A 20 20 0 0 0 4.0214844 24.582031 A 20 20 0 0 1 24 5 A 20 20 0 0 1 43.978516 24.417969 A 20 20 0 0 0 44 24 A 20 20 0 0 0 24 4 z "
     id="circle945" />
  <path
     style="fill:#ffffff;stroke:none;stroke-width:1px;stroke-linecap:butt;stroke-linejoin:miter;stroke-opacity:1;fill-opacity:1"
     d="m 15,30 1,-1 h 2 l 1,1 v 2 l -1,1 h -2 l -1,-1 v -2"
     id="path1337"
     inkscape:connector-curvature="0" />
  <path
     style="fill:#ffffff;fill-opacity:1;stroke:none;stroke-width:1px;stroke-linecap:butt;stroke-linejoin:miter;stroke-opacity:1"
     d="m 19,34 1,-1 h 2 l 1,1 v 2 l -1,1 h -2 l -1,-1 v -2"
     id="path1337-4"
     inkscape:connector-curvature="0" />
  <path
     style="fill:#ffffff;fill-opacity:1;stroke:none;stroke-width:1px;stroke-linecap:butt;stroke-linejoin:miter;stroke-opacity:1"
     d="m 29.000005,32 1,-1 h 2 l 1,1 v 2 l -1,1 h -2 l -1,-1 v -2"
     id="path1337-4-4"
     inkscape:connector-curvature="0" />
  <path
     style="opacity:1;fill:#ffd42a;fill-opacity:1;stroke:none;stroke-width:1.00117612;stroke-miterlimit:4;stroke-dasharray:none"
     d="M 24 26 A 1 1 0 0 0 23 27 A 1 1 0 0 0 23 27.023438 L 23 31 A 1 1 0 0 0 24 32 L 24 35 A 1 1 0 0 0 25 36 A 1 1 0 0 0 25.892578 35.447266 L 25.894531 35.447266 L 27.894531 31.447266 L 27.892578 31.447266 A 1 1 0 0 0 28 31 A 1 1 0 0 0 27 30 L 27.947266 27.322266 L 27.945312 27.322266 A 1 1 0 0 0 28 27 A 1 1 0 0 0 27 26 L 24 26 z "
     id="path1343" />
  <path
     style="fill:#000000;fill-opacity:1;stroke:none;stroke-width:1px;stroke-linecap:butt;stroke-linejoin:miter;stroke-opacity:1;opacity:0.2"
     d="M 15 32 L 15 33 L 16 34 L 18 34 L 19 33 L 19 32 L 18 33 L 16 33 L 15 32 z "
     id="path1483" />
  <path
     style="fill:#000000;fill-opacity:1;stroke:none;stroke-width:1px;stroke-linecap:butt;stroke-linejoin:miter;stroke-opacity:1;opacity:0.2"
     d="M 19 36 L 19 37 L 20 38 L 22 38 L 23 37 L 23 36 L 22 37 L 20 37 L 19 36 z "
     id="path1485" />
  <path
     style="fill:#000000;fill-opacity:1;stroke:none;stroke-width:1px;stroke-linecap:butt;stroke-linejoin:miter;stroke-opacity:1;opacity:0.2"
     d="M 29 34 L 29 35 L 30 36 L 32 36 L 33 35 L 33 34 L 32 35 L 30 35 L 29 34 z "
     id="path1487" />
  <path
     style="opacity:0.2;fill:#000000;fill-opacity:1;stroke:none;stroke-width:1.00117612;stroke-miterlimit:4;stroke-dasharray:none"
     d="M 27.876953 27.521484 L 27 30 A 1 1 0 0 1 27.333984 30.058594 L 27.947266 28.322266 L 27.945312 28.322266 A 1 1 0 0 0 28 28 A 1 1 0 0 0 27.876953 27.521484 z M 23 31 L 23 32 A 1 1 0 0 0 24 33 L 24 32 A 1 1 0 0 1 23 31 z M 27.867188 31.503906 L 25.894531 35.447266 L 25.892578 35.447266 A 1 1 0 0 1 25 36 A 1 1 0 0 1 24 35 L 24 36 A 1 1 0 0 0 25 37 A 1 1 0 0 0 25.892578 36.447266 L 25.894531 36.447266 L 27.894531 32.447266 L 27.892578 32.447266 A 1 1 0 0 0 28 32 A 1 1 0 0 0 27.867188 31.503906 z "
     id="path1489" />
  <path
     style="opacity:0.2;fill:#ffffff;fill-opacity:1;stroke:none;stroke-width:1.00117612;stroke-miterlimit:4;stroke-dasharray:none"
     d="M 24 26 A 1 1 0 0 0 23 27 A 1 1 0 0 0 23 27.023438 L 23 28 A 1 1 0 0 1 24 27 L 27 27 A 1 1 0 0 1 27.876953 27.521484 L 27.947266 27.322266 L 27.945312 27.322266 A 1 1 0 0 0 28 27 A 1 1 0 0 0 27 26 L 24 26 z M 27.333984 30.058594 L 27 31 A 1 1 0 0 1 27.867188 31.503906 L 27.894531 31.447266 L 27.892578 31.447266 A 1 1 0 0 0 28 31 A 1 1 0 0 0 27.333984 30.058594 z "
     id="path856" />
</svg>
