<?xml version="1.0" encoding="UTF-8" standalone="no"?>
<svg
   xmlns:dc="http://purl.org/dc/elements/1.1/"
   xmlns:cc="http://creativecommons.org/ns#"
   xmlns:rdf="http://www.w3.org/1999/02/22-rdf-syntax-ns#"
   xmlns:svg="http://www.w3.org/2000/svg"
   xmlns="http://www.w3.org/2000/svg"
   xmlns:sodipodi="http://sodipodi.sourceforge.net/DTD/sodipodi-0.dtd"
   xmlns:inkscape="http://www.inkscape.org/namespaces/inkscape"
   viewBox="0 0 22 22"
   id="svg2"
   version="1.1"
   inkscape:version="0.91 r13725"
   sodipodi:docname="system-log-out.svg"
   width="22"
   height="22">
  <metadata
     id="metadata15">
    <rdf:RDF>
      <cc:Work
         rdf:about="">
        <dc:format>image/svg+xml</dc:format>
        <dc:type
           rdf:resource="http://purl.org/dc/dcmitype/StillImage" />
        <dc:title></dc:title>
      </cc:Work>
    </rdf:RDF>
  </metadata>
  <sodipodi:namedview
     pagecolor="#ffffff"
     bordercolor="#666666"
     borderopacity="1"
     objecttolerance="10"
     gridtolerance="10"
     guidetolerance="10"
     inkscape:pageopacity="0"
     inkscape:pageshadow="2"
     inkscape:window-width="1920"
     inkscape:window-height="1134"
     id="namedview13"
     showgrid="false"
     inkscape:zoom="4.9166667"
     inkscape:cx="24"
     inkscape:cy="24"
     inkscape:window-x="1920"
     inkscape:window-y="0"
     inkscape:window-maximized="1"
     inkscape:current-layer="svg2" />
  <defs
     id="defs4">
    <linearGradient
       gradientUnits="userSpaceOnUse"
       y2="-1.974"
       x2="47.060001"
       y1="132.3"
       x1="44.671001"
       id="0"
       gradientTransform="matrix(0.08593105,0,0,0.08593105,6.8875232,5.457779)">
      <stop
         stop-color="#566069"
         id="stop7" />
      <stop
         offset="1"
         stop-color="#6c7884"
         id="stop9" />
    </linearGradient>
  </defs>
  <path
     d="m 10.100485,11.004629 3.40244,-3.402526 c 0.172721,-0.172722 0.259512,-0.38394 0.259512,-0.633656 0,-0.249715 -0.08593,-0.460848 -0.259512,-0.633569 L 12.977886,5.809753 C 12.805165,5.637032 12.594032,5.551101 12.344403,5.551101 c -0.249716,0 -0.460849,0.08593 -0.633656,0.258652 l -4.5646573,4.557783 c -0.1727214,0.172721 -0.2595117,0.38394 -0.2595117,0.633655 0,0.249716 0.085931,0.460849 0.2595117,0.63357 l 4.5646573,4.557783 c 0.172722,0.172721 0.38394,0.259512 0.633656,0.259512 0.249629,0 0.460848,-0.08593 0.633483,-0.259512 l 0.525039,-0.525039 c 0.172721,-0.172721 0.259512,-0.382737 0.259512,-0.630132 0,-0.24731 -0.08593,-0.459731 -0.259512,-0.637093 L 10.100485,11.0048 M 22,11 A 11,11 0 0 1 11,22 11,11 0 0 1 1.35e-7,11 11,11 0 0 1 11,0 11,11 0 0 1 22,11"
     id="path11"
     style="fill:url(#0);stroke:none;stroke-width:4.51100016"
     inkscape:connector-curvature="0" />
</svg>
