<?xml version="1.0" encoding="UTF-8" standalone="no"?>
<svg
   xmlns:dc="http://purl.org/dc/elements/1.1/"
   xmlns:cc="http://creativecommons.org/ns#"
   xmlns:rdf="http://www.w3.org/1999/02/22-rdf-syntax-ns#"
   xmlns:svg="http://www.w3.org/2000/svg"
   xmlns="http://www.w3.org/2000/svg"
   xmlns:xlink="http://www.w3.org/1999/xlink"
   xmlns:sodipodi="http://sodipodi.sourceforge.net/DTD/sodipodi-0.dtd"
   xmlns:inkscape="http://www.inkscape.org/namespaces/inkscape"
   height="32"
   width="32"
   id="svg2"
   version="1.1"
   inkscape:version="0.91 r13725"
   sodipodi:docname="preferences-system-firewall.svg">
  <metadata
     id="metadata28">
    <rdf:RDF>
      <cc:Work
         rdf:about="">
        <dc:format>image/svg+xml</dc:format>
        <dc:type
           rdf:resource="http://purl.org/dc/dcmitype/StillImage" />
        <dc:title></dc:title>
      </cc:Work>
    </rdf:RDF>
  </metadata>
  <defs
     id="defs26" />
  <sodipodi:namedview
     pagecolor="#ffffff"
     bordercolor="#666666"
     borderopacity="1"
     objecttolerance="10"
     gridtolerance="10"
     guidetolerance="10"
     inkscape:pageopacity="0"
     inkscape:pageshadow="2"
     inkscape:window-width="1920"
     inkscape:window-height="1134"
     id="namedview24"
     showgrid="false"
     inkscape:zoom="4.9166667"
     inkscape:cx="24"
     inkscape:cy="24"
     inkscape:window-x="1920"
     inkscape:window-y="0"
     inkscape:window-maximized="1"
     inkscape:current-layer="svg2" />
  <linearGradient
     id="a">
    <stop
       offset="0"
       stop-color="#197cf1"
       id="stop5" />
    <stop
       offset="1"
       stop-color="#20bcfa"
       id="stop7" />
  </linearGradient>
  <linearGradient
     id="b"
     gradientUnits="userSpaceOnUse"
     x1="487.74164"
     x2="493.5094"
     xlink:href="#a"
     y1="985.34576"
     y2="11.610633" />
  <linearGradient
     id="c"
     gradientUnits="userSpaceOnUse"
     x1="34.902462"
     x2="946.34857"
     xlink:href="#a"
     y1="490.62549"
     y2="490.62549" />
  <linearGradient
     id="d"
     gradientUnits="userSpaceOnUse"
     x1="489.88644"
     x2="489.46109"
     y1="553.44495"
     y2="533.12933">
    <stop
       offset="0"
       stop-color="#1c94f4"
       id="stop12" />
    <stop
       offset="1"
       stop-color="#1ea5f7"
       id="stop14" />
  </linearGradient>
  <g
     transform="matrix(0.60923109,0,0,0.6092311,-282.19491,-314.29907)"
     id="g16"
     style="fill:url(#c);stroke-width:9.51243782">
    <path
       d="m 946.23,206.651 c -0.3,-23 -18,-42 -40.899,-44.101 -190.3,-17.8 -345.601,-119.5 -396.8,-156.7 -10.7,-7.8 -25.2,-7.8 -35.9,0 -51.1,37.2 -206.4,138.9 -396.7,156.7 -22.9,2.101 -40.5,21.101 -40.9,44.101 -2.3,150.1 21.8,659.699 444.1,773.1 7.5,2 15.4,2 22.9,0 422.3,-113.3 446.399,-623.001 444.199,-773.1 z"
       transform="matrix(0.05185606,0,0,0.05185606,464.01918,516.71536)"
       id="path18"
       style="fill:url(#b)"
       inkscape:connector-curvature="0" />
    <path
       d="m 946.23,206.651 c -0.3,-23 -18,-42 -40.899,-44.101 -190.3,-17.8 -345.601,-119.5 -396.8,-156.7 -10.7,-7.8 -25.2,-7.8 -35.9,0 -51.1,37.2 -206.4,138.9 -396.7,156.7 -22.9,2.101 -40.5,21.101 -40.9,44.101 -2.3,150.1 21.8,659.699 444.1,773.1 7.5,2 15.4,2 22.9,0 422.3,-113.3 446.399,-623.001 444.199,-773.1 z"
       transform="matrix(0.03985431,0,0,0.04023645,469.87887,522.85863)"
       id="path20"
       inkscape:connector-curvature="0"
       style="opacity:0.675;fill:#ffffff" />
    <path
       d="m 489.46109,547.99887 a 2.1242249,2.1242249 0 0 0 2.12423,-2.12422 c 0,-1.17895 -0.9559,-2.12423 -2.12423,-2.12423 a 2.1242249,2.1242249 0 0 0 -2.12422,2.12423 2.1242249,2.1242249 0 0 0 2.12422,2.12422 m 6.37268,-9.559 a 2.1242249,2.1242249 0 0 1 2.12422,2.12423 l 0,10.62112 a 2.1242249,2.1242249 0 0 1 -2.12422,2.12423 l -12.74535,0 a 2.1242249,2.1242249 0 0 1 -2.12423,-2.12423 l 0,-10.62112 c 0,-1.17895 0.9559,-2.12423 2.12423,-2.12423 l 1.06211,0 0,-2.12422 a 5.3105623,5.3105622 0 0 1 5.31056,-5.31056 5.3105623,5.3105622 0 0 1 5.31056,5.31056 l 0,2.12422 z m -6.37268,-5.31056 a 3.1863374,3.1863373 0 0 0 -3.18634,3.18634 l 0,2.12422 6.37268,0 0,-2.12422 a 3.1863374,3.1863373 0 0 0 -3.18634,-3.18634 z"
       id="path22"
       style="fill:url(#d)"
       inkscape:connector-curvature="0" />
  </g>
</svg>
