<?xml version="1.0" encoding="UTF-8" standalone="no"?>
<svg
   xmlns:dc="http://purl.org/dc/elements/1.1/"
   xmlns:cc="http://creativecommons.org/ns#"
   xmlns:rdf="http://www.w3.org/1999/02/22-rdf-syntax-ns#"
   xmlns:svg="http://www.w3.org/2000/svg"
   xmlns="http://www.w3.org/2000/svg"
   xmlns:sodipodi="http://sodipodi.sourceforge.net/DTD/sodipodi-0.dtd"
   xmlns:inkscape="http://www.inkscape.org/namespaces/inkscape"
   height="32"
   width="32"
   id="svg2"
   version="1.1"
   inkscape:version="0.91 r13725"
   sodipodi:docname="preferences-system-session.svg">
  <metadata
     id="metadata37">
    <rdf:RDF>
      <cc:Work
         rdf:about="">
        <dc:format>image/svg+xml</dc:format>
        <dc:type
           rdf:resource="http://purl.org/dc/dcmitype/StillImage" />
        <dc:title></dc:title>
      </cc:Work>
    </rdf:RDF>
  </metadata>
  <defs
     id="defs35" />
  <sodipodi:namedview
     pagecolor="#ffffff"
     bordercolor="#666666"
     borderopacity="1"
     objecttolerance="10"
     gridtolerance="10"
     guidetolerance="10"
     inkscape:pageopacity="0"
     inkscape:pageshadow="2"
     inkscape:window-width="1920"
     inkscape:window-height="1134"
     id="namedview33"
     showgrid="false"
     inkscape:zoom="4.9166667"
     inkscape:cx="24"
     inkscape:cy="24"
     inkscape:window-x="1920"
     inkscape:window-y="0"
     inkscape:window-maximized="1"
     inkscape:current-layer="svg2" />
  <linearGradient
     gradientUnits="userSpaceOnUse"
     x1="0"
     x2="47"
     y1="23.5"
     y2="23.5"
     id="linearGradient4">
    <stop
       offset="0"
       stop-color="#a9a3d4"
       id="stop6" />
    <stop
       offset=".47001833"
       stop-color="#87baff"
       id="stop8" />
    <stop
       offset="1"
       stop-color="#89ec85"
       id="stop10" />
  </linearGradient>
  <linearGradient
     id="a"
     gradientTransform="matrix(0.87828159,0,0,0.85765084,-341.46518,576.28148)"
     gradientUnits="userSpaceOnUse"
     x1="409.57144"
     x2="409.93887"
     y1="542.79797"
     y2="501.2316">
    <stop
       offset="0"
       stop-color="#197cf1"
       id="stop13" />
    <stop
       offset="1"
       stop-color="#20bcfa"
       id="stop15" />
  </linearGradient>
  <g
     transform="matrix(0.77630924,0,0,0.77630924,2.5111674,-781.12537)"
     id="g17"
     style="stroke-width:1.31742203">
    <rect
       height="29.160128"
       ry="1.372241"
       width="38.644394"
       x="-1.946605"
       y="1012.6734"
       id="rect19"
       style="fill-opacity:0.66666697" />
    <rect
       height="29.160128"
       ry="1.372241"
       width="38.644394"
       x="-1.946605"
       y="1011.7949"
       id="rect21"
       style="fill:url(#a)" />
    <g
       id="g23"
       style="fill:#ffffff">
      <path
         d="m 26.169789,1026.3396 c -0.05971,-0.078 -0.13763,-0.1247 -0.234314,-0.1395 l -2.041724,-0.3124 c -0.111611,-0.3571 -0.264169,-0.7214 -0.457536,-1.0933 0.133796,-0.1861 0.334558,-0.4482 0.602288,-0.7867 0.267728,-0.3385 0.457398,-0.5857 0.569009,-0.742 0.05957,-0.082 0.08915,-0.1673 0.08915,-0.2566 0,-0.1043 -0.02589,-0.1858 -0.07806,-0.2454 -0.267729,-0.3795 -0.881383,-1.0116 -1.840962,-1.8968 -0.08902,-0.075 -0.182138,-0.1115 -0.278685,-0.1115 -0.111611,0 -0.200899,0.034 -0.267865,0.1001 l -1.58419,1.1939 c -0.305115,-0.1562 -0.63981,-0.2939 -1.004223,-0.4128 l -0.312373,-2.0529 c -0.0074,-0.097 -0.05026,-0.1766 -0.128318,-0.2399 -0.07819,-0.063 -0.169128,-0.095 -0.273481,-0.095 l -2.476793,0 c -0.21569,0 -0.349623,0.1043 -0.401662,0.3124 -0.09669,0.3718 -0.204597,1.0635 -0.323603,2.0752 -0.349623,0.1117 -0.688016,0.253 -1.015316,0.4241 l -1.539681,-1.1939 c -0.09669,-0.075 -0.193368,-0.1115 -0.290052,-0.1115 -0.16365,0 -0.515053,0.2658 -1.054345,0.7977 -0.539293,0.5319 -0.905486,0.9317 -1.09899,1.1994 -0.06697,0.097 -0.100377,0.1822 -0.100377,0.2566 0,0.09 0.03711,0.1785 0.111474,0.2677 0.498345,0.6026 0.89631,1.1157 1.193893,1.5398 -0.185972,0.3421 -0.330998,0.6843 -0.435077,1.0264 l -2.0752757,0.3124 c -0.081757,0.015 -0.1524206,0.063 -0.211992,0.1451 -0.059572,0.082 -0.089289,0.1674 -0.089289,0.2566 l 0,2.4769 c 0,0.097 0.029717,0.1841 0.089289,0.2621 0.059572,0.078 0.1376305,0.1249 0.2343142,0.1397 l 2.0418615,0.3013 c 0.104076,0.3645 0.2565,0.7325 0.457399,1.1043 -0.133796,0.1861 -0.334696,0.4482 -0.602424,0.7867 -0.26773,0.3385 -0.457537,0.5857 -0.569011,0.742 -0.05957,0.082 -0.08929,0.1672 -0.08929,0.2566 0,0.097 0.02602,0.1821 0.07805,0.2564 0.290052,0.4019 0.903705,1.0268 1.840963,1.8746 0.08189,0.082 0.17488,0.1226 0.278958,0.1226 0.111611,0 0.204598,-0.034 0.278959,-0.1001 l 1.573233,-1.194 c 0.305115,0.1563 0.639811,0.2939 1.004223,0.413 l 0.312374,2.0529 c 0.0075,0.097 0.05026,0.1766 0.128318,0.2399 0.07805,0.063 0.169265,0.095 0.273344,0.095 l 2.476938,0 c 0.215963,0 0.349759,-0.1043 0.401936,-0.3124 0.09655,-0.3719 0.204323,-1.0635 0.323329,-2.0751 0.349622,-0.1116 0.688152,-0.253 1.015316,-0.4241 l 1.539818,1.2051 c 0.104077,0.066 0.2009,0.1001 0.290051,0.1001 0.163513,0 0.513136,-0.2638 1.048593,-0.792 0.535733,-0.5281 0.903843,-0.9299 1.104469,-1.2052 0.06697,-0.074 0.100514,-0.1598 0.100514,-0.2564 0,-0.097 -0.03711,-0.19 -0.11161,-0.279 -0.535458,-0.6546 -0.933423,-1.1677 -1.193893,-1.5397 0.148722,-0.2753 0.293885,-0.6137 0.435213,-1.0153 l 2.064047,-0.3122 c 0.08915,-0.015 0.163787,-0.063 0.223221,-0.1453 0.05943,-0.082 0.08902,-0.1675 0.08902,-0.2567 l 0,-2.4767 c 1.37e-4,-0.097 -0.02945,-0.1839 -0.08915,-0.2622 z m -6.459868,3.4978 c -0.557781,0.5579 -1.231007,0.8368 -2.01954,0.8368 -0.788534,0 -1.461622,-0.2789 -2.019539,-0.8368 -0.557781,-0.5578 -0.836739,-1.2309 -0.836739,-2.0195 0,-0.7884 0.278821,-1.4616 0.836739,-2.0194 0.557917,-0.5579 1.231142,-0.8369 2.019539,-0.8369 0.788533,0 1.461759,0.279 2.01954,0.8369 0.557779,0.5578 0.836738,1.231 0.836738,2.0194 0,0.7886 -0.278959,1.4617 -0.836738,2.0195 z"
         id="path25"
         inkscape:connector-curvature="0"
         style="fill-opacity:0.851852;stroke-width:0.180415" />
      <circle
         cx="8.9139986"
         cy="1014.8691"
         r="1.564593"
         id="circle27"
         style="fill-opacity:0.85204103" />
      <circle
         cx="5.0702949"
         cy="1014.9023"
         r="1.564593"
         id="circle29"
         style="fill-opacity:0.85204103" />
      <circle
         cx="1.291986"
         cy="1014.9395"
         r="1.564593"
         id="circle31"
         style="fill-opacity:0.85204103" />
    </g>
  </g>
</svg>
