<?xml version="1.0" encoding="UTF-8" standalone="no"?>
<svg
   xmlns:dc="http://purl.org/dc/elements/1.1/"
   xmlns:cc="http://creativecommons.org/ns#"
   xmlns:rdf="http://www.w3.org/1999/02/22-rdf-syntax-ns#"
   xmlns:svg="http://www.w3.org/2000/svg"
   xmlns="http://www.w3.org/2000/svg"
   xmlns:xlink="http://www.w3.org/1999/xlink"
   xmlns:sodipodi="http://sodipodi.sourceforge.net/DTD/sodipodi-0.dtd"
   xmlns:inkscape="http://www.inkscape.org/namespaces/inkscape"
   width="64px"
   height="64px"
   viewBox="0 0 64 64"
   version="1.1"
   id="svg2"
   inkscape:version="0.91 r13725"
   sodipodi:docname="application-msword-template.svg">
  <metadata
     id="metadata19">
    <rdf:RDF>
      <cc:Work
         rdf:about="">
        <dc:format>image/svg+xml</dc:format>
        <dc:type
           rdf:resource="http://purl.org/dc/dcmitype/StillImage" />
        <dc:title>application-pdf</dc:title>
      </cc:Work>
    </rdf:RDF>
  </metadata>
  <sodipodi:namedview
     pagecolor="#ffffff"
     bordercolor="#666666"
     borderopacity="1"
     objecttolerance="10"
     gridtolerance="10"
     guidetolerance="10"
     inkscape:pageopacity="0"
     inkscape:pageshadow="2"
     inkscape:window-width="1366"
     inkscape:window-height="700"
     id="namedview17"
     showgrid="false"
     inkscape:zoom="5.6568543"
     inkscape:cx="2.3117708"
     inkscape:cy="19.483406"
     inkscape:window-x="0"
     inkscape:window-y="0"
     inkscape:window-maximized="1"
     inkscape:current-layer="svg2"
     inkscape:snap-global="true" />
  <!-- Generator: Sketch 40.3 (33839) - http://www.bohemiancoding.com/sketch -->
  <title
     id="title4">application-pdf</title>
  <desc
     id="desc6">Created with Sketch.</desc>
  <defs
     id="defs8">
    <linearGradient
       inkscape:collect="always"
       id="linearGradient4174">
      <stop
         style="stop-color:#0ba0ff;stop-opacity:1"
         offset="0"
         id="stop4176" />
      <stop
         style="stop-color:#0c7eed;stop-opacity:1"
         offset="1"
         id="stop4178" />
    </linearGradient>
    <linearGradient
       gradientTransform="matrix(0.70607647,0,0,0.70607647,-7.1989039,61.782827)"
       id="SVGID_4_-3"
       gradientUnits="userSpaceOnUse"
       x1="102.6431"
       y1="-34.2061"
       x2="218.0972"
       y2="209.7536">
      <stop
         offset="0"
         style="stop-color:#23b6ef;stop-opacity:1"
         id="stop4202-6" />
      <stop
         offset="0.3941"
         style="stop-color:#45d3fe;stop-opacity:1"
         id="stop4204-7" />
      <stop
         offset="0.583"
         style="stop-color:#4dd0ff;stop-opacity:1"
         id="stop4206-5" />
      <stop
         offset="0.7838"
         style="stop-color:#47d2fd;stop-opacity:1"
         id="stop4208-3" />
      <stop
         offset="1"
         style="stop-color:#2bb2ec;stop-opacity:1"
         id="stop4210-5" />
    </linearGradient>
    <linearGradient
       gradientTransform="matrix(0.70607647,0,0,0.70607647,-7.1989039,61.782827)"
       id="SVGID_3_-6"
       gradientUnits="userSpaceOnUse"
       x1="37.1362"
       y1="-2.4779999"
       x2="152.1362"
       y2="240.522">
      <stop
         offset="0"
         style="stop-color:#20bcf4;stop-opacity:1"
         id="stop4187-2" />
      <stop
         offset="0.3941"
         style="stop-color:#49d3fd;stop-opacity:1"
         id="stop4189-9" />
      <stop
         offset="0.583"
         style="stop-color:#49d6ff;stop-opacity:1"
         id="stop4191-1" />
      <stop
         offset="0.7838"
         style="stop-color:#40d4fe;stop-opacity:1"
         id="stop4193-2" />
      <stop
         offset="1"
         style="stop-color:#20b5e8;stop-opacity:1"
         id="stop4195-7" />
    </linearGradient>
    <linearGradient
       id="a-3"
       y1="17"
       x1="40"
       y2="31"
       gradientUnits="userSpaceOnUse"
       x2="54"
       gradientTransform="matrix(0,3.383376,-3.4244669,0,218.19069,65.244715)">
      <stop
         stop-color="#060606"
         id="stop4172" />
      <stop
         offset="1"
         stop-opacity="0"
         id="stop4174" />
    </linearGradient>
    <radialGradient
       inkscape:collect="always"
       xlink:href="#linearGradient4174"
       id="radialGradient4180"
       cx="95.778931"
       cy="163.8054"
       fx="95.778931"
       fy="163.8054"
       r="84"
       gradientTransform="matrix(1.4537226,0,0,1.7852612,-45.177115,-119.84905)"
       gradientUnits="userSpaceOnUse" />
    <linearGradient
       gradientTransform="translate(-48,-332.36)"
       x2="0"
       gradientUnits="userSpaceOnUse"
       y2="336.36"
       y1="392.36"
       id="a">
      <stop
         id="stop4242"
         stop-opacity="0"
         stop-color="#ffffff" />
      <stop
         id="stop4244"
         stop-opacity=".2"
         stop-color="#ffffff"
         offset="1" />
    </linearGradient>
    <linearGradient
       x2="54"
       gradientUnits="userSpaceOnUse"
       y2="31"
       x1="40"
       y1="17"
       id="b"
       gradientTransform="translate(-54.391243,7.4571074)">
      <stop
         id="stop4247"
         stop-color="#060606" />
      <stop
         id="stop4249"
         stop-opacity="0"
         offset="1" />
    </linearGradient>
    <path
       d="m10 61v-58h30l14 14v44h-14z"
       id="c" />
    <linearGradient
       inkscape:collect="always"
       xlink:href="#a-3"
       id="linearGradient4283"
       gradientUnits="userSpaceOnUse"
       gradientTransform="matrix(0,0.845844,-0.85611672,0,54.547617,12.311424)"
       x1="40"
       y1="17"
       x2="54"
       y2="31" />
    <linearGradient
       y2="31"
       x2="54"
       y1="17"
       x1="40"
       gradientTransform="matrix(0,0.845844,-0.85611672,0,54.547617,12.311424)"
       gradientUnits="userSpaceOnUse"
       id="linearGradient4418"
       xlink:href="#a-3"
       inkscape:collect="always" />
  </defs>
  <style
     type="text/css"
     id="style4358">
	.st0{fill:#261300;}
	.st1{fill:#FF7C00;}
</style>
  <g
     id="g4272"
     transform="matrix(0.25,0,0,0.25,0,-4.8135597)">
    <g
       style="fill:none;fill-rule:evenodd;stroke:none;stroke-width:1"
       transform="matrix(1,0,0,-1,0,276)"
       id="Page-1">
      <g
         id="application-pdf">
        <path
           style="fill:url(#radialGradient4180);fill-opacity:1"
           inkscape:connector-curvature="0"
           id="path14361"
           d="m 206,232.74576 -156,0 c -4,0 -6,-2 -6,-6 L 44,30.745762 c 0,-4 2,-6 6,-6 l 110,0 52,52 0,149.999998 c 0,6 -6,6 -6,6 z" />
        <g
           transform="translate(44,28)"
           id="Group">
          <path
             style="fill:#646464;fill-opacity:0.2"
             inkscape:connector-curvature="0"
             id="Combined-Shape-7"
             d="m 0,198.74576 c 0,4 2,6 6,6 l 156,0 c 0,0 6,0 6,-6 l 0,-2 c 0,6 -6,6 -6,6 l -156,0 c -4,0 -6,-2 -6,-6 l 0,2 z" />
          <path
             style="opacity:0.25;fill:#999999"
             inkscape:connector-curvature="0"
             id="path16-5"
             d="m 0,2.745762 c 0,-4 2,-6 6,-6 l 110,0 0,2 -110,0 c -4,0 -6,2 -6,6 l 0,-2 z" />
        </g>
      </g>
    </g>
  </g>
  <path
     id="path4258"
     d="m 10.973684,57.943182 0,-0.910288 1.911485,0 0,-1.820573 -1.911485,0 0,-0.910287 1.911485,0 0,-1.820575 -1.911485,0 0,-0.910287 1.911485,0 0,-1.820574 -1.911485,0 0,-0.910287 1.911485,0 0,-1.820574 -1.911485,0 0,-0.910287 1.911485,0 0,-1.820574 -1.911485,0 0,-0.910287 1.911485,0 0,-1.820575 -1.911485,0 0,-0.910287 1.911485,0 0,-1.820574 -1.911485,0 0,-0.910286 1.911485,0 0,-1.820576 -1.911485,0 0,-0.910286 1.911485,0 0,-1.820575 -1.911485,0 0,-0.910286 1.911485,0 0,-1.820575 -1.911485,0 0,-0.910286 1.911485,0 0,-1.820574 -1.911485,0 0,-0.910288 1.911485,0 0,-1.820574 -1.911485,0 0,-0.910287 1.911485,0 0,-1.820574 -1.911485,0 0,-0.910288 1.911485,0 0,-1.820573 -1.911485,0 0,-0.910287 1.911485,0 0,-1.820575 -1.911485,0 0,-0.910287 1.911485,0 0,-1.820573 -1.911485,0 0,-0.910288 1.911485,0 0,-1.820574 -1.911485,0 0,-0.910288 1.911485,0 0,-1.820573 -1.911485,0 0,-0.910287 1.911485,0 0,-1.820575 0.955738,0 0,1.820575 1.911485,0 0,-1.820575 0.95574,0 0,1.820575 1.911485,0 0,-1.820575 0.95574,0 0,1.820575 1.911485,0 0,-1.820575 0.955742,0 0,1.820575 1.911482,0 0,-1.820575 0.955742,0 0,1.820575 1.911484,0 0,-1.820575 0.955742,0 0,1.820575 1.911481,0 0,-1.820575 0.955742,0 0,1.820575 1.911485,0 0,-1.820575 0.955742,0 0,1.820575 1.911482,0 0,-1.820575 0.955742,0 0,1.820575 1.911484,0 0,-1.820575 0.955743,0 0,1.820575 1.911481,0 0,-1.820575 0.955743,0 0,1.820575 1.911484,0 0,-1.820575 0.955741,0 0,1.820575 1.911483,0 0,-1.820575 0.955741,0 0,1.820575 1.911485,0 0,-1.820575 0.955739,0 0,1.820575 1.911484,0 0,0.910287 -1.911484,0 0,1.820573 1.911484,0 0,0.910288 -1.911484,0 0,1.820574 1.911484,0 0,0.910288 -1.911484,0 0,1.820573 1.911484,0 0,0.910287 -1.911484,0 0,1.820575 1.911484,0 0,0.910287 -1.911484,0 0,1.820573 1.911484,0 0,0.910288 -1.911484,0 0,1.820574 1.911484,0 0,0.910287 -1.911484,0 0,1.820574 1.911484,0 0,0.910288 -1.911484,0 0,1.820574 1.911484,0 0,0.910286 -1.911484,0 0,1.820575 1.911484,0 0,0.910286 -1.911484,0 0,1.820575 1.911484,0 0,0.910286 -1.911484,0 0,1.820576 1.911484,0 0,0.910286 -1.911484,0 0,1.820574 1.911484,0 0,0.910287 -1.911484,0 0,1.820575 1.911484,0 0,0.910287 -1.911484,0 0,1.820574 1.911484,0 -0.955742,0.910287 -0.955742,0 0,0.910287 -0.955739,0.910287 0,-1.820574 -1.911485,0 0,1.820574 1.911485,0 -0.955743,0.910287 -0.955742,0 0,0.910287 -0.955741,0.910287 0,-1.820574 -1.911483,0 0,1.820574 1.911483,0 -0.955743,0.910287 -0.95574,0 0,0.910288 -0.955741,0.910287 0,-1.820575 -1.911484,0 0,1.820575 1.911484,0 -0.955742,0.910287 -0.955742,0 0,0.910287 -0.955743,0.910286 0,-1.820573 -1.911481,0 0,1.820573 1.911481,0 -0.955741,0.910288 -27.716505,0 z m 2.867223,-0.910288 1.911485,0 0,-1.820573 -1.911485,0 z m 2.867225,0 1.911485,0 0,-1.820573 -1.911485,0 z m 2.867225,0 1.911485,0 0,-1.820573 -1.911485,0 z m 2.867227,0 1.911482,0 0,-1.820573 -1.911482,0 z m 2.867224,0 1.911484,0 0,-1.820573 -1.911484,0 z m 2.867226,0 1.911481,0 0,-1.820573 -1.911481,0 z m 2.867223,0 1.911485,0 0,-1.820573 -1.911485,0 z m 2.867227,0 1.911482,0 0,-1.820573 -1.911482,0 z m 2.867224,0 1.911484,0 0,-1.820573 -1.911484,0 z m -22.937801,-2.73086 1.911485,0 0,-1.820575 -1.911485,0 z m 2.867225,0 1.911485,0 0,-1.820575 -1.911485,0 z m 2.867225,0 1.911485,0 0,-1.820575 -1.911485,0 z m 2.867227,0 1.911482,0 0,-1.820575 -1.911482,0 z m 2.867224,0 1.911484,0 0,-1.820575 -1.911484,0 z m 2.867226,0 1.911481,0 0,-1.820575 -1.911481,0 z m 2.867223,0 1.911485,0 0,-1.820575 -1.911485,0 z m 2.867227,0 1.911482,0 0,-1.820575 -1.911482,0 z m 2.867224,0 1.911484,0 0,-1.820575 -1.911484,0 z m 2.867227,0 1.911481,0 0,-1.820575 -1.911481,0 z m -25.805028,-2.730862 1.911485,0 0,-1.820574 -1.911485,0 z m 2.867225,0 1.911485,0 0,-1.820574 -1.911485,0 z m 2.867225,0 1.911485,0 0,-1.820574 -1.911485,0 z m 2.867227,0 1.911482,0 0,-1.820574 -1.911482,0 z m 2.867224,0 1.911484,0 0,-1.820574 -1.911484,0 z m 2.867226,0 1.911481,0 0,-1.820574 -1.911481,0 z m 2.867223,0 1.911485,0 0,-1.820574 -1.911485,0 z m 2.867227,0 1.911482,0 0,-1.820574 -1.911482,0 z m 2.867224,0 1.911484,0 0,-1.820574 -1.911484,0 z m 2.867227,0 1.911481,0 0,-1.820574 -1.911481,0 z m 2.867224,0 1.911484,0 0,-1.820574 -1.911484,0 z m -28.672251,-2.730861 1.911485,0 0,-1.820574 -1.911485,0 z m 2.867224,0 1.911485,0 0,-1.820574 -1.911485,0 z m 2.867225,0 1.911485,0 0,-1.820574 -1.911485,0 z m 2.867227,0 1.911482,0 0,-1.820574 -1.911482,0 z m 2.867224,0 1.911484,0 0,-1.820574 -1.911484,0 z m 2.867226,0 1.911481,0 0,-1.820574 -1.911481,0 z m 2.867223,0 1.911485,0 0,-1.820574 -1.911484,0 z m 2.867227,0 1.911482,0 0,-1.820574 -1.911482,0 z m 2.867224,0 1.911484,0 0,-1.820574 -1.911484,0 z m 2.867227,0 1.911481,0 0,-1.820574 -1.911481,0 z m 2.867224,0 1.911484,0 0,-1.820574 -1.911484,0 z m 2.867225,0 1.911483,0 0,-1.820574 -1.911483,0 z m -31.539476,-2.730861 1.911485,0 0,-1.820574 -1.911485,0 z m 2.867225,0 1.911485,0 0,-1.820574 -1.911485,0 z m 2.867225,0 1.911485,0 0,-1.820574 -1.911485,0 z m 2.867227,0 1.911482,0 0,-1.820574 -1.911482,0 z m 2.867224,0 1.911484,0 0,-1.820574 -1.911484,0 z m 2.867226,0 1.911481,0 0,-1.820574 -1.911481,0 z m 2.867223,0 1.911484,0 0,-1.820574 -1.911484,0 z m 2.867226,0 1.911482,0 0,-1.820574 -1.911482,0 z m 2.867224,0 1.911484,0 0,-1.820574 -1.911484,0 z m 2.867227,0 1.911481,0 0,-1.820574 -1.911481,0 z m 2.867224,0 1.911484,0 0,-1.820574 -1.911484,0 z m 2.867225,0 1.911483,0 0,-1.820574 -1.911483,0 z m 2.867224,0 1.911485,0 0,-1.820574 -1.911485,0 z m -34.4067,-2.730861 1.911485,0 0,-1.820575 -1.911485,0 z m 2.867225,0 1.911485,0 0,-1.820575 -1.911485,0 z m 2.867225,0 1.911485,0 0,-1.820575 -1.911485,0 z m 2.867227,0 1.911482,0 0,-1.820575 -1.911482,0 z m 2.867224,0 1.911484,0 0,-1.820575 -1.911484,0 z m 2.867226,0 1.911481,0 0,-1.820575 -1.911481,0 z m 2.867223,0 1.911484,0 0,-1.820575 -1.911484,0 z m 2.867226,0 1.911482,0 0,-1.820575 -1.911482,0 z m 2.867224,0 1.911484,0 0,-1.820575 -1.911484,0 z m 2.867227,0 1.911481,0 0,-1.820575 -1.911481,0 z m 2.867224,0 1.911484,0 0,-1.820575 -1.911484,0 z m 2.867225,0 1.911483,0 0,-1.820575 -1.911483,0 z m 2.867224,0 1.911485,0 0,-1.820575 -1.911485,0 z m -34.4067,-2.730862 1.911485,0 0,-1.820574 -1.911485,0 z m 2.867225,0 1.911485,0 0,-1.820574 -1.911485,0 z m 2.867225,0 1.911485,0 0,-1.820574 -1.911485,0 z m 2.867227,0 1.911482,0 0,-1.820574 -1.911482,0 z m 2.867224,0 1.911484,0 0,-1.820574 -1.911484,0 z m 2.867226,0 1.911481,0 0,-1.820574 -1.911481,0 z m 2.867223,0 1.911484,0 0,-1.820574 -1.911484,0 z m 2.867226,0 1.911482,0 0,-1.820574 -1.911482,0 z m 2.867224,0 1.911484,0 0,-1.820574 -1.911484,0 z m 2.867227,0 1.911481,0 0,-1.820574 -1.911481,0 z m 2.867224,0 1.911484,0 0,-1.820574 -1.911484,0 z m 2.867225,0 1.911483,0 0,-1.820574 -1.911483,0 z m 2.867224,0 1.911485,0 0,-1.820574 -1.911485,0 z m -34.4067,-2.73086 1.911485,0 0,-1.820576 -1.911485,0 z m 2.867225,0 1.911485,0 0,-1.820576 -1.911485,0 z m 2.867225,0 1.911485,0 0,-1.820576 -1.911485,0 z m 2.867227,0 1.911482,0 0,-1.820576 -1.911482,0 z m 2.867224,0 1.911484,0 0,-1.820576 -1.911484,0 z m 2.867226,0 1.911481,0 0,-1.820576 -1.911481,0 z m 2.867223,0 1.911484,0 0,-1.820576 -1.911484,0 z m 2.867226,0 1.911482,0 0,-1.820576 -1.911482,0 z m 2.867224,0 1.911484,0 0,-1.820576 -1.911484,0 z m 2.867227,0 1.911481,0 0,-1.820576 -1.911481,0 z m 2.867224,0 1.911484,0 0,-1.820576 -1.911484,0 z m 2.867225,0 1.911483,0 0,-1.820576 -1.911483,0 z m 2.867224,0 1.911485,0 0,-1.820576 -1.911485,0 z m -34.4067,-2.730862 1.911485,0 0,-1.820575 -1.911485,0 z m 2.867225,0 1.911485,0 0,-1.820575 -1.911485,0 z m 2.867225,0 1.911485,0 0,-1.820575 -1.911485,0 z m 2.867227,0 1.911482,0 0,-1.820575 -1.911482,0 z m 2.867224,0 1.911484,0 0,-1.820575 -1.911484,0 z m 2.867226,0 1.911481,0 0,-1.820575 -1.911481,0 z m 2.867223,0 1.911484,0 0,-1.820575 -1.911484,0 z m 2.867226,0 1.911482,0 0,-1.820575 -1.911482,0 z m 2.867224,0 1.911484,0 0,-1.820575 -1.911484,0 z m 2.867227,0 1.911481,0 0,-1.820575 -1.911481,0 z m 2.867224,0 1.911484,0 0,-1.820575 -1.911484,0 z m 2.867225,0 1.911483,0 0,-1.820575 -1.911483,0 z m 2.867224,0 1.911485,0 0,-1.820575 -1.911485,0 z m -34.4067,-2.730861 1.911485,0 0,-1.820575 -1.911485,0 z m 2.867225,0 1.911485,0 0,-1.820575 -1.911485,0 z m 2.867225,0 1.911485,0 0,-1.820575 -1.911485,0 z m 2.867227,0 1.911482,0 0,-1.820575 -1.911482,0 z m 2.867224,0 1.911484,0 0,-1.820575 -1.911484,0 z m 2.867226,0 1.911481,0 0,-1.820575 -1.911481,0 z m 2.867223,0 1.911484,0 0,-1.820575 -1.911484,0 z m 2.867226,0 1.911482,0 0,-1.820575 -1.911482,0 z m 2.867224,0 1.911484,0 0,-1.820575 -1.911484,0 z m 2.867227,0 1.911481,0 0,-1.820575 -1.911481,0 z m 2.867224,0 1.911484,0 0,-1.820575 -1.911484,0 z m 2.867225,0 1.911483,0 0,-1.820575 -1.911483,0 z m 2.867224,0 1.911485,0 0,-1.820575 -1.911485,0 z m -34.4067,-2.730861 1.911485,0 0,-1.820574 -1.911485,0 z m 2.867225,0 1.911485,0 0,-1.820574 -1.911485,0 z m 2.867225,0 1.911485,0 0,-1.820574 -1.911485,0 z m 2.867227,0 1.911482,0 0,-1.820574 -1.911482,0 z m 2.867224,0 1.911484,0 0,-1.820574 -1.911484,0 z m 2.867226,0 1.911481,0 0,-1.820574 -1.911481,0 z m 2.867223,0 1.911484,0 0,-1.820574 -1.911484,0 z m 2.867226,0 1.911482,0 0,-1.820574 -1.911482,0 z m 2.867224,0 1.911484,0 0,-1.820574 -1.911484,0 z m 2.867227,0 1.911481,0 0,-1.820574 -1.911481,0 z m 2.867224,0 1.911484,0 0,-1.820574 -1.911484,0 z m 2.867225,0 1.911483,0 0,-1.820574 -1.911483,0 z m 2.867224,0 1.911485,0 0,-1.820574 -1.911485,0 z m -34.4067,-2.730862 1.911485,0 0,-1.820574 -1.911485,0 z m 2.867225,0 1.911485,0 0,-1.820574 -1.911485,0 z m 2.867225,0 1.911485,0 0,-1.820574 -1.911485,0 0,0.910287 z m 2.867227,0 1.911482,0 0,-1.820574 -1.911482,0 0,0.910287 z m 2.867224,0 1.911484,0 0,-1.820574 -1.911484,0 0,0.910287 z m 2.867226,0 1.911481,0 0,-1.820574 -1.911481,0 0,0.910287 z m 2.867223,0 1.911484,0 0,-1.820574 -1.911484,0 0,0.910287 z m 2.867226,0 1.911482,0 0,-1.820574 -1.911482,0 0,0.910287 z m 2.867224,0 1.911484,0 0,-1.820574 -1.911484,0 0,0.910287 z m 2.867227,0 1.911481,0 0,-1.820574 -1.911481,0 0,0.910287 z m 2.867224,0 1.911484,0 0,-1.820574 -1.911484,0 0,0.910287 z m 2.867225,0 1.911483,0 0,-1.820574 -1.911483,0 0,0.910287 z m 2.867224,0 1.911485,0 0,-1.820574 -1.911485,0 z m -34.4067,-2.730861 1.911485,0 0,-1.820574 -1.911485,0 z m 2.867225,0 1.911485,0 0,-1.820574 -1.911485,0 z m 2.867225,0 1.911485,0 0,-1.820574 -1.911485,0 z m 2.867227,0 1.911482,0 0,-1.820574 -1.911482,0 0,0.910287 z m 2.867224,0 1.911484,0 0,-1.820574 -1.911484,0 0,0.910287 z m 2.867226,0 1.911481,0 0,-1.820574 -1.911481,0 0,0.910287 z m 2.867223,0 1.911484,0 0,-1.820574 -1.911484,0 0,0.910287 z m 2.867226,0 1.911482,0 0,-1.820574 -1.911482,0 0,0.910287 z m 2.867224,0 1.911484,0 0,-1.820574 -1.911484,0 0,0.910287 z m 2.867227,0 1.911481,0 0,-1.820574 -1.911481,0 0,0.910287 z m 2.867224,0 1.911484,0 0,-1.820574 -1.911484,0 0,0.910287 z m 2.867225,0 1.911483,0 0,-1.820574 -1.911483,0 0,0.910287 z m 2.867224,0 1.911485,0 0,-1.820574 -1.911485,0 0,0.910287 z m -34.4067,-2.730862 1.911485,0 0,-1.820573 -1.911485,0 z m 2.867225,0 1.911485,0 0,-1.820573 -1.911485,0 z m 2.867225,0 1.911485,0 0,-1.820573 -1.911485,0 z m 2.867227,0 1.911482,0 0,-1.820573 -1.911482,0 z m 2.867224,0 1.911484,0 0,-1.820573 -1.911484,0 z m 2.867226,0 1.911481,0 0,-1.820573 -1.911481,0 z m 2.867223,0 1.911484,0 0,-1.820573 -1.911484,0 z m 2.867226,0 1.911482,0 0,-1.820573 -1.911482,0 z m 2.867224,0 1.911484,0 0,-1.820573 -1.911484,0 z m 2.867227,0 1.911481,0 0,-1.820573 -1.911481,0 z m 2.867224,0 1.911484,0 0,-1.820573 -1.911484,0 z m 2.867225,0 1.911483,0 0,-1.820573 -1.911483,0 z m 2.867224,0 1.911485,0 0,-1.820573 -1.911485,0 z m -34.4067,-2.73086 1.911485,0 0,-1.820575 -1.911485,0 z m 2.867225,0 1.911485,0 0,-1.820575 -1.911485,0 z m 2.867225,0 1.911485,0 0,-1.820575 -1.911485,0 z m 2.867227,0 1.911482,0 0,-1.820575 -1.911482,0 z m 2.867224,0 1.911484,0 0,-1.820575 -1.911484,0 z m 2.867226,0 1.911481,0 0,-1.820575 -1.911481,0 z m 2.867223,0 1.911484,0 0,-1.820575 -1.911484,0 z m 2.867226,0 1.911482,0 0,-1.820575 -1.911482,0 z m 2.867224,0 1.911484,0 0,-1.820575 -1.911484,0 z m 2.867227,0 1.911481,0 0,-1.820575 -1.911481,0 z m 2.867224,0 1.911484,0 0,-1.820575 -1.911484,0 z m 2.867225,0 1.911483,0 0,-1.820575 -1.911483,0 z m 2.867224,0 1.911485,0 0,-1.820575 -1.911485,0 z m -34.4067,-2.730862 1.911485,0 0,-1.820573 -1.911485,0 z m 2.867225,0 1.911485,0 0,-1.820573 -1.911485,0 z m 2.867225,0 1.911485,0 0,-1.820573 -1.911485,0 z m 2.867227,0 1.911482,0 0,-1.820573 -1.911482,0 z m 2.867224,0 1.911484,0 0,-1.820573 -1.911484,0 z m 2.867226,0 1.911481,0 0,-1.820573 -1.911481,0 z m 2.867223,0 1.911484,0 0,-1.820573 -1.911484,0 z m 2.867226,0 1.911482,0 0,-1.820573 -1.911482,0 z m 2.867224,0 1.911484,0 0,-1.820573 -1.911484,0 z m 2.867227,0 1.911481,0 0,-1.820573 -1.911481,0 z m 2.867224,0 1.911484,0 0,-1.820573 -1.911484,0 0,0.910285 z m 2.867225,0 1.911483,0 0,-1.820573 -1.911483,0 0,0.910285 z m 2.867224,0 1.911485,0 0,-1.820573 -1.911485,0 0,0.910285 z m -34.4067,-2.730861 1.911485,0 0,-1.820574 -1.911485,0 z m 2.867225,0 1.911485,0 0,-1.820574 -1.911485,0 z m 2.867225,0 1.911485,0 0,-1.820574 -1.911485,0 z m 2.867227,0 1.911482,0 0,-1.820574 -1.911482,0 z m 2.867224,0 1.911484,0 0,-1.820574 -1.911484,0 z m 2.867226,0 1.911481,0 0,-1.820574 -1.911481,0 z m 2.867223,0 1.911484,0 0,-1.820574 -1.911484,0 z m 2.867226,0 1.911482,0 0,-1.820574 -1.911482,0 z m 2.867224,0 1.911484,0 0,-1.820574 -1.911484,0 z m 2.867227,0 1.911481,0 0,-1.820574 -1.911481,0 z m 2.867224,0 1.911484,0 0,-1.820574 -1.911484,0 z m 2.867225,0 1.911483,0 0,-1.820574 -1.911483,0 z m 2.867224,0 1.911485,0 0,-1.820574 -1.911485,0 z m -34.4067,-2.730862 1.911485,0 0,-1.820573 -1.911485,0 z m 2.867225,0 1.911485,0 0,-1.820573 -1.911485,0 z m 2.867225,0 1.911485,0 0,-1.820573 -1.911485,0 z m 2.867227,0 1.911482,0 0,-1.820573 -1.911482,0 z m 2.867224,0 1.911484,0 0,-1.820573 -1.911484,0 z m 2.867226,0 1.911481,0 0,-1.820573 -1.911481,0 z m 2.867223,0 1.911484,0 0,-1.820573 -1.911484,0 z m 2.867226,0 1.911482,0 0,-1.820573 -1.911482,0 z m 2.867224,0 1.911484,0 0,-1.820573 -1.911484,0 z m 2.867227,0 1.911481,0 0,-1.820573 -1.911481,0 z m 2.867224,0 1.911484,0 0,-1.820573 -1.911484,0 z m 2.867225,0 1.911483,0 0,-1.820573 -1.911483,0 z m 2.867224,0 1.911485,0 0,-1.820573 -1.911485,0 z"
     inkscape:connector-curvature="0"
     style="color:#000000;opacity:0.1;color-interpolation:sRGB;color-interpolation-filters:linearRGB;fill:#ffffff;color-rendering:auto;image-rendering:auto;shape-rendering:auto;text-rendering:auto" />
  <path
     style="opacity:0.1;fill:url(#linearGradient4283);fill-rule:evenodd"
     id="path4198-2"
     d="M 39.993635,46.145183 28.008,57.987 l 11.985635,0 z"
     inkscape:connector-curvature="0" />
  <path
     style="opacity:1;fill:#0ba0ff;fill-opacity:1;fill-rule:evenodd;stroke:none;stroke-width:1"
     inkscape:connector-curvature="0"
     id="path19-9"
     d="M 41.238667,44.962667 C 40.502667,44.962667 40,45.597333 40,46.333333 L 40,58 53,44.962667 l -11.761333,0 z" />
  <style
     id="style4358-2"
     type="text/css">
	.st0{fill:#261300;}
	.st1{fill:#FF7C00;}
</style>
  <polygon
     transform="translate(-6,4)"
     style="fill:none;stroke:#ffffff"
     id="Rectangle-28"
     points="21.5,45.5 21.5,22.5 41.5,22.5 41.5,45.5 " />
  <path
     inkscape:connector-curvature="0"
     style="stroke:#ffffff"
     d="m 18,30.5 10,0"
     id="Path-25" />
  <path
     inkscape:connector-curvature="0"
     style="stroke:#ffffff"
     d="m 18,36.5 15,0"
     id="path18" />
  <path
     inkscape:connector-curvature="0"
     style="stroke:#ffffff"
     d="m 18,33.5 15,0"
     id="path20" />
  <path
     inkscape:connector-curvature="0"
     style="stroke:#ffffff"
     d="m 18,39.5 15,0"
     id="path22" />
  <path
     inkscape:connector-curvature="0"
     style="stroke:#ffffff"
     d="m 18,42.5 15,0"
     id="path24" />
  <path
     inkscape:connector-curvature="0"
     style="stroke:#ffffff"
     d="m 18,45.5 15,0"
     id="path26" />
</svg>
