<?xml version="1.0" encoding="UTF-8" standalone="no"?>
<svg
   xmlns:dc="http://purl.org/dc/elements/1.1/"
   xmlns:cc="http://creativecommons.org/ns#"
   xmlns:rdf="http://www.w3.org/1999/02/22-rdf-syntax-ns#"
   xmlns:svg="http://www.w3.org/2000/svg"
   xmlns="http://www.w3.org/2000/svg"
   xmlns:xlink="http://www.w3.org/1999/xlink"
   xmlns:sodipodi="http://sodipodi.sourceforge.net/DTD/sodipodi-0.dtd"
   xmlns:inkscape="http://www.inkscape.org/namespaces/inkscape"
   width="64px"
   height="64px"
   viewBox="0 0 64 64"
   version="1.1"
   id="svg2"
   inkscape:version="0.91 r13725"
   sodipodi:docname="application-vnd.corel-draw.svg">
  <metadata
     id="metadata19">
    <rdf:RDF>
      <cc:Work
         rdf:about="">
        <dc:format>image/svg+xml</dc:format>
        <dc:type
           rdf:resource="http://purl.org/dc/dcmitype/StillImage" />
        <dc:title>application-pdf</dc:title>
      </cc:Work>
    </rdf:RDF>
  </metadata>
  <sodipodi:namedview
     pagecolor="#ffffff"
     bordercolor="#666666"
     borderopacity="1"
     objecttolerance="10"
     gridtolerance="10"
     guidetolerance="10"
     inkscape:pageopacity="0"
     inkscape:pageshadow="2"
     inkscape:window-width="1366"
     inkscape:window-height="700"
     id="namedview17"
     showgrid="false"
     inkscape:zoom="2.6074562"
     inkscape:cx="-44.755804"
     inkscape:cy="55.79458"
     inkscape:window-x="0"
     inkscape:window-y="0"
     inkscape:window-maximized="1"
     inkscape:current-layer="svg2" />
  <!-- Generator: Sketch 40.3 (33839) - http://www.bohemiancoding.com/sketch -->
  <title
     id="title4">application-pdf</title>
  <desc
     id="desc6">Created with Sketch.</desc>
  <defs
     id="defs8">
    <linearGradient
       gradientTransform="matrix(0.70607647,0,0,0.70607647,-7.1989039,61.782827)"
       id="SVGID_4_-3"
       gradientUnits="userSpaceOnUse"
       x1="102.6431"
       y1="-34.2061"
       x2="218.0972"
       y2="209.7536">
      <stop
         offset="0"
         style="stop-color:#23b6ef;stop-opacity:1"
         id="stop4202-6" />
      <stop
         offset="0.3941"
         style="stop-color:#45d3fe;stop-opacity:1"
         id="stop4204-7" />
      <stop
         offset="0.583"
         style="stop-color:#4dd0ff;stop-opacity:1"
         id="stop4206-5" />
      <stop
         offset="0.7838"
         style="stop-color:#47d2fd;stop-opacity:1"
         id="stop4208-3" />
      <stop
         offset="1"
         style="stop-color:#2bb2ec;stop-opacity:1"
         id="stop4210-5" />
    </linearGradient>
    <linearGradient
       gradientTransform="matrix(0.70607647,0,0,0.70607647,-7.1989039,61.782827)"
       id="SVGID_3_-6"
       gradientUnits="userSpaceOnUse"
       x1="37.1362"
       y1="-2.4779999"
       x2="152.1362"
       y2="240.522">
      <stop
         offset="0"
         style="stop-color:#20bcf4;stop-opacity:1"
         id="stop4187-2" />
      <stop
         offset="0.3941"
         style="stop-color:#49d3fd;stop-opacity:1"
         id="stop4189-9" />
      <stop
         offset="0.583"
         style="stop-color:#49d6ff;stop-opacity:1"
         id="stop4191-1" />
      <stop
         offset="0.7838"
         style="stop-color:#40d4fe;stop-opacity:1"
         id="stop4193-2" />
      <stop
         offset="1"
         style="stop-color:#20b5e8;stop-opacity:1"
         id="stop4195-7" />
    </linearGradient>
    <linearGradient
       id="a-3"
       y1="17"
       x1="40"
       y2="31"
       gradientUnits="userSpaceOnUse"
       x2="54"
       gradientTransform="matrix(0,3.383376,-3.4244669,0,218.19069,65.244715)">
      <stop
         stop-color="#060606"
         id="stop4172" />
      <stop
         offset="1"
         stop-opacity="0"
         id="stop4174" />
    </linearGradient>
    <linearGradient
       id="linearGradient4318-0"
       inkscape:collect="always">
      <stop
         id="stop4320-9"
         offset="0"
         style="stop-color:#ffffff;stop-opacity:1" />
      <stop
         id="stop4322-3"
         offset="1"
         style="stop-color:#ececec;stop-opacity:1" />
    </linearGradient>
    <radialGradient
       gradientUnits="userSpaceOnUse"
       gradientTransform="matrix(1,0,0,1.2380952,0,-31.428571)"
       r="84"
       fy="166.69341"
       fx="103.455"
       cy="166.69341"
       cx="103.455"
       id="radialGradient4324-0"
       xlink:href="#linearGradient4318-0"
       inkscape:collect="always" />
    <linearGradient
       inkscape:collect="always"
       xlink:href="#a-3"
       id="linearGradient4283"
       gradientUnits="userSpaceOnUse"
       gradientTransform="matrix(0,3.383376,-3.4244669,0,218.19069,65.244715)"
       x1="40"
       y1="17"
       x2="54"
       y2="31" />
  </defs>
  <style
     type="text/css"
     id="style4358">
	.st0{fill:#261300;}
	.st1{fill:#FF7C00;}
</style>
  <g
     id="g4272"
     transform="matrix(0.25,0,0,0.25,0,-4)">
    <g
       style="fill:none;fill-rule:evenodd;stroke:none;stroke-width:1"
       transform="matrix(1,0,0,-1,0,276)"
       id="Page-1">
      <g
         id="application-pdf">
        <path
           style="fill:url(#radialGradient4324-0);fill-opacity:1"
           inkscape:connector-curvature="0"
           id="path14361"
           d="m 206,236 -156,0 c -4,0 -6,-2 -6,-6 L 44,34 c 0,-4 2,-6 6,-6 l 110,0 52,52 0,150 c 0,6 -6,6 -6,6 z" />
        <g
           transform="translate(44,28)"
           id="Group">
          <path
             style="fill:#808080;fill-opacity:0.2"
             inkscape:connector-curvature="0"
             id="Combined-Shape-7"
             d="m 0,202 c 0,4 2,6 6,6 l 156,0 c 0,0 6,0 6,-6 l 0,-2 c 0,6 -6,6 -6,6 L 6,206 c -4,0 -6,-2 -6,-6 l 0,2 z" />
          <path
             style="opacity:0.25;fill:#999999"
             inkscape:connector-curvature="0"
             id="path16-5"
             d="M 0,6 C 0,2 2,0 6,0 L 116,0 116,2 6,2 C 2,2 0,4 0,8 L 0,6 Z" />
        </g>
        <path
           style="fill:#ffffff;fill-opacity:1"
           inkscape:connector-curvature="0"
           id="path19-9"
           d="m 164.95467,80.149333 c -2.944,0 -4.95467,-2.538666 -4.95467,-5.482666 L 160,28 l 52,52.149333 -47.04533,0 z" />
      </g>
    </g>
    <path
       style="opacity:0.1;fill:url(#linearGradient4283);fill-rule:evenodd"
       id="path4198-2"
       d="m 159.97476,200.57975 -47.94254,47.36727 47.94254,0 z"
       inkscape:connector-curvature="0" />
  </g>
  <g
     id="g6"
     transform="matrix(0.03886397,0,0,0.03886396,6.902523,13.245186)"
     style="fill:#85ba38;fill-opacity:1">
    <g
       id="_x32_069a460dcf28295e231f3111e0396ed"
       style="fill:#85ba38;fill-opacity:1">
      <path
         d="m 468.4,897.8 63.1,0 c 11.5,0 20.8,9.3 20.8,20.8 l 0,50.6 c 0,11.4 -9.3,20.8 -20.8,20.8 l -63.1,0 c -11.4,0 -20.8,-9.3 -20.8,-20.8 l 0,-50.6 c 0,-11.4 9.4,-20.8 20.8,-20.8 l 0,0 z M 205.7,289.1 c 0.8,156.1 133.4,399.6 255.9,567.6 l 12.1,0 C 380.5,686.7 301,477.1 300.3,311.9 299.6,162 360.9,66.9 443.5,12.6 c -18.3,1.7 -36.7,4.3 -54.9,7.8 -102,40.5 -183.7,124.1 -182.9,268.7 l 0,0 z M 475.4,10.5 c -47.7,64.3 -84.6,155.4 -84.3,287.6 0.4,172.6 40.8,377.7 92.9,558.6 l 32,0 c 52.1,-181 92.4,-386.1 92.9,-558.6 0.3,-132.2 -36.5,-223.3 -84.3,-287.6 -16.4,-0.7 -32.8,-0.7 -49.2,0 l 0,0 z M 794.3,289.1 C 793.5,445.2 661,688.7 538.4,856.7 l -12.1,0 C 619.5,686.7 699,477.1 699.7,311.9 700.4,162 639.1,66.9 556.5,12.6 c 18.3,1.7 36.7,4.3 54.9,7.8 102,40.5 183.7,124.1 182.9,268.7 l 0,0 z M 546.8,856.7 C 684,712.3 839.6,471.1 840.6,285.1 841.2,171.1 785.7,95.5 708,49.3 803.2,90.2 875.7,165.6 875,288.2 873.9,477 692.8,726.5 549.1,856.7 l -2.3,0 0,0 z m -93.6,0 C 316.1,712.3 160.4,471.1 159.4,285.1 158.8,171.1 214.3,95.5 292,49.3 196.8,90.2 124.3,165.6 125,288.2 c 1.1,188.9 182.1,438.4 325.8,568.5 l 2.4,0 z"
         id="path9"
         inkscape:connector-curvature="0"
         style="fill:#85ba38;fill-opacity:1" />
    </g>
  </g>
</svg>
