<?xml version="1.0" encoding="UTF-8" standalone="no"?>
<svg
   xmlns:dc="http://purl.org/dc/elements/1.1/"
   xmlns:cc="http://creativecommons.org/ns#"
   xmlns:rdf="http://www.w3.org/1999/02/22-rdf-syntax-ns#"
   xmlns:svg="http://www.w3.org/2000/svg"
   xmlns="http://www.w3.org/2000/svg"
   xmlns:xlink="http://www.w3.org/1999/xlink"
   xmlns:sodipodi="http://sodipodi.sourceforge.net/DTD/sodipodi-0.dtd"
   xmlns:inkscape="http://www.inkscape.org/namespaces/inkscape"
   width="64px"
   height="64px"
   viewBox="0 0 64 64"
   version="1.1"
   id="svg2"
   inkscape:version="0.91 r13725"
   sodipodi:docname="libreoffice-oasis-spreadsheet.svg">
  <metadata
     id="metadata19">
    <rdf:RDF>
      <cc:Work
         rdf:about="">
        <dc:format>image/svg+xml</dc:format>
        <dc:type
           rdf:resource="http://purl.org/dc/dcmitype/StillImage" />
        <dc:title>application-pdf</dc:title>
      </cc:Work>
    </rdf:RDF>
  </metadata>
  <sodipodi:namedview
     pagecolor="#ffffff"
     bordercolor="#666666"
     borderopacity="1"
     objecttolerance="10"
     gridtolerance="10"
     guidetolerance="10"
     inkscape:pageopacity="0"
     inkscape:pageshadow="2"
     inkscape:window-width="1366"
     inkscape:window-height="700"
     id="namedview17"
     showgrid="false"
     inkscape:zoom="5.6568542"
     inkscape:cx="-10.363121"
     inkscape:cy="20.59695"
     inkscape:window-x="0"
     inkscape:window-y="0"
     inkscape:window-maximized="1"
     inkscape:current-layer="svg2"
     inkscape:snap-global="true" />
  <!-- Generator: Sketch 40.3 (33839) - http://www.bohemiancoding.com/sketch -->
  <title
     id="title4">application-pdf</title>
  <desc
     id="desc6">Created with Sketch.</desc>
  <defs
     id="defs8">
    <linearGradient
       inkscape:collect="always"
       id="linearGradient4174">
      <stop
         style="stop-color:#67d971;stop-opacity:1"
         offset="0"
         id="stop4176" />
      <stop
         style="stop-color:#3bd450;stop-opacity:1"
         offset="1"
         id="stop4178" />
    </linearGradient>
    <linearGradient
       gradientTransform="matrix(0.70607647,0,0,0.70607647,-7.1989039,61.782827)"
       id="SVGID_4_-3"
       gradientUnits="userSpaceOnUse"
       x1="102.6431"
       y1="-34.2061"
       x2="218.0972"
       y2="209.7536">
      <stop
         offset="0"
         style="stop-color:#23b6ef;stop-opacity:1"
         id="stop4202-6" />
      <stop
         offset="0.3941"
         style="stop-color:#45d3fe;stop-opacity:1"
         id="stop4204-7" />
      <stop
         offset="0.583"
         style="stop-color:#4dd0ff;stop-opacity:1"
         id="stop4206-5" />
      <stop
         offset="0.7838"
         style="stop-color:#47d2fd;stop-opacity:1"
         id="stop4208-3" />
      <stop
         offset="1"
         style="stop-color:#2bb2ec;stop-opacity:1"
         id="stop4210-5" />
    </linearGradient>
    <linearGradient
       gradientTransform="matrix(0.70607647,0,0,0.70607647,-7.1989039,61.782827)"
       id="SVGID_3_-6"
       gradientUnits="userSpaceOnUse"
       x1="37.1362"
       y1="-2.4779999"
       x2="152.1362"
       y2="240.522">
      <stop
         offset="0"
         style="stop-color:#20bcf4;stop-opacity:1"
         id="stop4187-2" />
      <stop
         offset="0.3941"
         style="stop-color:#49d3fd;stop-opacity:1"
         id="stop4189-9" />
      <stop
         offset="0.583"
         style="stop-color:#49d6ff;stop-opacity:1"
         id="stop4191-1" />
      <stop
         offset="0.7838"
         style="stop-color:#40d4fe;stop-opacity:1"
         id="stop4193-2" />
      <stop
         offset="1"
         style="stop-color:#20b5e8;stop-opacity:1"
         id="stop4195-7" />
    </linearGradient>
    <linearGradient
       id="a-3"
       y1="17"
       x1="40"
       y2="31"
       gradientUnits="userSpaceOnUse"
       x2="54"
       gradientTransform="matrix(0,3.383376,-3.4244669,0,218.19069,65.244715)">
      <stop
         stop-color="#060606"
         id="stop4172" />
      <stop
         offset="1"
         stop-opacity="0"
         id="stop4174" />
    </linearGradient>
    <linearGradient
       inkscape:collect="always"
       xlink:href="#a-3"
       id="linearGradient4283"
       gradientUnits="userSpaceOnUse"
       gradientTransform="matrix(0,0.845844,-0.85611672,0,54.547617,12.311424)"
       x1="40"
       y1="17"
       x2="54"
       y2="31" />
    <radialGradient
       inkscape:collect="always"
       xlink:href="#linearGradient4174"
       id="radialGradient4180"
       cx="95.778931"
       cy="163.8054"
       fx="95.778931"
       fy="163.8054"
       r="84"
       gradientTransform="matrix(1.4537226,0,0,1.7852612,-45.177115,-119.84905)"
       gradientUnits="userSpaceOnUse" />
    <linearGradient
       gradientTransform="matrix(1.8725482,0,0,1.7991054,-15.936501,-1805.0083)"
       id="d"
       gradientUnits="userSpaceOnUse"
       x1="15.23138"
       x2="25.822527"
       xlink:href="#a"
       y1="1032.542"
       y2="1019.6814" />
    <linearGradient
       id="a">
      <stop
         offset="0"
         stop-color="#f6fbff"
         id="stop5" />
      <stop
         offset="1"
         stop-color="#eaeff2"
         id="stop7" />
    </linearGradient>
    <linearGradient
       id="f"
       gradientTransform="matrix(0.47839534,0,0,0.30468853,18.102817,710.28769)"
       gradientUnits="userSpaceOnUse"
       x1="20.734341"
       x2="20.836763"
       xlink:href="#a"
       y1="1032.5204"
       y2="1017.5323" />
    <linearGradient
       id="linearGradient4194"
       gradientTransform="matrix(0.47839534,0,0,0.30468853,18.102817,710.28769)"
       gradientUnits="userSpaceOnUse"
       x1="20.734341"
       x2="20.836763"
       xlink:href="#a"
       y1="1032.5204"
       y2="1017.5323" />
    <linearGradient
       id="linearGradient4202"
       gradientTransform="matrix(0.47839534,0,0,0.30468853,18.102817,710.28769)"
       gradientUnits="userSpaceOnUse"
       x1="20.734341"
       x2="20.836763"
       xlink:href="#a"
       y1="1032.5204"
       y2="1017.5323" />
    <linearGradient
       id="h"
       gradientTransform="matrix(0.3370342,0,0,1.7626934,22.424864,-1775.4338)"
       gradientUnits="userSpaceOnUse"
       x1="20.734341"
       x2="20.836763"
       xlink:href="#a"
       y1="1032.5204"
       y2="1017.5323" />
    <linearGradient
       gradientTransform="matrix(1.6422783,0,0,1.6422783,-3.8135891,-1650.6553)"
       id="g"
       gradientUnits="userSpaceOnUse"
       x1="13.652463"
       x2="13.747652"
       xlink:href="#a"
       y1="1031.9943"
       y2="1018.0646" />
    <linearGradient
       gradientTransform="matrix(1.6422783,0,0,1.6422783,-3.8135891,-1650.6553)"
       id="d-7"
       gradientUnits="userSpaceOnUse"
       x1="20.920025"
       x2="20.86092"
       xlink:href="#a"
       y1="1031.6249"
       y2="1016.8736" />
    <linearGradient
       gradientTransform="matrix(1.6422783,0,0,1.6422783,-3.8135891,-1650.6553)"
       id="e"
       gradientUnits="userSpaceOnUse"
       x1="28.115517"
       x2="28.1957"
       xlink:href="#a"
       y1="1030.6471"
       y2="1018.9134" />
    <linearGradient
       id="d-3"
       gradientTransform="matrix(0.13983169,0,0,0.11422911,-29.214235,-32.604866)"
       gradientUnits="userSpaceOnUse"
       x1="95.896271"
       x2="95.693985"
       xlink:href="#a"
       y1="528.65894"
       y2="602.02802" />
  </defs>
  <style
     type="text/css"
     id="style4358">
	.st0{fill:#261300;}
	.st1{fill:#FF7C00;}
</style>
  <g
     id="g4272"
     transform="matrix(0.25,0,0,0.25,0,-4.8135597)">
    <g
       style="fill:none;fill-rule:evenodd;stroke:none;stroke-width:1"
       transform="matrix(1,0,0,-1,0,276)"
       id="Page-1">
      <g
         id="application-pdf">
        <path
           style="fill:url(#radialGradient4180);fill-opacity:1"
           inkscape:connector-curvature="0"
           id="path14361"
           d="m 206,232.74576 -156,0 c -4,0 -6,-2 -6,-6 L 44,30.745762 c 0,-4 2,-6 6,-6 l 110,0 52,52 0,149.999998 c 0,6 -6,6 -6,6 z" />
        <g
           transform="translate(44,28)"
           id="Group">
          <path
             style="fill:#646464;fill-opacity:0.2"
             inkscape:connector-curvature="0"
             id="Combined-Shape-7"
             d="m 0,198.74576 c 0,4 2,6 6,6 l 156,0 c 0,0 6,0 6,-6 l 0,-2 c 0,6 -6,6 -6,6 l -156,0 c -4,0 -6,-2 -6,-6 l 0,2 z" />
          <path
             style="opacity:0.25;fill:#999999"
             inkscape:connector-curvature="0"
             id="path16-5"
             d="m 0,2.745762 c 0,-4 2,-6 6,-6 l 110,0 0,2 -110,0 c -4,0 -6,2 -6,6 l 0,-2 z" />
        </g>
      </g>
    </g>
  </g>
  <path
     style="opacity:0.1;fill:url(#linearGradient4283);fill-rule:evenodd"
     id="path4198-2"
     d="M 39.993635,46.145183 28.008,57.987 l 11.985635,0 z"
     inkscape:connector-curvature="0" />
  <path
     style="fill:#ffffff;fill-opacity:1;fill-rule:evenodd;stroke:none;stroke-width:1;opacity:0.6"
     inkscape:connector-curvature="0"
     id="path19-9"
     d="M 41.238667,44.962667 C 40.502667,44.962667 40,45.597333 40,46.333333 L 40,58 53,44.962667 l -11.761333,0 z" />
  <g
     id="g4220"
     transform="translate(40.838835,-7.9583695)">
    <path
       style="opacity:0.8;fill:#f3f3f3"
       inkscape:connector-curvature="0"
       id="path28"
       d="m -3.0423758,39.03091 7.982894,0 c 0.122226,0 0.220647,0.152631 0.220647,0.342198 l 0,1.762577 c 0,0.189415 -0.09842,0.342045 -0.220647,0.342045 l -7.982894,0 c -0.122241,0 -0.220642,-0.15263 -0.220642,-0.342045 l 0,-1.762577 c 0,-0.189567 0.0984,-0.342198 0.220642,-0.342198 z" />
    <path
       style="opacity:0.8;fill:#f3f3f3"
       inkscape:connector-curvature="0"
       id="path30"
       d="m -3.0423758,44.414189 7.982894,0 c 0.122226,0 0.220647,0.15263 0.220647,0.34235 l 0,1.762425 c 0,0.189567 -0.09842,0.342197 -0.220647,0.342197 l -7.982894,0 c -0.122241,0 -0.220642,-0.15263 -0.220642,-0.342197 l 0,-1.762425 c 0,-0.18972 0.0984,-0.34235 0.220642,-0.34235 z" />
    <path
       inkscape:connector-curvature="0"
       style="fill:url(#d-3)"
       id="path32"
       d="m -22.384042,27.672147 c -0.227959,0 -0.411052,0.149578 -0.411052,0.336092 l 0,7.808883 c 0,0.186362 0.183093,0.33594 0.411052,0.33594 l 12.002612,0 c 0.227962,0 0.4115262,-0.149578 0.4115262,-0.33594 l 0,-7.808883 c 0,-0.186209 -0.1835642,-0.336092 -0.4115262,-0.336092 z m 5.425226,0.969967 1.305243,4.58e-4 c 0.177445,1.52e-4 0.320492,0.117525 0.320336,0.262066 l -0.007,6.096826 c -1.62e-4,0.143473 -0.142893,0.261151 -0.320339,0.261151 l -1.305717,-4.58e-4 c -0.177438,0 -0.320025,-0.115999 -0.319862,-0.261761 l 0.0066,-6.096521 c 1.61e-4,-0.143473 0.143385,-0.261761 0.320819,-0.261761 z m -2.887559,1.705188 1.305242,4.58e-4 c 0.177443,1.52e-4 0.320031,0.115999 0.319864,0.261761 l -0.0066,4.378359 c -1.74e-4,0.143473 -0.142895,0.261304 -0.320344,0.261304 l -1.305717,-4.58e-4 c -0.177442,-1.53e-4 -0.320028,-0.115999 -0.319863,-0.261762 l 0.0066,-4.378053 c 1.72e-4,-0.144999 0.143353,-0.261609 0.320809,-0.261609 z m 5.828037,1.730983 1.305717,4.57e-4 c 0.177444,1.53e-4 0.319633,0.117526 0.319393,0.261762 l -0.0056,2.659281 c -5.36e-4,0.144999 -0.143871,0.261762 -0.321333,0.261762 l -1.305243,-4.58e-4 c -0.177446,-1.53e-4 -0.320106,-0.117526 -0.319863,-0.261762 l 0.0061,-2.659281 c 4.9e-4,-0.143473 0.143351,-0.261761 0.320814,-0.261761 z" />
    <path
       style="opacity:0.7;fill:#f3f3f3"
       inkscape:connector-curvature="0"
       id="path36"
       d="m -3.0423758,49.79762 7.982894,0 c 0.122226,0 0.220647,0.15263 0.220647,0.34235 l 0,1.762272 c 0,0.18972 -0.09842,0.34235 -0.220647,0.34235 l -7.982894,0 c -0.122241,0 -0.220642,-0.15263 -0.220642,-0.34235 l 0,-1.762272 c 0,-0.18972 0.0984,-0.34235 0.220642,-0.34235 z" />
    <path
       inkscape:connector-curvature="0"
       id="path38"
       d="m -3.0423758,27.774714 7.982894,0 c 0.122226,0 0.220647,0.152631 0.220647,0.342351 l 0,1.762577 c 0,0.189414 -0.09842,0.342045 -0.220647,0.342045 l -7.982894,0 c -0.122241,0 -0.220642,-0.152631 -0.220642,-0.342045 l 0,-1.762577 c 0,-0.18972 0.0984,-0.342351 0.220642,-0.342351 z"
       style="fill:#f3f3f3" />
    <path
       style="opacity:0.9;fill:#f3f3f3"
       inkscape:connector-curvature="0"
       id="path40"
       d="m -3.0423758,33.647632 7.982894,0 c 0.122226,0 0.220647,0.15263 0.220647,0.342197 l 0,1.762425 c 0,0.18972 -0.09842,0.34235 -0.220647,0.34235 l -7.982894,0 c -0.122241,0 -0.220642,-0.15263 -0.220642,-0.34235 l 0,-1.762425 c 0,-0.189567 0.0984,-0.342197 0.220642,-0.342197 z" />
    <path
       style="opacity:0.8;fill:#f3f3f3"
       inkscape:connector-curvature="0"
       id="path42"
       d="m -12.830286,39.03091 7.9828972,0 c 0.122227,0 0.220646,0.152631 0.220646,0.342198 l 0,1.762577 c 0,0.189415 -0.0984,0.342045 -0.220646,0.342045 l -7.9828972,0 c -0.122241,0 -0.220641,-0.15263 -0.220641,-0.342045 l 0,-1.762577 c 0,-0.189567 0.0984,-0.342198 0.220641,-0.342198 z" />
    <path
       style="opacity:0.8;fill:#f3f3f3"
       inkscape:connector-curvature="0"
       id="path44"
       d="m -12.830286,44.414189 7.9828972,0 c 0.122227,0 0.220646,0.15263 0.220646,0.34235 l 0,1.762425 c 0,0.189567 -0.0984,0.342197 -0.220646,0.342197 l -7.9828972,0 c -0.122241,0 -0.220641,-0.15263 -0.220641,-0.342197 l 0,-1.762425 c 0,-0.18972 0.0984,-0.34235 0.220641,-0.34235 z" />
    <path
       style="opacity:0.7;fill:#f3f3f3"
       inkscape:connector-curvature="0"
       id="path46"
       d="m -12.830286,49.79762 7.9828972,0 c 0.122227,0 0.220646,0.15263 0.220646,0.34235 l 0,1.762272 c 0,0.18972 -0.0984,0.34235 -0.220646,0.34235 l -7.9828972,0 c -0.122241,0 -0.220641,-0.15263 -0.220641,-0.34235 l 0,-1.762272 c 0,-0.18972 0.0984,-0.34235 0.220641,-0.34235 z" />
    <path
       style="opacity:0.8;fill:#f3f3f3"
       inkscape:connector-curvature="0"
       id="path48"
       d="m -22.618192,39.03091 7.982893,0 c 0.122227,0 0.220648,0.152631 0.220648,0.342198 l 0,1.762577 c 0,0.189415 -0.09842,0.342045 -0.220648,0.342045 l -7.982893,0 c -0.122227,0 -0.220643,-0.15263 -0.220643,-0.342045 l 0,-1.762577 c 0,-0.189567 0.0984,-0.342198 0.220643,-0.342198 z" />
    <path
       style="opacity:0.8;fill:#f3f3f3"
       inkscape:connector-curvature="0"
       id="path50"
       d="m -22.618192,44.414189 7.982893,0 c 0.122227,0 0.220648,0.15263 0.220648,0.34235 l 0,1.762425 c 0,0.189567 -0.09842,0.342197 -0.220648,0.342197 l -7.982893,0 c -0.122227,0 -0.220643,-0.15263 -0.220643,-0.342197 l 0,-1.762425 c 0,-0.18972 0.0984,-0.34235 0.220643,-0.34235 z" />
    <path
       style="opacity:0.7;fill:#f3f3f3"
       inkscape:connector-curvature="0"
       id="path52"
       d="m -22.618192,49.79762 7.982893,0 c 0.122227,0 0.220648,0.15263 0.220648,0.34235 l 0,1.762272 c 0,0.18972 -0.09842,0.34235 -0.220648,0.34235 l -7.982893,0 c -0.122227,0 -0.220643,-0.15263 -0.220643,-0.34235 l 0,-1.762272 c 0,-0.18972 0.0984,-0.34235 0.220643,-0.34235 z" />
    <path
       style="opacity:0.8;fill:#f3f3f3"
       inkscape:connector-curvature="0"
       id="path54"
       d="m -7.4469368,33.647632 2.599548,0 c 0.122227,0 0.220646,0.15263 0.220646,0.342197 l 0,1.762425 c 0,0.18972 -0.0984,0.34235 -0.220646,0.34235 l -2.599548,0 c -0.122226,0 -0.22064,-0.15263 -0.22064,-0.34235 l 0,-1.762425 c 0,-0.189567 0.0984,-0.342197 0.22064,-0.342197 z" />
    <path
       style="opacity:0.8;fill:#f3f3f3"
       inkscape:connector-curvature="0"
       id="path56"
       d="m -7.4469368,27.774714 2.599548,0 c 0.122227,0 0.220646,0.152631 0.220646,0.342351 l 0,1.762577 c 0,0.189414 -0.0984,0.342045 -0.220646,0.342045 l -2.599548,0 c -0.122226,0 -0.22064,-0.152631 -0.22064,-0.342045 l 0,-1.762577 c 0,-0.18972 0.0984,-0.342351 0.22064,-0.342351 z" />
  </g>
</svg>
