<?xml version="1.0" encoding="UTF-8" standalone="no"?>
<svg
   xmlns:dc="http://purl.org/dc/elements/1.1/"
   xmlns:cc="http://creativecommons.org/ns#"
   xmlns:rdf="http://www.w3.org/1999/02/22-rdf-syntax-ns#"
   xmlns:svg="http://www.w3.org/2000/svg"
   xmlns="http://www.w3.org/2000/svg"
   xmlns:xlink="http://www.w3.org/1999/xlink"
   xmlns:sodipodi="http://sodipodi.sourceforge.net/DTD/sodipodi-0.dtd"
   xmlns:inkscape="http://www.inkscape.org/namespaces/inkscape"
   width="64px"
   height="64px"
   viewBox="0 0 64 64"
   version="1.1"
   id="svg2"
   inkscape:version="0.91 r13725"
   sodipodi:docname="libreoffice-oasis-pretabase.svg">
  <metadata
     id="metadata19">
    <rdf:RDF>
      <cc:Work
         rdf:about="">
        <dc:format>image/svg+xml</dc:format>
        <dc:type
           rdf:resource="http://purl.org/dc/dcmitype/StillImage" />
        <dc:title>application-pdf</dc:title>
      </cc:Work>
    </rdf:RDF>
  </metadata>
  <sodipodi:namedview
     pagecolor="#ffffff"
     bordercolor="#666666"
     borderopacity="1"
     objecttolerance="10"
     gridtolerance="10"
     guidetolerance="10"
     inkscape:pageopacity="0"
     inkscape:pageshadow="2"
     inkscape:window-width="1366"
     inkscape:window-height="700"
     id="namedview17"
     showgrid="false"
     inkscape:zoom="5.6568542"
     inkscape:cx="-7.739855"
     inkscape:cy="20.59695"
     inkscape:window-x="0"
     inkscape:window-y="0"
     inkscape:window-maximized="1"
     inkscape:current-layer="svg2"
     inkscape:snap-global="true" />
  <!-- Generator: Sketch 40.3 (33839) - http://www.bohemiancoding.com/sketch -->
  <title
     id="title4">application-pdf</title>
  <desc
     id="desc6">Created with Sketch.</desc>
  <defs
     id="defs8">
    <linearGradient
       inkscape:collect="always"
       id="linearGradient4174">
      <stop
         style="stop-color:#ff6a44;stop-opacity:1"
         offset="0"
         id="stop4176" />
      <stop
         style="stop-color:#c23b16;stop-opacity:1"
         offset="1"
         id="stop4178" />
    </linearGradient>
    <linearGradient
       gradientTransform="matrix(0.70607647,0,0,0.70607647,-7.1989039,61.782827)"
       id="SVGID_4_-3"
       gradientUnits="userSpaceOnUse"
       x1="102.6431"
       y1="-34.2061"
       x2="218.0972"
       y2="209.7536">
      <stop
         offset="0"
         style="stop-color:#23b6ef;stop-opacity:1"
         id="stop4202-6" />
      <stop
         offset="0.3941"
         style="stop-color:#45d3fe;stop-opacity:1"
         id="stop4204-7" />
      <stop
         offset="0.583"
         style="stop-color:#4dd0ff;stop-opacity:1"
         id="stop4206-5" />
      <stop
         offset="0.7838"
         style="stop-color:#47d2fd;stop-opacity:1"
         id="stop4208-3" />
      <stop
         offset="1"
         style="stop-color:#2bb2ec;stop-opacity:1"
         id="stop4210-5" />
    </linearGradient>
    <linearGradient
       gradientTransform="matrix(0.70607647,0,0,0.70607647,-7.1989039,61.782827)"
       id="SVGID_3_-6"
       gradientUnits="userSpaceOnUse"
       x1="37.1362"
       y1="-2.4779999"
       x2="152.1362"
       y2="240.522">
      <stop
         offset="0"
         style="stop-color:#20bcf4;stop-opacity:1"
         id="stop4187-2" />
      <stop
         offset="0.3941"
         style="stop-color:#49d3fd;stop-opacity:1"
         id="stop4189-9" />
      <stop
         offset="0.583"
         style="stop-color:#49d6ff;stop-opacity:1"
         id="stop4191-1" />
      <stop
         offset="0.7838"
         style="stop-color:#40d4fe;stop-opacity:1"
         id="stop4193-2" />
      <stop
         offset="1"
         style="stop-color:#20b5e8;stop-opacity:1"
         id="stop4195-7" />
    </linearGradient>
    <linearGradient
       id="a-3"
       y1="17"
       x1="40"
       y2="31"
       gradientUnits="userSpaceOnUse"
       x2="54"
       gradientTransform="matrix(0,3.383376,-3.4244669,0,218.19069,65.244715)">
      <stop
         stop-color="#060606"
         id="stop4172" />
      <stop
         offset="1"
         stop-opacity="0"
         id="stop4174" />
    </linearGradient>
    <linearGradient
       inkscape:collect="always"
       xlink:href="#a-3"
       id="linearGradient4283"
       gradientUnits="userSpaceOnUse"
       gradientTransform="matrix(0,0.845844,-0.85611672,0,54.547617,12.311424)"
       x1="40"
       y1="17"
       x2="54"
       y2="31" />
    <radialGradient
       inkscape:collect="always"
       xlink:href="#linearGradient4174"
       id="radialGradient4180"
       cx="95.778931"
       cy="163.8054"
       fx="95.778931"
       fy="163.8054"
       r="84"
       gradientTransform="matrix(1.4537226,0,0,1.7852612,-45.177115,-119.84905)"
       gradientUnits="userSpaceOnUse" />
    <linearGradient
       gradientTransform="matrix(1.8725482,0,0,1.7991054,-15.936501,-1805.0083)"
       id="d"
       gradientUnits="userSpaceOnUse"
       x1="15.23138"
       x2="25.822527"
       xlink:href="#a"
       y1="1032.542"
       y2="1019.6814" />
    <linearGradient
       id="a">
      <stop
         offset="0"
         stop-color="#f6fbff"
         id="stop5" />
      <stop
         offset="1"
         stop-color="#eaeff2"
         id="stop7" />
    </linearGradient>
    <linearGradient
       id="f"
       gradientTransform="matrix(0.47839534,0,0,0.30468853,18.102817,710.28769)"
       gradientUnits="userSpaceOnUse"
       x1="20.734341"
       x2="20.836763"
       xlink:href="#a"
       y1="1032.5204"
       y2="1017.5323" />
    <linearGradient
       id="linearGradient4194"
       gradientTransform="matrix(0.47839534,0,0,0.30468853,18.102817,710.28769)"
       gradientUnits="userSpaceOnUse"
       x1="20.734341"
       x2="20.836763"
       xlink:href="#a"
       y1="1032.5204"
       y2="1017.5323" />
    <linearGradient
       id="linearGradient4202"
       gradientTransform="matrix(0.47839534,0,0,0.30468853,18.102817,710.28769)"
       gradientUnits="userSpaceOnUse"
       x1="20.734341"
       x2="20.836763"
       xlink:href="#a"
       y1="1032.5204"
       y2="1017.5323" />
    <linearGradient
       id="h"
       gradientTransform="matrix(0.3370342,0,0,1.7626934,22.424864,-1775.4338)"
       gradientUnits="userSpaceOnUse"
       x1="20.734341"
       x2="20.836763"
       xlink:href="#a"
       y1="1032.5204"
       y2="1017.5323" />
    <linearGradient
       gradientTransform="matrix(1.6422783,0,0,1.6422783,-3.8135891,-1650.6553)"
       id="g"
       gradientUnits="userSpaceOnUse"
       x1="13.652463"
       x2="13.747652"
       xlink:href="#a"
       y1="1031.9943"
       y2="1018.0646" />
    <linearGradient
       gradientTransform="matrix(1.6422783,0,0,1.6422783,-3.8135891,-1650.6553)"
       id="d-7"
       gradientUnits="userSpaceOnUse"
       x1="20.920025"
       x2="20.86092"
       xlink:href="#a"
       y1="1031.6249"
       y2="1016.8736" />
    <linearGradient
       gradientTransform="matrix(1.6422783,0,0,1.6422783,-3.8135891,-1650.6553)"
       id="e"
       gradientUnits="userSpaceOnUse"
       x1="28.115517"
       x2="28.1957"
       xlink:href="#a"
       y1="1030.6471"
       y2="1018.9134" />
  </defs>
  <style
     type="text/css"
     id="style4358">
	.st0{fill:#261300;}
	.st1{fill:#FF7C00;}
</style>
  <g
     id="g4272"
     transform="matrix(0.25,0,0,0.25,0,-4.8135597)">
    <g
       style="fill:none;fill-rule:evenodd;stroke:none;stroke-width:1"
       transform="matrix(1,0,0,-1,0,276)"
       id="Page-1">
      <g
         id="application-pdf">
        <path
           style="fill:url(#radialGradient4180);fill-opacity:1"
           inkscape:connector-curvature="0"
           id="path14361"
           d="m 206,232.74576 -156,0 c -4,0 -6,-2 -6,-6 L 44,30.745762 c 0,-4 2,-6 6,-6 l 110,0 52,52 0,149.999998 c 0,6 -6,6 -6,6 z" />
        <g
           transform="translate(44,28)"
           id="Group">
          <path
             style="fill:#646464;fill-opacity:0.2"
             inkscape:connector-curvature="0"
             id="Combined-Shape-7"
             d="m 0,198.74576 c 0,4 2,6 6,6 l 156,0 c 0,0 6,0 6,-6 l 0,-2 c 0,6 -6,6 -6,6 l -156,0 c -4,0 -6,-2 -6,-6 l 0,2 z" />
          <path
             style="opacity:0.25;fill:#999999"
             inkscape:connector-curvature="0"
             id="path16-5"
             d="m 0,2.745762 c 0,-4 2,-6 6,-6 l 110,0 0,2 -110,0 c -4,0 -6,2 -6,6 l 0,-2 z" />
        </g>
      </g>
    </g>
  </g>
  <path
     style="opacity:0.1;fill:url(#linearGradient4283);fill-rule:evenodd"
     id="path4198-2"
     d="M 39.993635,46.145183 28.008,57.987 l 11.985635,0 z"
     inkscape:connector-curvature="0" />
  <path
     style="fill:#ffffff;fill-opacity:1;fill-rule:evenodd;stroke:none;stroke-width:1;opacity:0.6"
     inkscape:connector-curvature="0"
     id="path19-9"
     d="M 41.238667,44.962667 C 40.502667,44.962667 40,45.597333 40,46.333333 L 40,58 53,44.962667 l -11.761333,0 z" />
  <g
     id="g4222"
     transform="translate(1.4176315,-0.1801945)">
    <path
       id="path34"
       d="m 18.107757,20.697713 c -0.845573,0 -1.525389,0.681874 -1.525389,1.527483 l 0,15.66208 c 0,0.845609 0.679816,1.525348 1.525389,1.525348 l 10.326173,0 0,2.187515 -2.765624,0 0,2.062537 9.656249,0 0,-2.062537 -2.855468,0 0,-2.187515 10.587891,0 c 0.845573,0 1.525391,-0.679739 1.525391,-1.525348 l 0,-15.66208 c 0,-0.845609 -0.679818,-1.527483 -1.525391,-1.527483 z m 0.361329,1.119213 23.984376,0 c 0.514429,0 0.927735,0.415332 0.927735,0.929693 l 0,14.650437 c 0,0.514361 -0.413306,0.927723 -0.927735,0.927723 l -23.984376,0 c -0.514428,0 -0.927734,-0.413362 -0.927734,-0.927723 l 0,-14.650437 c 0,-0.514361 0.413306,-0.929693 0.927734,-0.929693 z"
       style="fill:url(#d-7)"
       inkscape:connector-curvature="0" />
    <path
       id="path36"
       d="m 37.865907,26.462931 c 1.89725,0 3.435559,1.535202 3.435559,3.432526 l -3.435559,0 c 7.13e-4,0 7.13e-4,-3.432526 0,-3.432526 z m -0.965714,0.933307 0,3.43581 3.435558,0 c 0,1.899295 -1.5376,3.435646 -3.435558,3.435646 -1.897966,0 -3.434138,-1.536351 -3.434138,-3.435646 0,-1.897981 1.536885,-3.43581 3.434138,-3.43581 z"
       style="fill:url(#e)"
       inkscape:connector-curvature="0" />
    <rect
       id="rect40"
       y="25.272245"
       x="19.616796"
       width="9.3479843"
       ry="0.1561199"
       rx="0"
       height="1.1161005"
       style="fill:#ffffff;opacity:0.9" />
    <rect
       id="rect42"
       y="27.20952"
       x="19.626354"
       width="9.3479843"
       ry="0.1561199"
       rx="0"
       height="1.1161005"
       style="fill:#ffffff;opacity:0.9" />
    <rect
       id="rect44"
       y="29.007666"
       x="19.640436"
       width="9.3479843"
       ry="0.1561199"
       rx="0"
       height="1.1161005"
       style="fill:#ffffff;opacity:0.9" />
    <path
       id="path46"
       d="m 25.410067,32.329478 c -0.06385,0.03941 -0.06195,0.215959 -0.06195,0.215959 l 2e-6,3.563251 c 0,0 -0.0089,0.196253 0.06195,0.236653 0.07078,0.03941 0.23502,-0.06733 0.23502,-0.06733 0.543852,-0.334532 2.311207,-1.436336 2.854989,-1.771033 0,0 0.169726,-0.09032 0.172804,-0.17014 0.0036,-0.09854 -0.193543,-0.2222 -0.193543,-0.2222 -0.543803,-0.334532 -2.238599,-1.395115 -2.782402,-1.729647 0,0 -0.203748,-0.106749 -0.286868,-0.05584 z"
       style="fill:url(#g)"
       inkscape:connector-curvature="0" />
    <rect
       id="rect48"
       y="32.313076"
       x="19.732635"
       width="4.0101285"
       ry="0.5499596"
       rx="0"
       height="3.9316735"
       style="fill:url(#h)" />
  </g>
</svg>
