<?xml version="1.0" encoding="UTF-8" standalone="no"?>
<svg
   xmlns:dc="http://purl.org/dc/elements/1.1/"
   xmlns:cc="http://creativecommons.org/ns#"
   xmlns:rdf="http://www.w3.org/1999/02/22-rdf-syntax-ns#"
   xmlns:svg="http://www.w3.org/2000/svg"
   xmlns="http://www.w3.org/2000/svg"
   xmlns:xlink="http://www.w3.org/1999/xlink"
   xmlns:sodipodi="http://sodipodi.sourceforge.net/DTD/sodipodi-0.dtd"
   xmlns:inkscape="http://www.inkscape.org/namespaces/inkscape"
   width="64px"
   height="64px"
   viewBox="0 0 64 64"
   version="1.1"
   id="svg2"
   inkscape:version="0.91 r13725"
   sodipodi:docname="application-pen.svg">
  <metadata
     id="metadata19">
    <rdf:RDF>
      <cc:Work
         rdf:about="">
        <dc:format>image/svg+xml</dc:format>
        <dc:type
           rdf:resource="http://purl.org/dc/dcmitype/StillImage" />
        <dc:title>application-pdf</dc:title>
      </cc:Work>
    </rdf:RDF>
  </metadata>
  <sodipodi:namedview
     pagecolor="#ffffff"
     bordercolor="#666666"
     borderopacity="1"
     objecttolerance="10"
     gridtolerance="10"
     guidetolerance="10"
     inkscape:pageopacity="0"
     inkscape:pageshadow="2"
     inkscape:window-width="1366"
     inkscape:window-height="700"
     id="namedview17"
     showgrid="false"
     inkscape:zoom="7.9999999"
     inkscape:cx="9.6911287"
     inkscape:cy="31.591461"
     inkscape:window-x="0"
     inkscape:window-y="0"
     inkscape:window-maximized="1"
     inkscape:current-layer="svg2"
     inkscape:snap-global="true" />
  <!-- Generator: Sketch 40.3 (33839) - http://www.bohemiancoding.com/sketch -->
  <title
     id="title4">application-pdf</title>
  <desc
     id="desc6">Created with Sketch.</desc>
  <defs
     id="defs8">
    <linearGradient
       inkscape:collect="always"
       id="linearGradient4174">
      <stop
         style="stop-color:#768492;stop-opacity:1"
         offset="0"
         id="stop4176" />
      <stop
         style="stop-color:#5e6b78;stop-opacity:1"
         offset="1"
         id="stop4178" />
    </linearGradient>
    <linearGradient
       gradientTransform="matrix(0.70607647,0,0,0.70607647,-7.1989039,61.782827)"
       id="SVGID_4_-3"
       gradientUnits="userSpaceOnUse"
       x1="102.6431"
       y1="-34.2061"
       x2="218.0972"
       y2="209.7536">
      <stop
         offset="0"
         style="stop-color:#23b6ef;stop-opacity:1"
         id="stop4202-6" />
      <stop
         offset="0.3941"
         style="stop-color:#45d3fe;stop-opacity:1"
         id="stop4204-7" />
      <stop
         offset="0.583"
         style="stop-color:#4dd0ff;stop-opacity:1"
         id="stop4206-5" />
      <stop
         offset="0.7838"
         style="stop-color:#47d2fd;stop-opacity:1"
         id="stop4208-3" />
      <stop
         offset="1"
         style="stop-color:#2bb2ec;stop-opacity:1"
         id="stop4210-5" />
    </linearGradient>
    <linearGradient
       gradientTransform="matrix(0.70607647,0,0,0.70607647,-7.1989039,61.782827)"
       id="SVGID_3_-6"
       gradientUnits="userSpaceOnUse"
       x1="37.1362"
       y1="-2.4779999"
       x2="152.1362"
       y2="240.522">
      <stop
         offset="0"
         style="stop-color:#20bcf4;stop-opacity:1"
         id="stop4187-2" />
      <stop
         offset="0.3941"
         style="stop-color:#49d3fd;stop-opacity:1"
         id="stop4189-9" />
      <stop
         offset="0.583"
         style="stop-color:#49d6ff;stop-opacity:1"
         id="stop4191-1" />
      <stop
         offset="0.7838"
         style="stop-color:#40d4fe;stop-opacity:1"
         id="stop4193-2" />
      <stop
         offset="1"
         style="stop-color:#20b5e8;stop-opacity:1"
         id="stop4195-7" />
    </linearGradient>
    <linearGradient
       id="a-3"
       y1="17"
       x1="40"
       y2="31"
       gradientUnits="userSpaceOnUse"
       x2="54"
       gradientTransform="matrix(0,3.383376,-3.4244669,0,218.19069,65.244715)">
      <stop
         stop-color="#060606"
         id="stop4172" />
      <stop
         offset="1"
         stop-opacity="0"
         id="stop4174" />
    </linearGradient>
    <linearGradient
       inkscape:collect="always"
       xlink:href="#a-3"
       id="linearGradient4283"
       gradientUnits="userSpaceOnUse"
       gradientTransform="matrix(0,0.845844,-0.85611672,0,54.547617,12.311424)"
       x1="40"
       y1="17"
       x2="54"
       y2="31" />
    <radialGradient
       inkscape:collect="always"
       xlink:href="#linearGradient4174"
       id="radialGradient4180"
       cx="95.778931"
       cy="163.8054"
       fx="95.778931"
       fy="163.8054"
       r="84"
       gradientTransform="matrix(1.4537226,0,0,1.7852612,-45.177115,-119.84905)"
       gradientUnits="userSpaceOnUse" />
    <linearGradient
       gradientTransform="matrix(1.8725482,0,0,1.7991054,-15.936501,-1805.0083)"
       id="d"
       gradientUnits="userSpaceOnUse"
       x1="15.23138"
       x2="25.822527"
       xlink:href="#a"
       y1="1032.542"
       y2="1019.6814" />
    <linearGradient
       id="a">
      <stop
         offset="0"
         stop-color="#f6fbff"
         id="stop5" />
      <stop
         offset="1"
         stop-color="#eaeff2"
         id="stop7" />
    </linearGradient>
  </defs>
  <style
     type="text/css"
     id="style4358">
	.st0{fill:#261300;}
	.st1{fill:#FF7C00;}
</style>
  <g
     id="g4272"
     transform="matrix(0.25,0,0,0.25,0,-4.8135597)">
    <g
       style="fill:none;fill-rule:evenodd;stroke:none;stroke-width:1"
       transform="matrix(1,0,0,-1,0,276)"
       id="Page-1">
      <g
         id="application-pdf">
        <path
           style="fill:url(#radialGradient4180);fill-opacity:1"
           inkscape:connector-curvature="0"
           id="path14361"
           d="m 206,232.74576 -156,0 c -4,0 -6,-2 -6,-6 L 44,30.745762 c 0,-4 2,-6 6,-6 l 110,0 52,52 0,149.999998 c 0,6 -6,6 -6,6 z" />
        <g
           transform="translate(44,28)"
           id="Group">
          <path
             style="fill:#646464;fill-opacity:0.2"
             inkscape:connector-curvature="0"
             id="Combined-Shape-7"
             d="m 0,198.74576 c 0,4 2,6 6,6 l 156,0 c 0,0 6,0 6,-6 l 0,-2 c 0,6 -6,6 -6,6 l -156,0 c -4,0 -6,-2 -6,-6 l 0,2 z" />
          <path
             style="opacity:0.25;fill:#999999"
             inkscape:connector-curvature="0"
             id="path16-5"
             d="m 0,2.745762 c 0,-4 2,-6 6,-6 l 110,0 0,2 -110,0 c -4,0 -6,2 -6,6 l 0,-2 z" />
        </g>
      </g>
    </g>
  </g>
  <path
     style="opacity:0.1;fill:url(#linearGradient4283);fill-rule:evenodd"
     id="path4198-2"
     d="M 39.993635,46.145183 28.008,57.987 l 11.985635,0 z"
     inkscape:connector-curvature="0" />
  <path
     style="fill:#ffffff;fill-opacity:1;fill-rule:evenodd;stroke:none;stroke-width:1;opacity:0.6"
     inkscape:connector-curvature="0"
     id="path19-9"
     d="M 41.238667,44.962667 C 40.502667,44.962667 40,45.597333 40,46.333333 L 40,58 53,44.962667 l -11.761333,0 z" />
  <g
     style="opacity:0.75;fill:#fbfbfb"
     transform="matrix(0.00253,-3.6e-4,-3.6e-4,-0.00253,13.031048,34.221195)"
     id="g35">
    <path
       inkscape:connector-curvature="0"
       d="m 9471.8,4996 c -30.7,-15.4 -172.7,-143.9 -314.6,-285.9 l -259,-260.9 -71,65.2 c -99.8,88.3 -203.4,119 -308.9,88.3 C 8445.4,4581.6 8255.4,4397.4 7002.6,3146.5 6212.1,2358 5567.5,1705.6 5567.5,1694.1 c 0,-9.6 239.8,-259 531.4,-550.6 l 533.4,-533.4 934.4,934.4 c 514.2,514.2 940.1,928.6 947.8,920.9 25,-24.9 11.5,-483.5 -19.2,-627.4 C 8480,1759.3 8430.1,1621.2 8386,1531 8307.3,1369.8 8299.7,1360.2 7140.8,197.6 6499.9,-445.1 5964.6,-991.9 5953.1,-1014.9 c -32.6,-63.3 -24.9,-191.9 15.4,-270.5 67.1,-132.4 270.5,-199.5 401,-130.5 90.2,48 2388.6,2369.4 2469.2,2496.1 234.1,360.7 341.5,849.9 297.4,1352.6 -17.3,199.5 -49.9,393.3 -88.2,533.4 -11.5,38.4 23,80.6 237.9,297.4 203.4,207.2 251.3,266.7 262.9,326.2 24.9,126.6 -3.8,203.4 -115.1,318.5 l -103.6,107.4 276.3,278.2 c 226.4,230.2 276.3,291.6 287.8,351.1 47.7,253.1 -194,454.6 -422.3,351"
       id="path37" />
    <path
       inkscape:connector-curvature="0"
       d="M 3253.7,-602.4 C 1605.6,-2252.4 1369.7,-2498 1208.5,-2714.8 888.1,-3146.5 510.1,-3819.9 233.9,-4445.4 c -178.4,-401 -178.4,-362.6 0,-297.4 550.6,203.4 1281.6,556.4 1717.1,830.7 425.9,268.6 502.7,341.5 2417.4,2256.2 L 6210.2,188 5673,725.2 c -295.5,295.5 -541,537.2 -546.8,537.2 -5.8,0 -848,-840.3 -1872.5,-1864.8"
       id="path39" />
  </g>
  <path
     inkscape:connector-curvature="0"
     style="opacity:0.75;fill:#fbfbfb"
     d="m 25.466049,41.545195 c -0.621001,0.131 -1.313001,0.669 -1.647001,1.289 -0.09,0.161 -0.233,0.525 -0.322,0.8 -0.084,0.28 -0.161,0.513 -0.167,0.519 -0.048,0.06 -1.236,0.346 -1.934,0.466 -1.641,0.287 -2.089,0.394 -2.25,0.543 -0.316,0.292 -0.072,0.585 0.376,0.454 0.119,-0.036 0.627,-0.137 1.116,-0.221 0.49,-0.084 1.236,-0.239 1.659,-0.334 0.424,-0.101 0.782,-0.167 0.8,-0.149 0.018,0.018 -0.054,0.358 -0.167,0.758 l -0.203,0.716 -0.448,0.197 c -0.245,0.107 -0.597,0.292 -0.782,0.418 -0.561,0.37 -0.669,0.836 -0.275,1.134 0.215,0.161 0.812,0.155 1.182,-0.006 0.328,-0.149 0.513,-0.358 0.77,-0.901 0.137,-0.281 0.245,-0.43 0.328,-0.448 0.066,-0.018 0.657,-0.137 1.313,-0.275 0.657001,-0.131 1.254001,-0.257 1.331001,-0.275 0.125,-0.03 0.137,-0.018 0.101,0.096 -0.024,0.072 -0.131,0.281 -0.245,0.466 -0.113,0.185 -0.203,0.406 -0.203,0.495 0,0.185 0.155,0.37 0.28,0.322 0.048,-0.018 0.113,-0.036 0.143,-0.036 0.03,0 0.161,-0.096 0.292,-0.215 0.245,-0.221 0.836,-1.301 0.836,-1.528 0,-0.113 0.09,-0.143 0.143,-0.054 0.018,0.03 0.155,0.084 0.304,0.119 0.209,0.054 0.269,0.096 0.269,0.191 0,0.185 0.304,0.454 0.573,0.507 0.209,0.036 0.478,-0.006 0.764,-0.125 0.101,-0.042 0.107,-0.03 0.072,0.125 -0.024,0.096 -0.197,0.4 -0.382,0.681 -0.394,0.585 -0.872,1.516 -0.997,1.928 -0.101,0.352 -0.06,0.615 0.125,0.74 0.167,0.107 0.442,0.06 0.585,-0.096 0.125,-0.137 0.806,-1.576 1.056,-2.232 0.179,-0.46 0.263,-0.585 0.669,-1.015 0.334,-0.352 0.442,-0.436 0.37,-0.299 -0.119,0.257 -0.113,0.454 0.018,0.573 0.28,0.257 0.686,0.006 1.039,-0.639 0.209,-0.382 0.364,-0.495 1.14,-0.86 l 0.406,-0.185 -0.042,0.221 c -0.024,0.119 -0.161,0.46 -0.304,0.752 -0.281,0.591 -0.334,0.967 -0.167,1.289 0.113,0.221 0.233,0.227 0.782,0.036 0.764,-0.257 1.761,-0.848 2.02,-1.188 0.352,-0.478 0.459,-0.937 0.245,-1.092 -0.221,-0.161 -0.346,-0.096 -0.627,0.316 -0.376,0.561 -0.841,0.997 -1.289,1.218 -0.209,0.107 -0.394,0.179 -0.412,0.161 -0.024,-0.024 0.454,-1.307 0.71,-1.91 0.054,-0.125 0.096,-0.281 0.096,-0.346 0,-0.167 -0.209,-0.358 -0.388,-0.358 -0.084,0 -0.478,0.161 -0.872,0.364 -0.818,0.406 -0.764,0.442 -0.555,-0.322 0.125,-0.471 0.084,-0.597 -0.203,-0.627 -0.275,-0.03 -0.382,0.06 -0.633,0.507 -0.161,0.304 -0.376,0.555 -0.788,0.937 -0.543,0.501 -0.567,0.519 -0.693,0.43 -0.191,-0.137 -0.299,-0.119 -0.764,0.113 -0.454,0.227 -0.603,0.257 -0.716,0.119 -0.096,-0.113 0.054,-0.173 0.884,-0.334 0.806,-0.155 0.907,-0.197 0.907,-0.364 0,-0.269 -0.221,-0.525 -0.615,-0.698 -0.681,-0.304 -0.758,-0.322 -1.056,-0.245 -0.322,0.084 -0.8,0.543 -0.865,0.83 -0.066,0.299 -0.269,0.209 -0.269,-0.119 0,-0.137 -0.167,-0.483 -0.263,-0.543 -0.203,-0.137 -0.531,0.161 -0.782,0.71 l -0.197,0.424 -0.442,0.096 c -0.573,0.125 -2.238001,0.459 -2.459001,0.502 -0.143,0.024 -0.167,0.012 -0.137,-0.072 0.024,-0.06 0.096,-0.322 0.167,-0.591 0.185,-0.74 0.239,-0.836 0.507,-0.931 0.322,-0.113 1.409001,-0.579 1.689001,-0.722 0.131,-0.066 0.4,-0.269 0.597,-0.448 0.603,-0.561 0.698,-1.08 0.268,-1.462 -0.119,-0.101 -0.275,-0.209 -0.346,-0.239 -0.22,-0.084 -0.764,-0.113 -1.026,-0.06 m 0.764,0.824 c 0.119,0.119 0.119,0.125 0.012,0.352 -0.072,0.143 -0.239,0.31 -0.448,0.454 -0.364,0.251 -1.504001,0.71 -1.540001,0.627 -0.048,-0.137 0.316,-0.955 0.549,-1.218 0.310001,-0.352 0.400001,-0.388 0.895001,-0.358 0.316,0.018 0.442,0.048 0.531,0.143 m -3.892001,4.966 c -0.078,0.149 -0.281,0.257 -0.394,0.215 -0.131,-0.054 -0.096,-0.125 0.113,-0.233 0.275,-0.137 0.358,-0.131 0.281,0.018"
     id="path41" />
</svg>
