<?xml version="1.0" encoding="UTF-8" standalone="no"?>
<svg
   xmlns:dc="http://purl.org/dc/elements/1.1/"
   xmlns:cc="http://creativecommons.org/ns#"
   xmlns:rdf="http://www.w3.org/1999/02/22-rdf-syntax-ns#"
   xmlns:svg="http://www.w3.org/2000/svg"
   xmlns="http://www.w3.org/2000/svg"
   xmlns:xlink="http://www.w3.org/1999/xlink"
   xmlns:sodipodi="http://sodipodi.sourceforge.net/DTD/sodipodi-0.dtd"
   xmlns:inkscape="http://www.inkscape.org/namespaces/inkscape"
   width="64px"
   height="64px"
   viewBox="0 0 64 64"
   version="1.1"
   id="svg2"
   inkscape:version="0.91 r13725"
   sodipodi:docname="application-octet-stream.svg">
  <metadata
     id="metadata19">
    <rdf:RDF>
      <cc:Work
         rdf:about="">
        <dc:format>image/svg+xml</dc:format>
        <dc:type
           rdf:resource="http://purl.org/dc/dcmitype/StillImage" />
        <dc:title>application-pdf</dc:title>
      </cc:Work>
    </rdf:RDF>
  </metadata>
  <sodipodi:namedview
     pagecolor="#ffffff"
     bordercolor="#666666"
     borderopacity="1"
     objecttolerance="10"
     gridtolerance="10"
     guidetolerance="10"
     inkscape:pageopacity="0"
     inkscape:pageshadow="2"
     inkscape:window-width="1366"
     inkscape:window-height="703"
     id="namedview17"
     showgrid="false"
     inkscape:zoom="3.6875"
     inkscape:cx="-60.320659"
     inkscape:cy="35.658481"
     inkscape:window-x="0"
     inkscape:window-y="0"
     inkscape:window-maximized="1"
     inkscape:current-layer="svg2" />
  <!-- Generator: Sketch 40.3 (33839) - http://www.bohemiancoding.com/sketch -->
  <title
     id="title4">application-pdf</title>
  <desc
     id="desc6">Created with Sketch.</desc>
  <defs
     id="defs8">
    <linearGradient
       gradientTransform="matrix(0.70607647,0,0,0.70607647,-7.1989039,61.782827)"
       id="SVGID_4_-3"
       gradientUnits="userSpaceOnUse"
       x1="102.6431"
       y1="-34.2061"
       x2="218.0972"
       y2="209.7536">
      <stop
         offset="0"
         style="stop-color:#23b6ef;stop-opacity:1"
         id="stop4202-6" />
      <stop
         offset="0.3941"
         style="stop-color:#45d3fe;stop-opacity:1"
         id="stop4204-7" />
      <stop
         offset="0.583"
         style="stop-color:#4dd0ff;stop-opacity:1"
         id="stop4206-5" />
      <stop
         offset="0.7838"
         style="stop-color:#47d2fd;stop-opacity:1"
         id="stop4208-3" />
      <stop
         offset="1"
         style="stop-color:#2bb2ec;stop-opacity:1"
         id="stop4210-5" />
    </linearGradient>
    <linearGradient
       gradientTransform="matrix(0.70607647,0,0,0.70607647,-7.1989039,61.782827)"
       id="SVGID_3_-6"
       gradientUnits="userSpaceOnUse"
       x1="37.1362"
       y1="-2.4779999"
       x2="152.1362"
       y2="240.522">
      <stop
         offset="0"
         style="stop-color:#20bcf4;stop-opacity:1"
         id="stop4187-2" />
      <stop
         offset="0.3941"
         style="stop-color:#49d3fd;stop-opacity:1"
         id="stop4189-9" />
      <stop
         offset="0.583"
         style="stop-color:#49d6ff;stop-opacity:1"
         id="stop4191-1" />
      <stop
         offset="0.7838"
         style="stop-color:#40d4fe;stop-opacity:1"
         id="stop4193-2" />
      <stop
         offset="1"
         style="stop-color:#20b5e8;stop-opacity:1"
         id="stop4195-7" />
    </linearGradient>
    <linearGradient
       id="a-3"
       y1="17"
       x1="40"
       y2="31"
       gradientUnits="userSpaceOnUse"
       x2="54"
       gradientTransform="matrix(0,3.383376,-3.4244669,0,218.19069,65.244715)">
      <stop
         stop-color="#060606"
         id="stop4172" />
      <stop
         offset="1"
         stop-opacity="0"
         id="stop4174" />
    </linearGradient>
    <linearGradient
       id="linearGradient4318-0"
       inkscape:collect="always">
      <stop
         id="stop4320-9"
         offset="0"
         style="stop-color:#922db9;stop-opacity:1" />
      <stop
         id="stop4322-3"
         offset="1"
         style="stop-color:#7700b4;stop-opacity:1" />
    </linearGradient>
    <radialGradient
       gradientUnits="userSpaceOnUse"
       gradientTransform="matrix(1.7619488,0.00342666,-0.00383932,1.9741394,-78.187419,-154.47679)"
       r="84"
       fy="166.69341"
       fx="103.455"
       cy="166.69341"
       cx="103.455"
       id="radialGradient4324-0"
       xlink:href="#linearGradient4318-0"
       inkscape:collect="always" />
    <linearGradient
       inkscape:collect="always"
       xlink:href="#a-3"
       id="linearGradient4283"
       gradientUnits="userSpaceOnUse"
       gradientTransform="matrix(0,3.383376,-3.4244669,0,218.19069,65.244715)"
       x1="40"
       y1="17"
       x2="54"
       y2="31" />
  </defs>
  <style
     type="text/css"
     id="style4358">
	.st0{fill:#261300;}
	.st1{fill:#FF7C00;}
</style>
  <g
     id="g4272"
     transform="matrix(0.25,0,0,0.25,0,-4)">
    <g
       style="fill:none;fill-rule:evenodd;stroke:none;stroke-width:1"
       transform="matrix(1,0,0,-1,0,276)"
       id="Page-1">
      <g
         id="application-pdf">
        <path
           style="fill:url(#radialGradient4324-0);fill-opacity:1"
           inkscape:connector-curvature="0"
           id="path14361"
           d="m 206,236 -156,0 c -4,0 -6,-2 -6,-6 L 44,34 c 0,-4 2,-6 6,-6 l 110,0 52,52 0,150 c 0,6 -6,6 -6,6 z" />
        <g
           transform="translate(44,28)"
           id="Group">
          <path
             style="fill:#808080;fill-opacity:0.2"
             inkscape:connector-curvature="0"
             id="Combined-Shape-7"
             d="m 0,202 c 0,4 2,6 6,6 l 156,0 c 0,0 6,0 6,-6 l 0,-2 c 0,6 -6,6 -6,6 L 6,206 c -4,0 -6,-2 -6,-6 l 0,2 z" />
          <path
             style="opacity:0.25;fill:#999999"
             inkscape:connector-curvature="0"
             id="path16-5"
             d="M 0,6 C 0,2 2,0 6,0 L 116,0 116,2 6,2 C 2,2 0,4 0,8 L 0,6 Z" />
        </g>
        <path
           style="fill:#d1ccec;fill-opacity:1;opacity:0.8"
           inkscape:connector-curvature="0"
           id="path19-9"
           d="m 164.95467,80.149333 c -2.944,0 -4.95467,-2.538666 -4.95467,-5.482666 L 160,28 l 52,52.149333 -47.04533,0 z" />
      </g>
    </g>
    <path
       style="opacity:0.1;fill:url(#linearGradient4283);fill-rule:evenodd"
       id="path4198-2"
       d="m 159.97476,200.57975 -47.94254,47.36727 47.94254,0 z"
       inkscape:connector-curvature="0" />
  </g>
  <path
     inkscape:connector-curvature="0"
     style="fill:#ffffff;enable-background:new"
     d="m 25.841483,49.996 -2.714193,0 0,-2.714286 2.714193,0 z m 2.80919,-10.517858 -1.221387,1.248572 c -0.977109,0.990714 -1.587803,1.805 -1.587803,3.840715 l -2.714193,0 0,-0.678572 c 0,-1.492858 0.610693,-2.849999 1.587802,-3.840715 l 1.682801,-1.709999 c 0.502125,-0.488572 0.800687,-1.167144 0.800687,-1.913572 0,-1.492857 -1.221386,-2.714286 -2.714194,-2.714286 -1.492806,0 -2.714193,1.221429 -2.714193,2.714286 l -2.714193,0 c 0,-2.999285 2.429204,-5.428571 5.428386,-5.428571 2.999184,0 5.428387,2.429286 5.428387,5.428571 0,1.194286 -0.488556,2.28 -1.2621,3.053571 z"
     id="path12" />
</svg>
