<?xml version="1.0" encoding="UTF-8" standalone="no"?>
<svg
   xmlns:dc="http://purl.org/dc/elements/1.1/"
   xmlns:cc="http://creativecommons.org/ns#"
   xmlns:rdf="http://www.w3.org/1999/02/22-rdf-syntax-ns#"
   xmlns:svg="http://www.w3.org/2000/svg"
   xmlns="http://www.w3.org/2000/svg"
   xmlns:xlink="http://www.w3.org/1999/xlink"
   xmlns:sodipodi="http://sodipodi.sourceforge.net/DTD/sodipodi-0.dtd"
   xmlns:inkscape="http://www.inkscape.org/namespaces/inkscape"
   width="64px"
   height="64px"
   viewBox="0 0 64 64"
   version="1.1"
   id="svg2"
   inkscape:version="0.91 r13725"
   sodipodi:docname="application-dicom.svg">
  <metadata
     id="metadata19">
    <rdf:RDF>
      <cc:Work
         rdf:about="">
        <dc:format>image/svg+xml</dc:format>
        <dc:type
           rdf:resource="http://purl.org/dc/dcmitype/StillImage" />
        <dc:title>application-pdf</dc:title>
      </cc:Work>
    </rdf:RDF>
  </metadata>
  <sodipodi:namedview
     pagecolor="#ffffff"
     bordercolor="#666666"
     borderopacity="1"
     objecttolerance="10"
     gridtolerance="10"
     guidetolerance="10"
     inkscape:pageopacity="0"
     inkscape:pageshadow="2"
     inkscape:window-width="1366"
     inkscape:window-height="700"
     id="namedview17"
     showgrid="false"
     inkscape:zoom="7.9999999"
     inkscape:cx="-4.1589593"
     inkscape:cy="28.982379"
     inkscape:window-x="0"
     inkscape:window-y="0"
     inkscape:window-maximized="1"
     inkscape:current-layer="svg2"
     inkscape:snap-global="true" />
  <!-- Generator: Sketch 40.3 (33839) - http://www.bohemiancoding.com/sketch -->
  <title
     id="title4">application-pdf</title>
  <desc
     id="desc6">Created with Sketch.</desc>
  <defs
     id="defs8">
    <linearGradient
       inkscape:collect="always"
       id="linearGradient4174">
      <stop
         style="stop-color:#06d2b9;stop-opacity:1"
         offset="0"
         id="stop4176" />
      <stop
         style="stop-color:#00b7a1;stop-opacity:1"
         offset="1"
         id="stop4178" />
    </linearGradient>
    <linearGradient
       gradientTransform="matrix(0.70607647,0,0,0.70607647,-7.1989039,61.782827)"
       id="SVGID_4_-3"
       gradientUnits="userSpaceOnUse"
       x1="102.6431"
       y1="-34.2061"
       x2="218.0972"
       y2="209.7536">
      <stop
         offset="0"
         style="stop-color:#23b6ef;stop-opacity:1"
         id="stop4202-6" />
      <stop
         offset="0.3941"
         style="stop-color:#45d3fe;stop-opacity:1"
         id="stop4204-7" />
      <stop
         offset="0.583"
         style="stop-color:#4dd0ff;stop-opacity:1"
         id="stop4206-5" />
      <stop
         offset="0.7838"
         style="stop-color:#47d2fd;stop-opacity:1"
         id="stop4208-3" />
      <stop
         offset="1"
         style="stop-color:#2bb2ec;stop-opacity:1"
         id="stop4210-5" />
    </linearGradient>
    <linearGradient
       gradientTransform="matrix(0.70607647,0,0,0.70607647,-7.1989039,61.782827)"
       id="SVGID_3_-6"
       gradientUnits="userSpaceOnUse"
       x1="37.1362"
       y1="-2.4779999"
       x2="152.1362"
       y2="240.522">
      <stop
         offset="0"
         style="stop-color:#20bcf4;stop-opacity:1"
         id="stop4187-2" />
      <stop
         offset="0.3941"
         style="stop-color:#49d3fd;stop-opacity:1"
         id="stop4189-9" />
      <stop
         offset="0.583"
         style="stop-color:#49d6ff;stop-opacity:1"
         id="stop4191-1" />
      <stop
         offset="0.7838"
         style="stop-color:#40d4fe;stop-opacity:1"
         id="stop4193-2" />
      <stop
         offset="1"
         style="stop-color:#20b5e8;stop-opacity:1"
         id="stop4195-7" />
    </linearGradient>
    <linearGradient
       id="a-3"
       y1="17"
       x1="40"
       y2="31"
       gradientUnits="userSpaceOnUse"
       x2="54"
       gradientTransform="matrix(0,3.383376,-3.4244669,0,218.19069,65.244715)">
      <stop
         stop-color="#060606"
         id="stop4172" />
      <stop
         offset="1"
         stop-opacity="0"
         id="stop4174" />
    </linearGradient>
    <linearGradient
       inkscape:collect="always"
       xlink:href="#a-3"
       id="linearGradient4283"
       gradientUnits="userSpaceOnUse"
       gradientTransform="matrix(0,0.845844,-0.85611672,0,54.547617,12.311424)"
       x1="40"
       y1="17"
       x2="54"
       y2="31" />
    <radialGradient
       inkscape:collect="always"
       xlink:href="#linearGradient4174"
       id="radialGradient4180"
       cx="95.778931"
       cy="163.8054"
       fx="95.778931"
       fy="163.8054"
       r="84"
       gradientTransform="matrix(1.4239607,0,0,1.7852612,-42.326552,-119.84905)"
       gradientUnits="userSpaceOnUse" />
    <linearGradient
       gradientTransform="matrix(1.8725482,0,0,1.7991054,-15.936501,-1805.0083)"
       id="d"
       gradientUnits="userSpaceOnUse"
       x1="15.23138"
       x2="25.822527"
       xlink:href="#a"
       y1="1032.542"
       y2="1019.6814" />
    <linearGradient
       id="a">
      <stop
         offset="0"
         stop-color="#f6fbff"
         id="stop5" />
      <stop
         offset="1"
         stop-color="#eaeff2"
         id="stop7" />
    </linearGradient>
  </defs>
  <style
     type="text/css"
     id="style4358">
	.st0{fill:#261300;}
	.st1{fill:#FF7C00;}
</style>
  <g
     id="g4272"
     transform="matrix(0.25,0,0,0.25,0,-4.8135597)">
    <g
       style="fill:none;fill-rule:evenodd;stroke:none;stroke-width:1"
       transform="matrix(1,0,0,-1,0,276)"
       id="Page-1">
      <g
         id="application-pdf">
        <path
           style="fill:url(#radialGradient4180);fill-opacity:1"
           inkscape:connector-curvature="0"
           id="path14361"
           d="m 206,232.74576 -156,0 c -4,0 -6,-2 -6,-6 L 44,30.745762 c 0,-4 2,-6 6,-6 l 110,0 52,52 0,149.999998 c 0,6 -6,6 -6,6 z" />
        <g
           transform="translate(44,28)"
           id="Group">
          <path
             style="fill:#646464;fill-opacity:0.2"
             inkscape:connector-curvature="0"
             id="Combined-Shape-7"
             d="m 0,198.74576 c 0,4 2,6 6,6 l 156,0 c 0,0 6,0 6,-6 l 0,-2 c 0,6 -6,6 -6,6 l -156,0 c -4,0 -6,-2 -6,-6 l 0,2 z" />
          <path
             style="opacity:0.25;fill:#999999"
             inkscape:connector-curvature="0"
             id="path16-5"
             d="m 0,2.745762 c 0,-4 2,-6 6,-6 l 110,0 0,2 -110,0 c -4,0 -6,2 -6,6 l 0,-2 z" />
        </g>
      </g>
    </g>
  </g>
  <path
     style="opacity:0.1;fill:url(#linearGradient4283);fill-rule:evenodd"
     id="path4198-2"
     d="M 39.993635,46.145183 28.008,57.987 l 11.985635,0 z"
     inkscape:connector-curvature="0" />
  <path
     style="fill:#ffffff;fill-opacity:1;fill-rule:evenodd;stroke:none;stroke-width:1;opacity:0.6"
     inkscape:connector-curvature="0"
     id="path19-9"
     d="M 41.238667,44.962667 C 40.502667,44.962667 40,45.597333 40,46.333333 L 40,58 53,44.962667 l -11.761333,0 z" />
  <path
     inkscape:connector-curvature="0"
     style="opacity:0.99999999;fill:#ffffff"
     d="m 24.304,26.001 c -1.254,0 -2.889,0.693 -4.384,1.857 -0.897,0.377 -1.527,1.249 -1.527,2.263 0,0.318 0.061,0.628 0.179,0.917 -1.55,0.294 -2.724,1.629 -2.724,3.23 0,0.333 0.051,0.661 0.152,0.978 -0.639,0.617 -1,1.454 -1,2.339 0,0.692 0.22,1.334 0.595,1.865 C 15.206,40 15,40.643 15,41.318 c 0,1.197 0.667,2.293 1.724,2.871 -0.018,0.148 -0.027,0.297 -0.027,0.446 0,1.614 1.078,3.041 2.64,3.527 0.68,1.137 1.916,1.838 3.27,1.838 1.484,0 2.771,-0.839 3.393,-2.057 0.622,1.218 1.909,2.057 3.393,2.057 1.354,0 2.592,-0.701 3.272,-1.838 1.563,-0.486 2.638,-1.913 2.638,-3.527 0,-0.149 -0.009,-0.298 -0.027,-0.446 C 36.333,43.611 37,42.514 37,41.318 37,40.642 36.796,40 36.407,39.45 36.781,38.92 37,38.277 37,37.585 37,36.7 36.639,35.862 36,35.246 c 0.101,-0.317 0.152,-0.645 0.152,-0.978 0,-1.6 -1.174,-2.936 -2.724,-3.23 0.118,-0.289 0.179,-0.599 0.179,-0.917 0,-1.014 -0.63,-1.886 -1.527,-2.263 -1.495,-1.164 -3.129,-1.857 -4.384,-1.857 -0.697,0 -1.316,0.336 -1.697,0.85 -0.381,-0.514 -0.999,-0.85 -1.697,-0.85 m 0,0.778 c 0.716,0 1.299,0.57 1.299,1.27 l 0,5.03 c -0.357,-0.277 -0.808,-0.444 -1.299,-0.444 -0.22,0 -0.398,0.174 -0.398,0.389 0,0.215 0.178,0.389 0.398,0.389 0.716,0 1.299,0.57 1.299,1.27 l 0,9.344 c -0.494,-0.624 -1.191,-1.094 -2.01,-1.31 -0.212,-0.056 -0.431,0.067 -0.488,0.275 -0.057,0.207 0.069,0.421 0.281,0.477 1.306,0.343 2.217,1.505 2.217,2.826 0,1.615 -1.344,2.929 -2.995,2.929 -1.115,0 -2.13,-0.602 -2.65,-1.569 -0.052,-0.096 -0.143,-0.166 -0.25,-0.194 -1.305,-0.343 -2.215,-1.504 -2.215,-2.824 0,-0.197 0.02,-0.396 0.06,-0.589 0.037,-0.179 -0.058,-0.359 -0.228,-0.433 -0.929,-0.404 -1.529,-1.304 -1.529,-2.296 0,-0.451 0.119,-0.882 0.347,-1.264 0.594,0.512 1.371,0.824 2.223,0.824 0.22,0 0.398,-0.174 0.398,-0.389 0,-0.215 -0.178,-0.389 -0.398,-0.389 -1.418,0 -2.57,-1.129 -2.57,-2.515 0,-0.746 0.337,-1.45 0.924,-1.929 0.133,-0.108 0.178,-0.288 0.113,-0.444 -0.126,-0.302 -0.189,-0.62 -0.189,-0.944 0,-1.386 1.152,-2.513 2.57,-2.513 1.418,0 2.572,1.127 2.572,2.513 0,0.215 0.178,0.389 0.398,0.389 0.22,0 0.398,-0.174 0.398,-0.389 0,-1.744 -1.395,-3.174 -3.151,-3.283 -0.159,-0.26 -0.242,-0.557 -0.242,-0.864 0,-0.693 0.43,-1.288 1.043,-1.546 0.024,-0.007 0.046,-0.017 0.068,-0.029 0.19,-0.071 0.395,-0.109 0.61,-0.109 0.666,0 1.261,0.364 1.552,0.949 0.096,0.193 0.333,0.273 0.53,0.179 0.198,-0.094 0.279,-0.325 0.183,-0.519 -0.332,-0.669 -0.961,-1.149 -1.685,-1.319 1.015,-0.605 2.01,-0.949 2.812,-0.949 m 3.393,0 c 0.798,0 1.797,0.344 2.812,0.949 -0.724,0.17 -1.353,0.651 -1.685,1.319 -0.096,0.193 -0.014,0.425 0.183,0.519 0.198,0.094 0.436,0.014 0.532,-0.179 0.291,-0.586 0.885,-0.949 1.55,-0.949 0.215,0 0.421,0.038 0.61,0.109 0.022,0.011 0.047,0.022 0.07,0.029 0.613,0.258 1.043,0.853 1.043,1.546 0,0.307 -0.085,0.604 -0.244,0.864 -1.756,0.109 -3.149,1.539 -3.149,3.283 0,0.215 0.178,0.389 0.398,0.389 0.22,0 0.398,-0.174 0.398,-0.389 0,-1.386 1.152,-2.513 2.57,-2.513 1.418,0 2.572,1.127 2.572,2.513 0,0.324 -0.064,0.641 -0.189,0.944 -0.065,0.157 -0.019,0.336 0.113,0.444 0.587,0.48 0.924,1.183 0.924,1.929 0,1.386 -1.154,2.515 -2.572,2.515 -0.22,0 -0.398,0.174 -0.398,0.389 0,0.215 0.178,0.389 0.398,0.389 0.852,0 1.629,-0.312 2.223,-0.824 0.228,0.382 0.349,0.813 0.349,1.264 0,0.991 -0.6,1.892 -1.529,2.296 -0.17,0.074 -0.265,0.254 -0.228,0.433 0.04,0.193 0.06,0.392 0.06,0.589 0,1.32 -0.912,2.48 -2.217,2.824 -0.107,0.028 -0.196,0.099 -0.248,0.194 -0.52,0.967 -1.537,1.569 -2.652,1.569 -1.652,0 -2.995,-1.314 -2.995,-2.929 0,-0.109 -0.006,-0.219 -0.016,-0.326 0.01,-0.033 0.016,-0.067 0.016,-0.103 l 0,-12.841 c 0,-0.7 0.583,-1.27 1.299,-1.27 0.22,0 0.398,-0.174 0.398,-0.389 0,-0.215 -0.178,-0.389 -0.398,-0.389 -0.49,0 -0.941,0.167 -1.299,0.444 l 0,-3.373 c 0,-0.7 0.583,-1.27 1.299,-1.27 m 5.938,6.686 c -0.22,0 -0.398,0.174 -0.398,0.389 0,1.386 -1.152,2.513 -2.57,2.513 -0.697,0 -1.349,-0.266 -1.837,-0.753 -0.154,-0.153 -0.407,-0.156 -0.564,-0.006 -0.157,0.15 -0.16,0.396 -0.006,0.549 0.551,0.55 1.264,0.887 2.036,0.969 0.183,1.183 1.23,2.093 2.49,2.093 0.22,0 0.398,-0.174 0.398,-0.389 0,-0.215 -0.178,-0.389 -0.398,-0.389 -0.824,0 -1.514,-0.569 -1.683,-1.325 1.65,-0.211 2.929,-1.592 2.929,-3.262 0,-0.215 -0.178,-0.389 -0.398,-0.389 m -14.42,0.416 c -0.22,0 -0.398,0.172 -0.398,0.387 0,1.67 1.279,3.054 2.929,3.264 -0.169,0.756 -0.859,1.323 -1.683,1.323 -0.22,0 -0.398,0.174 -0.398,0.389 0,0.215 0.178,0.389 0.398,0.389 1.26,0 2.308,-0.91 2.49,-2.093 0.772,-0.082 1.484,-0.416 2.036,-0.967 0.154,-0.153 0.151,-0.401 -0.006,-0.551 -0.157,-0.15 -0.408,-0.148 -0.562,0.006 -0.488,0.487 -1.14,0.755 -1.837,0.755 -1.418,0 -2.572,-1.129 -2.572,-2.515 0,-0.215 -0.178,-0.387 -0.398,-0.387 m 8.483,5.804 c -0.22,0 -0.398,0.174 -0.398,0.389 0,0.215 0.178,0.389 0.398,0.389 1.418,0 2.572,1.129 2.572,2.515 0,0.089 -0.006,0.177 -0.016,0.265 -1.234,0.489 -2.106,1.673 -2.106,3.052 0,0.215 0.178,0.389 0.398,0.389 0.22,0 0.398,-0.174 0.398,-0.389 0,-1.386 1.154,-2.515 2.572,-2.515 0.22,0 0.398,-0.174 0.398,-0.389 0,-0.215 -0.178,-0.389 -0.398,-0.389 -0.153,0 -0.305,0.011 -0.452,0.031 0,-0.019 0.002,-0.037 0.002,-0.055 0,-1.815 -1.511,-3.293 -3.368,-3.293 m -4.664,0.829 c -1.856,0 -3.368,1.478 -3.368,3.293 0,0.019 0.002,0.036 0.002,0.055 -0.148,-0.019 -0.299,-0.031 -0.452,-0.031 -0.22,0 -0.398,0.174 -0.398,0.389 0,0.215 0.178,0.389 0.398,0.389 1.418,0 2.572,1.129 2.572,2.515 0,0.215 0.178,0.389 0.398,0.389 0.22,0 0.398,-0.174 0.398,-0.389 0,-1.379 -0.872,-2.564 -2.106,-3.052 -0.009,-0.088 -0.016,-0.176 -0.016,-0.265 0,-1.386 1.154,-2.515 2.572,-2.515 0.22,0 0.398,-0.174 0.398,-0.389 0,-0.215 -0.178,-0.389 -0.398,-0.389"
     id="path35" />
</svg>
