<?xml version="1.0" encoding="UTF-8" standalone="no"?>
<svg
   xmlns:dc="http://purl.org/dc/elements/1.1/"
   xmlns:cc="http://creativecommons.org/ns#"
   xmlns:rdf="http://www.w3.org/1999/02/22-rdf-syntax-ns#"
   xmlns:svg="http://www.w3.org/2000/svg"
   xmlns="http://www.w3.org/2000/svg"
   xmlns:xlink="http://www.w3.org/1999/xlink"
   xmlns:sodipodi="http://sodipodi.sourceforge.net/DTD/sodipodi-0.dtd"
   xmlns:inkscape="http://www.inkscape.org/namespaces/inkscape"
   width="64px"
   height="64px"
   viewBox="0 0 64 64"
   version="1.1"
   id="svg2"
   inkscape:version="0.91 r13725"
   sodipodi:docname="application-vnd.ms-access.svg">
  <metadata
     id="metadata19">
    <rdf:RDF>
      <cc:Work
         rdf:about="">
        <dc:format>image/svg+xml</dc:format>
        <dc:type
           rdf:resource="http://purl.org/dc/dcmitype/StillImage" />
        <dc:title>application-pdf</dc:title>
      </cc:Work>
    </rdf:RDF>
  </metadata>
  <sodipodi:namedview
     pagecolor="#ffffff"
     bordercolor="#666666"
     borderopacity="1"
     objecttolerance="10"
     gridtolerance="10"
     guidetolerance="10"
     inkscape:pageopacity="0"
     inkscape:pageshadow="2"
     inkscape:window-width="1366"
     inkscape:window-height="700"
     id="namedview17"
     showgrid="false"
     inkscape:zoom="8.0000001"
     inkscape:cx="13.891202"
     inkscape:cy="33.246321"
     inkscape:window-x="0"
     inkscape:window-y="0"
     inkscape:window-maximized="1"
     inkscape:current-layer="svg2"
     inkscape:snap-global="true" />
  <!-- Generator: Sketch 40.3 (33839) - http://www.bohemiancoding.com/sketch -->
  <title
     id="title4">application-pdf</title>
  <desc
     id="desc6">Created with Sketch.</desc>
  <defs
     id="defs8">
    <linearGradient
       inkscape:collect="always"
       id="linearGradient4174">
      <stop
         style="stop-color:#d32429;stop-opacity:1"
         offset="0"
         id="stop4176" />
      <stop
         style="stop-color:#b52428;stop-opacity:1"
         offset="1"
         id="stop4178" />
    </linearGradient>
    <linearGradient
       gradientTransform="matrix(0.70607647,0,0,0.70607647,-7.1989039,61.782827)"
       id="SVGID_4_-3"
       gradientUnits="userSpaceOnUse"
       x1="102.6431"
       y1="-34.2061"
       x2="218.0972"
       y2="209.7536">
      <stop
         offset="0"
         style="stop-color:#23b6ef;stop-opacity:1"
         id="stop4202-6" />
      <stop
         offset="0.3941"
         style="stop-color:#45d3fe;stop-opacity:1"
         id="stop4204-7" />
      <stop
         offset="0.583"
         style="stop-color:#4dd0ff;stop-opacity:1"
         id="stop4206-5" />
      <stop
         offset="0.7838"
         style="stop-color:#47d2fd;stop-opacity:1"
         id="stop4208-3" />
      <stop
         offset="1"
         style="stop-color:#2bb2ec;stop-opacity:1"
         id="stop4210-5" />
    </linearGradient>
    <linearGradient
       gradientTransform="matrix(0.70607647,0,0,0.70607647,-7.1989039,61.782827)"
       id="SVGID_3_-6"
       gradientUnits="userSpaceOnUse"
       x1="37.1362"
       y1="-2.4779999"
       x2="152.1362"
       y2="240.522">
      <stop
         offset="0"
         style="stop-color:#20bcf4;stop-opacity:1"
         id="stop4187-2" />
      <stop
         offset="0.3941"
         style="stop-color:#49d3fd;stop-opacity:1"
         id="stop4189-9" />
      <stop
         offset="0.583"
         style="stop-color:#49d6ff;stop-opacity:1"
         id="stop4191-1" />
      <stop
         offset="0.7838"
         style="stop-color:#40d4fe;stop-opacity:1"
         id="stop4193-2" />
      <stop
         offset="1"
         style="stop-color:#20b5e8;stop-opacity:1"
         id="stop4195-7" />
    </linearGradient>
    <linearGradient
       id="a-3"
       y1="17"
       x1="40"
       y2="31"
       gradientUnits="userSpaceOnUse"
       x2="54"
       gradientTransform="matrix(0,3.383376,-3.4244669,0,218.19069,65.244715)">
      <stop
         stop-color="#060606"
         id="stop4172" />
      <stop
         offset="1"
         stop-opacity="0"
         id="stop4174" />
    </linearGradient>
    <linearGradient
       inkscape:collect="always"
       xlink:href="#a-3"
       id="linearGradient4283"
       gradientUnits="userSpaceOnUse"
       gradientTransform="matrix(0,0.845844,-0.85611672,0,54.547617,12.311424)"
       x1="40"
       y1="17"
       x2="54"
       y2="31" />
    <radialGradient
       inkscape:collect="always"
       xlink:href="#linearGradient4174"
       id="radialGradient4180"
       cx="95.778931"
       cy="163.8054"
       fx="95.778931"
       fy="163.8054"
       r="84"
       gradientTransform="matrix(1.4537226,0,0,1.7852612,-45.177115,-119.84905)"
       gradientUnits="userSpaceOnUse" />
  </defs>
  <style
     type="text/css"
     id="style4358">
	.st0{fill:#261300;}
	.st1{fill:#FF7C00;}
</style>
  <g
     id="g4272"
     transform="matrix(0.25,0,0,0.25,0,-4.8135597)">
    <g
       style="fill:none;fill-rule:evenodd;stroke:none;stroke-width:1"
       transform="matrix(1,0,0,-1,0,276)"
       id="Page-1">
      <g
         id="application-pdf">
        <path
           style="fill:url(#radialGradient4180);fill-opacity:1"
           inkscape:connector-curvature="0"
           id="path14361"
           d="m 206,232.74576 -156,0 c -4,0 -6,-2 -6,-6 L 44,30.745762 c 0,-4 2,-6 6,-6 l 110,0 52,52 0,149.999998 c 0,6 -6,6 -6,6 z" />
        <g
           transform="translate(44,28)"
           id="Group">
          <path
             style="fill:#646464;fill-opacity:0.2"
             inkscape:connector-curvature="0"
             id="Combined-Shape-7"
             d="m 0,198.74576 c 0,4 2,6 6,6 l 156,0 c 0,0 6,0 6,-6 l 0,-2 c 0,6 -6,6 -6,6 l -156,0 c -4,0 -6,-2 -6,-6 l 0,2 z" />
          <path
             style="opacity:0.25;fill:#999999"
             inkscape:connector-curvature="0"
             id="path16-5"
             d="m 0,2.745762 c 0,-4 2,-6 6,-6 l 110,0 0,2 -110,0 c -4,0 -6,2 -6,6 l 0,-2 z" />
        </g>
      </g>
    </g>
  </g>
  <path
     style="opacity:0.1;fill:url(#linearGradient4283);fill-rule:evenodd"
     id="path4198-2"
     d="M 39.993635,46.145183 28.008,57.987 l 11.985635,0 z"
     inkscape:connector-curvature="0" />
  <path
     style="fill:#ffffff;fill-opacity:1;fill-rule:evenodd;stroke:none;stroke-width:1;opacity:0.6"
     inkscape:connector-curvature="0"
     id="path19-9"
     d="M 41.238667,44.962667 C 40.502667,44.962667 40,45.597333 40,46.333333 L 40,58 53,44.962667 l -11.761333,0 z" />
  <path
     inkscape:connector-curvature="0"
     style="display:inline;fill:#ffffff;stroke-width:1.33333325;enable-background:new"
     d="m 26.49063,28.013248 c -3.82915,0.681901 -7.660371,1.58662 -11.489519,2.256035 0,5.824903 -0.0025,11.652264 0,17.479666 3.809166,0.666915 7.620363,1.55666 11.422038,2.251051 l 1.141053,0 0,-21.986752 -1.073572,0 z m 4.51552,3.042426 c -0.890099,0.0087 -1.780179,0.08248 -2.656707,0.203211 l 0,3.251006 c 2.463041,0.37168 5.030917,0.295983 7.404962,-0.504963 0.502555,-0.219867 1.138345,-0.494757 1.243043,-1.104628 -0.141343,-0.745979 -0.978646,-1.026192 -1.604222,-1.259146 -1.419978,-0.43352 -2.903579,-0.60005 -4.387076,-0.58548 z m 5.988999,3.108756 c -0.93182,0.748596 -2.133443,0.997374 -3.285131,1.167511 -1.777262,0.232947 -3.583313,0.23546 -5.360575,0.01035 l 0,3.392104 c 2.219616,0.285304 4.499314,0.272556 6.684902,-0.243087 0.670074,-0.191074 1.413676,-0.39029 1.882202,-0.947809 0.167517,-1.115045 0.02102,-2.253558 0.0786,-3.37907 z M 21.91568,34.928584 c 0.876851,2.931568 1.709423,5.879075 2.575807,8.813258 -0.604636,-0.03926 -1.209568,-0.08383 -1.80897,-0.138797 -0.159665,-0.654369 -0.329525,-1.30867 -0.502278,-1.96042 -0.803562,-0.0026 -1.607306,-0.02898 -2.408252,-0.06825 -0.154431,0.620341 -0.311556,1.238021 -0.471221,1.855745 -0.513024,-0.03926 -1.023267,-0.07563 -1.533674,-0.109657 0.764301,-2.756197 1.559848,-5.501873 2.318915,-8.258069 0.609871,-0.0445 1.217185,-0.0867 1.829673,-0.133813 z m -0.984235,1.568181 c -0.17537,1.243298 -0.568038,2.439356 -0.832401,3.664332 0.575843,0.0052 1.151906,0.0077 1.730367,0.01035 -0.298391,-1.224977 -0.662396,-2.434003 -0.897966,-3.674684 z m 16.063704,1.855747 c -0.926584,0.745979 -2.120341,0.994689 -3.269411,1.164825 -1.782497,0.23558 -3.593797,0.240759 -5.376295,0.01304 l 0,3.394788 c 2.22485,0.282687 4.512483,0.269738 6.703306,-0.25114 0.667455,-0.191075 1.410725,-0.38997 1.868784,-0.95011 0.154429,-1.115041 0.02127,-2.248505 0.07362,-3.3714 z m 0,4.187697 c -0.93182,0.745979 -2.128076,0.997305 -3.279764,1.164825 -1.779879,0.23558 -3.586061,0.240759 -5.365942,0.01304 0,1.12813 0.008,2.25362 -0.01035,3.381751 1.868874,0.269599 3.776898,0.2646 5.643153,-0.0207 1.018197,-0.20678 2.193558,-0.35596 2.934301,-1.162141 0.164903,-1.115043 0.02364,-2.253872 0.0786,-3.376767 z"
     id="path6" />
</svg>
