<?xml version="1.0" encoding="UTF-8" standalone="no"?>
<svg
   xmlns:dc="http://purl.org/dc/elements/1.1/"
   xmlns:cc="http://creativecommons.org/ns#"
   xmlns:rdf="http://www.w3.org/1999/02/22-rdf-syntax-ns#"
   xmlns:svg="http://www.w3.org/2000/svg"
   xmlns="http://www.w3.org/2000/svg"
   xmlns:xlink="http://www.w3.org/1999/xlink"
   xmlns:sodipodi="http://sodipodi.sourceforge.net/DTD/sodipodi-0.dtd"
   xmlns:inkscape="http://www.inkscape.org/namespaces/inkscape"
   width="64"
   viewBox="0 0 64 64"
   height="64"
   id="svg2"
   version="1.1"
   inkscape:version="0.91 r13725"
   sodipodi:docname="application-x-arj.svg">
  <metadata
     id="metadata33">
    <rdf:RDF>
      <cc:Work
         rdf:about="">
        <dc:format>image/svg+xml</dc:format>
        <dc:type
           rdf:resource="http://purl.org/dc/dcmitype/StillImage" />
        <dc:title />
      </cc:Work>
    </rdf:RDF>
  </metadata>
  <sodipodi:namedview
     pagecolor="#ffffff"
     bordercolor="#666666"
     borderopacity="1"
     objecttolerance="10"
     gridtolerance="10"
     guidetolerance="10"
     inkscape:pageopacity="0"
     inkscape:pageshadow="2"
     inkscape:window-width="1366"
     inkscape:window-height="700"
     id="namedview31"
     showgrid="false"
     inkscape:zoom="3.6875"
     inkscape:cx="-28.537158"
     inkscape:cy="32"
     inkscape:window-x="0"
     inkscape:window-y="0"
     inkscape:window-maximized="1"
     inkscape:current-layer="svg2" />
  <defs
     id="defs4">
    <linearGradient
       id="a"
       y1="543.8"
       y2="512.8"
       x2="0"
       gradientUnits="userSpaceOnUse"
       gradientTransform="matrix(1.35 0 0 1.3-519.57-646.94)">
      <stop
         stop-color="#f27935"
         id="stop7" />
      <stop
         offset="1"
         stop-color="#f2784b"
         id="stop9" />
    </linearGradient>
    <linearGradient
       xlink:href="#a"
       id="b"
       y1="512.8"
       y2="503.8"
       x2="0"
       gradientUnits="userSpaceOnUse"
       gradientTransform="matrix(1.35 0 0 1.3-519.57-646.94)" />
    <linearGradient
       id="c"
       y1="8"
       y2="25.527"
       x2="0"
       gradientUnits="userSpaceOnUse">
      <stop
         stop-color="#f7ab89"
         id="stop13" />
      <stop
         offset="1"
         stop-color="#fbd2bf"
         id="stop15" />
    </linearGradient>
  </defs>
  <rect
     width="54"
     x="5"
     y="19"
     stroke-opacity=".55"
     fill="url(#a)"
     height="41"
     stroke-width="2.8"
     id="rect17" />
  <path
     fill="url(#b)"
     fill-rule="evenodd"
     d="m5 19l8.1-11h39.15l6.75 11z"
     id="path19" />
  <g
     transform="scale(1-1)"
     id="g25">
    <rect
       width="54"
       x="5"
       y="-60"
       fill="#2e3132"
       height="1"
       fill-opacity=".294"
       id="rect27" />
    <rect
       width="54"
       x="5"
       y="-20"
       fill="#ffffff"
       height="1"
       fill-opacity=".412"
       id="rect29" />
  </g>
  <path
     id="rect4173-3-3"
     d="m 41.184,20.037 0,2 2,0 0,-2 -2,0 z m 2,2 0,2 2,0 0,-2 -2,0 z m 0,2 -2,0 0,2 2,0 0,-2 z m 0,2 0,2 2,0 0,-2 -2,0 z m 0,2 -2,0 0,2 2,0 0,-2 z m 0,2 0,2 2,0 0,-2 -2,0 z m 0,2 -2,0 0,2 2,0 0,-2 z m -2,3 0,4 1,0 0,4 2,0 0,-4 1,0 0,-4 -4,0 z m 1,1 2,0 0,2 -2,0 0,-2 z"
     style="opacity:1;fill:#ffffff;fill-opacity:1"
     inkscape:connector-curvature="0" />
  <path
     inkscape:connector-curvature="0"
     d="m 15.453127,48.184926 q -1.045591,0 -1.756066,-0.603222 Q 13,46.978482 13,45.98649 q 0,-1.0724 0.831123,-1.675639 0.831105,-0.616637 2.050962,-0.616637 1.08583,0 1.782892,0.402167 l 0,-0.187679 q 0,-0.72387 -0.495987,-1.152827 -0.496006,-0.442369 -1.219875,-0.442369 -0.536192,0 -0.978561,0.254691 -0.428975,0.254692 -0.589827,0.697061 l -1.126036,-0.482575 q 0.227901,-0.589844 0.898154,-1.085812 0.670234,-0.509401 1.769461,-0.509401 1.260079,0 2.091202,0.737282 0.831105,0.737284 0.831105,2.077788 l 0,3.967899 -1.179636,0 0,-0.911531 -0.05354,0 q -0.737295,1.126018 -2.158235,1.126018 z m 0.201092,-1.126018 q 0.764074,0 1.38071,-0.563035 0.630048,-0.576396 0.630048,-1.353902 -0.522795,-0.428955 -1.568388,-0.428955 -0.898153,0 -1.353935,0.388734 -0.455766,0.388752 -0.455766,0.911566 0,0.482557 0.415561,0.764075 0.415561,0.281517 0.95177,0.281517 z"
     id="path19-36"
     style="fill:#ffffff" />
  <path
     inkscape:connector-curvature="0"
     d="m 21.468245,47.970439 -1.23327,0 0,-6.568499 1.179653,0 0,1.072418 0.05354,0 q 0.187666,-0.536209 0.764077,-0.88474 0.589826,-0.348531 1.139432,-0.348531 0.549618,0 0.924947,0.160877 l -0.469166,1.152827 q -0.24129,-0.09389 -0.656856,-0.09389 -0.670255,0 -1.193051,0.536209 -0.509383,0.522797 -0.509383,1.38071 z"
     id="path21-7"
     style="fill:#ffffff" />
  <path
     inkscape:connector-curvature="0"
     d="m 26.445308,39.753125 q -0.254691,0.254691 -0.616635,0.254691 -0.361944,0 -0.616635,-0.254691 -0.254692,-0.254692 -0.254692,-0.616635 0,-0.361943 0.254692,-0.616635 0.254691,-0.254691 0.616635,-0.254691 0.361944,0 0.616635,0.254691 Q 26.7,38.774547 26.7,39.13649 q 0,0.361943 -0.254692,0.616635 z m -1.970553,11.246873 q -0.361944,0 -0.723871,-0.134077 l 0.321722,-1.072406 q 0.174267,0.08054 0.361945,0.08054 0.777487,0 0.777487,-1.018792 l 0,-7.453229 1.23327,0 0,7.453229 q 0,1.085805 -0.522796,1.608605 Q 25.399716,51 24.474755,51 Z"
     id="path23-5"
     style="fill:#ffffff" />
</svg>
