<?xml version="1.0" encoding="UTF-8" standalone="no"?>
<svg
   xmlns:dc="http://purl.org/dc/elements/1.1/"
   xmlns:cc="http://creativecommons.org/ns#"
   xmlns:rdf="http://www.w3.org/1999/02/22-rdf-syntax-ns#"
   xmlns:svg="http://www.w3.org/2000/svg"
   xmlns="http://www.w3.org/2000/svg"
   xmlns:xlink="http://www.w3.org/1999/xlink"
   xmlns:sodipodi="http://sodipodi.sourceforge.net/DTD/sodipodi-0.dtd"
   xmlns:inkscape="http://www.inkscape.org/namespaces/inkscape"
   width="64"
   viewBox="0 0 64 64"
   height="64"
   id="svg2"
   version="1.1"
   inkscape:version="0.91 r13725"
   sodipodi:docname="virtualbox-vdi.svg">
  <metadata
     id="metadata33">
    <rdf:RDF>
      <cc:Work
         rdf:about="">
        <dc:format>image/svg+xml</dc:format>
        <dc:type
           rdf:resource="http://purl.org/dc/dcmitype/StillImage" />
        <dc:title></dc:title>
      </cc:Work>
    </rdf:RDF>
  </metadata>
  <sodipodi:namedview
     pagecolor="#ffffff"
     bordercolor="#666666"
     borderopacity="1"
     objecttolerance="10"
     gridtolerance="10"
     guidetolerance="10"
     inkscape:pageopacity="0"
     inkscape:pageshadow="2"
     inkscape:window-width="1366"
     inkscape:window-height="703"
     id="namedview31"
     showgrid="false"
     inkscape:zoom="5.2149125"
     inkscape:cx="54.787893"
     inkscape:cy="22.239833"
     inkscape:window-x="0"
     inkscape:window-y="0"
     inkscape:window-maximized="1"
     inkscape:current-layer="svg2" />
  <defs
     id="defs4">
    <linearGradient
       id="a"
       y1="512.8"
       y2="503.8"
       x2="0"
       gradientUnits="userSpaceOnUse"
       gradientTransform="matrix(1.35 0 0 1.3-519.57-646.94)">
      <stop
         stop-color="#f62459"
         id="stop7" />
      <stop
         offset="1"
         stop-color="#f73768"
         id="stop9" />
    </linearGradient>
    <linearGradient
       id="b"
       xlink:href="#a"
       y1="543.8"
       y2="512.8"
       x2="0"
       gradientUnits="userSpaceOnUse"
       gradientTransform="matrix(1.35 0 0 1.3-519.57-646.94)" />
    <linearGradient
       id="c"
       y1="8"
       y2="25.527"
       x2="0"
       gradientUnits="userSpaceOnUse">
      <stop
         stop-color="#ffd6af"
         id="stop13" />
      <stop
         offset="1"
         stop-color="#fffcf9"
         id="stop15" />
    </linearGradient>
  </defs>
  <rect
     width="54"
     x="5"
     y="19"
     stroke-opacity=".55"
     fill="url(#b)"
     height="41"
     stroke-width="2.8"
     id="rect17" />
  <path
     fill="url(#a)"
     fill-rule="evenodd"
     d="m5 19l8.1-11h39.15l6.75 11z"
     id="path19" />
  <g
     transform="scale(1-1)"
     id="g25">
    <rect
       width="54"
       x="5"
       y="-60"
       fill="#2e3132"
       height="1"
       fill-opacity=".294"
       id="rect27" />
    <rect
       width="54"
       x="5"
       y="-20"
       fill="#ffffff"
       height="1"
       fill-opacity=".412"
       id="rect29" />
  </g>
  <path
     inkscape:connector-curvature="0"
     style="color:#000000;clip-rule:nonzero;display:inline;overflow:visible;visibility:visible;opacity:0.75;isolation:auto;mix-blend-mode:normal;color-interpolation:sRGB;color-interpolation-filters:linearRGB;solid-color:#000000;solid-opacity:1;fill:#ffffff;fill-opacity:1;fill-rule:nonzero;stroke-width:1;stroke-linecap:butt;stroke-linejoin:miter;stroke-miterlimit:4;stroke-dasharray:none;stroke-dashoffset:0;stroke-opacity:1;color-rendering:auto;image-rendering:auto;shape-rendering:auto;text-rendering:auto;enable-background:accumulate"
     id="path4181"
     d="m 20.475776,53.472972 c -1.18025,-0.1965 -2.87205,-0.864796 -3.92023,-1.548496 -2.302006,-1.5015 -3.805426,-3.1684 -4.735856,-5.2509 -0.30911,-0.6918 -0.47801,-1.2287 -0.96114,-3.055 -0.12013,-0.4541 -0.26963,-0.9542 -0.33223,-1.1114 -0.10559,-0.265 -0.11023,-0.3544 -0.0642,-1.2385 0.0437,-0.8399 0.18574,-1.9764 0.26198,-2.0959 0.0148,-0.023 0.0496,-0.029 0.0774,-0.012 0.094,0.056 0.18092,-0.2022 0.26633,-0.7906 0.0468,-0.3224 0.12032,-0.6605 0.16339,-0.7513 0.0431,-0.091 0.11603,-0.2913 0.16214,-0.4455 0.10611,-0.3548 0.25079,-0.6276 0.69807,-1.316 0.19671,-0.3027 0.40119,-0.6325 0.45439,-0.7327 0.0626,-0.118 0.131,-0.1758 0.1938,-0.1638 0.0605,0.012 0.16035,-0.065 0.26492,-0.203 0.45476,-0.6002 2.596666,-2.371 2.794876,-2.3106 0.0541,0.016 0.28012,-0.058 0.50227,-0.1653 0.40181,-0.1942 0.57886,-0.2391 0.57886,-0.1468 0,0.027 -0.0581,0.087 -0.12906,0.1342 -0.12457,0.083 -0.12207,0.084 0.0717,0.039 0.11042,-0.026 0.29638,-0.062 0.41325,-0.081 0.14439,-0.023 0.2031,-0.058 0.18318,-0.1079 -0.0175,-0.044 0.0241,-0.087 0.10298,-0.1073 0.19746,-0.051 0.50515,-0.042 0.50515,0.014 0,0.067 -0.17593,0.1352 -0.31548,0.122 -0.0952,-0.01 -0.10006,0 -0.0287,0.046 0.071,0.047 0.0719,0.057 0.005,0.058 -0.0447,4e-4 -0.0665,0.015 -0.0486,0.032 0.018,0.017 0.13758,-0.02 0.26578,-0.083 0.12821,-0.063 0.36302,-0.1409 0.5218,-0.1736 0.19546,-0.04 0.2887,-0.087 0.2887,-0.1445 0,-0.074 0.0908,-0.08 0.70265,-0.049 0.38647,0.02 0.96965,0.078 1.29596,0.1292 0.59326,0.093 0.59331,0.093 0.8144,-0.029 0.26518,-0.1464 0.69171,-0.1655 0.80379,-0.036 0.041,0.047 0.15387,0.1256 0.25081,0.1737 0.15814,0.078 0.1686,0.079 0.10176,0 -0.12697,-0.1469 -8.7e-4,-0.1432 0.48939,0.014 1.58057,0.508 2.8691,1.4127 3.82523,2.6858 0.22674,0.3019 0.24047,0.4377 0.0257,0.2539 l -0.12292,-0.1052 0.0939,0.1762 c 0.0516,0.097 0.0939,0.2058 0.0939,0.242 0,0.036 0.152,0.3037 0.33776,0.5944 0.41868,0.6554 0.5358,0.8761 0.50771,0.957 -0.0121,0.035 -0.19753,-0.1961 -0.41219,-0.5129 -0.21465,-0.3168 -0.5323,-0.7436 -0.70588,-0.9484 -0.25922,-0.306 -0.32711,-0.3583 -0.38,-0.2929 -0.0354,0.044 -0.12191,0.087 -0.19222,0.097 l -0.12782,0.018 0.12645,0.2379 c 0.0695,0.1308 0.13567,0.2113 0.14695,0.1789 0.0604,-0.1738 0.34144,0.055 0.46925,0.3814 0.0414,0.1059 0.15164,0.3241 0.24488,0.4849 0.0932,0.1607 0.15777,0.3035 0.14343,0.3172 -0.0143,0.014 -0.0994,-0.03 -0.18889,-0.098 l -0.1628,-0.1229 0.11103,0.183 c 0.0611,0.1006 0.16333,0.2237 0.22724,0.2735 0.0797,0.062 0.11784,0.1603 0.1214,0.313 0.007,0.2818 0.17481,0.6148 0.2663,0.527 0.14253,-0.1368 0.17184,-0.051 0.13597,0.3966 -0.0264,0.33 -0.0124,0.5476 0.0503,0.7785 0.0952,0.3506 0.0747,0.4371 -0.0645,0.2732 -0.0885,-0.1042 -0.0894,-0.1041 -0.0498,0 0.085,0.2319 0.14846,0.5786 0.13081,0.7148 -0.0329,0.2539 -0.13232,0.1483 -0.16651,-0.177 l -0.0334,-0.3176 -0.01,0.338 c -0.005,0.1859 -0.0508,0.545 -0.10107,0.7981 -0.0508,0.2557 -0.0766,0.5655 -0.058,0.697 0.0349,0.2475 0.0102,0.2571 -0.20532,0.08 -0.0877,-0.072 -0.10283,-0.058 -0.16308,0.1572 -0.0507,0.1806 -0.0503,0.2835 0.002,0.4348 0.0375,0.1091 0.0593,0.2569 0.0484,0.3286 -0.0251,0.1655 -0.16321,0.217 -0.16321,0.061 0,-0.1962 -0.0778,-0.1264 -0.31548,0.2832 -0.64188,1.1062 -1.65752,1.9622 -2.80702,2.366 -0.67769,0.238 -1.13223,0.3263 -1.89648,0.3683 l -0.68832,0.038 0.34009,0.1007 c 0.27423,0.081 0.43527,0.093 0.83171,0.063 0.51938,-0.04 1.12921,-0.1485 1.40573,-0.2494 0.11036,-0.04 0.18489,-0.042 0.22303,-0.01 0.0899,0.086 -0.7089,0.4256 -1.18309,0.5025 -0.80686,0.1308 -1.88692,-0.011 -2.84033,-0.3718 -0.64687,-0.2451 -1.60679,-0.8834 -1.45969,-0.9706 0.0279,-0.016 0.21049,0.067 0.40583,0.1854 0.24969,0.1515 0.35516,0.1914 0.35516,0.1344 0,-0.1078 0.0369,-0.1026 0.2353,0.033 0.17914,0.1224 0.73015,0.3497 1.127,0.4649 0.4326,0.1256 0.26487,-0.027 -0.31548,-0.2863 -1.83497,-0.8209 -2.59673,-1.642 -2.97638,-3.2082 -0.13922,-0.5744 0.01,-1.8334 0.26385,-2.2277 0.0644,-0.1 0.117,-0.2228 0.117,-0.2731 0,-0.2181 0.37905,-0.7945 0.768,-1.1677 0.68537,-0.6578 1.39794,-0.9308 2.32295,-0.8902 0.44716,0.02 0.63814,0.057 1.01028,0.1996 0.4221,0.1613 0.95359,0.499 0.79082,0.5025 -0.0383,8e-4 -0.20605,-0.053 -0.37284,-0.1198 -0.25354,-0.1014 -0.41611,-0.1217 -0.99158,-0.1238 -0.80809,0 -1.20306,0.107 -1.77816,0.4953 -0.81534,0.5505 -1.26873,1.1846 -1.4293,1.999 -0.10774,0.5464 -0.11104,0.6978 -0.027,1.2399 0.0484,0.3123 0.0828,0.4039 0.1434,0.3816 0.0509,-0.019 0.0797,0.01 0.0797,0.076 0,0.1936 0.43892,0.9789 0.74332,1.3299 0.73267,0.8449 1.91783,1.3841 3.04236,1.3841 0.58366,0 1.05546,-0.1075 1.48975,-0.3395 0.1744,-0.093 0.39453,-0.207 0.48917,-0.253 0.33393,-0.1624 0.5411,-0.348 0.78331,-0.7015 0.13465,-0.1966 0.28103,-0.3574 0.32529,-0.3574 0.0654,0 0.0626,0.028 -0.0151,0.1514 -0.25603,0.4055 0.34484,-0.3318 0.656,-0.8049 l 0.34852,-0.53 -0.038,-0.3481 c -0.0365,-0.3345 -0.0312,-0.3549 0.13555,-0.5229 0.16062,-0.1618 0.17505,-0.2097 0.19356,-0.6422 0.0166,-0.3871 0.005,-0.4674 -0.066,-0.4679 -0.0662,-3e-4 -0.0946,-0.1023 -0.1231,-0.4408 -0.0377,-0.4481 -0.41787,-1.9558 -0.50638,-2.0083 -0.0267,-0.016 -0.10085,-0.1608 -0.16473,-0.3222 -0.2156,-0.5445 -0.59376,-1.0681 -1.18339,-1.6385 -0.84842,-0.8208 -1.91715,-1.4545 -2.92667,-1.7356 -0.85872,-0.239 -2.31691,-0.1522 -3.35555,0.1997 -0.50691,0.1718 -1.00636,0.3992 -1.09064,0.4967 -0.0382,0.044 -0.0937,0.066 -0.1232,0.049 -0.0311,-0.018 -0.0225,-0.068 0.0204,-0.1174 0.19134,-0.2213 -0.4436,0.1837 -0.85236,0.5436 -0.24712,0.2176 -0.45832,0.4022 -0.46933,0.4103 -0.011,0.01 0.0371,4e-4 0.10689,-0.017 0.11615,-0.029 0.12107,-0.021 0.0581,0.092 -0.0404,0.072 -0.25066,0.2026 -0.50841,0.3148 -0.43307,0.1885 -0.713166,0.3957 -0.935706,0.6921 -0.0888,0.1184 -0.094,0.1439 -0.0237,0.118 0.0493,-0.018 0.0897,-0.01 0.0897,0.025 0,0.1572 -0.14884,0.3327 -0.36931,0.4355 -0.48847,0.2277 -1.34656,1.4442 -1.80621,2.5606 -0.20484,0.4975 -0.20159,0.4802 -0.0902,0.4802 0.11739,0 0.10922,0.128 -0.052,0.8152 -0.23489,1.0011 -0.23517,0.9691 0.0206,2.3775 0.31167,1.7159 0.49375,2.2892 0.83995,2.6444 0.0812,0.083 0.16015,0.2605 0.19534,0.4386 0.042,0.2126 0.11256,0.3529 0.24458,0.4864 0.12036,0.1218 0.1605,0.1965 0.11426,0.2126 -0.0907,0.032 0.19328,0.4381 0.45238,0.6473 0.13035,0.1053 0.22695,0.1407 0.33159,0.1215 0.22935,-0.042 0.462856,0.085 0.821666,0.446 0.37288,0.3755 0.41024,0.4765 0.16348,0.4417 -0.15916,-0.022 -0.1628,-0.018 -0.0845,0.096 0.0451,0.066 0.21123,0.2246 0.3693,0.3525 0.22201,0.1797 0.27919,0.2574 0.25132,0.3417 -0.0401,0.1211 0.0742,0.2342 0.33283,0.3291 0.16035,0.059 0.21202,0.1857 0.0913,0.2243 -0.0365,0.012 0.18933,0.2348 0.50189,0.4957 0.35215,0.2941 0.58903,0.4552 0.62279,0.4237 0.0892,-0.083 0.20349,-0.058 0.20554,0.046 0.002,0.1128 0.10347,0.2312 0.46767,0.5471 0.23015,0.1996 0.2876,0.2247 0.42867,0.1874 0.12918,-0.034 0.21042,-0.012 0.39235,0.1058 0.36297,0.2355 0.58306,0.3295 0.77151,0.3295 0.18543,0 0.21183,0.051 0.11555,0.2238 -0.051,0.091 -0.0401,0.1064 0.0771,0.1064 0.075,0 0.28648,0.049 0.46987,0.1101 0.41698,0.1377 0.59092,0.1471 0.48641,0.026 -0.15438,-0.1785 0.009,-0.1297 0.56093,0.1671 0.77073,0.414796 1.16062,0.462196 2.69539,0.327596 0.22723,-0.02 0.30114,-0.01 0.30114,0.047 0,0.048 -0.19717,0.1196 -0.55926,0.2036 -0.47599,0.1105 -0.73005,0.1319 -1.70645,0.1436 -0.76939,0.01 -1.29494,-0.011 -1.59582,-0.061 z m -0.78462,-8.251696 c 0,-0.012 -0.071,-0.063 -0.15774,-0.1134 l -0.15774,-0.092 0.13542,0.1134 c 0.13214,0.1106 0.18006,0.1351 0.18006,0.092 z m 7.89748,-5.7689 c -0.0183,-0.044 -0.0319,-0.031 -0.0347,0.033 -0.003,0.058 0.0111,0.091 0.0301,0.072 0.0191,-0.018 0.0211,-0.066 0.004,-0.1055 z m -13.052546,-5.8108 c 0.0714,-0.087 0.0693,-0.089 -0.0217,-0.021 -0.0552,0.042 -0.10038,0.085 -0.10038,0.096 0,0.045 0.0471,0.016 0.12204,-0.075 z m 0.652316,-0.5091 c 0.0571,-0.061 0.0909,-0.1101 0.0751,-0.1101 -0.0158,0 -0.0754,0.05 -0.13249,0.1101 -0.0571,0.061 -0.0909,0.1101 -0.0751,0.1101 0.0158,0 0.0754,-0.05 0.1325,-0.1101 z m 0.72202,-0.387 c 0.18908,-0.061 0.29652,-0.072 0.33639,-0.034 0.0399,0.038 0.18783,0.016 0.46321,-0.071 0.22254,-0.07 0.39439,-0.1371 0.38189,-0.1491 -0.0125,-0.012 -0.19574,0.034 -0.40718,0.1014 -0.29041,0.093 -0.39492,0.1069 -0.42731,0.057 -0.0547,-0.085 -0.57666,0.082 -0.801,0.2571 l -0.1533,0.1192 0.16474,-0.095 c 0.0906,-0.052 0.28976,-0.1355 0.44256,-0.1851 z m 1.65366,-0.1397 c 0.16658,-0.048 0.29293,-0.096 0.28079,-0.1075 -0.0268,-0.026 -0.62019,0.1373 -0.62019,0.1704 0,0.033 0.005,0.033 0.3394,-0.063 z m 0.95119,-0.3001 0.22945,-0.04 -0.20076,0 c -0.11042,0 -0.26529,0.033 -0.34416,0.079 -0.0928,0.055 -0.10295,0.071 -0.0287,0.045 0.0631,-0.022 0.21796,-0.057 0.34415,-0.08 z m 0.45558,-0.1039 c 0.0177,-0.027 -0.0195,-0.037 -0.0827,-0.021 -0.13394,0.034 -0.15087,0.071 -0.0321,0.071 0.0455,0 0.0971,-0.022 0.1148,-0.05 z m 1.85196,0.017 c -0.0191,-0.018 -0.0685,-0.02 -0.10994,0 -0.0458,0.018 -0.0322,0.031 0.0347,0.033 0.0605,0 0.0943,-0.011 0.0753,-0.029 z m -0.34296,-0.06 c -0.0552,-0.014 -0.14555,-0.014 -0.20076,0 -0.0552,0.014 -0.01,0.025 0.10038,0.025 0.11042,0 0.15559,-0.011 0.10038,-0.025 z m -0.57208,-0.057 c -0.11747,-0.012 -0.32397,-0.012 -0.45888,-3e-4 -0.13491,0.012 -0.0388,0.021 0.21358,0.022 0.25239,2e-4 0.36277,-0.01 0.2453,-0.021 z m -0.74839,-0.048 c -0.0191,-0.018 -0.0685,-0.02 -0.10994,0 -0.0458,0.018 -0.0322,0.031 0.0347,0.033 0.0605,0 0.0943,-0.011 0.0753,-0.029 z m -0.38827,13.2305 c -0.58427,-0.4017 -0.80075,-0.6095 -0.80075,-0.7686 0,-0.084 0.0199,-0.1535 0.0442,-0.1535 0.0827,0 1.05948,0.9784 1.03812,1.0399 -0.0124,0.036 -0.13023,-0.014 -0.28159,-0.1178 z m -0.30065,-1.02 c -0.30344,-0.2943 -0.40067,-0.4525 -0.27803,-0.4525 0.0737,0 0.63832,0.6203 0.63832,0.7013 0,0.038 -0.007,0.069 -0.0161,0.069 -0.009,0 -0.16374,-0.1431 -0.34416,-0.3181 z m 3.35735,-1.2046 c -0.1602,-0.062 -0.0602,-0.177 0.20076,-0.2307 0.14985,-0.031 0.38799,-0.1058 0.52919,-0.1665 0.1412,-0.061 0.26693,-0.1005 0.27939,-0.089 0.0125,0.012 -0.0515,0.1343 -0.14201,0.2719 -0.16367,0.2486 -0.1666,0.2501 -0.48015,0.2459 -0.17352,0 -0.34775,-0.017 -0.38718,-0.032 z m 1.72079,-1.2313 c -0.15483,-0.06 -0.16124,-0.1614 -0.032,-0.5075 0.11103,-0.2972 0.22619,-0.3559 0.16213,-0.083 -0.0231,0.098 -0.0538,0.2409 -0.0684,0.3165 l -0.0265,0.1377 0.11463,-0.1253 c 0.0678,-0.074 0.13062,-0.2481 0.15377,-0.426 0.0215,-0.1654 0.062,-0.2871 0.09,-0.2705 0.071,0.042 0.0634,0.4773 -0.0133,0.7699 -0.0671,0.2556 -0.1274,0.2853 -0.38037,0.1878 z M 9.9748,41.137476 c -0.0191,-0.048 -0.0348,-0.2357 -0.0348,-0.4174 0,-0.2397 0.0197,-0.3241 0.0717,-0.3076 0.0852,0.027 0.13517,0.8121 0.0517,0.8121 -0.0296,0 -0.0694,-0.039 -0.0886,-0.087 z m 13.799146,-1.2875 c -0.0891,-0.1157 -0.11659,-0.207 -0.0913,-0.3037 0.0519,-0.1984 0.1877,-0.1702 0.28788,0.06 0.15585,0.358 0.0206,0.5258 -0.19657,0.2439 z M 9.963,38.976076 c -0.004,-0.3121 -3e-5,-0.3218 0.14395,-0.3165 0.12209,0 0.15157,0.035 0.16565,0.1735 0.0159,0.1558 -0.16071,0.4649 -0.26563,0.4649 -0.0217,0 -0.0415,-0.1448 -0.044,-0.3219 z m 14.868306,-6.7669 c 0.008,-0.4926 0.0945,-0.6595 0.16189,-0.3146 0.047,0.2404 -0.0128,0.6647 -0.10379,0.7372 -0.0495,0.039 -0.0643,-0.068 -0.0581,-0.4226 z m -7.53695,-0.2952 c 0.0231,-0.066 0.81432,-0.3774 0.96028,-0.3774 0.17148,0 -0.13613,0.2017 -0.49092,0.3218 -0.39558,0.134 -0.50092,0.1465 -0.46936,0.056 z" />
  <path
     inkscape:connector-curvature="0"
     style="opacity:0.75;fill:#ffffff;fill-opacity:1"
     d="m 41.184,20.036941 0,2 2,0 0,-2 -2,0 z m 2,2 0,2 2,0 0,-2 -2,0 z m 0,2 -2,0 0,2 2,0 0,-2 z m 0,2 0,2 2,0 0,-2 -2,0 z m 0,2 -2,0 0,2 2,0 0,-2 z m 0,2 0,2 2,0 0,-2 -2,0 z m 0,2 -2,0 0,2 2,0 0,-2 z m -2,3 0,4 1,0 0,4 2,0 0,-4 1,0 0,-4 -4,0 z m 1,1 2,0 0,2 -2,0 0,-2 z"
     id="rect4173-3-3" />
</svg>
