<?xml version="1.0" encoding="UTF-8" standalone="no"?>
<svg
   xmlns:dc="http://purl.org/dc/elements/1.1/"
   xmlns:cc="http://creativecommons.org/ns#"
   xmlns:rdf="http://www.w3.org/1999/02/22-rdf-syntax-ns#"
   xmlns:svg="http://www.w3.org/2000/svg"
   xmlns="http://www.w3.org/2000/svg"
   xmlns:xlink="http://www.w3.org/1999/xlink"
   xmlns:sodipodi="http://sodipodi.sourceforge.net/DTD/sodipodi-0.dtd"
   xmlns:inkscape="http://www.inkscape.org/namespaces/inkscape"
   width="64px"
   height="64px"
   viewBox="0 0 64 64"
   version="1.1"
   id="svg2"
   inkscape:version="0.91 r13725"
   sodipodi:docname="image-vnd.adobe.photoshop.svg">
  <metadata
     id="metadata19">
    <rdf:RDF>
      <cc:Work
         rdf:about="">
        <dc:format>image/svg+xml</dc:format>
        <dc:type
           rdf:resource="http://purl.org/dc/dcmitype/StillImage" />
        <dc:title>application-pdf</dc:title>
      </cc:Work>
    </rdf:RDF>
  </metadata>
  <sodipodi:namedview
     pagecolor="#ffffff"
     bordercolor="#666666"
     borderopacity="1"
     objecttolerance="10"
     gridtolerance="10"
     guidetolerance="10"
     inkscape:pageopacity="0"
     inkscape:pageshadow="2"
     inkscape:window-width="1366"
     inkscape:window-height="703"
     id="namedview17"
     showgrid="false"
     inkscape:zoom="5.2149124"
     inkscape:cx="-28.95471"
     inkscape:cy="30.91284"
     inkscape:window-x="0"
     inkscape:window-y="0"
     inkscape:window-maximized="1"
     inkscape:current-layer="svg2" />
  <!-- Generator: Sketch 40.3 (33839) - http://www.bohemiancoding.com/sketch -->
  <title
     id="title4">application-pdf</title>
  <desc
     id="desc6">Created with Sketch.</desc>
  <defs
     id="defs8">
    <linearGradient
       id="linearGradient4318"
       inkscape:collect="always">
      <stop
         id="stop4320"
         offset="0"
         style="stop-color:#044b92;stop-opacity:1" />
      <stop
         id="stop4322"
         offset="1"
         style="stop-color:#053973;stop-opacity:1" />
    </linearGradient>
    <linearGradient
       gradientTransform="matrix(0.60550864,0,0,0.60550864,7.3134069,82.366753)"
       id="SVGID_4_-3"
       gradientUnits="userSpaceOnUse"
       x1="102.6431"
       y1="-34.2061"
       x2="218.0972"
       y2="209.7536">
      <stop
         offset="0"
         style="stop-color:#23b6ef;stop-opacity:1"
         id="stop4202-6" />
      <stop
         offset="0.3941"
         style="stop-color:#45d3fe;stop-opacity:1"
         id="stop4204-7" />
      <stop
         offset="0.583"
         style="stop-color:#4dd0ff;stop-opacity:1"
         id="stop4206-5" />
      <stop
         offset="0.7838"
         style="stop-color:#47d2fd;stop-opacity:1"
         id="stop4208-3" />
      <stop
         offset="1"
         style="stop-color:#2bb2ec;stop-opacity:1"
         id="stop4210-5" />
    </linearGradient>
    <linearGradient
       gradientTransform="matrix(0.60550864,0,0,0.60550864,7.3134069,82.366753)"
       id="SVGID_3_-6"
       gradientUnits="userSpaceOnUse"
       x1="37.1362"
       y1="-2.4779999"
       x2="152.1362"
       y2="240.522">
      <stop
         offset="0"
         style="stop-color:#20bcf4;stop-opacity:1"
         id="stop4187-2" />
      <stop
         offset="0.3941"
         style="stop-color:#49d3fd;stop-opacity:1"
         id="stop4189-9" />
      <stop
         offset="0.583"
         style="stop-color:#49d6ff;stop-opacity:1"
         id="stop4191-1" />
      <stop
         offset="0.7838"
         style="stop-color:#40d4fe;stop-opacity:1"
         id="stop4193-2" />
      <stop
         offset="1"
         style="stop-color:#20b5e8;stop-opacity:1"
         id="stop4195-7" />
    </linearGradient>
    <radialGradient
       gradientUnits="userSpaceOnUse"
       gradientTransform="matrix(1.8036559,0.01245639,-0.01485821,2.151164,-70.01061,-195.50508)"
       r="84"
       fy="180.24959"
       fx="90.004074"
       cy="180.24959"
       cx="90.004074"
       id="radialGradient4324"
       xlink:href="#linearGradient4318"
       inkscape:collect="always" />
    <linearGradient
       id="a-3"
       y1="17"
       x1="40"
       y2="31"
       gradientUnits="userSpaceOnUse"
       x2="54"
       gradientTransform="matrix(0,3.383376,-3.4244669,0,218.19069,65.244715)">
      <stop
         stop-color="#060606"
         id="stop4172" />
      <stop
         offset="1"
         stop-opacity="0"
         id="stop4174" />
    </linearGradient>
  </defs>
  <g
     id="g4201"
     transform="matrix(0.24998441,0,0,0.25,0.00330519,-4)">
    <g
       style="fill:none;fill-rule:evenodd;stroke:none;stroke-width:1"
       transform="matrix(1,0,0,-1,0,276)"
       id="Page-1-3">
      <g
         id="application-pdf-5">
        <path
           style="fill:url(#radialGradient4324);fill-opacity:1"
           inkscape:connector-curvature="0"
           id="path14361-6"
           d="m 206,236 -156,0 c -4,0 -6,-2 -6,-6 L 44,34 c 0,-4 2,-6 6,-6 l 110,0 52,52 0,150 c 0,6 -6,6 -6,6 z" />
        <g
           transform="translate(44,28)"
           id="Group-2">
          <path
             style="fill:#000000;fill-opacity:0.2"
             inkscape:connector-curvature="0"
             id="Combined-Shape"
             d="m 0,202 c 0,4 2,6 6,6 l 156,0 c 0,0 6,0 6,-6 l 0,-2 c 0,6 -6,6 -6,6 L 6,206 c -4,0 -6,-2 -6,-6 l 0,2 z" />
          <path
             style="opacity:0.25;fill:#ffffff"
             inkscape:connector-curvature="0"
             id="path16"
             d="M 0,6 C 0,2 2,0 6,0 L 116,0 116,2 6,2 C 2,2 0,4 0,8 L 0,6 Z" />
        </g>
        <path
           style="fill:#65cbf3;fill-opacity:1"
           inkscape:connector-curvature="0"
           id="path19"
           d="m 164.95467,80.149333 c -2.944,0 -4.95467,-2.538666 -4.95467,-5.482666 L 160,28 l 52,52.149333 -47.04533,0 z" />
      </g>
    </g>
    <path
       style="fill:url(#SVGID_3_-6)"
       inkscape:connector-curvature="0"
       d="m 51.211572,132.71116 c 0,0 11.485289,-0.30214 20.939701,-0.30214 9.553715,0 16.365686,2.24763 20.939093,6.19737 4.371167,3.73236 7.318784,10.09504 7.318784,17.33814 0,7.24309 -2.236753,13.16981 -6.303346,17.33753 -5.285486,5.37752 -11.444718,8.56007 -21.954531,9.00088 -2.903415,0.1217 -5.590662,0.15078 -5.590662,0.15078 l 0,23.54459 -15.349644,0 6.05e-4,-73.26715 0,0 z m 15.348433,36.67748 c 1.667571,0.16227 2.712679,0.0841 5.184365,0.0545 8.233707,-0.0987 13.31453,-5.10564 13.31453,-12.67753 0,-6.80228 -4.189515,-12.38749 -12.093824,-12.67693 -3.150461,-0.11505 -6.405071,0 -6.405071,0 l 0,25.29997 z"
       id="path4197" />
    <path
       style="fill:url(#SVGID_4_-3)"
       inkscape:connector-curvature="0"
       d="m 106.26683,189.57508 c 3.09355,1.89827 10.39356,4.74113 15.36964,4.74113 5.08384,0 7.18314,-1.7917 7.18314,-4.58491 0,-2.79684 -1.65788,-5.73477 -7.95941,-7.85889 -11.16497,-3.80199 -15.4762,-8.35299 -15.36478,-14.72294 0,-10.28821 8.62123,-18.00239 21.99692,-18.00239 6.30153,0 11.33452,2.05994 14.64846,3.73599 l 0,12.34753 c -2.43354,-1.34301 -9.45321,-4.34149 -14.09503,-4.34149 -4.09203,0 -6.41234,1.67665 -6.41234,4.46986 0,2.57221 2.10172,3.91401 8.73386,6.26339 10.27912,3.57734 14.59034,8.83073 14.69993,16.88097 0,10.17557 -7.84376,18.26698 -23.43379,17.77592 -5.34966,-0.16834 -11.27699,-2.28276 -15.3672,-4.51649 l 0,-12.18768 z"
       id="path4212" />
    <path
       style="opacity:0.1;fill:url(#a-3);fill-rule:evenodd"
       id="path4198"
       d="m 159.97476,200.57975 -47.94254,47.36727 47.94254,0 z"
       inkscape:connector-curvature="0" />
  </g>
</svg>
