<?xml version="1.0" encoding="UTF-8" standalone="no"?>
<svg
   xmlns:dc="http://purl.org/dc/elements/1.1/"
   xmlns:cc="http://creativecommons.org/ns#"
   xmlns:rdf="http://www.w3.org/1999/02/22-rdf-syntax-ns#"
   xmlns:svg="http://www.w3.org/2000/svg"
   xmlns="http://www.w3.org/2000/svg"
   xmlns:xlink="http://www.w3.org/1999/xlink"
   xmlns:sodipodi="http://sodipodi.sourceforge.net/DTD/sodipodi-0.dtd"
   xmlns:inkscape="http://www.inkscape.org/namespaces/inkscape"
   width="64px"
   height="64px"
   viewBox="0 0 64 64"
   version="1.1"
   id="svg2"
   inkscape:version="0.91 r13725"
   sodipodi:docname="image-x-neic.svg">
  <metadata
     id="metadata34">
    <rdf:RDF>
      <cc:Work
         rdf:about="">
        <dc:format>image/svg+xml</dc:format>
        <dc:type
           rdf:resource="http://purl.org/dc/dcmitype/StillImage" />
        <dc:title>深度截图-64px</dc:title>
      </cc:Work>
    </rdf:RDF>
  </metadata>
  <sodipodi:namedview
     pagecolor="#ffffff"
     bordercolor="#666666"
     borderopacity="1"
     objecttolerance="10"
     gridtolerance="10"
     guidetolerance="10"
     inkscape:pageopacity="0"
     inkscape:pageshadow="2"
     inkscape:window-width="1366"
     inkscape:window-height="700"
     id="namedview32"
     showgrid="false"
     inkscape:zoom="7.375"
     inkscape:cx="12.616786"
     inkscape:cy="29.844764"
     inkscape:window-x="0"
     inkscape:window-y="0"
     inkscape:window-maximized="1"
     inkscape:current-layer="svg2" />
  <!-- Generator: Sketch 39.1 (31720) - http://www.bohemiancoding.com/sketch -->
  <title
     id="title4">深度截图-64px</title>
  <desc
     id="desc6">Created with Sketch.</desc>
  <defs
     id="defs8">
    <linearGradient
       gradientUnits="userSpaceOnUse"
       y2="33.410065"
       x2="251.97191"
       y1="485.83685"
       x1="251.97191"
       id="linearGradient4226"
       xlink:href="#linearGradient4338-3"
       inkscape:collect="always"
       gradientTransform="matrix(0.10907338,0,0,0.10907026,-83.121182,96.866267)" />
    <linearGradient
       inkscape:collect="always"
       id="linearGradient4338-3">
      <stop
         id="stop4342-7"
         offset="0"
         style="stop-color:#cccccc;stop-opacity:1" />
      <stop
         id="stop4340-0"
         offset="1"
         style="stop-color:#ececec;stop-opacity:1" />
    </linearGradient>
    <linearGradient
       inkscape:collect="always"
       xlink:href="#linearGradient4360"
       id="linearGradient4358"
       x1="88"
       y1="88"
       x2="488"
       y2="488"
       gradientUnits="userSpaceOnUse" />
    <linearGradient
       id="linearGradient4360"
       inkscape:collect="always">
      <stop
         id="stop4362"
         offset="0"
         style="stop-color:#000000;stop-opacity:0.58823532" />
      <stop
         style="stop-color:#000000;stop-opacity:0"
         offset="0.88"
         id="stop4364" />
      <stop
         id="stop4366"
         offset="1"
         style="stop-color:#000000;stop-opacity:1" />
    </linearGradient>
    <filter
       inkscape:collect="always"
       style="color-interpolation-filters:sRGB"
       id="filter4380"
       x="-0.052999184"
       width="1.1059984"
       y="-0.043862626"
       height="1.0877253">
      <feGaussianBlur
         inkscape:collect="always"
         stdDeviation="8.4801079"
         id="feGaussianBlur4382" />
    </filter>
    <filter
       inkscape:collect="always"
       style="color-interpolation-filters:sRGB"
       id="filter4346"
       x="-0.013249796"
       width="1.0264996"
       y="-0.010965657"
       height="1.0219313">
      <feGaussianBlur
         inkscape:collect="always"
         stdDeviation="2.120027"
         id="feGaussianBlur4348" />
    </filter>
  </defs>
  <g
     id="Page-1"
     transform="matrix(0.73498866,-0.6780794,0.6780794,0.73498866,-14.01178,28.419604)"
     style="fill:none;fill-rule:evenodd;stroke:none;stroke-width:1">
    <g
       id="深度截图-64px" />
  </g>
  <g
     id="g4205"
     transform="matrix(1.0341006,0,0,1.0341006,90.076381,-97.781158)">
    <path
       transform="matrix(0,-0.12035683,0.12035684,0,-92.027588,162.08931)"
       sodipodi:nodetypes="scccssscsss"
       inkscape:connector-curvature="0"
       id="rect4158-9"
       d="M 189.84323,74 C 119.24979,74 111.65402,81.250835 112,151.98706 L 112,298 112,444.01294 C 111.65402,514.74917 119.24979,522 189.84323,522 l 228.31354,0 C 488.75021,522 494.0629,514.72348 496,444.01294 L 496,298 496,151.98706 C 496,81.249993 488.75021,74 418.15677,74 Z"
       style="color:#000000;display:inline;overflow:visible;visibility:visible;opacity:0.1;fill:#000000;fill-opacity:1;fill-rule:nonzero;stroke:none;stroke-width:2;marker:none;filter:url(#filter4346);enable-background:accumulate" />
    <path
       transform="matrix(0,-0.12035683,0.12035684,0,-92.027588,162.08931)"
       style="color:#000000;display:inline;overflow:visible;visibility:visible;opacity:0.3;fill:url(#linearGradient4358);fill-opacity:1;fill-rule:nonzero;stroke:none;stroke-width:2;marker:none;filter:url(#filter4380);enable-background:accumulate"
       d="M 189.84323,74 C 119.24979,74 111.65402,81.250835 112,151.98706 L 112,298 112,444.01294 C 111.65402,514.74917 119.24979,522 189.84323,522 l 228.31354,0 C 488.75021,522 496,514.75001 496,444.01294 L 496,298 496,151.98706 C 496,81.249993 488.75021,74 418.15677,74 Z"
       id="path4350"
       inkscape:connector-curvature="0"
       sodipodi:nodetypes="scccssscsss" />
    <path
       sodipodi:nodetypes="scccssscsss"
       inkscape:connector-curvature="0"
       id="rect4158"
       d="m -29.201318,111.52188 c 0,-8.4964 -0.872689,-9.41061 -9.386277,-9.36897 l -17.573653,0 -17.573658,0 c -8.51359,-0.0417 -9.386276,0.87257 -9.386276,9.36897 l 0,27.47909 c 0,8.4964 0.872587,9.36897 9.386276,9.36897 l 17.573658,0 17.573653,0 c 8.51369,0 9.386277,-0.87257 9.386277,-9.36897 z"
       style="color:#000000;display:inline;overflow:visible;visibility:visible;fill:url(#linearGradient4226);fill-opacity:1;fill-rule:nonzero;stroke:none;stroke-width:0.26458332;marker:none;enable-background:accumulate" />
    <path
       sodipodi:nodetypes="csscsscscsc"
       inkscape:connector-curvature="0"
       id="path1056"
       d="m -83.121003,138.51977 0,0.48143 c 0,8.4964 0.872264,9.36855 9.385954,9.36855 l 17.573982,0 17.573506,0 c 8.513689,0 9.386423,-0.87215 9.386423,-9.36855 l 0,-0.48143 c 0,8.49641 -0.872734,9.36855 -9.386423,9.36855 l -17.573506,0 -17.573982,0 c -8.51369,0 -9.385954,-0.87214 -9.385954,-9.36855 z"
       style="color:#000000;display:inline;overflow:visible;visibility:visible;opacity:0.2;fill:#000000;fill-opacity:1;fill-rule:nonzero;stroke:none;stroke-width:0.26458332;marker:none;enable-background:accumulate" />
    <path
       id="path923"
       d="m -73.735049,102.15273 c -8.513591,-0.0417 -9.385954,0.87263 -9.385954,9.36903 l 0,0.48143 c 0,-8.49641 0.872363,-9.41067 9.385954,-9.36903 l 17.573982,0 17.573506,0 c 8.513588,-0.0417 9.386423,0.87262 9.386423,9.36903 l 0,-0.48143 c 0,-8.4964 -0.872835,-9.41067 -9.386423,-9.36903 l -17.573506,0 z"
       style="color:#000000;display:inline;overflow:visible;visibility:visible;opacity:0.2;fill:#ffffff;fill-opacity:1;fill-rule:nonzero;stroke:none;stroke-width:0.26458332;marker:none;enable-background:accumulate"
       inkscape:connector-curvature="0" />
    <path
       style="color:#000000;display:inline;overflow:visible;visibility:visible;opacity:0.6;fill:#1a1a1a;fill-opacity:1;fill-rule:nonzero;stroke:none;stroke-width:4.2333312;marker:none;enable-background:accumulate"
       d="m -61.362269,119.18326 -10.204007,19.55748 9.575641,0 15.083967,0 -7.542109,-14.4556 -2.125796,4.07457 z"
       id="path4250"
       inkscape:connector-curvature="0"
       sodipodi:nodetypes="ccccccc" />
    <path
       inkscape:connector-curvature="0"
       id="path987"
       d="m -45.568548,111.78081 c -2.658842,0 -4.814274,2.15541 -4.814274,4.81428 0,2.65884 2.155432,4.81426 4.814274,4.81426 2.658836,0 4.814273,-2.15542 4.814273,-4.81426 0,-2.65887 -2.155422,-4.81428 -4.814273,-4.81428 z"
       style="color:#000000;display:inline;overflow:visible;visibility:visible;opacity:0.6;fill:#1a1a1a;fill-opacity:1;fill-rule:nonzero;stroke:none;stroke-width:4.2333312;marker:none;enable-background:accumulate"
       sodipodi:nodetypes="sssss" />
  </g>
</svg>
