<?xml version="1.0" encoding="UTF-8" standalone="no"?>
<svg
   xmlns:dc="http://purl.org/dc/elements/1.1/"
   xmlns:cc="http://creativecommons.org/ns#"
   xmlns:rdf="http://www.w3.org/1999/02/22-rdf-syntax-ns#"
   xmlns:svg="http://www.w3.org/2000/svg"
   xmlns="http://www.w3.org/2000/svg"
   xmlns:xlink="http://www.w3.org/1999/xlink"
   xmlns:sodipodi="http://sodipodi.sourceforge.net/DTD/sodipodi-0.dtd"
   xmlns:inkscape="http://www.inkscape.org/namespaces/inkscape"
   width="64"
   viewBox="0 0 64 64"
   height="64"
   id="svg2"
   version="1.1"
   inkscape:version="0.91 r13725"
   sodipodi:docname="video-x-flv.svg">
  <metadata
     id="metadata36">
    <rdf:RDF>
      <cc:Work
         rdf:about="">
        <dc:format>image/svg+xml</dc:format>
        <dc:type
           rdf:resource="http://purl.org/dc/dcmitype/StillImage" />
        <dc:title />
      </cc:Work>
    </rdf:RDF>
  </metadata>
  <sodipodi:namedview
     pagecolor="#ffffff"
     bordercolor="#666666"
     borderopacity="1"
     objecttolerance="10"
     gridtolerance="10"
     guidetolerance="10"
     inkscape:pageopacity="0"
     inkscape:pageshadow="2"
     inkscape:window-width="1366"
     inkscape:window-height="700"
     id="namedview34"
     showgrid="false"
     inkscape:zoom="7.375"
     inkscape:cx="15.691738"
     inkscape:cy="17.130188"
     inkscape:window-x="0"
     inkscape:window-y="0"
     inkscape:window-maximized="1"
     inkscape:current-layer="svg2"
     showguides="true"
     inkscape:guide-bbox="true" />
  <defs
     id="defs4">
    <linearGradient
       inkscape:collect="always"
       id="linearGradient4176">
      <stop
         style="stop-color:#dd4f37;stop-opacity:1"
         offset="0"
         id="stop4178" />
      <stop
         style="stop-color:#e55947;stop-opacity:1"
         offset="1"
         id="stop4180" />
    </linearGradient>
    <linearGradient
       id="a"
       y1="392.36"
       y2="324.66"
       gradientUnits="userSpaceOnUse"
       x2="0"
       gradientTransform="matrix(1,0,0,0.84587,-1,-272.73)">
      <stop
         stop-color="#ffffff"
         stop-opacity="0"
         id="stop7" />
      <stop
         offset="1"
         stop-color="#ffffff"
         stop-opacity=".2"
         id="stop9" />
    </linearGradient>
    <path
       color-rendering="auto"
       color-interpolation-filters="linearRGB"
       shape-rendering="auto"
       image-rendering="auto"
       text-rendering="auto"
       id="b"
       color-interpolation="sRGB"
       color="#000000"
       d="m3 17v44h58v-44h-18.455z" />
    <linearGradient
       inkscape:collect="always"
       xlink:href="#linearGradient4176"
       id="linearGradient4182"
       x1="-96.701233"
       y1="45.37854"
       x2="-96.701233"
       y2="-0.041882068"
       gradientUnits="userSpaceOnUse"
       gradientTransform="translate(125.03389,16.254239)" />
    <linearGradient
       id="a-3"
       y1="392.35999"
       y2="324.66"
       gradientUnits="userSpaceOnUse"
       x2="0"
       gradientTransform="matrix(1,0,0,0.84587,-1,-272.73)">
      <stop
         stop-color="#ffffff"
         stop-opacity="0"
         id="stop7-6" />
      <stop
         offset="1"
         stop-color="#ffffff"
         stop-opacity=".2"
         id="stop9-7" />
    </linearGradient>
    <linearGradient
       id="linearGradient4195"
       y1="392.35999"
       y2="324.66"
       gradientUnits="userSpaceOnUse"
       x2="0"
       gradientTransform="matrix(1,0,0,0.84587,-1,-272.73)">
      <stop
         stop-color="#ffffff"
         stop-opacity="0"
         id="stop4197" />
      <stop
         offset="1"
         stop-color="#ffffff"
         stop-opacity=".2"
         id="stop4199" />
    </linearGradient>
  </defs>
  <rect
     style="opacity:1;fill:url(#linearGradient4182);fill-opacity:1;stroke:none;stroke-width:3;stroke-miterlimit:4;stroke-dasharray:none;stroke-opacity:1"
     id="rect4174"
     width="58"
     height="44"
     x="3"
     y="17" />
  <g
     transform="translate(-0.27118657,0.05084817)"
     style="color:#000000;color-interpolation:sRGB;color-interpolation-filters:linearRGB;color-rendering:auto;image-rendering:auto;shape-rendering:auto;text-rendering:auto"
     id="g14">
    <rect
       style="opacity:0.25"
       x="3"
       y="60"
       width="58"
       height="1"
       id="rect16" />
  </g>
  <g
     style="fill:#ffffff"
     id="g18"
     transform="translate(-60,0)">
    <rect
       style="fill-opacity:0.41000001"
       id="rect20"
       height="1"
       y="17"
       x="63"
       width="58" />
    <g
       style="color:#000000;color-interpolation:sRGB;color-interpolation-filters:linearRGB;color-rendering:auto;image-rendering:auto;shape-rendering:auto;text-rendering:auto"
       id="g22">
      <path
         style="opacity:0.75"
         inkscape:connector-curvature="0"
         id="path24"
         d="m 115,19 0,4 4,0 0,-4 z m 0,6 0,4 4,0 0,-4 z m 0,6 0,4 4,0 0,-4 z m 0,6 0,4 4,0 0,-4 z m 0,6 0,4 4,0 0,-4 z m 0,6 0,4 4,0 0,-4 z m 0,6 0,4 4,0 0,-4 z" />
      <path
         style="opacity:0.75"
         inkscape:connector-curvature="0"
         id="path26"
         d="m 65,19 0,4 4,0 0,-4 z m 0,6 0,4 4,0 0,-4 z m 0,6 0,4 4,0 0,-4 z m 0,6 0,4 4,0 0,-4 z m 0,6 0,4 4,0 0,-4 z m 0,6 0,4 4,0 0,-4 z m 0,6 0,4 4,0 0,-4 z" />
    </g>
  </g>
  <path
     style="color:#000000;opacity:0.75;color-interpolation:sRGB;color-interpolation-filters:linearRGB;fill:#ffffff;color-rendering:auto;image-rendering:auto;shape-rendering:auto;text-rendering:auto"
     inkscape:connector-curvature="0"
     id="path30"
     d="m 39.616484,27.941876 0,4.426 c -4.519,0.077 -5.63,4.387 -5.63,4.387 l 3.409,0 0,4.426 -5.285,0 c -3.179,9.589 -10.494,8.735 -10.494,8.735 l 0,-4.426 c 0,0 4.642,0.842 7.01,-7.609 2.961,-10.571 10.991,-9.938 10.991,-9.938" />
</svg>
