<?xml version="1.0" encoding="UTF-8" standalone="no"?>
<svg id="svg2" xmlns:rdf="http://www.w3.org/1999/02/22-rdf-syntax-ns#" xmlns="http://www.w3.org/2000/svg" height="48" width="48" version="1.1" xmlns:cc="http://creativecommons.org/ns#" xmlns:dc="http://purl.org/dc/elements/1.1/">
 <metadata id="metadata25">
  <rdf:RDF>
   <cc:Work rdf:about="">
    <dc:format>image/svg+xml</dc:format>
    <dc:type rdf:resource="http://purl.org/dc/dcmitype/StillImage"/>
    <dc:title/>
   </cc:Work>
  </rdf:RDF>
 </metadata>
 <linearGradient id="a" y2="501.76" gradientUnits="userSpaceOnUse" y1="523.84" gradientTransform="matrix(1 0 0 .97651 -.000026 11.327)" x2="409.16" x1="411">
  <stop id="stop5" stop-color="#0068c9" offset="0"/>
  <stop id="stop7" stop-color="#3c99f3" offset="1"/>
 </linearGradient>
 <g id="g9" transform="translate(-384.57 -500.3)">
  <rect id="rect11" fill-opacity=".66667" ry="1.5624" height="33.201" width="44" y="508.2" x="386.57"/>
  <rect id="rect13" ry="1.5624" height="33.201" width="44" y="507.2" x="386.57" fill="url(#a)"/>
 </g>
 <g id="g15" stroke-width=".096476" fill="#fff" transform="translate(-384.57 -503.8)">
  <path id="path17" d="m404.32 524.78c-0.0483-0.046-0.11008-0.0689-0.18525-0.0689h-7.7359c-0.0752 0-0.13699 0.023-0.18535 0.0689-0.0483 0.046-0.0724 0.10474-0.0724 0.17635v0.49076c0 0.0715 0.0241 0.13034 0.0724 0.17627 0.0484 0.0459 0.11018 0.0689 0.18535 0.0689h7.7359c0.0752 0 0.13698-0.0231 0.18525-0.0689 0.0483-0.0459 0.0724-0.10474 0.0724-0.17627v-0.49076c0.00009-0.0716-0.024-0.13033-0.0724-0.17635z"/>
  <path id="path19" d="m391.94 517.53c-0.0537-0.051-0.11552-0.0767-0.18535-0.0767-0.0698 0-0.13155 0.0256-0.18525 0.0767l-0.40294 0.38339c-0.0537 0.0511-0.0805 0.10983-0.0805 0.17636 0 0.0666 0.0268 0.12525 0.0805 0.17636l3.167 3.0132-3.167 3.0133c-0.0537 0.0511-0.0805 0.10991-0.0805 0.17626 0 0.0666 0.0268 0.12525 0.0805 0.17635l0.40294 0.38329c0.0537 0.0512 0.11542 0.0766 0.18525 0.0766 0.0699 0 0.13165-0.0255 0.18535-0.0766l3.7552-3.5728c0.0537-0.0511 0.0805-0.11001 0.0805-0.17645 0-0.0665-0.0268-0.12525-0.0805-0.17636z"/>
 </g>
</svg>
